<?xml version="1.0" standalone="no"?>
<!DOCTYPE svg PUBLIC "-//W3C//DTD SVG 1.1//EN" "http://www.w3.org/Graphics/SVG/1.1/DTD/svg11.dtd" >
<svg>
<metadata>
Created by FontForge 20110222 at Mon Jun 10 18:20:17 2013
 By Orthosie Webhosting
Copyright 2006 - 2007 Monotype Imaging Inc. All rights reserved.
</metadata>
<defs>
<font id="SlateStdBoldItalic" horiz-adv-x="544" >
  <font-face 
    font-family="SlateStdBoldItalic"
    font-weight="700"
    font-style="italic"
    font-stretch="normal"
    units-per-em="1000"
    panose-1="2 0 8 6 5 0 0 9 0 4"
    ascent="654"
    descent="-346"
    x-height="476"
    cap-height="635"
    bbox="-175 -199 1125 867"
    underline-thickness="50"
    underline-position="-50"
    slope="-12"
    unicode-range="U+0020-FE6A"
  />
<missing-glyph horiz-adv-x="500" 
d="M12 0v665h475v-665h-475zM88 618l162 -243l161 243h-323zM60 575v-484l161 242zM440 575l-162 -242l162 -243v485zM411 48l-161 242l-162 -242h323z" />
    <glyph glyph-name="f_f" unicode="ff" horiz-adv-x="621" 
d="M398 642l-28 -95q-21 13 -54 13q-28 0 -40 -10q-16 -13 -19 -42l-4 -32h154l5 37q10 73 51 112q42 39 122 39q36 0 70.5 -8t46.5 -14l-28 -95q-21 13 -54 13q-28 0 -40 -10q-16 -13 -19 -42l-4 -32h100l-15 -108h-98l-48 -373q-12 -84 -43 -122q-38 -46 -123 -46
q-24 0 -47.5 5.5t-34.5 11.5l-11 6l35 101q23 -9 33 -9q18 0 26 8q10 10 15 42l49 376h-155l-48 -373q-12 -84 -43 -122q-38 -46 -123 -46q-24 0 -47.5 5.5t-34.5 11.5l-11 6l35 101q23 -9 33 -9q18 0 26 8q10 10 15 42l49 376h-63l15 108h61l4 37q7 70 51 112q42 39 122 39
q36 0 70.5 -8t46.5 -14z" />
    <glyph glyph-name="fi" unicode="fi" horiz-adv-x="564" 
d="M573 610q0 -37 -25 -60.5t-64 -23.5q-37 0 -58 19t-21 54q0 37 25 60.5t64 23.5q37 0 58 -19t21 -54zM547 476l-62 -476h-149l61 476h150zM398 642l-28 -95q-21 13 -54 13q-28 0 -40 -10q-16 -13 -19 -42l-4 -32h100l-15 -108h-98l-48 -373q-12 -84 -43 -122
q-38 -46 -123 -46q-24 0 -47.5 5.5t-34.5 11.5l-11 6l35 101q23 -9 33 -9q18 0 26 8q10 10 15 42l49 376h-63l15 108h61l4 37q7 70 51 112q42 39 122 39q36 0 70.5 -8t46.5 -14z" />
    <glyph glyph-name="fl" unicode="fl" horiz-adv-x="564" 
d="M571 654l-84 -654h-150l84 654h150zM398 642l-28 -95q-21 13 -54 13q-28 0 -40 -10q-16 -13 -19 -42l-4 -32h100l-15 -108h-98l-48 -373q-12 -84 -43 -122q-38 -46 -123 -46q-24 0 -47.5 5.5t-34.5 11.5l-11 6l35 101q23 -9 33 -9q18 0 26 8q10 10 15 42l49 376h-63
l15 108h61l4 37q7 70 51 112q42 39 122 39q36 0 70.5 -8t46.5 -14z" />
    <glyph glyph-name="f_f_i" unicode="ffi" horiz-adv-x="868" 
d="M398 642l-28 -95q-21 13 -54 13q-28 0 -40 -10q-16 -13 -19 -42l-4 -32h154l5 37q10 73 51 112q42 39 122 39q36 0 70.5 -8t46.5 -14l-28 -95q-21 13 -54 13q-28 0 -40 -10q-16 -13 -19 -42l-4 -32h100l-15 -108h-98l-48 -373q-12 -84 -43 -122q-38 -46 -123 -46
q-24 0 -47.5 5.5t-34.5 11.5l-11 6l35 101q23 -9 33 -9q18 0 26 8q10 10 15 42l49 376h-155l-48 -373q-12 -84 -43 -122q-38 -46 -123 -46q-24 0 -47.5 5.5t-34.5 11.5l-11 6l35 101q23 -9 33 -9q18 0 26 8q10 10 15 42l49 376h-63l15 108h61l4 37q7 70 51 112q42 39 122 39
q36 0 70.5 -8t46.5 -14zM877 610q0 -37 -25 -60.5t-64 -23.5q-37 0 -58 19t-21 54q0 37 25 60.5t64 23.5q37 0 58 -19t21 -54zM851 476l-62 -476h-149l61 476h150z" />
    <glyph glyph-name="f_f_l" unicode="ffl" horiz-adv-x="868" 
d="M398 642l-28 -95q-21 13 -54 13q-28 0 -40 -10q-16 -13 -19 -42l-4 -32h154l5 37q10 73 51 112q42 39 122 39q36 0 70.5 -8t46.5 -14l-28 -95q-21 13 -54 13q-28 0 -40 -10q-16 -13 -19 -42l-4 -32h100l-15 -108h-98l-48 -373q-12 -84 -43 -122q-38 -46 -123 -46
q-24 0 -47.5 5.5t-34.5 11.5l-11 6l35 101q23 -9 33 -9q18 0 26 8q10 10 15 42l49 376h-155l-48 -373q-12 -84 -43 -122q-38 -46 -123 -46q-24 0 -47.5 5.5t-34.5 11.5l-11 6l35 101q23 -9 33 -9q18 0 26 8q10 10 15 42l49 376h-63l15 108h61l4 37q7 70 51 112q42 39 122 39
q36 0 70.5 -8t46.5 -14zM875 654l-84 -654h-150l84 654h150z" />
    <glyph glyph-name=".notdef" horiz-adv-x="500" 
d="M12 0v665h475v-665h-475zM88 618l162 -243l161 243h-323zM60 575v-484l161 242zM440 575l-162 -242l162 -243v485zM411 48l-161 242l-162 -242h323z" />
    <glyph glyph-name=".null" horiz-adv-x="0" 
 />
    <glyph glyph-name="nonmarkingreturn" horiz-adv-x="333" 
 />
    <glyph glyph-name="space" unicode=" " horiz-adv-x="159" 
 />
    <glyph glyph-name="exclam" unicode="!" horiz-adv-x="292" 
d="M265 637l-77 -429h-113l35 429h155zM196 73q0 -37 -24.5 -60.5t-62.5 -23.5q-36 0 -56 19t-20 55q0 37 25 60.5t63 23.5q75 0 75 -74z" />
    <glyph glyph-name="quotedbl" unicode="&#x22;" horiz-adv-x="462" 
d="M433 649l-58 -257h-101l18 257h141zM242 649l-57 -257h-101l18 257h140z" />
    <glyph glyph-name="numbersign" unicode="#" 
d="M529 481l-13 -80h-88l-48 -152h86l-13 -81h-99l-54 -167h-85l54 167h-94l-54 -167h-85l54 167h-75l13 81h88l49 151h-86l13 81h99l54 167h85l-54 -167h94l53 167h85l-54 -167h75zM344 401h-94l-49 -152h94z" />
    <glyph glyph-name="dollar" unicode="$" 
d="M514 557l-65 -92q-47 44 -96 51l-20 -135l35 -17q121 -55 121 -162q0 -101 -89 -158q-53 -36 -126 -37l-13 -83h-82l13 85q-47 4 -97.5 31t-73.5 60l70 94q48 -56 121 -68l21 137l-18 8q-73 30 -104 70q-33 42 -33 101q0 87 64 138.5t149 51.5l9 58h82l-9 -62
q36 -4 78.5 -25t62.5 -46zM280 522q-29 0 -49 -15t-20 -41q0 -39 40 -57l11 -5zM358 178q0 37 -44 57l-10 5l-19 -120q35 0 54 16.5t19 41.5z" />
    <glyph glyph-name="percent" unicode="%" horiz-adv-x="817" 
d="M772 201q0 -90 -49.5 -151t-126.5 -61q-73 0 -111.5 45t-38.5 131q0 90 49.5 150.5t126.5 60.5q73 0 111.5 -44.5t38.5 -130.5zM667 615l-460 -628l-56 43l460 628zM372 480q0 -90 -50 -151t-127 -61q-73 0 -111.5 45.5t-38.5 130.5q0 90 49.5 151t126.5 61q73 0 112 -45
t39 -131zM670 202q0 90 -53 90q-35 0 -52 -38t-17 -89q0 -89 52 -89q32 0 51 38.5t19 87.5zM269 482q0 89 -52 89q-35 0 -52.5 -38t-17.5 -89q0 -89 53 -89q32 0 50.5 38.5t18.5 88.5z" />
    <glyph glyph-name="ampersand" unicode="&#x26;" horiz-adv-x="664" 
d="M628 320q-15 -41 -49 -99q-28 -45 -62 -80l111 -141h-174l-40 53q-28 -20 -45 -30t-59 -22t-91 -12q-84 0 -138.5 46.5t-54.5 128.5q0 111 138 180l19 10l-5 7q-49 63 -49 121q0 77 60 120t144 43q78 0 128.5 -40t50.5 -105q0 -94 -108 -156l-28 -15l73 -99q20 25 40 58
q19 33 38 78zM388 499q0 24 -15.5 39t-43.5 15t-44.5 -17t-16.5 -41q0 -29 30 -65l18 -23l22 14q50 35 50 78zM346 142l-103 136l-15 -10q-55 -37 -55 -85q0 -35 22 -55.5t57 -20.5q31 0 58.5 12.5t35.5 22.5z" />
    <glyph glyph-name="quotesingle" unicode="'" horiz-adv-x="271" 
d="M242 649l-57 -257h-101l18 257h140z" />
    <glyph glyph-name="parenleft" unicode="(" horiz-adv-x="345" 
d="M282 718l64 -62q-91 -91 -142 -207t-51 -244q0 -74 18 -139.5t34 -95t42 -68.5l-78 -61q-145 152 -145 369q0 294 258 508z" />
    <glyph glyph-name="parenright" unicode=")" horiz-adv-x="345" 
d="M330 349q0 -294 -258 -508l-64 62q91 91 142 207t51 244q0 74 -18 139.5t-34 95t-42 68.5l78 61q145 -152 145 -369z" />
    <glyph glyph-name="asterisk" unicode="*" horiz-adv-x="409" 
d="M389 497l-115 -32l62 -87l-67 -52l-52 98l-76 -98l-56 58l83 81l-101 33l35 77l95 -45l6 113h83l-21 -113l98 43z" />
    <glyph glyph-name="plus" unicode="+" 
d="M491 366l-15 -108h-156l-23 -180h-109l23 180h-157l15 108h156l23 181h109l-23 -181h157z" />
    <glyph glyph-name="comma" unicode="," horiz-adv-x="272" 
d="M99 167l117 -40q-7 -62 -53.5 -133t-107.5 -111l-84 46q109 104 128 238z" />
    <glyph glyph-name="hyphen" unicode="-" horiz-adv-x="313" 
d="M289 292l-17 -104h-248l17 104h248z" />
    <glyph glyph-name="period" unicode="." horiz-adv-x="272" 
d="M193 76q0 -37 -25 -61.5t-63 -24.5q-36 0 -55.5 20t-19.5 56q0 37 24.5 61.5t62.5 24.5q36 0 56 -20t20 -56z" />
    <glyph glyph-name="slash" unicode="/" horiz-adv-x="501" 
d="M514 662l-454 -772l-72 45l454 772z" />
    <glyph glyph-name="zero" unicode="0" 
d="M514 390q0 -105 -29.5 -194t-94 -148t-152.5 -59q-207 0 -207 255q0 78 17.5 149t51 128t87 90.5t120.5 33.5q207 0 207 -255zM369 392q0 133 -72 133q-30 0 -54 -28.5t-38 -72t-21.5 -90.5t-7.5 -89q0 -134 73 -134q30 0 54 28.5t38 72.5t21 91t7 89z" />
    <glyph glyph-name="one" unicode="1" 
d="M419 636l-82 -636h-150l61 468q-49 -27 -98 -37l-27 107q41 9 91 32q65 32 87 66h118z" />
    <glyph glyph-name="two" unicode="2" 
d="M494 468q0 -29 -9.5 -57.5t-21.5 -48t-33 -41.5t-33 -32t-34 -26.5t-24 -17.5q-112 -85 -133 -123h271l-15 -122h-459q7 50 27 94.5t53 83t54.5 60t58.5 52.5q15 13 51.5 42t53 43.5t32.5 37t16 41.5q0 37 -25.5 55t-66.5 18q-36 0 -73.5 -20.5t-61.5 -49.5l-71 93
q97 95 231 95q88 0 150 -45.5t62 -131.5z" />
    <glyph glyph-name="three" unicode="3" 
d="M493 483q0 -36 -14.5 -65.5t-36 -46t-41.5 -26t-36 -11.5q48 -13 76.5 -51.5t28.5 -92.5q0 -93 -82 -152q-66 -49 -170 -49q-134 0 -218 101l77 90q23 -29 61.5 -50t78.5 -21q46 0 77 22.5t31 63.5t-25 61t-67 20h-60l15 112h63q43 0 70.5 20t27.5 52t-23 51.5t-67 19.5
q-40 0 -74.5 -17t-51.5 -35l-58 93q3 3 9 8t26.5 17.5t42.5 22t56 17.5t69 8q96 0 155.5 -43.5t59.5 -118.5z" />
    <glyph glyph-name="four" unicode="4" 
d="M522 245l-15 -113h-70l-18 -132h-150l18 132h-284l16 122l313 381h169l-50 -390h71zM335 502l-203 -257h170z" />
    <glyph glyph-name="five" unicode="5" 
d="M516 635l-15 -119h-243l-33 -116q25 15 85 15q26 0 54.5 -9t59.5 -29t50.5 -60t19.5 -93q0 -109 -75.5 -171.5t-181.5 -62.5q-146 0 -227 95l77 92q20 -25 59 -46.5t81 -21.5q50 0 86 27.5t36 75.5t-29 72.5t-72 24.5q-59 0 -98 -39l-80 40l88 325h358z" />
    <glyph glyph-name="six" unicode="6" 
d="M517 590l-57 -99q-4 5 -17 13t-42 17.5t-61 9.5q-55 0 -93 -38q-49 -49 -57 -129q58 45 138 45q31 0 59.5 -9.5t55 -29.5t42.5 -57t16 -86q0 -111 -70 -174.5t-178 -63.5q-102 0 -158.5 71t-56.5 185q0 104 27 184.5t68 125.5q82 90 209 90q108 0 175 -55zM356 215
q0 42 -22.5 65t-56.5 23q-29 0 -56.5 -16t-41.5 -37q-2 -18 -2 -36q0 -49 21.5 -79t62.5 -30q42 0 68.5 30.5t26.5 79.5z" />
    <glyph glyph-name="seven" unicode="7" 
d="M521 635l-17 -116l-305 -519h-159l314 515h-295l18 120h444z" />
    <glyph glyph-name="eight" unicode="8" 
d="M517 485q0 -52 -36 -91t-83 -55q39 -16 68 -53.5t29 -93.5q0 -96 -73.5 -149.5t-173.5 -53.5q-98 0 -160.5 43t-62.5 129q0 66 41.5 109t91.5 58q-79 38 -79 132q0 84 68 134.5t165 50.5q94 0 149.5 -42t55.5 -118zM376 471q0 33 -20.5 51t-54.5 18t-58 -21t-24 -53
q0 -29 18 -47.5t44 -25.5l20 -6l27 13q48 25 48 71zM355 187q0 57 -73 83l-29 11l-18 -8q-66 -30 -66 -93q0 -34 25.5 -56.5t65.5 -22.5q39 0 67 25t28 61z" />
    <glyph glyph-name="nine" unicode="9" 
d="M506 390q0 -195 -91 -305q-80 -96 -210 -96q-113 0 -181 59l58 97q5 -5 18.5 -13t43 -18t60.5 -10q55 0 94 39q46 45 55 127q-59 -44 -137 -44q-69 0 -121 44t-52 138q0 105 67.5 171t180.5 66q73 0 123.5 -38t71 -93.5t20.5 -123.5zM367 425q0 48 -21.5 78t-62.5 30
q-43 0 -69.5 -30t-26.5 -79q0 -42 23 -65t57 -23q29 0 56.5 16.5t41.5 35.5q2 20 2 37z" />
    <glyph glyph-name="colon" unicode=":" horiz-adv-x="272" 
d="M235 391q0 -38 -24.5 -62.5t-62.5 -24.5q-36 0 -56 20t-20 56q0 38 25 62t63 24q36 0 55.5 -20t19.5 -55zM193 75q0 -37 -25 -61.5t-63 -24.5q-36 0 -55.5 20t-19.5 56q0 37 24.5 61.5t62.5 24.5q36 0 56 -20t20 -56z" />
    <glyph glyph-name="semicolon" unicode=";" horiz-adv-x="272" 
d="M237 391q0 -38 -24.5 -62.5t-62.5 -24.5q-36 0 -56 20t-20 56q0 38 25 62t63 24q36 0 55.5 -20t19.5 -55zM216 127q-7 -62 -53.5 -133t-107.5 -111l-84 46q109 104 128 238z" />
    <glyph glyph-name="less" unicode="&#x3c;" 
d="M508 551l-17 -132l-307 -111l279 -111l-17 -123l-399 184l15 108z" />
    <glyph glyph-name="equal" unicode="=" 
d="M505 477l-15 -108h-422l15 108h422zM477 256l-15 -109h-422l15 109h422z" />
    <glyph glyph-name="greater" unicode="&#x3e;" 
d="M496 367l-14 -108l-446 -185l16 132l307 111l-278 110l17 124z" />
    <glyph glyph-name="question" unicode="?" horiz-adv-x="438" 
d="M439 491q0 -26 -7 -48.5t-15 -36.5t-25.5 -31t-25 -22.5t-27.5 -19.5l-67 -49q-17 -12 -25 -24q-5 -9 -8 -30l-3 -21h-122l2 32q2 44 14 70q14 27 48 50l68 46q18 12 26 19t16 19t8 26q0 51 -75 51q-69 0 -126 -50l-53 102q9 9 30.5 23.5t69.5 31t100 16.5
q86 0 141.5 -43.5t55.5 -110.5zM238 74q0 -38 -24.5 -61.5t-62.5 -23.5q-36 0 -56 19t-20 55q0 38 24.5 61.5t62.5 23.5q36 0 56 -19t20 -55z" />
    <glyph glyph-name="at" unicode="@" horiz-adv-x="800" 
d="M750 296q0 -123 -71 -201q-57 -63 -139 -63q-41 0 -66 20.5t-29 47.5q-8 -12 -19.5 -24t-38.5 -25.5t-57 -13.5q-50 0 -82.5 37t-32.5 104q0 117 78 192q49 48 113 48q30 0 53.5 -10.5t31.5 -19t11 -14.5l22 34h76l-70 -224q-7 -23 -7 -42q0 -40 37 -40q45 0 82.5 53.5
t37.5 138.5q0 98 -69.5 163t-183.5 65q-130 0 -216 -91t-86 -226q0 -129 74 -197t190 -68q56 0 109.5 10.5t78.5 21.5l25 10l20 -53q-4 -4 -28.5 -15.5t-85.5 -25.5t-131 -14q-143 0 -235 89.5t-92 248.5q0 161 111 269t264 108q163 0 251 -100q74 -81 74 -193zM478 305
q-2 8 -7 16t-20 17.5t-34 9.5q-37 0 -66 -34q-45 -52 -45 -131q0 -68 52 -68q25 0 50 23.5t35 54.5z" />
    <glyph glyph-name="A" unicode="A" horiz-adv-x="575" 
d="M541 0h-158l-20 122h-209l-51 -122h-148l285 635h182zM347 241l-41 251l-105 -251h146z" />
    <glyph glyph-name="B" unicode="B" horiz-adv-x="569" 
d="M536 489q0 -57 -38 -101q-33 -37 -84 -49q45 -7 77 -37q41 -37 41 -105q0 -91 -67 -146q-63 -51 -184 -51h-259l81 635h239q84 0 131 -29q63 -39 63 -117zM381 459q0 33 -21 49q-17 12 -49 12h-69l-17 -139h69q38 0 60 18q27 21 27 60zM376 204q0 38 -25 58
q-23 16 -60 16h-80l-21 -164h81q45 0 72 20q33 22 33 70z" />
    <glyph glyph-name="C" unicode="C" horiz-adv-x="574" 
d="M581 509l-102 -79q-1 3 -3.5 9t-12.5 20.5t-23.5 26t-38 20.5t-53.5 9q-75 0 -120 -69t-45 -161q0 -81 36 -120t93 -39q46 0 86 27t61 56l82 -95q-94 -125 -253 -125q-52 0 -97 15t-82 47t-58.5 88.5t-21.5 132.5q0 162 89.5 267.5t227.5 105.5q52 0 95 -14t68 -33
t42 -39.5t23.5 -33.5t6.5 -16z" />
    <glyph glyph-name="D" unicode="D" horiz-adv-x="627" 
d="M598 359q0 -182 -110 -277q-94 -82 -250 -82h-216l81 635h221q123 0 193 -62q81 -71 81 -214zM443 359q0 86 -38 122q-33 33 -103 33h-60l-50 -389h60q87 0 138 59q53 62 53 175z" />
    <glyph glyph-name="E" unicode="E" horiz-adv-x="517" 
d="M507 635l-16 -121h-249l-16 -125h233l-16 -123h-233l-18 -141h259l-16 -125h-413l81 635h404z" />
    <glyph glyph-name="F" unicode="F" horiz-adv-x="485" 
d="M492 635l-16 -121h-234l-19 -146h218l-16 -124h-218l-31 -244h-154l81 635h389z" />
    <glyph glyph-name="G" unicode="G" horiz-adv-x="633" 
d="M592 356l-46 -356h-96l-8 54q-61 -65 -172 -65q-53 0 -100 21.5t-76 55.5q-65 75 -65 204q0 170 94 275q90 100 224 100q90 0 149 -37.5t84 -82.5l-105 -80q-49 73 -125 73q-72 0 -120 -68q-47 -66 -47 -160q0 -85 32 -125q35 -43 90 -43q77 0 120 48l10 72h-103l16 114
h244z" />
    <glyph glyph-name="H" unicode="H" horiz-adv-x="648" 
d="M625 635l-82 -635h-154l34 266h-213l-34 -266h-154l81 635h155l-32 -244h213l32 244h154z" />
    <glyph glyph-name="I" unicode="I" horiz-adv-x="281" 
d="M258 635l-82 -635h-154l81 635h155z" />
    <glyph glyph-name="J" unicode="J" horiz-adv-x="287" 
d="M265 635l-80 -617q-14 -104 -69 -150q-49 -41 -129 -41q-25 0 -49.5 5.5t-36.5 11.5l-12 6l33 104q17 -10 52 -10q28 0 40 20t17 60l80 611h154z" />
    <glyph glyph-name="K" unicode="K" horiz-adv-x="580" 
d="M612 635l-245 -266l169 -369h-174l-106 248l-56 -61l-24 -187h-154l81 635h155l-32 -247l210 247h176z" />
    <glyph glyph-name="L" unicode="L" horiz-adv-x="449" 
d="M421 125l-16 -125h-383l81 635h155l-66 -510h229z" />
    <glyph glyph-name="M" unicode="M" horiz-adv-x="772" 
d="M743 635l-60 -635h-144l47 427l-171 -427h-139l-62 427l-63 -427h-140l107 635h191l63 -451l180 451h191z" />
    <glyph glyph-name="N" unicode="N" horiz-adv-x="644" 
d="M621 635l-82 -635h-151l-169 410l-51 -410h-146l81 635h158l164 -395l50 395h146z" />
    <glyph glyph-name="O" unicode="O" horiz-adv-x="659" 
d="M630 371q0 -164 -91.5 -273t-245.5 -109q-124 0 -194.5 71.5t-70.5 203.5q0 164 91.5 272.5t245.5 108.5q124 0 194.5 -71t70.5 -203zM475 364q0 69 -31.5 111.5t-93.5 42.5q-70 0 -118.5 -68t-48.5 -173q0 -69 31.5 -111.5t93.5 -42.5q70 0 118.5 68t48.5 173z" />
    <glyph glyph-name="P" unicode="P" horiz-adv-x="551" 
d="M533 453q0 -124 -74 -185q-69 -58 -197 -58h-59l-27 -210h-154l81 635h216q97 0 152 -41q62 -46 62 -141zM383 430q0 46 -25 68q-23 20 -65 20h-51l-24 -190h57q45 0 75 25q33 30 33 77z" />
    <glyph glyph-name="Q" unicode="Q" horiz-adv-x="659" 
d="M630 371q0 -74 -18.5 -137t-47 -101.5t-52.5 -61t-44 -32.5q0 -26 17 -50.5t40 -39.5l-127 -87q-33 15 -54.5 52.5t-21.5 77.5q-15 -3 -29 -3q-124 0 -194.5 71.5t-70.5 203.5q0 164 91.5 272.5t245.5 108.5q124 0 194.5 -71t70.5 -203zM475 364q0 69 -31.5 111.5
t-93.5 42.5q-70 0 -118.5 -68t-48.5 -173q0 -69 31.5 -111.5t93.5 -42.5q70 0 118.5 68t48.5 173z" />
    <glyph glyph-name="R" unicode="R" horiz-adv-x="574" 
d="M545 452q0 -72 -37 -123.5t-99 -70.5l118 -258h-171l-97 235h-53l-30 -235h-154l81 635h234q97 0 152.5 -46t55.5 -137zM396 440q0 39 -22 59q-20 19 -58 19h-74l-21 -169h75q40 0 68 22q32 26 32 69z" />
    <glyph glyph-name="S" unicode="S" horiz-adv-x="515" 
d="M512 555l-72 -105q-31 31 -67 48q-50 23 -92 23q-35 0 -56 -13.5t-21 -36.5q0 -14 9 -25.5t16.5 -16.5t23.5 -14q10 -5 50.5 -24.5t58.5 -28.5q48 -26 74 -56q40 -46 40 -111q0 -86 -68 -146q-70 -60 -178 -60q-91 0 -160 40q-50 28 -80 68l78 99q20 -25 62 -49
q54 -30 103 -30q40 0 62.5 16t22.5 41q0 15 -9 27t-16.5 17t-24.5 14q-10 5 -47 22.5t-53 26.5q-47 26 -68 47q-49 49 -49 122q0 102 92 160q58 35 136 35q69 0 128 -22q66 -26 105 -68z" />
    <glyph glyph-name="T" unicode="T" horiz-adv-x="488" 
d="M520 635l-16 -120h-159l-66 -515h-154l66 515h-160l16 120h473z" />
    <glyph glyph-name="U" unicode="U" horiz-adv-x="627" 
d="M606 635l-49 -386q-17 -129 -80 -191q-71 -69 -206 -69q-113 0 -170 57q-51 51 -51 155q0 16 6 70l46 364h154l-49 -389q-2 -17 -2 -35q0 -29 9 -48q19 -36 77 -36q57 0 84 36q20 26 28 83l49 389h154z" />
    <glyph glyph-name="V" unicode="V" horiz-adv-x="545" 
d="M599 635l-281 -635h-176l-114 635h159l69 -460l185 460h158z" />
    <glyph glyph-name="W" unicode="W" horiz-adv-x="824" 
d="M865 635l-235 -635h-163l-39 445l-156 -445h-163l-70 635h155l34 -444l144 444h160l32 -444l146 444h155z" />
    <glyph glyph-name="X" unicode="X" horiz-adv-x="597" 
d="M621 635l-221 -308l156 -327h-177l-89 224l-147 -224h-177l244 327l-144 308h173l78 -206l130 206h174z" />
    <glyph glyph-name="Y" unicode="Y" horiz-adv-x="521" 
d="M579 635l-249 -380l-33 -255h-154l33 255l-152 380h163l81 -259l148 259h163z" />
    <glyph glyph-name="Z" unicode="Z" horiz-adv-x="560" 
d="M560 635l-15 -114l-337 -397h303l-16 -124h-495l14 112l346 403h-288l15 120h473z" />
    <glyph glyph-name="bracketleft" unicode="[" horiz-adv-x="345" 
d="M345 686l-11 -81h-110l-85 -662h111l-10 -81h-228l106 824h227z" />
    <glyph glyph-name="backslash" unicode="\" horiz-adv-x="388" 
d="M362 -72l-88 -32l-250 774l88 32z" />
    <glyph glyph-name="bracketright" unicode="]" horiz-adv-x="345" 
d="M333 686l-106 -824h-227l11 81h110l85 662h-111l11 81h227z" />
    <glyph glyph-name="asciicircum" unicode="^" 
d="M484 318h-126l-61 206l-116 -206h-125l197 317h119z" />
    <glyph glyph-name="underscore" unicode="_" 
d="M520 -75l-9 -65h-519l9 65h519z" />
    <glyph glyph-name="grave" unicode="`" horiz-adv-x="427" 
d="M313 531h-107l-89 131h142z" />
    <glyph glyph-name="a" unicode="a" horiz-adv-x="551" 
d="M534 476l-61 -476h-140v64q-2 -3 -5.5 -8t-16.5 -18t-28 -23t-40 -18t-52 -8q-77 0 -121.5 54.5t-44.5 155.5q0 116 63.5 202t166.5 86q27 0 49 -7.5t35 -18t22 -21t13 -18.5l3 -7l18 61h139zM358 270q0 46 -19 73t-54 27q-47 0 -77.5 -47t-30.5 -115q0 -46 18.5 -73
t54.5 -27q47 0 77.5 47t30.5 115z" />
    <glyph glyph-name="b" unicode="b" horiz-adv-x="553" 
d="M528 277q0 -116 -63.5 -202t-166.5 -86q-27 0 -49.5 7t-35.5 17.5t-22.5 21t-12.5 17.5l-4 7l-17 -59h-140l85 654h150l-32 -239q2 3 5.5 8t16.5 17t28 21.5t40 17.5t52 8q77 0 121.5 -54.5t44.5 -155.5zM376 270q0 46 -19 73t-54 27q-47 0 -78 -47t-31 -115
q0 -46 18.5 -73t54.5 -27q47 0 78 47t31 115z" />
    <glyph glyph-name="c" unicode="c" horiz-adv-x="445" 
d="M459 402l-71 -86l-4 5q-5 5 -8 7.5t-9 8t-11.5 8.5t-13.5 7.5t-16 7t-18 4.5t-20 2q-51 0 -83.5 -35.5t-32.5 -104.5q0 -54 26 -83t67 -29q13 0 25 2t22.5 5.5t19 8t15.5 9t11.5 7.5t7.5 6l4 3l55 -97q-19 -23 -68 -46t-117 -23q-88 0 -151.5 57t-63.5 169q0 126 74 199
t176 73q122 0 184 -85z" />
    <glyph glyph-name="d" unicode="d" horiz-adv-x="553" 
d="M559 654l-85 -654h-140v64q-2 -3 -5.5 -8t-16.5 -18t-27.5 -23t-39.5 -18t-52 -8q-77 0 -122.5 54t-45.5 156q0 116 63.5 202t166.5 86q27 0 49.5 -7t35.5 -17.5t22 -21t12 -17.5l4 -7l31 237h150zM359 270q0 46 -19 73t-54 27q-47 0 -78 -47t-31 -115q0 -46 18.5 -73
t54.5 -27q47 0 78 47t31 115z" />
    <glyph glyph-name="e" unicode="e" horiz-adv-x="481" 
d="M468 346q0 -88 -98 -135q-76 -38 -197 -38q0 -30 22 -51t66 -21q41 0 79 17t55 31l48 -88q-32 -32 -87.5 -52t-123.5 -20q-38 0 -72.5 10.5t-66 34t-50 67.5t-18.5 104q0 123 76.5 202.5t183.5 79.5q93 0 138 -40.5t45 -100.5zM328 340q0 22 -14.5 34t-37.5 12
q-31 0 -61.5 -28t-38.5 -92q45 0 92 14q60 18 60 60z" />
    <glyph glyph-name="f" unicode="f" horiz-adv-x="317" 
d="M398 642l-28 -95q-21 13 -54 13q-28 0 -40 -10q-16 -13 -19 -42l-4 -32h100l-15 -108h-98l-48 -373q-12 -84 -43 -122q-38 -46 -123 -46q-24 0 -47.5 5.5t-34.5 11.5l-11 6l35 101q23 -9 33 -9q18 0 26 8q10 10 15 42l49 376h-63l15 108h61l4 37q7 70 51 112
q42 39 122 39q36 0 70.5 -8t46.5 -14z" />
    <glyph glyph-name="g" unicode="g" horiz-adv-x="553" 
d="M536 476l-51 -387q-8 -65 -23 -108.5t-50 -80.5q-72 -73 -207 -73q-58 0 -115 19.5t-89 45.5l59 99q74 -49 147 -49q61 0 91 33q24 28 34 90l4 25q-47 -70 -138 -70q-74 0 -123.5 47.5t-49.5 147.5q0 110 64.5 191t162.5 81q28 0 51.5 -7t36.5 -17.5t22 -21t12 -17.5
l4 -7l18 59h140zM359 279q0 42 -19.5 66.5t-53.5 24.5q-52 0 -80.5 -43t-28.5 -98q0 -42 19 -66.5t54 -24.5q52 0 80.5 43t28.5 98z" />
    <glyph glyph-name="h" unicode="h" horiz-adv-x="537" 
d="M503 358q0 -21 -8 -88l-34 -270h-150l36 275q2 16 2 21q0 62 -57 62q-31 0 -53.5 -23t-34.5 -54l-37 -281h-150l85 654h150l-33 -244q59 77 151 77q63 0 98 -35t35 -94z" />
    <glyph glyph-name="i" unicode="i" horiz-adv-x="245" 
d="M254 610q0 -37 -24.5 -60.5t-64.5 -23.5q-37 0 -57.5 19t-20.5 54q0 37 24.5 60.5t64.5 23.5q37 0 57.5 -19t20.5 -54zM228 476l-61 -476h-150l62 476h149z" />
    <glyph glyph-name="j" unicode="j" horiz-adv-x="250" 
d="M259 610q0 -37 -24.5 -60.5t-64.5 -23.5q-37 0 -57.5 19t-20.5 54q0 37 24.5 60.5t64.5 23.5q37 0 57.5 -19t20.5 -54zM233 476l-61 -477q-13 -90 -48 -127q-42 -45 -123 -45q-23 0 -46.5 5t-34.5 10l-12 5l30 105q17 -10 39 -10q19 0 30 14q12 16 17 55l60 465h149z" />
    <glyph glyph-name="k" unicode="k" horiz-adv-x="504" 
d="M539 476l-194 -187l130 -289h-163l-75 183l-53 -51l-17 -132h-150l85 654h150l-46 -347l160 169h173z" />
    <glyph glyph-name="l" unicode="l" horiz-adv-x="245" 
d="M252 654l-85 -654h-150l85 654h150z" />
    <glyph glyph-name="m" unicode="m" horiz-adv-x="799" 
d="M765 358q0 -30 -7 -88l-35 -270h-150l36 275q2 16 2 22q0 61 -50 61q-28 0 -48.5 -23t-31.5 -54l-36 -281h-150l36 275q2 16 2 22q0 61 -50 61q-28 0 -48.5 -23t-31.5 -54l-36 -281h-150l62 476h139v-66q20 29 58 53t92 24q53 0 83.5 -24.5t38.5 -52.5q60 77 153 77
q58 0 90 -35.5t32 -93.5z" />
    <glyph glyph-name="n" unicode="n" horiz-adv-x="537" 
d="M503 358q0 -21 -8 -88l-34 -270h-150l36 275q2 16 2 22q0 61 -57 61q-31 0 -53.5 -23t-34.5 -54l-37 -281h-150l62 476h139v-66q57 77 152 77q64 0 98.5 -35.5t34.5 -93.5z" />
    <glyph glyph-name="o" unicode="o" horiz-adv-x="533" 
d="M509 274q0 -126 -73.5 -205.5t-194.5 -79.5q-106 0 -161 56t-55 157q0 126 73.5 205.5t194.5 79.5q105 0 160.5 -56t55.5 -157zM357 270q0 104 -75 104q-49 0 -77.5 -49t-28.5 -117q0 -105 76 -105q48 0 76.5 49.5t28.5 117.5z" />
    <glyph glyph-name="p" unicode="p" horiz-adv-x="553" 
d="M529 277q0 -116 -63.5 -202t-166.5 -86q-27 0 -49.5 7t-35.5 17.5t-22 21t-12 17.5l-4 7l-28 -223h-150l82 640h139v-61q2 3 5.5 8t17 17t28.5 21.5t40.5 17.5t52.5 8q77 0 121.5 -54.5t44.5 -155.5zM377 270q0 46 -19 73t-54 27q-47 0 -78 -47t-31 -115q0 -46 18.5 -73
t54.5 -27q47 0 78 47t31 115z" />
    <glyph glyph-name="q" unicode="q" horiz-adv-x="553" 
d="M536 476l-83 -640h-150l30 226q-2 -3 -5.5 -8t-16 -17.5t-27.5 -22t-39.5 -17.5t-51.5 -8q-77 0 -122.5 54t-45.5 156q0 116 63.5 202t166.5 86q27 0 49.5 -7t35.5 -17.5t22 -21t12 -17.5l4 -7l18 59h140zM359 270q0 46 -19 73t-54 27q-47 0 -78 -47t-31 -115
q0 -46 18.5 -73t54.5 -27q47 0 78 47t31 115z" />
    <glyph glyph-name="r" unicode="r" horiz-adv-x="370" 
d="M391 471l-33 -139q-21 10 -48 10q-38 0 -67 -28q-25 -24 -45 -74l-31 -240h-150l62 476h139v-74q19 38 50.5 61.5t66.5 23.5q19 0 33 -4t18 -8z" />
    <glyph glyph-name="s" unicode="s" horiz-adv-x="430" 
d="M428 412l-62 -87q-23 23 -59 38q-44 18 -77 18q-48 0 -48 -29q0 -21 43 -39q9 -4 29.5 -13t29.5 -13q39 -17 61 -34q54 -41 54 -105q0 -75 -60 -119q-52 -40 -135 -40q-76 0 -141 34q-48 27 -71 55l69 88q26 -28 66 -47q47 -21 84 -21q48 0 48 32q0 18 -44 39
q-8 3 -34 14t-34 15q-33 15 -52 30q-53 41 -53 107q0 85 78 126q48 25 111 25q58 0 110 -21q57 -23 87 -53z" />
    <glyph glyph-name="t" unicode="t" horiz-adv-x="344" 
d="M362 476l-15 -107h-106l-22 -164q-6 -50 -6 -62q0 -35 38 -35q13 0 27.5 2t21.5 4l8 2v-107q-50 -20 -125 -20q-63 0 -96 34q-28 31 -28 77q0 30 8 90l25 179h-62l14 107h62l33 118h132l-16 -118h107z" />
    <glyph glyph-name="u" unicode="u" horiz-adv-x="530" 
d="M513 476l-62 -476h-139v65q-61 -76 -152 -76q-62 0 -93 40.5t-31 95.5q0 43 9 110l31 241h150l-36 -276q-2 -18 -2 -23q0 -57 56 -57q28 0 51 24.5t32 52.5l36 279h150z" />
    <glyph glyph-name="v" unicode="v" horiz-adv-x="476" 
d="M514 476l-232 -476h-154l-107 476h154l49 -324l137 324h153z" />
    <glyph glyph-name="w" unicode="w" horiz-adv-x="705" 
d="M734 476l-188 -476h-148l-40 303l-120 -303h-148l-65 476h148l25 -312l113 312h137l36 -312l102 312h148z" />
    <glyph glyph-name="x" unicode="x" horiz-adv-x="477" 
d="M503 476l-173 -234l122 -242h-162l-62 162l-104 -162h-160l186 242l-116 234h161l56 -154l92 154h160z" />
    <glyph glyph-name="y" unicode="y" horiz-adv-x="485" 
d="M519 476l-243 -498q-39 -81 -76 -116t-100 -35q-66 0 -116 29l42 107q27 -14 47 -14q34 0 45 33l12 33l-104 461h154l49 -324l137 324h153z" />
    <glyph glyph-name="z" unicode="z" horiz-adv-x="447" 
d="M453 476l-14 -104l-245 -260h222l-15 -112h-404l14 100l253 268h-211l15 108h385z" />
    <glyph glyph-name="braceleft" unicode="{" horiz-adv-x="345" 
d="M348 609l-57 -7q-30 -4 -39 -19t-16 -53q-1 -6 -2 -9l-24 -139q-9 -51 -31 -79t-67 -35l-1 -3q71 -11 71 -90q0 -3 -0.5 -9t-0.5 -9l-12 -151q0 -3 -0.5 -7.5t-0.5 -6.5q0 -31 13 -43t41 -17l40 -7l-18 -78l-98 10q-96 11 -96 114q0 3 0.5 8t0.5 7l12 161q0 3 0.5 9
t0.5 8q0 27 -9 40t-33 13l-19 -1l16 101h19q47 0 61 85l25 146q20 120 115 129l103 10z" />
    <glyph glyph-name="bar" unicode="|" horiz-adv-x="355" 
d="M236 -137h-117v823h117v-823z" />
    <glyph glyph-name="braceright" unicode="}" horiz-adv-x="345" 
d="M341 317l-15 -101h-20q-27 0 -40.5 -21.5t-20.5 -62.5l-24 -146q-20 -121 -116 -130l-103 -9l-5 77l56 8q17 2 27 7.5t16 18.5t8 22t6 33l24 139q9 50 31.5 78.5t66.5 35.5l1 3q-71 11 -71 92q0 10 1 16l12 151q0 3 0.5 7.5t0.5 6.5q0 31 -13 42.5t-41 16.5l-40 8l18 78
l98 -11q95 -10 95 -113v-15l-12 -162q-1 -6 -1 -16q0 -53 42 -53h19z" />
    <glyph glyph-name="asciitilde" unicode="~" 
d="M450 410l80 -47q-27 -65 -71 -110t-102 -45q-49 0 -100 38q-7 6 -21 17.5t-21.5 17.5t-18 11t-19.5 5q-42 0 -84 -87l-80 47q28 66 71.5 110.5t101.5 44.5q50 0 99 -38q8 -6 22 -17.5t21.5 -17t18 -10.5t18.5 -5q43 0 85 86z" />
    <glyph glyph-name="uni00A0" unicode="&#xa0;" horiz-adv-x="159" 
 />
    <glyph glyph-name="exclamdown" unicode="&#xa1;" horiz-adv-x="292" 
d="M238 413q0 -37 -25 -60.5t-63 -23.5q-75 0 -75 74q0 37 24.5 60.5t62.5 23.5q36 0 56 -19t20 -55zM196 268l-35 -429h-155l77 429h113z" />
    <glyph glyph-name="cent" unicode="&#xa2;" 
d="M510 480l-66 -88q-3 4 -8 11t-24.5 20t-42.5 17l-32 -245q34 3 59 18.5t36 29.5l51 -95q-62 -66 -160 -74l-11 -86h-82l11 84q-31 4 -60.5 18t-56 39.5t-43 68.5t-16.5 98q0 118 69.5 192t171.5 76l10 80h82l-12 -87q76 -11 124 -77zM291 442q-36 -7 -62 -43.5t-26 -94.5
q0 -51 18.5 -74t38.5 -28z" />
    <glyph glyph-name="sterling" unicode="&#xa3;" 
d="M530 561l-70 -78q-7 15 -33 33.5t-63 18.5q-42 0 -65 -28t-23 -71q0 -24 1.5 -43t3 -28t1.5 -10h155l-13 -77h-136q2 -19 2 -34q0 -80 -46 -131h240l-15 -113h-454l16 91l86 18q42 59 42 137l-3 32h-90l12 77h73q-6 51 -6 80q0 99 65 158q58 52 148 52q53 0 94.5 -18.5
t57 -35.5t20.5 -30z" />
    <glyph glyph-name="currency" unicode="&#xa4;" horiz-adv-x="569" 
d="M534 145l-76 -77l-83 83q-41 -24 -90 -24q-50 0 -91 24l-83 -83l-76 77l82 82q-24 45 -24 91q0 43 24 91l-82 82l76 77l83 -83q41 24 90 24q50 0 91 -24l83 83l76 -77l-82 -82q24 -45 24 -91q0 -43 -24 -91zM368 318q0 35 -24.5 59t-59.5 24t-59 -24t-24 -59t24 -59
t59 -24t59.5 24t24.5 59z" />
    <glyph glyph-name="yen" unicode="&#xa5;" 
d="M571 635l-180 -278h107l-11 -78h-148l-6 -14l-6 -50h153l-11 -78h-152l-18 -137h-142l17 137h-153l11 78h152l7 55l-2 9h-150l11 78h112l-104 278h163l60 -239l128 239h162z" />
    <glyph glyph-name="brokenbar" unicode="&#xa6;" horiz-adv-x="355" 
d="M236 357h-117v329h117v-329zM236 -137h-117v329h117v-329z" />
    <glyph glyph-name="section" unicode="&#xa7;" 
d="M511 581l-56 -90q-27 23 -65 36.5t-70 13.5q-78 0 -78 -44q0 -23 20 -35t69 -28q8 -3 12 -4q54 -19 78 -34q67 -40 67 -117t-77 -128q3 -2 11 -10.5t18 -33.5t10 -56q0 -47 -24 -83.5t-56 -57.5q-60 -41 -153 -41q-61 0 -116 25t-82 53l61 89q29 -25 69 -41.5t75 -16.5
q39 0 63.5 13t24.5 39q0 6 -1.5 11t-5 9.5t-7 8t-11 7t-12 6t-15 6.5t-16 6t-19 6.5l-19.5 6.5q-48 15 -78 35q-62 41 -62 115q0 17 4 33t10.5 28.5t13.5 22.5t15.5 17.5t14.5 12.5t12 9l6 4q-5 4 -11.5 11.5t-15 31.5t-8.5 53q0 84 72 135q56 40 151 40q55 0 105.5 -20.5
t75.5 -43.5zM368 243q0 37 -41 51l-58 21q-36 14 -51 19q-9 -4 -20.5 -18.5t-11.5 -34.5q0 -34 41 -51l58 -21q35 -11 51 -19q9 4 20.5 19t11.5 34z" />
    <glyph glyph-name="dieresis" unicode="&#xa8;" horiz-adv-x="427" 
d="M360 602q0 -28 -19 -48t-48 -20q-27 0 -42 16t-15 41q0 28 19 48t48 20q27 0 42 -16t15 -41zM192 602q0 -28 -19 -48t-48 -20q-27 0 -42.5 16t-15.5 41q0 28 19.5 48t48.5 20q26 0 41.5 -16t15.5 -41z" />
    <glyph glyph-name="copyright" unicode="&#xa9;" horiz-adv-x="723" 
d="M690 317q0 -139 -94.5 -233.5t-234.5 -94.5t-234.5 94t-94.5 234t94.5 234.5t234.5 94.5t234.5 -94.5t94.5 -234.5zM640 317q0 117 -81 198.5t-198 81.5t-198 -81.5t-81 -198.5q0 -116 81 -197.5t198 -81.5t198 81.5t81 197.5zM516 446l-48 -60q-5 8 -15 16.5t-32 18.5
t-46 10q-43 0 -72 -32t-29 -86q0 -53 28 -79.5t69 -26.5q32 0 57.5 15.5t36.5 31.5l42 -60q-51 -68 -145 -68q-77 0 -128.5 49.5t-51.5 136.5t56.5 142.5t131.5 55.5q94 0 146 -64z" />
    <glyph glyph-name="ordfeminine" unicode="&#xaa;" horiz-adv-x="408" 
d="M381 533q0 -15 -5 -52l-16 -110q-2 -11 -2 -32q0 -31 8 -52h-116q-6 21 -6 43q-35 -49 -106 -49q-45 0 -72 27t-27 74q0 73 85 106q52 19 141 19q1 12 1 20q0 35 -59 35t-103 -29l-30 74q65 38 157 38q68 0 109 -27t41 -85zM256 445q-41 0 -68 -10q-34 -13 -34 -40
q0 -34 40 -34q17 0 34 11.5t20 18.5z" />
    <glyph glyph-name="guillemotleft" unicode="&#xab;" horiz-adv-x="495" 
d="M462 400l-144 -146l103 -160l-70 -50l-123 183l9 65l165 168zM255 400l-144 -146l103 -160l-70 -50l-123 183l9 65l165 168z" />
    <glyph glyph-name="logicalnot" unicode="&#xac;" 
d="M499 477l-42 -329h-109l28 221h-313l15 108h421z" />
    <glyph glyph-name="uni00AD" unicode="&#xad;" horiz-adv-x="313" 
d="M289 292l-17 -104h-248l17 104h248z" />
    <glyph glyph-name="registered" unicode="&#xae;" horiz-adv-x="699" 
d="M687 461q0 -134 -91.5 -225.5t-225.5 -91.5t-226 91.5t-92 225.5t92 226t226 92t225.5 -92t91.5 -226zM642 461q0 115 -79 193.5t-193 78.5q-115 0 -193.5 -78.5t-78.5 -193.5q0 -114 78.5 -193t193.5 -79q114 0 193 79t79 193zM513 534q0 -48 -25 -76t-55 -33l61 -137
h-85l-51 130h-33l-17 -130h-80l46 347h130q49 0 79 -25.5t30 -75.5zM430 531q0 42 -42 42h-44l-12 -93h44q25 0 39.5 14t14.5 37z" />
    <glyph glyph-name="macron" unicode="&#xaf;" horiz-adv-x="427" 
d="M367 634l-10 -75h-297l10 75h297z" />
    <glyph glyph-name="degree" unicode="&#xb0;" horiz-adv-x="365" 
d="M325 523q0 -60 -39 -99.5t-99 -39.5q-51 0 -85.5 35t-34.5 86q0 61 38.5 100.5t99.5 39.5q51 0 85.5 -35t34.5 -87zM265 518q0 29 -18 49t-48 20q-31 0 -51.5 -21.5t-20.5 -54.5q0 -29 18 -49.5t47 -20.5q31 0 52 22t21 55z" />
    <glyph glyph-name="plusminus" unicode="&#xb1;" 
d="M502 434l-15 -108h-156l-22 -173h-109l22 173h-157l15 108h156l23 173h108l-22 -173h157zM461 108l-15 -108h-422l15 108h422z" />
    <glyph glyph-name="two.superior" unicode="&#xb2;" horiz-adv-x="400" 
d="M396 673q0 -24 -7 -43t-23 -36t-25.5 -24.5t-31.5 -23.5q-7 -5 -21.5 -15.5t-22 -15.5t-18 -13.5t-19 -16t-15.5 -16.5h171l-12 -87h-312q13 96 133 184q8 6 23.5 17t27 19t23 17.5t18 18.5t6.5 16q0 38 -53 38q-46 0 -93 -45l-42 71q12 12 29 23.5t52 24.5t72 13
q62 0 101 -28.5t39 -77.5z" />
    <glyph glyph-name="three.superior" unicode="&#xb3;" horiz-adv-x="400" 
d="M376 673q0 -38 -26 -61t-48 -26q60 -18 60 -83q0 -60 -47.5 -95t-111.5 -35q-92 0 -143 65l55 61q36 -45 82 -45q27 0 47 12.5t20 36.5q0 42 -54 42h-41l9 74h41q28 0 44 10.5t16 28.5q0 39 -53 39q-40 0 -84 -33l-35 63q66 49 138 49q53 0 92 -26t39 -77z" />
    <glyph glyph-name="acute" unicode="&#xb4;" horiz-adv-x="427" 
d="M324 662l-118 -131h-103l83 131h138z" />
    <glyph glyph-name="mu" unicode="&#xb5;" horiz-adv-x="533" 
d="M517 476l-62 -476h-140v67q-13 -25 -40.5 -46t-70.5 -21q-7 0 -15.5 2.5t-14.5 5.5l-5 2l-22 -174h-150l83 640h150l-36 -274q-1 -8 -1 -22q0 -61 55 -61q30 0 51.5 24t31.5 53l37 280h149z" />
    <glyph glyph-name="paragraph" unicode="&#xb6;" 
d="M542 635l-10 -76h-51l-91 -705h-76l90 705h-70l-54 -416h-50q-98 0 -151 54.5t-53 156.5q0 127 71 204t198 77h247z" />
    <glyph glyph-name="periodcentered" unicode="&#xb7;" horiz-adv-x="272" 
d="M219 288q0 -37 -24.5 -61.5t-62.5 -24.5q-36 0 -55.5 20t-19.5 56q0 38 24.5 62t62.5 24q36 0 55.5 -20t19.5 -56z" />
    <glyph glyph-name="cedilla" unicode="&#xb8;" horiz-adv-x="427" 
d="M309 0l-64 -132h-138l99 132h103z" />
    <glyph glyph-name="one.superior" unicode="&#xb9;" horiz-adv-x="400" 
d="M333 774l-51 -392h-107l36 270q-27 -18 -76 -28l-20 80q31 6 72.5 26.5t63.5 43.5h82z" />
    <glyph glyph-name="ordmasculine" unicode="&#xba;" horiz-adv-x="408" 
d="M403 490q0 -94 -55.5 -152.5t-147.5 -58.5q-73 0 -115.5 40t-42.5 115q0 94 55.5 152.5t147.5 58.5q73 0 115.5 -40t42.5 -115zM287 479q0 81 -54 81q-36 0 -55.5 -35.5t-19.5 -77.5q0 -82 54 -82q36 0 55.5 36t19.5 78z" />
    <glyph glyph-name="guillemotright" unicode="&#xbb;" horiz-adv-x="495" 
d="M467 281l-9 -65l-165 -168l-60 60l144 146l-103 160l71 50zM260 281l-9 -65l-165 -168l-60 60l144 146l-103 160l71 50z" />
    <glyph glyph-name="onequarter" unicode="&#xbc;" horiz-adv-x="814" 
d="M634 617l-459 -628l-55 40l460 628zM263 654l-51 -392h-107l36 270q-27 -18 -76 -28l-20 80q31 6 72.5 26.5t63.5 43.5h82zM778 151l-10 -78h-52l-9 -73h-107l9 73h-191l11 78l204 239h124l-31 -239h52zM638 303l-125 -152h106z" />
    <glyph glyph-name="onehalf" unicode="&#xbd;" horiz-adv-x="848" 
d="M263 654l-51 -392h-107l36 270q-27 -18 -76 -28l-20 80q31 6 72.5 26.5t63.5 43.5h82zM634 617l-459 -628l-55 40l460 628zM807 291q0 -24 -7 -43t-23 -36t-25.5 -24.5t-31.5 -23.5q-7 -5 -21.5 -15.5t-22 -15.5t-18 -13.5t-19 -16t-15.5 -16.5h171l-12 -87h-312
q13 96 133 184q8 6 23.5 17t27 19t23 17.5t18 18.5t6.5 16q0 38 -53 38q-46 0 -93 -45l-42 71q12 12 29 23.5t52 24.5t72 13q62 0 101 -28.5t39 -77.5z" />
    <glyph glyph-name="threequarters" unicode="&#xbe;" horiz-adv-x="875" 
d="M697 617l-459 -628l-55 40l460 628zM340 553q0 -38 -26 -61t-48 -26q60 -18 60 -83q0 -60 -47.5 -95t-111.5 -35q-92 0 -143 65l55 61q36 -45 82 -45q27 0 47 12.5t20 36.5q0 42 -54 42h-41l9 74h41q28 0 44 10.5t16 28.5q0 39 -53 39q-40 0 -84 -33l-35 63q66 49 138 49
q53 0 92 -26t39 -77zM834 151l-10 -78h-52l-9 -73h-107l9 73h-191l11 78l204 239h124l-31 -239h52zM694 303l-125 -152h106z" />
    <glyph glyph-name="questiondown" unicode="&#xbf;" horiz-adv-x="438" 
d="M363 414q0 -38 -24.5 -61.5t-62.5 -23.5q-75 0 -75 74q0 38 24.5 61.5t62.5 23.5q75 0 75 -74zM396 -97q-9 -9 -30.5 -23.5t-69.5 -31t-100 -16.5q-86 0 -141 43t-55 110q0 32 8 57t27 45.5t30 29.5t35 27l67 49q17 12 24 24q6 9 9 30l3 21h122l-2 -33q-4 -48 -14 -70
q-13 -25 -48 -50l-68 -46q-50 -33 -50 -64q0 -22 18.5 -36t55.5 -14q69 0 127 49z" />
    <glyph glyph-name="Agrave" unicode="&#xc0;" horiz-adv-x="575" 
d="M541 0h-158l-20 122h-209l-51 -122h-148l285 635h182zM347 241l-41 251l-105 -251h146zM393 690h-107l-89 131h142z" />
    <glyph glyph-name="Aacute" unicode="&#xc1;" horiz-adv-x="575" 
d="M541 0h-158l-20 122h-209l-51 -122h-148l285 635h182zM347 241l-41 251l-105 -251h146zM497 821l-118 -131h-103l83 131h138z" />
    <glyph glyph-name="Acircumflex" unicode="&#xc2;" horiz-adv-x="575" 
d="M541 0h-158l-20 122h-209l-51 -122h-148l285 635h182zM347 241l-41 251l-105 -251h146zM486 690h-100l-44 76l-65 -76h-99l111 131h119z" />
    <glyph glyph-name="Atilde" unicode="&#xc3;" horiz-adv-x="575" 
d="M541 0h-158l-20 122h-209l-51 -122h-148l285 635h182zM347 241l-41 251l-105 -251h146zM443 818l66 -10q-8 -49 -39.5 -82.5t-75.5 -33.5q-35 0 -69 25q-3 2 -10 7.5t-10.5 8t-10 5t-12.5 2.5q-14 0 -24 -10.5t-14 -20t-5 -15.5l-66 9q7 49 38.5 83t75.5 34q36 0 69 -26
q2 -2 7.5 -6t9 -6t8 -5t9 -4t9.5 -1q14 0 24.5 10.5t14 19.5t5.5 16z" />
    <glyph glyph-name="Adieresis" unicode="&#xc4;" horiz-adv-x="575" 
d="M541 0h-158l-20 122h-209l-51 -122h-148l285 635h182zM347 241l-41 251l-105 -251h146zM490 761q0 -28 -19 -48t-48 -20q-27 0 -42 16t-15 41q0 28 19 48t48 20q27 0 42 -16t15 -41zM322 761q0 -28 -19 -48t-48 -20q-27 0 -42.5 16t-15.5 41q0 28 19.5 48t48.5 20
q26 0 41.5 -16t15.5 -41z" />
    <glyph glyph-name="Aring" unicode="&#xc5;" horiz-adv-x="575" 
d="M541 0h-158l-20 122h-209l-51 -122h-148l285 635h182zM347 241l-41 251l-105 -251h146zM438 777q0 -42 -29 -68.5t-73 -26.5q-41 0 -65.5 24t-24.5 66t29 68.5t73 26.5q41 0 65.5 -24t24.5 -66zM385 776q0 19 -11 30.5t-29 11.5q-20 0 -33 -12t-13 -33q0 -20 10.5 -31
t29.5 -11q20 0 33 12t13 33z" />
    <glyph glyph-name="AE" unicode="&#xc6;" horiz-adv-x="860" 
d="M850 635l-16 -121h-234l-15 -125h218l-17 -123h-218l-18 -141h244l-16 -125h-398l20 146h-185l-87 -146h-174l414 635h482zM447 514h-11l-152 -249h130z" />
    <glyph glyph-name="Ccedilla" unicode="&#xc7;" horiz-adv-x="574" 
d="M581 509l-102 -79q-1 3 -3.5 9t-12.5 20.5t-23.5 26t-38 20.5t-53.5 9q-75 0 -120 -69t-45 -161q0 -81 36 -120t93 -39q46 0 86 27t61 56l82 -95q-79 -106 -206 -122l-51 -125h-138l84 127q-38 7 -71.5 24t-64 48t-48 84t-17.5 122q0 162 89.5 267.5t227.5 105.5
q52 0 95 -14t68 -33t42 -39.5t23.5 -33.5t6.5 -16z" />
    <glyph glyph-name="Egrave" unicode="&#xc8;" horiz-adv-x="517" 
d="M507 635l-16 -121h-249l-16 -125h233l-16 -123h-233l-18 -141h259l-16 -125h-413l81 635h404zM386 690h-107l-89 131h142z" />
    <glyph glyph-name="Eacute" unicode="&#xc9;" horiz-adv-x="517" 
d="M507 635l-16 -121h-249l-16 -125h233l-16 -123h-233l-18 -141h259l-16 -125h-413l81 635h404zM457 821l-118 -131h-103l83 131h138z" />
    <glyph glyph-name="Ecircumflex" unicode="&#xca;" horiz-adv-x="517" 
d="M507 635l-16 -121h-249l-16 -125h233l-16 -123h-233l-18 -141h259l-16 -125h-413l81 635h404zM464 690h-100l-44 76l-65 -76h-99l111 131h119z" />
    <glyph glyph-name="Edieresis" unicode="&#xcb;" horiz-adv-x="517" 
d="M507 635l-16 -121h-249l-16 -125h233l-16 -123h-233l-18 -141h259l-16 -125h-413l81 635h404zM467 761q0 -28 -19 -48t-48 -20q-27 0 -42 16t-15 41q0 28 19 48t48 20q27 0 42 -16t15 -41zM299 761q0 -28 -19 -48t-48 -20q-27 0 -42.5 16t-15.5 41q0 28 19.5 48t48.5 20
q26 0 41.5 -16t15.5 -41z" />
    <glyph glyph-name="Igrave" unicode="&#xcc;" horiz-adv-x="281" 
d="M258 635l-82 -635h-154l81 635h155zM264 690h-107l-89 131h142z" />
    <glyph glyph-name="Iacute" unicode="&#xcd;" horiz-adv-x="281" 
d="M258 635l-82 -635h-154l81 635h155zM331 821l-118 -131h-103l83 131h138z" />
    <glyph glyph-name="Icircumflex" unicode="&#xce;" horiz-adv-x="281" 
d="M258 635l-82 -635h-154l81 635h155zM338 690h-100l-44 76l-65 -76h-99l111 131h119z" />
    <glyph glyph-name="Idieresis" unicode="&#xcf;" horiz-adv-x="281" 
d="M258 635l-82 -635h-154l81 635h155zM342 761q0 -28 -19 -48t-48 -20q-27 0 -42 16t-15 41q0 28 19 48t48 20q27 0 42 -16t15 -41zM174 761q0 -28 -19 -48t-48 -20q-27 0 -42.5 16t-15.5 41q0 28 19.5 48t48.5 20q26 0 41.5 -16t15.5 -41z" />
    <glyph glyph-name="Eth" unicode="&#xd0;" horiz-adv-x="627" 
d="M598 359q0 -182 -110 -277q-94 -82 -250 -82h-216l35 274h-47l13 101h47l33 260h221q122 0 194 -62q80 -71 80 -214zM443 359q0 86 -38 122q-33 33 -103 33h-60l-18 -139h87l-14 -101h-86l-19 -149h60q87 0 138 59q53 62 53 175z" />
    <glyph glyph-name="Ntilde" unicode="&#xd1;" horiz-adv-x="644" 
d="M621 635l-82 -635h-151l-169 410l-51 -410h-146l81 635h158l164 -395l50 395h146zM476 818l66 -10q-8 -49 -39.5 -82.5t-75.5 -33.5q-35 0 -69 25q-3 2 -10 7.5t-10.5 8t-10 5t-12.5 2.5q-14 0 -24 -10.5t-14 -20t-5 -15.5l-66 9q7 49 38.5 83t75.5 34q36 0 69 -26
q2 -2 7.5 -6t9 -6t8 -5t9 -4t9.5 -1q32 0 44 46z" />
    <glyph glyph-name="Ograve" unicode="&#xd2;" horiz-adv-x="659" 
d="M630 371q0 -164 -91.5 -273t-245.5 -109q-124 0 -194.5 71.5t-70.5 203.5q0 164 91.5 272.5t245.5 108.5q124 0 194.5 -71t70.5 -203zM475 364q0 69 -31.5 111.5t-93.5 42.5q-70 0 -118.5 -68t-48.5 -173q0 -69 31.5 -111.5t93.5 -42.5q70 0 118.5 68t48.5 173zM445 690
h-107l-89 131h142z" />
    <glyph glyph-name="Oacute" unicode="&#xd3;" horiz-adv-x="659" 
d="M630 371q0 -164 -91.5 -273t-245.5 -109q-124 0 -194.5 71.5t-70.5 203.5q0 164 91.5 272.5t245.5 108.5q124 0 194.5 -71t70.5 -203zM475 364q0 69 -31.5 111.5t-93.5 42.5q-70 0 -118.5 -68t-48.5 -173q0 -69 31.5 -111.5t93.5 -42.5q70 0 118.5 68t48.5 173zM539 821
l-118 -131h-103l83 131h138z" />
    <glyph glyph-name="Ocircumflex" unicode="&#xd4;" horiz-adv-x="659" 
d="M630 371q0 -164 -91.5 -273t-245.5 -109q-124 0 -194.5 71.5t-70.5 203.5q0 164 91.5 272.5t245.5 108.5q124 0 194.5 -71t70.5 -203zM475 364q0 69 -31.5 111.5t-93.5 42.5q-70 0 -118.5 -68t-48.5 -173q0 -69 31.5 -111.5t93.5 -42.5q70 0 118.5 68t48.5 173zM528 690
h-100l-44 76l-65 -76h-99l111 131h119z" />
    <glyph glyph-name="Otilde" unicode="&#xd5;" horiz-adv-x="659" 
d="M630 371q0 -164 -91.5 -273t-245.5 -109q-124 0 -194.5 71.5t-70.5 203.5q0 164 91.5 272.5t245.5 108.5q124 0 194.5 -71t70.5 -203zM475 364q0 69 -31.5 111.5t-93.5 42.5q-70 0 -118.5 -68t-48.5 -173q0 -69 31.5 -111.5t93.5 -42.5q70 0 118.5 68t48.5 173zM486 818
l66 -10q-8 -49 -39.5 -82.5t-75.5 -33.5q-35 0 -69 25q-3 2 -10 7.5t-10.5 8t-10 5t-12.5 2.5q-14 0 -24 -10.5t-14 -20t-5 -15.5l-66 9q7 49 38.5 83t75.5 34q36 0 69 -26q2 -2 7.5 -6t9 -6t8 -5t9 -4t9.5 -1q32 0 44 46z" />
    <glyph glyph-name="Odieresis" unicode="&#xd6;" horiz-adv-x="659" 
d="M630 371q0 -164 -91.5 -273t-245.5 -109q-124 0 -194.5 71.5t-70.5 203.5q0 164 91.5 272.5t245.5 108.5q124 0 194.5 -71t70.5 -203zM475 364q0 69 -31.5 111.5t-93.5 42.5q-70 0 -118.5 -68t-48.5 -173q0 -69 31.5 -111.5t93.5 -42.5q70 0 118.5 68t48.5 173zM531 761
q0 -28 -19 -48t-48 -20q-27 0 -42 16t-15 41q0 28 19 48t48 20q27 0 42 -16t15 -41zM363 761q0 -28 -19 -48t-48 -20q-27 0 -42.5 16t-15.5 41q0 28 19.5 48t48.5 20q26 0 41.5 -16t15.5 -41z" />
    <glyph glyph-name="multiply" unicode="&#xd7;" 
d="M494 440l-145 -133l114 -134l-83 -78l-115 135l-146 -135l-70 85l146 133l-115 135l83 77l115 -135l146 135z" />
    <glyph glyph-name="Oslash" unicode="&#xd8;" horiz-adv-x="659" 
d="M649 616l-65 -72q46 -67 46 -173q0 -164 -91.5 -273t-245.5 -109q-97 0 -162 44l-61 -69l-61 55l64 72q-45 68 -45 173q0 164 91.5 272.5t245.5 108.5q97 0 161 -44l62 70zM429 491q-32 27 -79 27q-70 0 -118.5 -68t-48.5 -173q0 -31 6 -56zM475 364q0 31 -5 51
l-238 -268q30 -24 76 -24q70 0 118.5 68t48.5 173z" />
    <glyph glyph-name="Ugrave" unicode="&#xd9;" horiz-adv-x="627" 
d="M606 635l-49 -386q-17 -129 -80 -191q-71 -69 -206 -69q-113 0 -170 57q-51 51 -51 155q0 16 6 70l46 364h154l-49 -389q-2 -17 -2 -35q0 -29 9 -48q19 -36 77 -36q57 0 84 36q20 26 28 83l49 389h154zM429 690h-107l-89 131h142z" />
    <glyph glyph-name="Uacute" unicode="&#xda;" horiz-adv-x="627" 
d="M606 635l-49 -386q-17 -129 -80 -191q-71 -69 -206 -69q-113 0 -170 57q-51 51 -51 155q0 16 6 70l46 364h154l-49 -389q-2 -17 -2 -35q0 -29 9 -48q19 -36 77 -36q57 0 84 36q20 26 28 83l49 389h154zM512 821l-118 -131h-103l83 131h138z" />
    <glyph glyph-name="Ucircumflex" unicode="&#xdb;" horiz-adv-x="627" 
d="M606 635l-49 -386q-17 -129 -80 -191q-71 -69 -206 -69q-113 0 -170 57q-51 51 -51 155q0 16 6 70l46 364h154l-49 -389q-2 -17 -2 -35q0 -29 9 -48q19 -36 77 -36q57 0 84 36q20 26 28 83l49 389h154zM513 690h-100l-44 76l-65 -76h-99l111 131h119z" />
    <glyph glyph-name="Udieresis" unicode="&#xdc;" horiz-adv-x="627" 
d="M606 635l-49 -386q-17 -129 -80 -191q-71 -69 -206 -69q-113 0 -170 57q-51 51 -51 155q0 16 6 70l46 364h154l-49 -389q-2 -17 -2 -35q0 -29 9 -48q19 -36 77 -36q57 0 84 36q20 26 28 83l49 389h154zM513 761q0 -28 -19 -48t-48 -20q-27 0 -42 16t-15 41q0 28 19 48
t48 20q27 0 42 -16t15 -41zM345 761q0 -28 -19 -48t-48 -20q-27 0 -42.5 16t-15.5 41q0 28 19.5 48t48.5 20q26 0 41.5 -16t15.5 -41z" />
    <glyph glyph-name="Yacute" unicode="&#xdd;" horiz-adv-x="521" 
d="M579 635l-249 -380l-33 -255h-154l33 255l-152 380h163l81 -259l148 259h163zM467 821l-118 -131h-103l83 131h138z" />
    <glyph glyph-name="Thorn" unicode="&#xde;" horiz-adv-x="551" 
d="M522 361q0 -120 -73 -182q-69 -59 -199 -59h-59l-15 -120h-154l81 635h155l-12 -93h61q100 0 154 -43q61 -47 61 -138zM371 338q0 44 -24 67q-24 19 -66 19h-51l-24 -187h57q45 0 76 26q32 30 32 75z" />
    <glyph glyph-name="germandbls" unicode="&#xdf;" horiz-adv-x="562" 
d="M539 210q0 -112 -69 -171q-59 -50 -151 -50q-26 0 -48 5t-31 10l-10 5l29 99q17 -9 47 -9q31 0 57.5 28t26.5 83q0 49 -24.5 70.5t-58.5 21.5h-26l14 105h26q33 0 53.5 23t20.5 57q0 73 -63 73q-34 0 -53.5 -23t-26.5 -79l-60 -463q-12 -86 -43 -122q-41 -46 -121 -46
q-25 0 -49 5.5t-35 11.5l-11 6l35 101q23 -10 33 -10q16 0 26 9q10 10 15 42l48 376h-58l14 108h58l3 19q14 91 83 134q54 34 151 34q83 0 141 -46q54 -43 54 -114q0 -35 -13 -63.5t-33 -44t-37 -24t-32 -11.5q51 -10 84.5 -51.5t33.5 -98.5z" />
    <glyph glyph-name="agrave" unicode="&#xe0;" horiz-adv-x="551" 
d="M534 476l-61 -476h-140v64q-2 -3 -5.5 -8t-16.5 -18t-28 -23t-40 -18t-52 -8q-77 0 -121.5 54.5t-44.5 155.5q0 116 63.5 202t166.5 86q27 0 49 -7.5t35 -18t22 -21t13 -18.5l3 -7l18 61h139zM358 270q0 46 -19 73t-54 27q-47 0 -77.5 -47t-30.5 -115q0 -46 18.5 -73
t54.5 -27q47 0 77.5 47t30.5 115zM373 531h-107l-89 131h142z" />
    <glyph glyph-name="aacute" unicode="&#xe1;" horiz-adv-x="551" 
d="M534 476l-61 -476h-140v64q-2 -3 -5.5 -8t-16.5 -18t-28 -23t-40 -18t-52 -8q-77 0 -121.5 54.5t-44.5 155.5q0 116 63.5 202t166.5 86q27 0 49 -7.5t35 -18t22 -21t13 -18.5l3 -7l18 61h139zM358 270q0 46 -19 73t-54 27q-47 0 -77.5 -47t-30.5 -115q0 -46 18.5 -73
t54.5 -27q47 0 77.5 47t30.5 115zM463 662l-118 -131h-103l83 131h138z" />
    <glyph glyph-name="acircumflex" unicode="&#xe2;" horiz-adv-x="551" 
d="M534 476l-61 -476h-140v64q-2 -3 -5.5 -8t-16.5 -18t-28 -23t-40 -18t-52 -8q-77 0 -121.5 54.5t-44.5 155.5q0 116 63.5 202t166.5 86q27 0 49 -7.5t35 -18t22 -21t13 -18.5l3 -7l18 61h139zM358 270q0 46 -19 73t-54 27q-47 0 -77.5 -47t-30.5 -115q0 -46 18.5 -73
t54.5 -27q47 0 77.5 47t30.5 115zM477 531h-100l-44 76l-65 -76h-99l111 131h119z" />
    <glyph glyph-name="atilde" unicode="&#xe3;" horiz-adv-x="551" 
d="M534 476l-61 -476h-140v64q-2 -3 -5.5 -8t-16.5 -18t-28 -23t-40 -18t-52 -8q-77 0 -121.5 54.5t-44.5 155.5q0 116 63.5 202t166.5 86q27 0 49 -7.5t35 -18t22 -21t13 -18.5l3 -7l18 61h139zM358 270q0 46 -19 73t-54 27q-47 0 -77.5 -47t-30.5 -115q0 -46 18.5 -73
t54.5 -27q47 0 77.5 47t30.5 115zM428 659l66 -10q-8 -49 -39.5 -82.5t-75.5 -33.5q-35 0 -69 25q-3 2 -10 7.5t-10.5 8t-10 5t-12.5 2.5q-14 0 -24 -10.5t-14 -20t-5 -15.5l-66 9q7 49 38.5 83t75.5 34q36 0 69 -26q2 -2 7.5 -6t9 -6t8 -5t9 -4t9.5 -1q32 0 44 46z" />
    <glyph glyph-name="adieresis" unicode="&#xe4;" horiz-adv-x="551" 
d="M534 476l-61 -476h-140v64q-2 -3 -5.5 -8t-16.5 -18t-28 -23t-40 -18t-52 -8q-77 0 -121.5 54.5t-44.5 155.5q0 116 63.5 202t166.5 86q27 0 49 -7.5t35 -18t22 -21t13 -18.5l3 -7l18 61h139zM358 270q0 46 -19 73t-54 27q-47 0 -77.5 -47t-30.5 -115q0 -46 18.5 -73
t54.5 -27q47 0 77.5 47t30.5 115zM478 602q0 -28 -19 -48t-48 -20q-27 0 -42 16t-15 41q0 28 19 48t48 20q27 0 42 -16t15 -41zM310 602q0 -28 -19 -48t-48 -20q-27 0 -42.5 16t-15.5 41q0 28 19.5 48t48.5 20q26 0 41.5 -16t15.5 -41z" />
    <glyph glyph-name="aring" unicode="&#xe5;" horiz-adv-x="551" 
d="M534 476l-61 -476h-140v64q-2 -3 -5.5 -8t-16.5 -18t-28 -23t-40 -18t-52 -8q-77 0 -121.5 54.5t-44.5 155.5q0 116 63.5 202t166.5 86q27 0 49 -7.5t35 -18t22 -21t13 -18.5l3 -7l18 61h139zM358 270q0 46 -19 73t-54 27q-47 0 -77.5 -47t-30.5 -115q0 -46 18.5 -73
t54.5 -27q47 0 77.5 47t30.5 115zM422 618q0 -42 -29 -68.5t-73 -26.5q-41 0 -65.5 24t-24.5 66t29 68.5t73 26.5q41 0 65.5 -24t24.5 -66zM369 617q0 19 -11 30.5t-29 11.5q-20 0 -33 -12t-13 -33q0 -20 10.5 -31t29.5 -11q20 0 33 12t13 33z" />
    <glyph glyph-name="ae" unicode="&#xe6;" horiz-adv-x="761" 
d="M748 348q0 -91 -96 -135q-67 -30 -178 -30h-20v-13q2 -30 23.5 -49.5t63.5 -19.5q41 0 79 17t55 31l48 -88q-32 -32 -87 -52t-123 -20q-110 0 -165 71q-68 -71 -175 -71q-67 0 -108.5 34.5t-41.5 104.5q0 112 139 152q64 18 158 18q3 18 3 27q0 23 -15 36q-22 17 -63 17
q-68 0 -132 -41l-45 97q95 53 205 53q64 0 106 -24q25 -16 34 -33q63 57 156 57q88 0 133.5 -40t45.5 -99zM608 340q0 22 -14.5 34t-37.5 12q-30 0 -60 -26.5t-39 -86.5q62 0 96 11q55 16 55 56zM313 138q-7 33 -7 63v7q-55 0 -87 -11q-52 -19 -52 -58q0 -49 60 -49
q24 0 51 15.5t35 32.5z" />
    <glyph glyph-name="ccedilla" unicode="&#xe7;" horiz-adv-x="445" 
d="M459 402l-71 -86l-4 5q-5 5 -8 7.5t-9 8t-11.5 8.5t-13.5 7.5t-16 7t-18 4.5t-20 2q-51 0 -83.5 -35.5t-32.5 -104.5q0 -54 26 -83t67 -29q13 0 25 2t22.5 5.5t19 8t15.5 9t11.5 7.5t7.5 6l4 3l55 -97q-17 -20 -55 -40t-91 -26l-50 -124h-139l86 129q-22 6 -43.5 17.5
t-48 35t-43 66.5t-16.5 99q0 126 74 199t176 73q122 0 184 -85z" />
    <glyph glyph-name="egrave" unicode="&#xe8;" horiz-adv-x="481" 
d="M468 346q0 -88 -98 -135q-76 -38 -197 -38q0 -30 22 -51t66 -21q41 0 79 17t55 31l48 -88q-32 -32 -87.5 -52t-123.5 -20q-38 0 -72.5 10.5t-66 34t-50 67.5t-18.5 104q0 123 76.5 202.5t183.5 79.5q93 0 138 -40.5t45 -100.5zM328 340q0 22 -14.5 34t-37.5 12
q-31 0 -61.5 -28t-38.5 -92q45 0 92 14q60 18 60 60zM358 531h-107l-89 131h142z" />
    <glyph glyph-name="eacute" unicode="&#xe9;" horiz-adv-x="481" 
d="M468 346q0 -88 -98 -135q-76 -38 -197 -38q0 -30 22 -51t66 -21q41 0 79 17t55 31l48 -88q-32 -32 -87.5 -52t-123.5 -20q-38 0 -72.5 10.5t-66 34t-50 67.5t-18.5 104q0 123 76.5 202.5t183.5 79.5q93 0 138 -40.5t45 -100.5zM328 340q0 22 -14.5 34t-37.5 12
q-31 0 -61.5 -28t-38.5 -92q45 0 92 14q60 18 60 60zM448 662l-118 -131h-103l83 131h138z" />
    <glyph glyph-name="ecircumflex" unicode="&#xea;" horiz-adv-x="481" 
d="M468 346q0 -88 -98 -135q-76 -38 -197 -38q0 -30 22 -51t66 -21q41 0 79 17t55 31l48 -88q-32 -32 -87.5 -52t-123.5 -20q-38 0 -72.5 10.5t-66 34t-50 67.5t-18.5 104q0 123 76.5 202.5t183.5 79.5q93 0 138 -40.5t45 -100.5zM328 340q0 22 -14.5 34t-37.5 12
q-31 0 -61.5 -28t-38.5 -92q45 0 92 14q60 18 60 60zM449 531h-100l-44 76l-65 -76h-99l111 131h119z" />
    <glyph glyph-name="edieresis" unicode="&#xeb;" horiz-adv-x="481" 
d="M468 346q0 -88 -98 -135q-76 -38 -197 -38q0 -30 22 -51t66 -21q41 0 79 17t55 31l48 -88q-32 -32 -87.5 -52t-123.5 -20q-38 0 -72.5 10.5t-66 34t-50 67.5t-18.5 104q0 123 76.5 202.5t183.5 79.5q93 0 138 -40.5t45 -100.5zM328 340q0 22 -14.5 34t-37.5 12
q-31 0 -61.5 -28t-38.5 -92q45 0 92 14q60 18 60 60zM450 602q0 -28 -19 -48t-48 -20q-27 0 -42 16t-15 41q0 28 19 48t48 20q27 0 42 -16t15 -41zM282 602q0 -28 -19 -48t-48 -20q-27 0 -42.5 16t-15.5 41q0 28 19.5 48t48.5 20q26 0 41.5 -16t15.5 -41z" />
    <glyph glyph-name="igrave" unicode="&#xec;" horiz-adv-x="245" 
d="M228 476l-61 -476h-150l62 476h149zM235 531h-107l-89 131h142z" />
    <glyph glyph-name="iacute" unicode="&#xed;" horiz-adv-x="245" 
d="M228 476l-61 -476h-150l62 476h149zM305 662l-118 -131h-103l83 131h138z" />
    <glyph glyph-name="icircumflex" unicode="&#xee;" horiz-adv-x="245" 
d="M228 476l-61 -476h-150l62 476h149zM310 531h-100l-44 76l-65 -76h-99l111 131h119z" />
    <glyph glyph-name="idieresis" unicode="&#xef;" horiz-adv-x="245" 
d="M228 476l-61 -476h-150l62 476h149zM314 602q0 -28 -19 -48t-48 -20q-27 0 -42 16t-15 41q0 28 19 48t48 20q27 0 42 -16t15 -41zM146 602q0 -28 -19 -48t-48 -20q-27 0 -42.5 16t-15.5 41q0 28 19.5 48t48.5 20q26 0 41.5 -16t15.5 -41z" />
    <glyph glyph-name="eth" unicode="&#xf0;" horiz-adv-x="533" 
d="M509 274q0 -126 -74.5 -205.5t-189.5 -79.5q-107 0 -163.5 55t-56.5 157q0 106 65.5 169.5t160.5 63.5q41 0 67.5 -11t31.5 -21q-23 67 -70 114l-73 -53l-40 54l63 46q-24 22 -78 47l45 78q69 -22 120 -58l78 56l41 -54l-65 -47q60 -60 84 -103q54 -93 54 -208zM355 241
q0 40 -18.5 67t-56.5 27q-43 0 -73 -39.5t-30 -98.5q0 -41 18 -67.5t56 -26.5q44 0 74 39.5t30 98.5z" />
    <glyph glyph-name="ntilde" unicode="&#xf1;" horiz-adv-x="537" 
d="M503 357q0 -21 -8 -88l-34 -270h-150l36 275q2 16 2 22q0 61 -57 61q-31 0 -53.5 -23t-34.5 -54l-37 -281h-150l62 476h139v-66q57 77 152 77q64 0 98.5 -35.5t34.5 -93.5zM414 659l66 -10q-8 -49 -39.5 -82.5t-75.5 -33.5q-35 0 -69 25q-3 2 -10 7.5t-10.5 8t-10 5
t-12.5 2.5q-14 0 -24 -10.5t-14 -20t-5 -15.5l-66 9q7 49 38.5 83t75.5 34q36 0 69 -26q2 -2 7.5 -6t9 -6t8 -5t9 -4t9.5 -1q32 0 44 46z" />
    <glyph glyph-name="ograve" unicode="&#xf2;" horiz-adv-x="533" 
d="M509 273q0 -126 -73.5 -205.5t-194.5 -79.5q-106 0 -161 56t-55 157q0 126 73.5 205.5t194.5 79.5q105 0 160.5 -56t55.5 -157zM357 269q0 104 -75 104q-49 0 -77.5 -49t-28.5 -117q0 -105 76 -105q48 0 76.5 49.5t28.5 117.5zM359 531h-107l-89 131h142z" />
    <glyph glyph-name="oacute" unicode="&#xf3;" horiz-adv-x="533" 
d="M509 273q0 -126 -73.5 -205.5t-194.5 -79.5q-106 0 -161 56t-55 157q0 126 73.5 205.5t194.5 79.5q105 0 160.5 -56t55.5 -157zM357 269q0 104 -75 104q-49 0 -77.5 -49t-28.5 -117q0 -105 76 -105q48 0 76.5 49.5t28.5 117.5zM461 662l-118 -131h-103l83 131h138z" />
    <glyph glyph-name="ocircumflex" unicode="&#xf4;" horiz-adv-x="533" 
d="M509 273q0 -126 -73.5 -205.5t-194.5 -79.5q-106 0 -161 56t-55 157q0 126 73.5 205.5t194.5 79.5q105 0 160.5 -56t55.5 -157zM357 269q0 104 -75 104q-49 0 -77.5 -49t-28.5 -117q0 -105 76 -105q48 0 76.5 49.5t28.5 117.5zM453 531h-100l-44 76l-65 -76h-99l111 131
h119z" />
    <glyph glyph-name="otilde" unicode="&#xf5;" horiz-adv-x="533" 
d="M509 273q0 -126 -73.5 -205.5t-194.5 -79.5q-106 0 -161 56t-55 157q0 126 73.5 205.5t194.5 79.5q105 0 160.5 -56t55.5 -157zM357 269q0 104 -75 104q-49 0 -77.5 -49t-28.5 -117q0 -105 76 -105q48 0 76.5 49.5t28.5 117.5zM414 659l66 -10q-8 -49 -39.5 -82.5
t-75.5 -33.5q-35 0 -69 25q-3 2 -10 7.5t-10.5 8t-10 5t-12.5 2.5q-14 0 -24 -10.5t-14 -20t-5 -15.5l-66 9q7 49 38.5 83t75.5 34q36 0 69 -26q2 -2 7.5 -6t9 -6t8 -5t9 -4t9.5 -1q32 0 44 46z" />
    <glyph glyph-name="odieresis" unicode="&#xf6;" horiz-adv-x="533" 
d="M509 273q0 -126 -73.5 -205.5t-194.5 -79.5q-106 0 -161 56t-55 157q0 126 73.5 205.5t194.5 79.5q105 0 160.5 -56t55.5 -157zM357 269q0 104 -75 104q-49 0 -77.5 -49t-28.5 -117q0 -105 76 -105q48 0 76.5 49.5t28.5 117.5zM454 602q0 -28 -19 -48t-48 -20
q-27 0 -42 16t-15 41q0 28 19 48t48 20q27 0 42 -16t15 -41zM286 602q0 -28 -19 -48t-48 -20q-27 0 -42.5 16t-15.5 41q0 28 19.5 48t48.5 20q26 0 41.5 -16t15.5 -41z" />
    <glyph glyph-name="divide" unicode="&#xf7;" 
d="M383 530q0 -37 -24.5 -61.5t-62.5 -24.5q-36 0 -56 20t-20 56q0 37 25 61.5t63 24.5q35 0 55 -20t20 -56zM491 366l-15 -108h-422l15 108h422zM325 105q0 -38 -25 -62t-63 -24q-36 0 -55.5 19.5t-19.5 55.5q0 38 24.5 62.5t62.5 24.5q36 0 56 -20t20 -56z" />
    <glyph glyph-name="oslash" unicode="&#xf8;" horiz-adv-x="533" 
d="M519 451l-45 -46q35 -52 35 -131q0 -126 -73.5 -205.5t-194.5 -79.5q-86 0 -141 39l-45 -46l-40 42l45 45q-35 53 -35 133q0 126 73.5 205.5t194.5 79.5q88 0 142 -40l45 46zM338 349q-20 26 -56 26q-49 0 -77.5 -49.5t-28.5 -117.5l1 -21zM358 270v18l-160 -162
q20 -23 54 -23q49 0 77.5 49.5t28.5 117.5z" />
    <glyph glyph-name="ugrave" unicode="&#xf9;" horiz-adv-x="530" 
d="M513 476l-62 -476h-139v65q-61 -76 -152 -76q-62 0 -93 40.5t-31 95.5q0 43 9 110l31 241h150l-36 -276q-2 -18 -2 -23q0 -57 56 -57q28 0 51 24.5t32 52.5l36 279h150zM360 531h-107l-89 131h142z" />
    <glyph glyph-name="uacute" unicode="&#xfa;" horiz-adv-x="530" 
d="M513 476l-62 -476h-139v65q-61 -76 -152 -76q-62 0 -93 40.5t-31 95.5q0 43 9 110l31 241h150l-36 -276q-2 -18 -2 -23q0 -57 56 -57q28 0 51 24.5t32 52.5l36 279h150zM461 662l-118 -131h-103l83 131h138z" />
    <glyph glyph-name="ucircumflex" unicode="&#xfb;" horiz-adv-x="530" 
d="M513 476l-62 -476h-139v65q-61 -76 -152 -76q-62 0 -93 40.5t-31 95.5q0 43 9 110l31 241h150l-36 -276q-2 -18 -2 -23q0 -57 56 -57q28 0 51 24.5t32 52.5l36 279h150zM451 531h-100l-44 76l-65 -76h-99l111 131h119z" />
    <glyph glyph-name="udieresis" unicode="&#xfc;" horiz-adv-x="530" 
d="M513 476l-62 -476h-139v65q-61 -76 -152 -76q-62 0 -93 40.5t-31 95.5q0 43 9 110l31 241h150l-36 -276q-2 -18 -2 -23q0 -57 56 -57q28 0 51 24.5t32 52.5l36 279h150zM454 602q0 -28 -19 -48t-48 -20q-27 0 -42 16t-15 41q0 28 19 48t48 20q27 0 42 -16t15 -41z
M286 602q0 -28 -19 -48t-48 -20q-27 0 -42.5 16t-15.5 41q0 28 19.5 48t48.5 20q26 0 41.5 -16t15.5 -41z" />
    <glyph glyph-name="yacute" unicode="&#xfd;" horiz-adv-x="485" 
d="M519 476l-243 -498q-39 -81 -76 -116t-100 -35q-66 0 -116 29l42 107q27 -14 47 -14q34 0 45 33l12 33l-104 461h154l49 -324l137 324h153zM440 662l-118 -131h-103l83 131h138z" />
    <glyph glyph-name="thorn" unicode="&#xfe;" horiz-adv-x="553" 
d="M529 277q0 -116 -63.5 -202t-166.5 -86q-27 0 -49.5 7t-35.5 17.5t-22.5 21t-13.5 17.5l-3 7l-28 -223h-149l105 818h150l-32 -239q2 3 5.5 8t16.5 17t28 21.5t40 17.5t52 8q77 0 121.5 -54.5t44.5 -155.5zM377 270q0 46 -19 73t-54 27q-47 0 -78 -47t-31 -115
q0 -46 18.5 -73t54.5 -27q47 0 78 47t31 115z" />
    <glyph glyph-name="ydieresis" unicode="&#xff;" horiz-adv-x="485" 
d="M519 476l-243 -498q-39 -81 -76 -116t-100 -35q-66 0 -116 29l42 107q27 -14 47 -14q34 0 45 33l12 33l-104 461h154l49 -324l137 324h153zM435 602q0 -28 -19 -48t-48 -20q-27 0 -42 16t-15 41q0 28 19 48t48 20q27 0 42 -16t15 -41zM267 602q0 -28 -19 -48t-48 -20
q-27 0 -42.5 16t-15.5 41q0 28 19.5 48t48.5 20q26 0 41.5 -16t15.5 -41z" />
    <glyph glyph-name="dotlessi" unicode="&#x131;" horiz-adv-x="245" 
d="M228 476l-61 -476h-150l62 476h149z" />
    <glyph glyph-name="Lslash" unicode="&#x141;" horiz-adv-x="449" 
d="M421 125l-16 -125h-383l27 209l-45 -23l16 119l44 22l39 308h155l-29 -225l103 53l-16 -118l-103 -53l-21 -167h229z" />
    <glyph glyph-name="lslash" unicode="&#x142;" horiz-adv-x="245" 
d="M262 460l-16 -116l-37 -24l-42 -320h-150l30 227l-39 -23l16 115l38 24l40 311h150l-28 -219z" />
    <glyph glyph-name="OE" unicode="&#x152;" horiz-adv-x="860" 
d="M850 635l-15 -121h-231l-15 -125h214l-16 -123h-214l-19 -141h241l-16 -125h-394l1 12q-41 -23 -93 -23q-124 0 -194.5 72t-70.5 203q0 163 91 272t246 109q30 0 55 -5.5t35 -11.5l10 -5l2 12h383zM448 491q-7 9 -35 18t-63 9q-70 0 -118.5 -68t-48.5 -173
q0 -69 31.5 -111.5t93.5 -42.5q34 0 61 9.5t34 17.5z" />
    <glyph glyph-name="oe" unicode="&#x153;" horiz-adv-x="787" 
d="M774 346q0 -88 -98 -135q-76 -38 -196 -38q0 -30 21.5 -51t65.5 -21q41 0 80 17t54 31l48 -88q-32 -32 -87 -52t-123 -20q-93 0 -144 62q-62 -62 -155 -62q-105 0 -160 56t-55 157q0 126 73.5 205.5t193.5 79.5q107 0 147 -62l6 5q6 6 9 8.5t10.5 8.5t14.5 9.5t16.5 9
t19.5 8.5t22 6.5t25.5 5t28.5 1.5q93 0 138 -40t45 -101zM634 340q0 22 -14.5 34t-37.5 12q-31 0 -61.5 -28t-38.5 -92q46 0 93 14q59 17 59 60zM355 270q0 104 -74 104q-47 0 -76 -49.5t-29 -116.5q0 -105 75 -105q47 0 75.5 49.5t28.5 117.5z" />
    <glyph glyph-name="Scaron" unicode="&#x160;" horiz-adv-x="515" 
d="M512 555l-72 -105q-31 31 -67 48q-50 23 -92 23q-35 0 -56 -13.5t-21 -36.5q0 -14 9 -25.5t16.5 -16.5t23.5 -14q10 -5 50.5 -24.5t58.5 -28.5q48 -26 74 -56q40 -46 40 -111q0 -86 -68 -146q-70 -60 -178 -60q-91 0 -160 40q-50 28 -80 68l78 99q20 -25 62 -49
q54 -30 103 -30q40 0 62.5 16t22.5 41q0 15 -9 27t-16.5 17t-24.5 14q-10 5 -47 22.5t-53 26.5q-47 26 -68 47q-49 49 -49 122q0 102 92 160q58 35 136 35q69 0 128 -22q66 -26 105 -68zM485 821l-112 -131h-118l-78 131h99l45 -76l64 76h100z" />
    <glyph glyph-name="scaron" unicode="&#x161;" horiz-adv-x="430" 
d="M428 412l-62 -87q-23 23 -59 38q-44 18 -77 18q-48 0 -48 -29q0 -21 43 -39q9 -4 29.5 -13t29.5 -13q39 -17 61 -34q54 -41 54 -105q0 -75 -60 -119q-52 -40 -135 -40q-76 0 -141 34q-48 27 -71 55l69 88q26 -28 66 -47q47 -21 84 -21q48 0 48 32q0 18 -44 39
q-8 3 -34 14t-34 15q-33 15 -52 30q-53 41 -53 107q0 85 78 126q48 25 111 25q58 0 110 -21q57 -23 87 -53zM425 662l-112 -131h-118l-78 131h99l45 -76l64 76h100z" />
    <glyph glyph-name="Ydieresis" unicode="&#x178;" horiz-adv-x="521" 
d="M579 635l-249 -380l-33 -255h-154l33 255l-152 380h163l81 -259l148 259h163zM462 761q0 -28 -19 -48t-48 -20q-27 0 -42 16t-15 41q0 28 19 48t48 20q27 0 42 -16t15 -41zM294 761q0 -28 -19 -48t-48 -20q-27 0 -42.5 16t-15.5 41q0 28 19.5 48t48.5 20q26 0 41.5 -16
t15.5 -41z" />
    <glyph glyph-name="Zcaron" unicode="&#x17d;" horiz-adv-x="560" 
d="M560 635l-15 -114l-337 -397h303l-16 -124h-495l14 112l346 403h-288l15 120h473zM492 821l-112 -131h-118l-78 131h99l45 -76l64 76h100z" />
    <glyph glyph-name="zcaron" unicode="&#x17e;" horiz-adv-x="447" 
d="M453 476l-14 -104l-245 -260h222l-15 -112h-404l14 100l253 268h-211l15 108h385zM431 662l-112 -131h-118l-78 131h99l45 -76l64 76h100z" />
    <glyph glyph-name="florin" unicode="&#x192;" 
d="M560 627l-47 -96l-3 3q-3 2 -7.5 4.5t-11 5.5t-15.5 5t-19 2q-28 0 -44 -24.5t-28 -65.5l-19 -64h104l-12 -78h-118l-79 -255q-31 -97 -80 -138t-120 -41q-63 0 -105 35l50 98q23 -17 56 -17q41 0 66 80l74 238h-94l12 78h108l26 82q34 110 81 148q44 36 116 36
q68 0 109 -36z" />
    <glyph glyph-name="circumflex" unicode="&#x2c6;" horiz-adv-x="427" 
d="M367 531h-100l-44 76l-65 -76h-99l111 131h119z" />
    <glyph glyph-name="caron" unicode="&#x2c7;" horiz-adv-x="427" 
d="M367 662l-112 -131h-118l-78 131h99l45 -76l64 76h100z" />
    <glyph glyph-name="uni02C9" unicode="&#x2c9;" horiz-adv-x="427" 
d="M367 621l-10 -75h-297l10 75h297z" />
    <glyph glyph-name="breve" unicode="&#x2d8;" horiz-adv-x="427" 
d="M292 666l65 -10q-15 -56 -56 -91.5t-97 -35.5t-92.5 35.5t-40.5 91.5l66 10q13 -63 73 -63q58 0 82 63z" />
    <glyph glyph-name="dotaccent" unicode="&#x2d9;" horiz-adv-x="427" 
d="M288 610q0 -31 -23 -53.5t-57 -22.5q-33 0 -51 17.5t-18 46.5q0 32 23 54t58 22q32 0 50 -17.5t18 -46.5z" />
    <glyph glyph-name="ring" unicode="&#x2da;" horiz-adv-x="427" 
d="M309 618q0 -42 -29 -68.5t-73 -26.5q-41 0 -65.5 24t-24.5 66t29 68.5t73 26.5q41 0 65.5 -24t24.5 -66zM256 617q0 19 -11 30.5t-29 11.5q-20 0 -33 -12t-13 -33q0 -20 10.5 -31t29.5 -11q20 0 33 12t13 33z" />
    <glyph glyph-name="ogonek" unicode="&#x2db;" horiz-adv-x="427" 
d="M379 -95l24 -46q-17 -18 -51.5 -33t-72.5 -15q-43 0 -69 21.5t-26 61.5q0 36 20 66t41 45l85 -5q-58 -34 -58 -77q0 -41 49 -41q23 0 58 23z" />
    <glyph glyph-name="tilde" unicode="&#x2dc;" horiz-adv-x="427" 
d="M315 659l66 -10q-8 -49 -39.5 -82.5t-75.5 -33.5q-35 0 -69 25q-3 2 -10 7.5t-10.5 8t-10 5t-12.5 2.5q-14 0 -24 -10.5t-14 -20t-5 -15.5l-66 9q7 49 38.5 83t75.5 34q36 0 69 -26q2 -2 7.5 -6t9 -6t8 -5t9 -4t9.5 -1q14 0 24.5 10.5t14 19.5t5.5 16z" />
    <glyph glyph-name="hungarumlaut" unicode="&#x2dd;" horiz-adv-x="427" 
d="M412 662l-118 -131h-103l83 131h138zM237 662l-118 -131h-104l84 131h138z" />
    <glyph glyph-name="uni03A9" unicode="&#x3a9;" horiz-adv-x="618" 
d="M595 0h-253v105q126 86 126 235q0 93 -44.5 142.5t-114.5 49.5t-114.5 -49.5t-44.5 -142.5q0 -150 126 -235v-105h-254v112h111q-4 2 -14 11t-25.5 29.5t-29 47t-23.5 68.5t-10 88q0 125 77.5 207t200.5 82t200.5 -82t77.5 -207q0 -46 -10 -88t-23.5 -68.5t-29 -47
t-25.5 -29.5t-14 -11h110v-112z" />
    <glyph glyph-name="uni03BC" unicode="&#x3bc;" horiz-adv-x="533" 
d="M517 476l-62 -476h-140v67q-13 -25 -40.5 -46t-70.5 -21q-7 0 -15.5 2.5t-14.5 5.5l-5 2l-22 -174h-150l83 640h150l-36 -274q-1 -8 -1 -22q0 -61 55 -61q30 0 51.5 24t31.5 53l37 280h149z" />
    <glyph glyph-name="pi" unicode="&#x3c0;" horiz-adv-x="569" 
d="M547 363h-75v-363h-121v363h-133v-363h-121v363h-75v112h525v-112z" />
    <glyph glyph-name="endash" unicode="&#x2013;" horiz-adv-x="468" 
d="M436 290l-16 -100h-390l16 100h390z" />
    <glyph glyph-name="emdash" unicode="&#x2014;" horiz-adv-x="778" 
d="M754 290l-16 -100h-714l16 100h714z" />
    <glyph glyph-name="quoteleft" unicode="&#x2018;" horiz-adv-x="272" 
d="M189 673l84 -45q-109 -106 -127 -239l-118 40q8 62 54.5 133t106.5 111z" />
    <glyph glyph-name="quoteright" unicode="&#x2019;" horiz-adv-x="272" 
d="M178 673l117 -39q-7 -62 -54 -133.5t-107 -111.5l-84 46q109 106 128 238z" />
    <glyph glyph-name="quotesinglbase" unicode="&#x201a;" horiz-adv-x="272" 
d="M99 167l117 -40q-7 -62 -53.5 -133t-107.5 -111l-84 46q109 104 128 238z" />
    <glyph glyph-name="quotedblleft" unicode="&#x201c;" horiz-adv-x="485" 
d="M486 628q-109 -106 -128 -239l-117 40q8 62 54.5 133t106.5 111zM273 628q-109 -106 -127 -239l-118 40q8 62 54.5 133t106.5 111z" />
    <glyph glyph-name="quotedblright" unicode="&#x201d;" horiz-adv-x="485" 
d="M508 634q-8 -63 -55 -134t-107 -111l-83 46q109 106 127 238zM295 634q-8 -62 -54.5 -133.5t-106.5 -111.5l-84 46q109 106 127 238z" />
    <glyph glyph-name="quotedblbase" unicode="&#x201e;" horiz-adv-x="485" 
d="M436 127q-8 -63 -54 -134t-106 -110l-84 46q110 105 128 238zM209 127q-8 -63 -54 -134t-106 -110l-84 46q109 104 128 238z" />
    <glyph glyph-name="dagger" unicode="&#x2020;" 
d="M506 481l-13 -106l-172 10l-13 -184l-58 -314h-71l23 314l35 184l-173 -10l13 106l172 -10l12 184h107l-35 -184z" />
    <glyph glyph-name="daggerdbl" unicode="&#x2021;" 
d="M507 481l-13 -106l-172 10l-2 -114l-28 -113l173 10l-13 -106l-172 10l-12 -185h-107l36 185l-174 -10l13 106l173 -10l1 113l28 114l-173 -10l13 106l172 -10l12 184h107l-35 -184z" />
    <glyph glyph-name="bullet" unicode="&#x2022;" 
d="M402 331q0 -65 -40.5 -108t-103.5 -43q-53 0 -85 34t-32 88q0 66 40.5 109t103.5 43q53 0 85 -34t32 -89z" />
    <glyph glyph-name="ellipsis" unicode="&#x2026;" horiz-adv-x="789" 
d="M710 75q0 -37 -24.5 -61.5t-62.5 -24.5q-36 0 -56 20t-20 56q0 37 24.5 61.5t62.5 24.5q36 0 56 -20t20 -56zM453 75q0 -37 -24.5 -61.5t-62.5 -24.5q-36 0 -56 20t-20 56q0 37 24.5 61.5t62.5 24.5q36 0 56 -20t20 -56zM193 75q0 -37 -25 -61.5t-63 -24.5
q-36 0 -55.5 20t-19.5 56q0 37 24.5 61.5t62.5 24.5q36 0 56 -20t20 -56z" />
    <glyph glyph-name="perthousand" unicode="&#x2030;" horiz-adv-x="1170" 
d="M1125 201q0 -90 -49.5 -151t-126.5 -61q-73 0 -112 45t-39 131q0 90 50 150.5t127 60.5q73 0 111.5 -45t38.5 -130zM772 201q0 -90 -49.5 -151t-126.5 -61q-73 0 -111.5 45t-38.5 131q0 90 49.5 150.5t126.5 60.5q73 0 111.5 -44.5t38.5 -130.5zM667 615l-460 -628
l-56 43l460 628zM372 480q0 -90 -50 -151t-127 -61q-73 0 -111.5 45.5t-38.5 130.5q0 90 49.5 151t126.5 61q73 0 112 -45t39 -131zM1022 202q0 90 -52 90q-35 0 -52.5 -38t-17.5 -89q0 -90 53 -90q32 0 50.5 38.5t18.5 88.5zM670 202q0 90 -53 90q-35 0 -52 -38t-17 -89
q0 -89 52 -89q32 0 51 38.5t19 87.5zM269 482q0 89 -52 89q-35 0 -52.5 -38t-17.5 -89q0 -89 53 -89q32 0 50.5 38.5t18.5 88.5z" />
    <glyph glyph-name="guilsinglleft" unicode="&#x2039;" horiz-adv-x="289" 
d="M256 400l-144 -146l103 -160l-71 -50l-123 183l10 65l165 168z" />
    <glyph glyph-name="guilsinglright" unicode="&#x203a;" horiz-adv-x="289" 
d="M261 281l-9 -65l-165 -168l-61 60l145 146l-103 160l70 50z" />
    <glyph glyph-name="fraction" unicode="&#x2044;" horiz-adv-x="146" 
d="M339 617l-459 -628l-55 40l460 628z" />
    <glyph glyph-name="zero.superior" unicode="&#x2070;" horiz-adv-x="400" 
d="M391 616q0 -100 -45 -171t-130 -71q-133 0 -133 154q0 100 45 171t130 71q133 0 133 -154zM291 616q0 70 -41 70q-33 0 -49 -54t-16 -103q0 -71 39 -71q18 0 32 18t21 44.5t10.5 51.5t3.5 44z" />
    <glyph glyph-name="four.superior" unicode="&#x2074;" horiz-adv-x="400" 
d="M404 533l-10 -78h-52l-9 -73h-107l9 73h-191l11 78l204 239h124l-31 -239h52zM264 685l-125 -152h106z" />
    <glyph glyph-name="five.superior" unicode="&#x2075;" horiz-adv-x="400" 
d="M389 764l-11 -84h-157l-14 -52q19 6 55 6q23 0 47 -8.5t46 -36.5t22 -73q0 -68 -49 -105t-116 -37q-92 0 -147 55l54 69q36 -40 86 -40q32 0 51 14.5t19 39.5t-16.5 37t-41.5 12q-33 0 -61 -21l-53 24l51 200h235z" />
    <glyph glyph-name="six.superior" unicode="&#x2076;" horiz-adv-x="400" 
d="M392 739l-39 -69q-30 24 -77 24q-37 0 -59.5 -25t-25.5 -62q33 25 85 25q41 0 74 -26.5t33 -84.5q0 -66 -42.5 -105.5t-116.5 -39.5q-69 0 -103.5 45.5t-34.5 110.5q0 100 45.5 170t144.5 70q74 0 116 -33zM286 512q0 23 -14 35t-34 12q-17 0 -34 -9t-22 -17
q-1 -12 -1 -21q0 -23 13.5 -38.5t35.5 -15.5q25 0 40.5 15t15.5 39z" />
    <glyph glyph-name="seven.superior" unicode="&#x2077;" horiz-adv-x="400" 
d="M404 764l-13 -85l-177 -297h-112l182 294h-173l13 88h280z" />
    <glyph glyph-name="eight.superior" unicode="&#x2078;" horiz-adv-x="400" 
d="M393 674q0 -30 -21 -53.5t-50 -33.5q58 -23 58 -86q0 -61 -47.5 -93t-111.5 -32q-63 0 -103 25.5t-40 78.5q0 39 25 64.5t53 34.5q-46 19 -46 78q0 54 44 84.5t106 30.5q61 0 97 -25t36 -73zM296 664q0 16 -12 26t-31 10q-20 0 -33.5 -11.5t-13.5 -27.5q0 -31 35 -39
l12 -3l14 7q29 13 29 38zM284 498q0 26 -44 43l-16 6l-10 -5q-36 -19 -36 -47q0 -16 14.5 -29t37.5 -13q24 0 39 13.5t15 31.5z" />
    <glyph glyph-name="nine.superior" unicode="&#x2079;" horiz-adv-x="400" 
d="M389 616q0 -99 -46 -169.5t-145 -70.5q-75 0 -115 33l39 71q29 -24 75 -24q37 0 60 24.5t26 60.5q-36 -24 -85 -24q-41 0 -74 26t-33 85q0 65 43 104.5t117 39.5q69 0 103.5 -45.5t34.5 -110.5zM293 639q0 23 -13.5 38.5t-35.5 15.5t-37.5 -15t-15.5 -39q0 -23 13.5 -35
t33.5 -12q15 0 32 8.5t21 17.5q2 13 2 21z" />
    <glyph glyph-name="zero.inferior" unicode="&#x2080;" horiz-adv-x="400" 
d="M328 114q0 -100 -45 -171t-130 -71q-133 0 -133 154q0 100 45 171t130 71q133 0 133 -154zM228 114q0 70 -41 70q-33 0 -49 -54t-16 -103q0 -71 39 -71q18 0 32 18t21 44.5t10.5 51.5t3.5 44z" />
    <glyph glyph-name="one.inferior" unicode="&#x2081;" horiz-adv-x="400" 
d="M270 272l-51 -392h-107l36 270q-27 -18 -76 -28l-20 80q31 6 72.5 26.5t63.5 43.5h82z" />
    <glyph glyph-name="two.inferior" unicode="&#x2082;" horiz-adv-x="400" 
d="M333 171q0 -24 -7 -43t-23 -36t-25.5 -24.5t-31.5 -23.5q-7 -5 -21.5 -15.5t-22 -15.5t-18 -13.5t-19 -16t-15.5 -16.5h171l-12 -87h-312q13 96 133 184q8 6 23.5 17t27 19t23 17.5t18 18.5t6.5 16q0 38 -53 38q-46 0 -93 -45l-42 71q12 12 29 23.5t52 24.5t72 13
q62 0 101 -28.5t39 -77.5z" />
    <glyph glyph-name="three.inferior" unicode="&#x2083;" horiz-adv-x="400" 
d="M313 171q0 -38 -26 -61t-48 -26q60 -18 60 -83q0 -60 -47.5 -95t-111.5 -35q-92 0 -143 65l55 61q36 -45 82 -45q27 0 47 12.5t20 36.5q0 42 -54 42h-41l9 74h41q28 0 44 10.5t16 28.5q0 39 -53 39q-40 0 -84 -33l-35 63q66 49 138 49q53 0 92 -26t39 -77z" />
    <glyph glyph-name="four.inferior" unicode="&#x2084;" horiz-adv-x="400" 
d="M341 31l-10 -78h-52l-9 -73h-107l9 73h-191l11 78l204 239h124l-31 -239h52zM201 183l-125 -152h106z" />
    <glyph glyph-name="five.inferior" unicode="&#x2085;" horiz-adv-x="400" 
d="M326 262l-11 -84h-157l-14 -52q19 6 55 6q23 0 47 -8.5t46 -36.5t22 -73q0 -68 -49 -105t-116 -37q-92 0 -147 55l54 69q36 -40 86 -40q32 0 51 14.5t19 39.5t-16.5 37t-41.5 12q-33 0 -61 -21l-53 24l51 200h235z" />
    <glyph glyph-name="six.inferior" unicode="&#x2086;" horiz-adv-x="400" 
d="M329 237l-39 -69q-30 24 -77 24q-37 0 -59.5 -25t-25.5 -62q33 25 85 25q41 0 74 -26.5t33 -84.5q0 -66 -42.5 -105.5t-116.5 -39.5q-69 0 -103.5 45.5t-34.5 110.5q0 100 45.5 170t144.5 70q74 0 116 -33zM223 10q0 23 -14 35t-34 12q-17 0 -34 -9t-22 -17
q-1 -12 -1 -21q0 -23 13.5 -38.5t35.5 -15.5q25 0 40.5 15t15.5 39z" />
    <glyph glyph-name="seven.inferior" unicode="&#x2087;" horiz-adv-x="400" 
d="M341 262l-13 -85l-177 -297h-112l182 294h-173l13 88h280z" />
    <glyph glyph-name="eight.inferior" unicode="&#x2088;" horiz-adv-x="400" 
d="M330 172q0 -30 -21 -53.5t-50 -33.5q58 -23 58 -86q0 -61 -47.5 -93t-111.5 -32q-63 0 -103 25.5t-40 78.5q0 39 25 64.5t53 34.5q-46 19 -46 78q0 54 44 84.5t106 30.5q61 0 97 -25t36 -73zM233 162q0 16 -12 26t-31 10q-20 0 -33.5 -11.5t-13.5 -27.5q0 -31 35 -39
l12 -3l14 7q29 13 29 38zM221 -4q0 26 -44 43l-16 6l-10 -5q-36 -19 -36 -47q0 -16 14.5 -29t37.5 -13q24 0 39 13.5t15 31.5z" />
    <glyph glyph-name="nine.inferior" unicode="&#x2089;" horiz-adv-x="400" 
d="M326 114q0 -99 -46 -169.5t-145 -70.5q-75 0 -115 33l39 71q29 -24 75 -24q37 0 60 24.5t26 60.5q-36 -24 -85 -24q-41 0 -74 26t-33 85q0 65 43 104.5t117 39.5q69 0 103.5 -45.5t34.5 -110.5zM230 137q0 23 -13.5 38.5t-35.5 15.5t-37.5 -15t-15.5 -39q0 -23 13.5 -35
t33.5 -12q15 0 32 8.5t21 17.5q2 13 2 21z" />
    <glyph glyph-name="Euro" unicode="&#x20ac;" 
d="M548 553l-70 -77q-6 10 -15 20.5t-32 23.5t-49 13q-40 0 -69.5 -29t-44.5 -76h152l-11 -77h-160q-4 -20 -5 -33l-4 -32h161l-10 -78h-150q5 -99 95 -99q58 0 117 59l56 -87l-3 -5l-9 -9t-12.5 -12t-17.5 -14.5t-22 -15t-27.5 -14t-32.5 -11.5t-38 -8t-43 -3
q-99 0 -150.5 58.5t-58.5 160.5h-60l11 78h49q2 22 4 32l3 33h-49l11 77h58q31 97 94.5 157t153.5 60q123 0 178 -92z" />
    <glyph glyph-name="litre" unicode="&#x2113;" horiz-adv-x="531" 
d="M410 113l35 -62q-71 -66 -150 -66q-65 0 -101 38q-41 42 -41 128v78l-58 -58l-36 54l94 93v208q0 95 39.5 148.5t110.5 53.5q58 0 85.5 -36t27.5 -83q0 -67 -30.5 -128t-89.5 -128q-27 -33 -36 -41v-149q0 -95 65 -95q40 0 85 45zM346 594q0 51 -36 51q-50 0 -50 -100
v-140q15 18 21 27q65 86 65 162z" />
    <glyph glyph-name="trademark" unicode="&#x2122;" horiz-adv-x="746" 
d="M701 635l-30 -347h-82l24 251l-91 -251h-80l-26 251l-41 -251h-76l62 347h111l26 -238l92 238h111zM326 635l-10 -68h-90l-36 -279h-80l36 279h-90l9 68h261z" />
    <glyph glyph-name="Omega" unicode="&#x2126;" horiz-adv-x="618" 
d="M595 0h-253v105q126 86 126 235q0 93 -44.5 142.5t-114.5 49.5t-114.5 -49.5t-44.5 -142.5q0 -150 126 -235v-105h-254v112h111q-4 2 -14 11t-25.5 29.5t-29 47t-23.5 68.5t-10 88q0 125 77.5 207t200.5 82t200.5 -82t77.5 -207q0 -46 -10 -88t-23.5 -68.5t-29 -47
t-25.5 -29.5t-14 -11h110v-112z" />
    <glyph glyph-name="estimated" unicode="&#x212e;" horiz-adv-x="691" 
d="M641 306h-472v-211q71 -68 168 -68q79 0 132 35.5t95 103.5l37 -23q-50 -76 -111 -115.5t-153 -39.5q-133 0 -216 92t-83 227q0 136 82 227.5t219 91.5t218.5 -91.5t83.5 -228.5zM507 345v173q-72 70 -169 70q-102 0 -169 -69v-174h338z" />
    <glyph glyph-name="onethird" unicode="&#x2153;" horiz-adv-x="839" 
d="M263 654l-51 -392h-107l36 270q-27 -18 -76 -28l-20 80q31 6 72.5 26.5t63.5 43.5h82zM634 617l-459 -628l-55 40l460 628zM787 291q0 -38 -26 -61t-48 -26q60 -18 60 -83q0 -60 -47.5 -95t-111.5 -35q-92 0 -143 65l55 61q36 -45 82 -45q27 0 47 12.5t20 36.5
q0 42 -54 42h-41l9 74h41q28 0 44 10.5t16 28.5q0 39 -53 39q-40 0 -84 -33l-35 63q66 49 138 49q53 0 92 -26t39 -77z" />
    <glyph glyph-name="twothirds" unicode="&#x2154;" horiz-adv-x="966" 
d="M761 617l-459 -628l-55 40l460 628zM370 553q0 -24 -7 -43t-23 -36t-25.5 -24.5t-31.5 -23.5q-7 -5 -21.5 -15.5t-22 -15.5t-18 -13.5t-19 -16t-15.5 -16.5h171l-12 -87h-312q13 96 133 184q8 6 23.5 17t27 19t23 17.5t18 18.5t6.5 16q0 38 -53 38q-46 0 -93 -45l-42 71
q12 12 29 23.5t52 24.5t72 13q62 0 101 -28.5t39 -77.5zM913 291q0 -38 -26 -61t-48 -26q60 -18 60 -83q0 -60 -47.5 -95t-111.5 -35q-92 0 -143 65l55 61q36 -45 82 -45q27 0 47 12.5t20 36.5q0 42 -54 42h-41l9 74h41q28 0 44 10.5t16 28.5q0 39 -53 39q-40 0 -84 -33
l-35 63q66 49 138 49q53 0 92 -26t39 -77z" />
    <glyph glyph-name="oneeighth" unicode="&#x215b;" horiz-adv-x="827" 
d="M251 654l-51 -392h-107l36 270q-27 -18 -76 -28l-20 80q31 6 72.5 26.5t63.5 43.5h82zM622 617l-459 -628l-55 40l460 628zM771 292q0 -30 -21 -53.5t-50 -33.5q58 -23 58 -86q0 -61 -47.5 -93t-111.5 -32q-63 0 -103 25.5t-40 78.5q0 39 25 64.5t53 34.5q-46 19 -46 78
q0 54 44 84.5t106 30.5q61 0 97 -25t36 -73zM674 282q0 16 -12 26t-31 10q-20 0 -33.5 -11.5t-13.5 -27.5q0 -31 35 -39l12 -3l14 7q29 13 29 38zM662 116q0 26 -44 43l-16 6l-10 -5q-36 -19 -36 -47q0 -16 14.5 -29t37.5 -13q24 0 39 13.5t15 31.5z" />
    <glyph glyph-name="threeeighths" unicode="&#x215c;" horiz-adv-x="897" 
d="M327 553q0 -38 -26 -61t-48 -26q60 -18 60 -83q0 -60 -47.5 -95t-111.5 -35q-92 0 -143 65l55 61q36 -45 82 -45q27 0 47 12.5t20 36.5q0 42 -54 42h-41l9 74h41q28 0 44 10.5t16 28.5q0 39 -53 39q-40 0 -84 -33l-35 63q66 49 138 49q53 0 92 -26t39 -77zM692 617
l-459 -628l-55 40l460 628zM845 292q0 -30 -21 -53.5t-50 -33.5q58 -23 58 -86q0 -61 -47.5 -93t-111.5 -32q-63 0 -103 25.5t-40 78.5q0 39 25 64.5t53 34.5q-46 19 -46 78q0 54 44 84.5t106 30.5q61 0 97 -25t36 -73zM748 282q0 16 -12 26t-31 10q-20 0 -33.5 -11.5
t-13.5 -27.5q0 -31 35 -39l12 -3l14 7q29 13 29 38zM736 116q0 26 -44 43l-16 6l-10 -5q-36 -19 -36 -47q0 -16 14.5 -29t37.5 -13q24 0 39 13.5t15 31.5z" />
    <glyph glyph-name="fiveeighths" unicode="&#x215d;" horiz-adv-x="907" 
d="M338 644l-11 -84h-157l-14 -52q19 6 55 6q23 0 47 -8.5t46 -36.5t22 -73q0 -68 -49 -105t-116 -37q-92 0 -147 55l54 69q36 -40 86 -40q32 0 51 14.5t19 39.5t-16.5 37t-41.5 12q-33 0 -61 -21l-53 24l51 200h235zM702 617l-459 -628l-55 40l460 628zM857 292
q0 -30 -21 -53.5t-50 -33.5q58 -23 58 -86q0 -61 -47.5 -93t-111.5 -32q-63 0 -103 25.5t-40 78.5q0 39 25 64.5t53 34.5q-46 19 -46 78q0 54 44 84.5t106 30.5q61 0 97 -25t36 -73zM760 282q0 16 -12 26t-31 10q-20 0 -33.5 -11.5t-13.5 -27.5q0 -31 35 -39l12 -3l14 7
q29 13 29 38zM748 116q0 26 -44 43l-16 6l-10 -5q-36 -19 -36 -47q0 -16 14.5 -29t37.5 -13q24 0 39 13.5t15 31.5z" />
    <glyph glyph-name="seveneighths" unicode="&#x215e;" horiz-adv-x="833" 
d="M349 644l-13 -85l-177 -297h-112l182 294h-173l13 88h280zM628 617l-459 -628l-55 40l460 628zM773 292q0 -30 -21 -53.5t-50 -33.5q58 -23 58 -86q0 -61 -47.5 -93t-111.5 -32q-63 0 -103 25.5t-40 78.5q0 39 25 64.5t53 34.5q-46 19 -46 78q0 54 44 84.5t106 30.5
q61 0 97 -25t36 -73zM676 282q0 16 -12 26t-31 10q-20 0 -33.5 -11.5t-13.5 -27.5q0 -31 35 -39l12 -3l14 7q29 13 29 38zM664 116q0 26 -44 43l-16 6l-10 -5q-36 -19 -36 -47q0 -16 14.5 -29t37.5 -13q24 0 39 13.5t15 31.5z" />
    <glyph glyph-name="partialdiff" unicode="&#x2202;" horiz-adv-x="569" 
d="M532 239q0 -114 -67.5 -181.5t-179.5 -67.5q-110 0 -179 63t-69 164q0 97 62.5 155.5t146.5 58.5q42 0 76.5 -12t47.5 -27q-36 73 -107.5 126t-146.5 76l44 89q146 -37 257 -151q24 -25 46.5 -58.5t45.5 -99.5t23 -135zM395 221q0 53 -30.5 86t-79.5 33t-80 -33.5
t-31 -85.5t30.5 -85t79.5 -33t80 33t31 85z" />
    <glyph glyph-name="Delta" unicode="&#x2206;" horiz-adv-x="569" 
d="M569 0h-569l284 654zM395 114l-110 271l-111 -271h221z" />
    <glyph glyph-name="product" unicode="&#x220f;" horiz-adv-x="569" 
d="M551 -193h-240v113h44v622h-133v-622h44v-113h-240v113h75v622h-75v112h525v-112h-75v-622h75v-113z" />
    <glyph glyph-name="summation" unicode="&#x2211;" horiz-adv-x="569" 
d="M544 -193h-521v97l231 346l-226 312v92h506v-252h-117v136h-219l210 -288l-219 -326h238v169h117v-286z" />
    <glyph glyph-name="minus" unicode="&#x2212;" 
d="M491 366l-15 -108h-422l15 108h422z" />
    <glyph glyph-name="uni2215" unicode="&#x2215;" horiz-adv-x="384" 
d="M450 617l-459 -628l-55 40l460 628z" />
    <glyph glyph-name="uni2219" unicode="&#x2219;" horiz-adv-x="272" 
d="M219 288q0 -37 -24.5 -61.5t-62.5 -24.5q-36 0 -55.5 20t-19.5 56q0 38 24.5 62t62.5 24q36 0 55.5 -20t19.5 -56z" />
    <glyph glyph-name="radical" unicode="&#x221a;" horiz-adv-x="569" 
d="M549 519h-88l-157 -519h-122l-79 254h-68v117h153l54 -209l120 473h187v-116z" />
    <glyph glyph-name="infinity" unicode="&#x221e;" horiz-adv-x="569" 
d="M549 312q0 -62 -41 -102.5t-104 -40.5q-69 0 -119 61q-52 -61 -120 -61q-63 0 -104 40.5t-41 102.5q0 63 41 103.5t104 40.5q70 0 119 -62q51 62 120 62q63 0 104 -40.5t41 -103.5zM444 312q0 44 -48 44q-34 0 -67 -44q30 -43 67 -43q48 0 48 43zM240 312q-30 44 -67 44
q-48 0 -48 -44q0 -43 48 -43q35 0 67 43z" />
    <glyph glyph-name="integral" unicode="&#x222b;" horiz-adv-x="569" 
d="M455 646l-17 -103q-18 9 -40 9q-31 0 -42 -15q-11 -13 -11 -50v-549q0 -71 -34 -102q-38 -35 -103 -35q-55 0 -94 15l17 103q27 -9 41 -9q31 0 42 15q10 13 10 50v549q0 69 34 102q38 35 104 35q54 0 93 -15z" />
    <glyph glyph-name="approxequal" unicode="&#x2248;" 
d="M521 397q-80 -51 -158 -51q-31 0 -91 20t-83 20q-31 0 -63.5 -12t-47.5 -22l-28 91q73 48 157 48q31 0 91.5 -20t83.5 -20q54 0 111 38zM494 185q-73 -48 -158 -48q-31 0 -91.5 20t-83.5 20q-47 0 -110 -37l-28 91q76 51 157 51q31 0 91.5 -20t83.5 -20q31 0 63 12t47 22
z" />
    <glyph glyph-name="notequal" unicode="&#x2260;" 
d="M505 477l-15 -108h-136l-49 -113h172l-15 -108h-202l-58 -137h-115l58 136h-105l15 109h136l48 113h-171l15 108h202l58 136h114l-57 -136h105z" />
    <glyph glyph-name="lessequal" unicode="&#x2264;" 
d="M523 615l-16 -132l-308 -107l279 -107l-17 -123l-399 180l15 108zM457 108l-14 -108h-422l15 108h421z" />
    <glyph glyph-name="greaterequal" unicode="&#x2265;" 
d="M505 435l-15 -108l-446 -181l16 132l308 107l-279 107l17 123zM461 108l-15 -108h-422l15 108h422z" />
    <glyph glyph-name="lozenge" unicode="&#x25ca;" horiz-adv-x="569" 
d="M545 319l-260 -337l-261 336l260 337zM405 319l-120 161l-121 -161l120 -162z" />
    <glyph glyph-name="zero.fitted" unicode="&#xe097;" horiz-adv-x="563" 
d="M523 390q0 -105 -29.5 -194t-94 -148t-152.5 -59q-207 0 -207 255q0 78 17.5 149t51 128t87 90.5t120.5 33.5q207 0 207 -255zM378 392q0 133 -72 133q-30 0 -54 -28.5t-38 -72t-21.5 -90.5t-7.5 -89q0 -134 73 -134q30 0 54 28.5t38 72.5t21 91t7 89z" />
    <glyph glyph-name="two.fitted" unicode="&#xe098;" 
d="M498 468q0 -29 -9.5 -57.5t-21.5 -48t-33 -41.5t-33 -32t-34 -26.5t-24 -17.5q-112 -85 -133 -123h271l-15 -122h-459q7 50 27 94.5t53 83t54.5 60t58.5 52.5q15 13 51.5 42t53 43.5t32.5 37t16 41.5q0 37 -25.5 55t-66.5 18q-36 0 -73.5 -20.5t-61.5 -49.5l-71 93
q97 95 231 95q88 0 150 -45.5t62 -131.5z" />
    <glyph glyph-name="three.fitted" unicode="&#xe099;" horiz-adv-x="522" 
d="M483 483q0 -36 -14.5 -65.5t-36 -46t-41.5 -26t-36 -11.5q48 -13 76.5 -51.5t28.5 -92.5q0 -93 -82 -152q-66 -49 -170 -49q-134 0 -218 101l77 90q23 -29 61.5 -50t78.5 -21q46 0 77 22.5t31 63.5t-25 61t-67 20h-60l15 112h63q43 0 70.5 20t27.5 52t-23 51.5t-67 19.5
q-40 0 -74.5 -17t-51.5 -35l-58 93q3 3 9 8t26.5 17.5t42.5 22t56 17.5t69 8q96 0 155.5 -43.5t59.5 -118.5z" />
    <glyph glyph-name="four.fitted" unicode="&#xe09a;" 
d="M522 245l-15 -113h-70l-18 -132h-150l18 132h-284l16 122l313 381h169l-50 -390h71zM335 502l-203 -257h170z" />
    <glyph glyph-name="five.fitted" unicode="&#xe09b;" 
d="M516 635l-15 -119h-243l-33 -116q25 15 85 15q26 0 54.5 -9t59.5 -29t50.5 -60t19.5 -93q0 -109 -75.5 -171.5t-181.5 -62.5q-146 0 -227 95l77 92q20 -25 59 -46.5t81 -21.5q50 0 86 27.5t36 75.5t-29 72.5t-72 24.5q-59 0 -98 -39l-80 40l88 325h358z" />
    <glyph glyph-name="six.fitted" unicode="&#xe09c;" horiz-adv-x="551" 
d="M519 590l-57 -99q-4 5 -17 13t-42 17.5t-61 9.5q-55 0 -93 -38q-49 -49 -57 -129q58 45 138 45q31 0 59.5 -9.5t55 -29.5t42.5 -57t16 -86q0 -111 -70 -174.5t-178 -63.5q-102 0 -158.5 71t-56.5 185q0 104 27 184.5t68 125.5q82 90 209 90q108 0 175 -55zM358 215
q0 42 -22.5 65t-56.5 23q-29 0 -56.5 -16t-41.5 -37q-2 -18 -2 -36q0 -49 21.5 -79t62.5 -30q42 0 68.5 30.5t26.5 79.5z" />
    <glyph glyph-name="seven.fitted" unicode="&#xe09d;" horiz-adv-x="500" 
d="M500 635l-17 -116l-305 -519h-159l314 515h-295l18 120h444z" />
    <glyph glyph-name="eight.fitted" unicode="&#xe09e;" horiz-adv-x="552" 
d="M522 485q0 -52 -36 -91t-83 -55q39 -16 68 -53.5t29 -93.5q0 -96 -73.5 -149.5t-173.5 -53.5q-98 0 -160.5 43t-62.5 129q0 66 41.5 109t91.5 58q-79 38 -79 132q0 84 68 134.5t165 50.5q94 0 149.5 -42t55.5 -118zM381 471q0 33 -20.5 51t-54.5 18t-58 -21t-24 -53
q0 -29 18 -47.5t44 -25.5l20 -6l27 13q48 25 48 71zM360 187q0 57 -73 83l-29 11l-18 -8q-66 -30 -66 -93q0 -34 25.5 -56.5t65.5 -22.5q39 0 67 25t28 61z" />
    <glyph glyph-name="nine.fitted" unicode="&#xe09f;" horiz-adv-x="550" 
d="M510 390q0 -195 -91 -305q-80 -96 -210 -96q-113 0 -181 59l58 97q5 -5 18.5 -13t43 -18t60.5 -10q55 0 94 39q46 45 55 127q-59 -44 -137 -44q-69 0 -121 44t-52 138q0 105 67.5 171t180.5 66q73 0 123.5 -38t71 -93.5t20.5 -123.5zM371 425q0 48 -21.5 78t-62.5 30
q-43 0 -69.5 -30t-26.5 -79q0 -42 23 -65t57 -23q29 0 56.5 16.5t41.5 35.5q2 20 2 37z" />
    <glyph glyph-name="zero.taboldstyle" unicode="&#xe100;" horiz-adv-x="570" 
d="M514 288q0 -128 -69.5 -213t-191.5 -85q-93 0 -145.5 56t-52.5 150q0 128 69.5 213t191.5 85q93 0 145.5 -56t52.5 -150zM369 278q0 100 -68 100q-35 0 -59.5 -31t-33 -67.5t-8.5 -72.5q0 -100 68 -100q36 0 60 31t32.5 67.5t8.5 72.5z" />
    <glyph glyph-name="one.taboldstyle" unicode="&#xe101;" horiz-adv-x="570" 
d="M432 489l-63 -489h-150l42 322q-51 -29 -94 -38l-29 107q51 13 89 32q63 30 87 66h118z" />
    <glyph glyph-name="two.taboldstyle" unicode="&#xe102;" horiz-adv-x="570" 
d="M517 117l-15 -117h-450q28 126 136 212q22 18 48.5 34.5t62.5 35t37 19.5q22 12 29.5 18.5t7.5 17.5q0 19 -18 29.5t-48 10.5q-80 0 -151 -55l-50 98q31 26 90.5 50t126.5 24q81 0 136.5 -37.5t55.5 -106.5q0 -23 -6.5 -43t-17 -34.5t-24 -27.5t-28.5 -21.5t-30 -16.5
t-28 -14q-10 -5 -36.5 -18t-37.5 -19.5t-27 -17t-26 -21.5h263z" />
    <glyph glyph-name="three.taboldstyle" unicode="&#xe103;" horiz-adv-x="570" 
d="M526 333q0 -35 -14.5 -63t-36 -44.5t-41.5 -25t-36 -11.5q43 -11 74.5 -47.5t31.5 -94.5q0 -92 -86 -151q-67 -47 -163 -47q-59 0 -114.5 27t-97.5 71l74 89q21 -26 57.5 -47t77.5 -21q47 0 77 22.5t30 64.5q0 75 -88 75h-57l15 112h59q43 0 68.5 20t25.5 51t-21.5 49
t-63.5 18q-62 0 -122 -50l-54 94q4 5 24 19.5t70 32.5t104 18q93 0 150 -43t57 -118z" />
    <glyph glyph-name="four.taboldstyle" unicode="&#xe104;" horiz-adv-x="570" 
d="M545 114l-16 -113h-70l-20 -146h-150l20 146h-284l16 122l311 366h169l-48 -375h72zM356 360l-204 -246h171z" />
    <glyph glyph-name="five.taboldstyle" unicode="&#xe105;" horiz-adv-x="570" 
d="M536 485l-15 -116h-243l-34 -114q22 14 84 14q27 0 56 -8.5t59.5 -28t50 -59.5t19.5 -94q0 -108 -75 -169t-181 -61q-47 0 -85.5 9.5t-66.5 28t-42 30.5t-30 30l74 89q60 -69 140 -69q52 0 86.5 28t34.5 77q0 46 -30 69t-70 23q-63 0 -102 -37l-76 39l88 319h358z" />
    <glyph glyph-name="six.taboldstyle" unicode="&#xe106;" horiz-adv-x="570" 
d="M523 579l-58 -95q-6 6 -16.5 13.5t-39.5 17.5t-60 10q-53 0 -91 -36q-47 -44 -58 -129q54 49 134 49q69 0 121.5 -43.5t52.5 -137.5q0 -106 -66.5 -172.5t-181.5 -66.5q-75 0 -124.5 38.5t-69.5 95t-20 127.5q0 190 92 297q79 91 208 91q111 0 177 -59zM363 216
q0 43 -22.5 65.5t-57.5 22.5q-30 0 -56 -17.5t-40 -36.5q-3 -21 -3 -34q0 -51 21.5 -81.5t61.5 -30.5q43 0 69.5 30.5t26.5 81.5z" />
    <glyph glyph-name="seven.taboldstyle" unicode="&#xe107;" horiz-adv-x="570" 
d="M525 485l-19 -115l-304 -515h-158l312 511h-293l18 119h444z" />
    <glyph glyph-name="eight.taboldstyle" unicode="&#xe108;" horiz-adv-x="570" 
d="M524 480q0 -54 -36.5 -91t-79.5 -49q96 -49 96 -149q0 -95 -70.5 -148.5t-170.5 -53.5q-99 0 -158 42t-59 128q0 68 39.5 111t88.5 59q-76 38 -76 128q0 86 64.5 135t161.5 49q93 0 146.5 -42t53.5 -119zM386 471q0 65 -71 65q-34 0 -57 -19.5t-23 -51.5q0 -27 14.5 -44
t33.5 -23l30 -12l32 17q41 23 41 68zM362 186q0 60 -67 84l-28 11l-19 -8q-61 -27 -61 -94q0 -36 21.5 -58t62.5 -22q42 0 66.5 24.5t24.5 62.5z" />
    <glyph glyph-name="nine.taboldstyle" unicode="&#xe109;" horiz-adv-x="570" 
d="M525 234q0 -192 -92 -296q-79 -90 -210 -90q-54 0 -102.5 17t-75.5 41l56 98q4 -5 18 -13.5t43.5 -18t61.5 -9.5q53 0 92 34q50 43 59 127q-63 -50 -145 -50q-66 0 -116.5 46.5t-50.5 139.5q0 104 66 169t181 65q109 0 162 -74.5t53 -185.5zM384 238q3 15 3 39
q0 50 -23 77.5t-63 27.5q-43 0 -69.5 -30t-26.5 -80q0 -43 24 -65.5t60 -22.5q56 0 95 54z" />
    <glyph glyph-name="zero.denominator" unicode="&#xe10a;" horiz-adv-x="400" 
d="M347 234q0 -100 -45 -171t-130 -71q-133 0 -133 154q0 100 45 171t130 71q133 0 133 -154zM247 234q0 70 -41 70q-33 0 -49 -54t-16 -103q0 -71 39 -71q18 0 32 18t21 44.5t10.5 51.5t3.5 44z" />
    <glyph glyph-name="one.denominator" unicode="&#xe10b;" horiz-adv-x="400" 
d="M289 392l-51 -392h-107l36 270q-27 -18 -76 -28l-20 80q31 6 72.5 26.5t63.5 43.5h82z" />
    <glyph glyph-name="two.denominator" unicode="&#xe10c;" horiz-adv-x="400" 
d="M352 291q0 -24 -7 -43t-23 -36t-25.5 -24.5t-31.5 -23.5q-7 -5 -21.5 -15.5t-22 -15.5t-18 -13.5t-19 -16t-15.5 -16.5h171l-12 -87h-312q13 96 133 184q8 6 23.5 17t27 19t23 17.5t18 18.5t6.5 16q0 38 -53 38q-46 0 -93 -45l-42 71q12 12 29 23.5t52 24.5t72 13
q62 0 101 -28.5t39 -77.5z" />
    <glyph glyph-name="three.denominator" unicode="&#xe10d;" horiz-adv-x="400" 
d="M332 291q0 -38 -26 -61t-48 -26q60 -18 60 -83q0 -60 -47.5 -95t-111.5 -35q-92 0 -143 65l55 61q36 -45 82 -45q27 0 47 12.5t20 36.5q0 42 -54 42h-41l9 74h41q28 0 44 10.5t16 28.5q0 39 -53 39q-40 0 -84 -33l-35 63q66 49 138 49q53 0 92 -26t39 -77z" />
    <glyph glyph-name="four.denominator" unicode="&#xe10e;" horiz-adv-x="400" 
d="M360 151l-10 -78h-52l-9 -73h-107l9 73h-191l11 78l204 239h124l-31 -239h52zM220 303l-125 -152h106z" />
    <glyph glyph-name="five.denominator" unicode="&#xe10f;" horiz-adv-x="400" 
d="M345 382l-11 -84h-157l-14 -52q19 6 55 6q23 0 47 -8.5t46 -36.5t22 -73q0 -68 -49 -105t-116 -37q-92 0 -147 55l54 69q36 -40 86 -40q32 0 51 14.5t19 39.5t-16.5 37t-41.5 12q-33 0 -61 -21l-53 24l51 200h235z" />
    <glyph glyph-name="six.denominator" unicode="&#xe110;" horiz-adv-x="400" 
d="M348 357l-39 -69q-30 24 -77 24q-37 0 -59.5 -25t-25.5 -62q33 25 85 25q41 0 74 -26.5t33 -84.5q0 -66 -42.5 -105.5t-116.5 -39.5q-69 0 -103.5 45.5t-34.5 110.5q0 100 45.5 170t144.5 70q74 0 116 -33zM242 130q0 23 -14 35t-34 12q-17 0 -34 -9t-22 -17
q-1 -12 -1 -21q0 -23 13.5 -38.5t35.5 -15.5q25 0 40.5 15t15.5 39z" />
    <glyph glyph-name="seven.denominator" unicode="&#xe111;" horiz-adv-x="400" 
d="M360 382l-13 -85l-177 -297h-112l182 294h-173l13 88h280z" />
    <glyph glyph-name="eight.denominator" unicode="&#xe112;" horiz-adv-x="400" 
d="M349 292q0 -30 -21 -53.5t-50 -33.5q58 -23 58 -86q0 -61 -47.5 -93t-111.5 -32q-63 0 -103 25.5t-40 78.5q0 39 25 64.5t53 34.5q-46 19 -46 78q0 54 44 84.5t106 30.5q61 0 97 -25t36 -73zM252 282q0 16 -12 26t-31 10q-20 0 -33.5 -11.5t-13.5 -27.5q0 -31 35 -39
l12 -3l14 7q29 13 29 38zM240 116q0 26 -44 43l-16 6l-10 -5q-36 -19 -36 -47q0 -16 14.5 -29t37.5 -13q24 0 39 13.5t15 31.5z" />
    <glyph glyph-name="nine.denominator" unicode="&#xe113;" horiz-adv-x="400" 
d="M345 234q0 -99 -46 -169.5t-145 -70.5q-75 0 -115 33l39 71q29 -24 75 -24q37 0 60 24.5t26 60.5q-36 -24 -85 -24q-41 0 -74 26t-33 85q0 65 43 104.5t117 39.5q69 0 103.5 -45.5t34.5 -110.5zM249 257q0 23 -13.5 38.5t-35.5 15.5t-37.5 -15t-15.5 -39q0 -23 13.5 -35
t33.5 -12q15 0 32 8.5t21 17.5q2 13 2 21z" />
    <glyph glyph-name="zero.numerator" unicode="&#xe11e;" horiz-adv-x="400" 
d="M375 496q0 -100 -45 -171t-130 -71q-133 0 -133 154q0 100 45 171t130 71q133 0 133 -154zM275 496q0 70 -41 70q-33 0 -49 -54t-16 -103q0 -71 39 -71q18 0 32 18t21 44.5t10.5 51.5t3.5 44z" />
    <glyph glyph-name="one.numerator" unicode="&#xe11f;" horiz-adv-x="400" 
d="M317 654l-51 -392h-107l36 270q-27 -18 -76 -28l-20 80q31 6 72.5 26.5t63.5 43.5h82z" />
    <glyph glyph-name="two.numerator" unicode="&#xe120;" horiz-adv-x="400" 
d="M380 553q0 -24 -7 -43t-23 -36t-25.5 -24.5t-31.5 -23.5q-7 -5 -21.5 -15.5t-22 -15.5t-18 -13.5t-19 -16t-15.5 -16.5h171l-12 -87h-312q13 96 133 184q8 6 23.5 17t27 19t23 17.5t18 18.5t6.5 16q0 38 -53 38q-46 0 -93 -45l-42 71q12 12 29 23.5t52 24.5t72 13
q62 0 101 -28.5t39 -77.5z" />
    <glyph glyph-name="three.numerator" unicode="&#xe121;" horiz-adv-x="400" 
d="M360 553q0 -38 -26 -61t-48 -26q60 -18 60 -83q0 -60 -47.5 -95t-111.5 -35q-92 0 -143 65l55 61q36 -45 82 -45q27 0 47 12.5t20 36.5q0 42 -54 42h-41l9 74h41q28 0 44 10.5t16 28.5q0 39 -53 39q-40 0 -84 -33l-35 63q66 49 138 49q53 0 92 -26t39 -77z" />
    <glyph glyph-name="four.numerator" unicode="&#xe122;" horiz-adv-x="400" 
d="M388 413l-10 -78h-52l-9 -73h-107l9 73h-191l11 78l204 239h124l-31 -239h52zM248 565l-125 -152h106z" />
    <glyph glyph-name="five.numerator" unicode="&#xe123;" horiz-adv-x="400" 
d="M373 644l-11 -84h-157l-14 -52q19 6 55 6q23 0 47 -8.5t46 -36.5t22 -73q0 -68 -49 -105t-116 -37q-92 0 -147 55l54 69q36 -40 86 -40q32 0 51 14.5t19 39.5t-16.5 37t-41.5 12q-33 0 -61 -21l-53 24l51 200h235z" />
    <glyph glyph-name="six.numerator" unicode="&#xe124;" horiz-adv-x="400" 
d="M376 619l-39 -69q-30 24 -77 24q-37 0 -59.5 -25t-25.5 -62q33 25 85 25q41 0 74 -26.5t33 -84.5q0 -66 -42.5 -105.5t-116.5 -39.5q-69 0 -103.5 45.5t-34.5 110.5q0 100 45.5 170t144.5 70q74 0 116 -33zM270 392q0 23 -14 35t-34 12q-17 0 -34 -9t-22 -17
q-1 -12 -1 -21q0 -23 13.5 -38.5t35.5 -15.5q25 0 40.5 15t15.5 39z" />
    <glyph glyph-name="seven.numerator" unicode="&#xe125;" horiz-adv-x="400" 
d="M388 644l-13 -85l-177 -297h-112l182 294h-173l13 88h280z" />
    <glyph glyph-name="eight.numerator" unicode="&#xe126;" horiz-adv-x="400" 
d="M377 554q0 -30 -21 -53.5t-50 -33.5q58 -23 58 -86q0 -61 -47.5 -93t-111.5 -32q-63 0 -103 25.5t-40 78.5q0 39 25 64.5t53 34.5q-46 19 -46 78q0 54 44 84.5t106 30.5q61 0 97 -25t36 -73zM280 544q0 16 -12 26t-31 10q-20 0 -33.5 -11.5t-13.5 -27.5q0 -31 35 -39
l12 -3l14 7q29 13 29 38zM268 378q0 27 -44 43l-16 6l-10 -5q-36 -19 -36 -47q0 -16 14.5 -29t37.5 -13q24 0 39 13.5t15 31.5z" />
    <glyph glyph-name="nine.numerator" unicode="&#xe127;" horiz-adv-x="400" 
d="M373 496q0 -99 -46 -169.5t-145 -70.5q-75 0 -115 33l39 71q29 -24 75 -24q37 0 60 24.5t26 60.5q-36 -24 -85 -24q-41 0 -74 26t-33 85q0 65 43 104.5t117 39.5q69 0 103.5 -45.5t34.5 -110.5zM277 519q0 23 -13.5 38.5t-35.5 15.5t-37.5 -15t-15.5 -39q0 -23 13.5 -35
t33.5 -12q15 0 32 8.5t21 17.5q2 13 2 21z" />
    <glyph glyph-name="guillemotleft.cap" unicode="&#xe134;" horiz-adv-x="495" 
d="M470 476l-144 -146l103 -160l-70 -50l-123 183l9 65l165 168zM263 476l-144 -146l103 -160l-70 -50l-123 183l9 65l165 168z" />
    <glyph glyph-name="guillemotright.cap" unicode="&#xe135;" horiz-adv-x="495" 
d="M475 357l-9 -65l-165 -168l-60 60l144 146l-103 160l71 50zM268 357l-9 -65l-165 -168l-60 60l144 146l-103 160l71 50z" />
    <glyph glyph-name="guilsinglleft.cap" unicode="&#xe136;" horiz-adv-x="289" 
d="M257 476l-144 -146l103 -160l-71 -50l-123 183l10 65l165 168z" />
    <glyph glyph-name="guilsinglright.cap" unicode="&#xe137;" horiz-adv-x="289" 
d="M262 357l-9 -65l-165 -168l-61 60l145 146l-103 160l70 50z" />
    <glyph glyph-name="braceleft.cap" unicode="&#xe139;" horiz-adv-x="345" 
d="M353 654l-57 -7q-30 -4 -39 -19t-16 -53q-1 -6 -2 -9l-24 -139q-9 -51 -31 -79t-67 -35l-1 -3q71 -11 71 -90q0 -3 -0.5 -9t-0.5 -9l-12 -151q0 -3 -0.5 -7.5t-0.5 -6.5q0 -31 13 -43t41 -17l40 -7l-18 -78l-98 10q-47 5 -71.5 34.5t-24.5 79.5q0 3 0.5 8t0.5 7l12 161
q0 3 0.5 9t0.5 8q0 27 -9 40t-33 13l-19 -1l16 101h19q47 0 61 85l25 146q20 120 115 129l103 10z" />
    <glyph glyph-name="braceright.cap" unicode="&#xe13a;" horiz-adv-x="345" 
d="M346 362l-15 -101h-20q-27 0 -40.5 -21.5t-20.5 -62.5l-24 -146q-20 -121 -116 -130l-103 -9l-5 77l56 8q17 2 27 7.5t16 18.5t8 22t6 33l24 139q9 50 31.5 78.5t66.5 35.5l1 3q-71 11 -71 92q0 10 1 16l12 151q0 3 0.5 7.5t0.5 6.5q0 31 -13 42.5t-41 16.5l-40 8l18 78
l98 -11q95 -10 95 -113v-15l-12 -162q-1 -6 -1 -16q0 -53 42 -53h19z" />
    <glyph glyph-name="bracketleft.cap" unicode="&#xe13b;" horiz-adv-x="345" 
d="M350 731l-11 -81h-110l-85 -662h111l-10 -81h-228l106 824h227z" />
    <glyph glyph-name="bracketright.cap" unicode="&#xe13c;" horiz-adv-x="345" 
d="M338 731l-106 -824h-227l11 81h110l85 662h-111l11 81h227z" />
    <glyph glyph-name="emdash.cap" unicode="&#xe13d;" horiz-adv-x="778" 
d="M764 380l-16 -100h-714l16 100h714z" />
    <glyph glyph-name="endash.cap" unicode="&#xe13e;" horiz-adv-x="468" 
d="M446 380l-16 -100h-390l16 100h390z" />
    <glyph glyph-name="hyphen.cap" unicode="&#xe13f;" horiz-adv-x="313" 
d="M299 382l-17 -104h-248l17 104h248z" />
    <glyph glyph-name="parenleft.cap" unicode="&#xe140;" horiz-adv-x="345" 
d="M287 763l64 -62q-91 -91 -142 -207t-51 -244q0 -74 18 -139.5t34 -95t42 -68.5l-78 -61q-145 152 -145 369q0 294 258 508z" />
    <glyph glyph-name="parenright.cap" unicode="&#xe141;" horiz-adv-x="345" 
d="M335 394q0 -294 -258 -508l-64 62q91 91 142 207t51 244q0 74 -18 139.5t-34 95t-42 68.5l78 61q145 -152 145 -369z" />
    <glyph glyph-name="exclamdown.cap" unicode="&#xe142;" horiz-adv-x="292" 
d="M260 589q0 -37 -25 -60.5t-63 -23.5q-75 0 -75 74q0 37 24.5 60.5t62.5 23.5q36 0 56 -19t20 -55zM218 444l-35 -429h-155l77 429h113z" />
    <glyph glyph-name="questiondown.cap" unicode="&#xe143;" horiz-adv-x="438" 
d="M385 590q0 -38 -24.5 -61.5t-62.5 -23.5q-75 0 -75 74q0 38 24.5 61.5t62.5 23.5q75 0 75 -74zM418 79q-9 -9 -30.5 -23.5t-69.5 -31t-100 -16.5q-86 0 -141 43t-55 110q0 32 8 57t27 45.5t30 29.5t35 27l67 49q17 12 24 24q6 9 9 30l3 21h122l-2 -33q-4 -48 -14 -70
q-13 -25 -48 -50l-68 -46q-50 -33 -50 -64q0 -22 18.5 -36t55.5 -14q69 0 127 49z" />
    <glyph glyph-name="periodcentered.cap" unicode="&#xe22b;" horiz-adv-x="272" 
d="M229 348q0 -37 -24.5 -61.5t-62.5 -24.5q-36 0 -55.5 20t-19.5 56q0 38 24.5 62t62.5 24q36 0 55.5 -20t19.5 -56z" />
    <glyph glyph-name="Euro.oldstyle" unicode="&#xe506;" horiz-adv-x="498" 
d="M495 430l-60 -75q-40 44 -94 44q-32 0 -56.5 -17.5t-33.5 -46.5h131l-9 -69h-142q-6 -26 -6 -43h143l-9 -70h-131q4 -30 27 -45t55 -15q62 0 105 47l50 -80q-70 -70 -182 -70q-77 0 -128 42.5t-63 120.5h-57l9 70h46q0 15 5 43h-46l9 69h57q25 72 82.5 115.5t137.5 43.5
q102 0 160 -64z" />
    <glyph glyph-name="sterling.oldstyle" unicode="&#xe508;" horiz-adv-x="498" 
d="M482 420l-66 -78q-33 46 -85 46q-36 0 -55 -20t-19 -53q0 -17 5 -42h136l-9 -69h-118q3 -12 3 -24q0 -41 -27 -72h201l-13 -108h-419l12 90l96 16q24 33 24 70l-4 28h-82l9 69h64q0 2 -2.5 19t-2.5 28q0 75 52 124q54 50 147 50q45 0 88 -20.5t65 -53.5z" />
    <glyph glyph-name="yen.oldstyle" unicode="&#xe509;" horiz-adv-x="498" 
d="M504 485l-142 -202h98l-9 -70h-135l-8 -10l-4 -33h142l-9 -69h-142l-12 -101h-132l13 101h-142l9 69h141l5 33l-5 10h-136l9 70h98l-90 202h149l55 -180l100 180h147z" />
    <glyph glyph-name="florin.oldstyle" unicode="&#xe50a;" horiz-adv-x="498" 
d="M522 489l-47 -84q-32 20 -56 20q-19 0 -32.5 -11.5t-18.5 -23.5t-13 -37l-12 -39h106l-9 -70h-120l-43 -138q-32 -98 -76 -140q-47 -42 -119 -42q-63 0 -110 35l51 97q29 -17 56 -17q18 0 32.5 15t21 30t13.5 39l36 121h-93l8 70h108l21 68q28 89 73 120q40 28 106 28
q64 0 117 -41z" />
    <glyph glyph-name="perthousand.oldstyle" unicode="&#xe900;" horiz-adv-x="1083" 
d="M1043 171q0 -76 -45 -129t-121 -53q-60 0 -94 36.5t-34 99.5q0 76 45.5 129t121.5 53q60 0 93.5 -36.5t33.5 -99.5zM722 171q0 -76 -45.5 -129t-120.5 -53q-60 0 -94 36.5t-34 99.5q0 76 45.5 129t120.5 53q60 0 94 -36.5t34 -99.5zM573 458l-327 -470l-58 41l328 470z
M333 363q0 -77 -45 -130t-121 -53q-60 0 -94 36.5t-34 99.5q0 77 45.5 129.5t121.5 52.5q60 0 93.5 -36t33.5 -99zM946 164q0 57 -40 57q-28 0 -43.5 -27.5t-15.5 -61.5q0 -57 39 -57q28 0 44 28t16 61zM624 164q0 57 -39 57q-28 0 -43.5 -27.5t-15.5 -61.5q0 -57 39 -57
q28 0 43.5 27.5t15.5 61.5zM236 355q0 57 -40 57q-28 0 -43.5 -27.5t-15.5 -60.5q0 -58 39 -58q28 0 44 28t16 61z" />
    <glyph glyph-name="one.fitted" unicode="&#xf6dc;" horiz-adv-x="374" 
d="M334 636l-82 -636h-150l61 468q-49 -27 -98 -37l-27 107q41 9 91 32q65 32 87 66h118z" />
    <glyph glyph-name="dollar.oldstyle" unicode="&#xf724;" horiz-adv-x="498" 
d="M464 415l-61 -79q-40 38 -91 48l-12 -83l39 -15q101 -38 101 -128q0 -73 -60 -119q-50 -39 -122 -39l-11 -69h-74l11 70q-106 15 -160 83l68 79q52 -49 112 -58l12 86l-40 15q-97 37 -97 129q0 77 68 122q45 30 112 30l8 56h74l-9 -60q40 -6 77.5 -26.5t54.5 -41.5z
M246 389q-51 0 -51 -34q0 -4 0.5 -7.5t2 -6.5l2.5 -5t3 -4t3.5 -3t4.5 -2.5t4.5 -2.5t5 -2t4.5 -2l10 -4zM323 137q0 23 -42 39l-12 -76q24 1 39 11t15 26z" />
    <glyph glyph-name="zero.oldstyle" unicode="&#xf730;" horiz-adv-x="533" 
d="M496 288q0 -128 -69.5 -213t-191.5 -85q-93 0 -145.5 56t-52.5 150q0 128 69.5 213t191.5 85q93 0 145.5 -56t52.5 -150zM351 278q0 100 -68 100q-35 0 -59.5 -31t-33 -67.5t-8.5 -72.5q0 -100 68 -100q36 0 60 31t32.5 67.5t8.5 72.5z" />
    <glyph glyph-name="one.oldstyle" unicode="&#xf731;" horiz-adv-x="372" 
d="M324 489l-63 -489h-150l42 322q-51 -29 -94 -38l-29 107q51 13 89 32q63 30 87 66h118z" />
    <glyph glyph-name="two.oldstyle" unicode="&#xf732;" horiz-adv-x="514" 
d="M470 117l-15 -117h-450q28 126 136 212q22 18 48.5 34.5t62.5 35t37 19.5q22 12 29.5 18.5t7.5 17.5q0 19 -18 29.5t-48 10.5q-80 0 -151 -55l-50 98q31 26 90.5 50t126.5 24q81 0 136.5 -37.5t55.5 -106.5q0 -32 -11.5 -58t-32 -43.5t-40 -29t-41.5 -22.5q-6 -3 -9 -4
q-10 -5 -36.5 -18t-37.5 -19.5t-27 -17t-26 -21.5h263z" />
    <glyph glyph-name="three.oldstyle" unicode="&#xf733;" horiz-adv-x="531" 
d="M474 333q0 -35 -14.5 -63t-36 -44.5t-41.5 -25t-36 -11.5q43 -11 74.5 -47.5t31.5 -94.5q0 -92 -86 -151q-67 -47 -163 -47q-59 0 -114.5 27t-97.5 71l74 89q21 -26 57.5 -47t77.5 -21q47 0 77 22.5t30 64.5q0 75 -88 75h-57l15 112h59q43 0 68.5 20t25.5 51t-21.5 49
t-63.5 18q-62 0 -122 -50l-54 94q4 5 24 19.5t70 32.5t104 18q93 0 150 -43t57 -118z" />
    <glyph glyph-name="four.oldstyle" unicode="&#xf734;" 
d="M519 114l-16 -113h-70l-20 -146h-150l20 146h-284l16 122l311 366h169l-48 -375h72zM330 360l-204 -246h171z" />
    <glyph glyph-name="five.oldstyle" unicode="&#xf735;" 
d="M509 485l-15 -116h-243l-34 -114q22 14 84 14q27 0 56 -8.5t59.5 -28t50 -59.5t19.5 -94q0 -108 -75 -169t-181 -61q-47 0 -85.5 9.5t-66.5 28t-42 30.5t-30 30l74 89q60 -69 140 -69q52 0 86.5 28t34.5 77q0 46 -30 69t-70 23q-63 0 -102 -37l-76 39l88 319h358z" />
    <glyph glyph-name="six.oldstyle" unicode="&#xf736;" 
d="M518 579l-58 -95q-6 6 -16.5 13.5t-39.5 17.5t-60 10q-53 0 -91 -36q-47 -44 -58 -129q54 49 134 49q69 0 121.5 -43.5t52.5 -137.5q0 -106 -66.5 -172.5t-181.5 -66.5q-75 0 -124.5 38.5t-69.5 95t-20 127.5q0 190 92 297q79 91 208 91q111 0 177 -59zM358 216
q0 43 -22.5 65.5t-57.5 22.5q-30 0 -56 -17.5t-40 -36.5q-3 -21 -3 -34q0 -51 21.5 -81.5t61.5 -30.5q43 0 69.5 30.5t26.5 81.5z" />
    <glyph glyph-name="seven.oldstyle" unicode="&#xf737;" horiz-adv-x="535" 
d="M518 485l-19 -115l-304 -515h-158l312 511h-293l18 119h444z" />
    <glyph glyph-name="eight.oldstyle" unicode="&#xf738;" horiz-adv-x="548" 
d="M513 480q0 -54 -36.5 -91t-79.5 -49q96 -49 96 -149q0 -95 -70.5 -148.5t-170.5 -53.5q-99 0 -158 42t-59 128q0 68 39.5 111t88.5 59q-76 38 -76 128q0 86 64.5 135t161.5 49q93 0 146.5 -42t53.5 -119zM375 471q0 65 -71 65q-34 0 -57 -19.5t-23 -51.5q0 -27 14.5 -44
t33.5 -23l30 -12l32 17q41 23 41 68zM351 186q0 60 -67 84l-28 11l-19 -8q-61 -27 -61 -94q0 -36 21.5 -58t62.5 -22q42 0 66.5 24.5t24.5 62.5z" />
    <glyph glyph-name="nine.oldstyle" unicode="&#xf739;" horiz-adv-x="548" 
d="M506 234q0 -192 -92 -296q-79 -90 -210 -90q-54 0 -102.5 17t-75.5 41l56 98q4 -5 18 -13.5t43.5 -18t61.5 -9.5q53 0 92 34q50 43 59 127q-63 -50 -145 -50q-66 0 -116.5 46.5t-50.5 139.5q0 104 66 169t181 65q109 0 162 -74.5t53 -185.5zM365 238q3 15 3 39
q0 50 -23 77.5t-63 27.5q-43 0 -69.5 -30t-26.5 -80q0 -43 24 -65.5t60 -22.5q56 0 95 54z" />
    <glyph glyph-name="cent.oldstyle" unicode="&#xf7a2;" horiz-adv-x="498" 
d="M470 385l-60 -83q-24 37 -65 46l-28 -209q25 0 48.5 15t31.5 27l48 -86q-57 -62 -141 -68l-9 -73h-79l10 73q-63 9 -113 58t-50 141q0 105 64.5 169t155.5 66l8 69h79l-10 -75q39 -7 68.5 -29.5t41.5 -40.5zM270 350q-29 -5 -53 -35.5t-24 -83.5q0 -31 11 -52t20.5 -27
t17.5 -8z" />
    <glyph glyph-name="numbersign.oldstyle" unicode="&#xfe5f;" horiz-adv-x="486" 
d="M484 369l-26 -80h-77l-34 -107h78l-26 -81h-78l-32 -100h-85l32 100h-94l-32 -100h-85l32 100h-69l26 81h69l35 106h-76l26 81h76l32 100h85l-32 -100h94l31 100h85l-32 -100h77zM297 289h-94l-35 -107h94z" />
    <glyph glyph-name="percent.oldstyle" unicode="&#xfe6a;" horiz-adv-x="761" 
d="M722 171q0 -76 -45.5 -129t-120.5 -53q-60 0 -94 36.5t-34 99.5q0 76 45.5 129t120.5 53q60 0 94 -36.5t34 -99.5zM573 458l-327 -470l-58 41l328 470zM333 363q0 -77 -45 -130t-121 -53q-60 0 -94 36.5t-34 99.5q0 77 45.5 129.5t121.5 52.5q60 0 93.5 -36t33.5 -99z
M624 164q0 57 -39 57q-28 0 -43.5 -27.5t-15.5 -61.5q0 -57 39 -57q28 0 43.5 27.5t15.5 61.5zM236 355q0 57 -40 57q-28 0 -43.5 -27.5t-15.5 -60.5q0 -58 39 -58q28 0 44 28t16 61z" />
    </font>
</defs>
</svg>
