<?xml version="1.0" standalone="no"?> <!DOCTYPE svg PUBLIC "-//W3C//DTD SVG 1.0//EN" "http://www.w3.org/TR/2001/REC-SVG-20010904/DTD/svg10.dtd" > <svg xmlns="http://www.w3.org/2000/svg" width="100%" height="100%">
<defs >
<font id="HelveticaNeueLTStd-LtIt" horiz-adv-x="428" ><font-face
    font-family="HelveticaNeueLT Std Lt"
    units-per-em="1000"
    panose-1="2 11 4 3 2 2 2 9 2 4"
    ascent="714"
    descent="-286"
    alphabetic="0" />
<missing-glyph horiz-adv-x="575" d="M75 0V700H575V0H75ZM325 395L495 650H155L325 395ZM355 350L525 95V605L355 350ZM155 50H495L325 305L155 50ZM125 605V95L295 350L125 605Z" />
<glyph unicode=" " glyph-name="space" horiz-adv-x="278" />
<glyph unicode="!" glyph-name="exclam" horiz-adv-x="278" d="M107 0H23L46 106H131L107 0ZM122 178H84L137 492L185 714H252L204 491L122 178Z" />
<glyph unicode="&quot;" glyph-name="quotedbl" horiz-adv-x="370" d="M137 471V714H195V471H137ZM262 471V714H320V471H262Z" />
<glyph unicode="#" glyph-name="numbersign" horiz-adv-x="556" d="M497 268L487 223H386L355 0H305L336 223H195L164 0H114L145 223H35L45 268H151L173 424H63L73 469H179L210 691H260L229 469H370L401 691H451L420 469H525L515 424H414L392 268H497ZM364 424H223L201
268H342L364 424Z" />
<glyph unicode="$" glyph-name="dollar" horiz-adv-x="556" d="M268 406L324 671Q245 671 190 636T134 528Q134 477 165 452T254 410L268 406ZM297 332L236 44Q241 43 251 43Q331 44 392 83T454 196Q454 223 444 244T421 278T384 302T343 319T297 332ZM573 506H505Q504
583 471 620T368 667L310 393L330 387Q367 376 388 368T439 345T483 312T510 268T522 205Q522 181 516 155T492 98T444 42T364 2T246 -15Q230 -15 223 -14L205 -100H160L180 -9Q82 5 27 66T-23 235H45Q37 72 192 49L255 345L207 359Q66 400 66 525Q66 580 89 621T151
685T237 718T336 729L347 781H392L380 725Q473 713 525 660T573 506Z" />
<glyph unicode="%" glyph-name="percent" horiz-adv-x="833" d="M202 327Q138 327 103 366T67 468Q67 561 116 633T253 706Q314 706 350 667T387 567Q387 508 368 455T306 365T202 327ZM203 372Q267 372 300 433T334 564Q334 661 250 661Q218 661 192 641T151
591T128 528T120 466Q120 427 141 400T203 372ZM581 -15Q517 -15 482 24T446 126Q446 219 495 291T632 364Q693 364 729 325T766 225Q766 166 747 113T685 23T581 -15ZM581 30Q645 30 678 91T712 222Q712 319 628 319Q596 319 570 299T529 249T506 186T498 124Q498
85 519 58T581 30ZM104 -32L674 723H729L158 -32H104Z" />
<glyph unicode="&amp;" glyph-name="ampersand" horiz-adv-x="611" d="M278 420Q361 466 389 495Q425 531 425 572Q425 615 398 638T329 661Q285 661 254 632T222 559Q222 549 223 539T229 517T236 498T246 476T256 457T268 437T278 420ZM396 130L255 351Q216
332 193 319T140 282T95 229T80 164Q80 112 119 75T213 38Q320 38 396 130ZM489 315H552Q528 206 467 128L550 0H479L425 84Q344 -15 218 -15Q128 -15 73 33T17 168Q17 212 34 247T86 311T149 355T227 395Q202 433 192 449T171 498T159 561Q159 629 208 671T331
714Q395 714 441 680T488 584Q488 547 473 516T426 457T371 416T306 378L434 179Q470 224 489 315Z" />
<glyph unicode="&apos;" glyph-name="quotesingle" horiz-adv-x="278" d="M153 471V714H211V471H153Z" />
<glyph unicode="(" glyph-name="parenleft" horiz-adv-x="259" d="M156 -191H113Q40 14 49 188Q64 484 293 729H345Q224 581 166 434T107 101Q107 -26 156 -191Z" />
<glyph unicode=")" glyph-name="parenright" horiz-adv-x="259" d="M87 729H130Q203 524 194 350Q179 54 -50 -191H-102Q19 -43 77 104T136 437Q136 564 87 729Z" />
<glyph unicode="*" glyph-name="asterisk" horiz-adv-x="352" d="M173 561L72 616L93 651L195 594L221 714H260L235 590L351 614L356 576L241 551L301 449L263 430L204 536L118 444L90 471L173 561Z" />
<glyph unicode="+" glyph-name="plus" horiz-adv-x="600" d="M274 278V503H327V278H552V225H327V0H274V225H49V278H274Z" />
<glyph unicode="," glyph-name="comma" horiz-adv-x="278" d="M-12 -137L-4 -97Q18 -90 32 -74T52 -43T65 0H23L47 106H131L98 -34Q87 -80 63 -102T-12 -137Z" />
<glyph unicode="-" glyph-name="hyphen" horiz-adv-x="370" d="M38 246L50 304H301L289 246H38Z" />
<glyph unicode="." glyph-name="period" horiz-adv-x="278" d="M107 0H23L46 106H131L107 0Z" />
<glyph unicode="/" glyph-name="slash" horiz-adv-x="333" d="M391 729L-20 -15H-79L332 729H391Z" />
<glyph unicode="0" glyph-name="zero" horiz-adv-x="556" d="M216 -15Q162 -15 123 7T64 67T34 148T25 244Q25 299 36 359T71 482T130 594T218 675T333 706Q438 706 484 638T531 461Q531 385 514 307T461 154T362 32T216 -15ZM468 468Q468 653 326 653Q278 653
237 621T169 540T123 432T96 320T88 224Q88 38 231 38Q292 38 340 85T415 204T455 343T468 468Z" />
<glyph unicode="1" glyph-name="one" horiz-adv-x="556" d="M134 525L147 575Q307 599 369 700H417L267 0H204L328 581Q261 546 134 525Z" />
<glyph unicode="2" glyph-name="two" horiz-adv-x="556" d="M143 466H80Q85 570 152 638T322 706Q408 706 465 659T523 526Q523 481 508 443T461 375T398 323T321 275Q309 268 282 253T241 230T203 208T166 183T134 157T104 127T81 95T62 58H453L442 0H-11Q-9
43 7 81T43 146T99 200T161 244T230 285Q344 348 381 379Q460 444 460 528Q460 589 419 621T316 653Q239 653 193 600T143 466Z" />
<glyph unicode="3" glyph-name="three" horiz-adv-x="556" d="M9 222H72Q67 138 106 88T226 38Q305 38 360 87T415 212Q415 279 372 310T259 341H225L236 394H277Q458 394 458 531Q458 588 419 620T322 653Q248 653 204 609T147 487H84Q103 591 162 648T324 706Q407
706 464 661T521 533Q521 468 480 422T374 365V363Q424 351 451 311T478 216Q478 110 405 48T231 -15Q113 -15 60 48T9 222Z" />
<glyph unicode="4" glyph-name="four" horiz-adv-x="556" d="M407 592L72 227H330L409 590L407 592ZM10 233L439 700H495L393 227H499L487 174H382L344 0H281L319 174H-1L10 233Z" />
<glyph unicode="5" glyph-name="five" horiz-adv-x="556" d="M60 335L175 691H532L518 633H212L137 409H139Q194 464 293 464Q382 464 434 406T487 258Q487 138 413 62T220 -15Q122 -15 66 42T15 198H78Q71 123 111 81T227 38Q314 38 369 99T424 247Q424 322 385
366T271 411Q161 411 116 330L60 335Z" />
<glyph unicode="6" glyph-name="six" horiz-adv-x="556" d="M436 252Q436 321 392 362T277 403Q199 403 149 343T99 203Q99 132 140 85T252 38Q338 38 387 101T436 252ZM546 523H483Q479 653 348 653Q305 653 269 633T209 583T165 510T134 433T113 357H115Q143
404 192 430T299 456Q389 456 444 396T499 244Q499 130 428 58T244 -15Q142 -15 89 50T36 221Q36 394 106 534Q194 706 352 706Q443 706 494 660T546 523Z" />
<glyph unicode="7" glyph-name="seven" horiz-adv-x="556" d="M110 633L124 691H571L558 637Q419 501 310 316Q219 160 171 0H101Q149 162 259 339Q356 495 491 633H110Z" />
<glyph unicode="8" glyph-name="eight" horiz-adv-x="556" d="M81 183Q81 111 127 75T246 38Q324 38 375 83T427 205Q427 279 380 312T255 345Q180 345 131 301T81 183ZM490 202Q490 103 415 44T240 -15Q145 -15 82 36T18 184Q18 266 70 318T203 380V382Q157 397
130 435T103 522Q103 606 165 656T313 706Q401 706 461 664T522 537Q522 472 481 426T374 369V368Q430 352 460 307T490 202ZM380 653T317 653T210 617T166 519Q166 460 206 429T308 398Q373 398 416 433T459 533Q459 593 420 623Z" />
<glyph unicode="9" glyph-name="nine" horiz-adv-x="556" d="M302 653Q216 653 167 590T118 439Q118 370 162 329T277 288Q355 288 405 348T455 488Q455 559 414 606T302 653ZM8 168H71Q75 38 206 38Q249 38 285 58T345 108T389 181T420 258T441 334H439Q411 287
362 261T255 235Q165 235 110 295T55 447Q55 561 126 633T310 706Q412 706 465 641T518 470Q518 297 448 157Q360 -15 202 -15Q111 -15 60 31T8 168Z" />
<glyph unicode=":" glyph-name="colon" horiz-adv-x="278" d="M107 0H23L46 106H131L107 0ZM197 394H113L136 500H221L197 394Z" />
<glyph unicode=";" glyph-name="semicolon" horiz-adv-x="278" d="M-12 -137L-4 -97Q18 -90 32 -74T52 -43T65 0H23L47 106H131L98 -34Q87 -80 63 -102T-12 -137ZM197 394H113L136 500H221L197 394Z" />
<glyph unicode="&lt;" glyph-name="less" horiz-adv-x="600" d="M554 47V-8L46 226V280L554 514V459L108 253L554 47Z" />
<glyph unicode="=" glyph-name="equal" horiz-adv-x="600" d="M552 378V325H49V378H552ZM552 181V128H49V181H552Z" />
<glyph unicode="&gt;" glyph-name="greater" horiz-adv-x="600" d="M46 47L492 253L46 459V514L554 280V226L46 -8V47Z" />
<glyph unicode="?" glyph-name="question" horiz-adv-x="537" d="M258 182H195Q201 225 211 254T243 308T283 349T343 393Q457 468 457 552Q457 611 421 643T323 676Q247 676 202 625T150 493H87Q92 602 155 665T326 729Q407 729 463 685T520 561Q520 487 479
439T360 339Q311 308 291 276T258 182ZM147 0L170 106H255L231 0H147Z" />
<glyph unicode="@" glyph-name="at" horiz-adv-x="800" d="M426 510Q355 510 306 434T256 279Q256 235 279 209T339 182Q383 182 422 223T483 318T505 417Q505 452 480 481T426 510ZM561 544H614L518 256Q491 173 531 173Q596 173 648 253T700 421Q700 541 618
612T416 684Q278 684 189 589T100 353Q100 216 191 123T418 30Q492 30 562 65T676 163H727Q682 81 598 33T418 -15Q258 -15 153 93T47 360Q47 516 153 622T414 729Q560 729 656 642T753 418Q753 301 681 215T521 128Q494 128 476 145T454 195H452Q390 129 325 129Q265
129 229 171T193 274Q193 344 222 409T306 519T430 563Q505 563 536 479L561 544Z" />
<glyph unicode="A" glyph-name="A" horiz-adv-x="630" d="M-75 0L362 714H436L566 0H495L459 222H133L1 0H-75ZM386 656L167 280H449L388 656H386Z" />
<glyph unicode="B" glyph-name="B" horiz-adv-x="667" d="M148 343L86 58H328Q411 58 471 98T532 216Q532 343 363 343H148ZM5 0L160 714H437Q524 714 578 675T633 551Q633 481 591 433T478 373V371Q533 364 566 323T600 224Q600 163 577 119T512 49T422 12T313
0H5ZM216 656L161 401H386Q461 403 513 439T565 544Q565 602 530 629T436 656H216Z" />
<glyph unicode="C" glyph-name="C" horiz-adv-x="704" d="M688 488H620Q619 576 565 623T421 671Q343 671 281 638T181 550T122 426T102 283Q102 173 165 108T338 43Q424 43 489 97T580 244H648Q622 128 540 57T327 -15Q190 -15 112 68T34 289Q34 405 79 504T214
666T422 729Q539 729 613 666T688 488Z" />
<glyph unicode="D" glyph-name="D" horiz-adv-x="685" d="M216 656L86 58H258Q344 57 410 88T515 175T574 297T594 441Q594 656 379 656H216ZM5 0L160 714H390Q536 714 599 640T662 428Q662 313 619 218T485 61T271 0H5Z" />
<glyph unicode="E" glyph-name="E" horiz-adv-x="574" d="M5 0L157 714H636L623 656H213L158 398H541L528 340H146L86 58H506L493 0H5Z" />
<glyph unicode="F" glyph-name="F" horiz-adv-x="537" d="M5 0L158 714H615L603 656H214L159 398H504L493 340H146L73 0H5Z" />
<glyph unicode="G" glyph-name="G" horiz-adv-x="741" d="M706 494H638Q635 581 576 626T417 671Q326 671 253 615T141 472T102 288Q102 175 161 109T333 43Q447 43 523 116T618 305H372L386 363H691L616 0H570L582 120H580Q494 -15 321 -15Q184 -15 109 65T34
284Q34 402 77 501T210 665T423 729Q556 729 629 668T706 494Z" />
<glyph unicode="H" glyph-name="H" horiz-adv-x="704" d="M5 0L157 714H225L159 404H572L638 714H706L554 0H486L560 346H147L73 0H5Z" />
<glyph unicode="I" glyph-name="I" horiz-adv-x="222" d="M5 0L156 714H224L73 0H5Z" />
<glyph unicode="J" glyph-name="J" horiz-adv-x="500" d="M-11 229H57Q48 177 48 141Q48 90 82 67T172 43Q242 43 275 86T325 205L434 714H502L388 180Q367 82 316 34T167 -15Q82 -15 31 25T-20 148Q-20 190 -11 229Z" />
<glyph unicode="K" glyph-name="K" horiz-adv-x="648" d="M5 0L157 714H225L143 333L145 331L606 714H701L335 416L590 0H512L285 374L126 247L73 0H5Z" />
<glyph unicode="L" glyph-name="L" horiz-adv-x="537" d="M5 0L159 714H227L86 58H481L467 0H5Z" />
<glyph unicode="M" glyph-name="M" horiz-adv-x="852" d="M2 0L157 714H256L367 73L759 714H858L705 0H638L785 646H783L388 0H320L205 656H203L68 0H2Z" />
<glyph unicode="N" glyph-name="N" horiz-adv-x="704" d="M0 0L154 714H231L516 76H518L650 714H716L560 0H485L200 638H198L65 0H0Z" />
<glyph unicode="O" glyph-name="O" horiz-adv-x="741" d="M650 413Q650 529 592 600T421 671Q343 671 281 638T181 550T122 426T102 283Q102 173 165 108T338 43Q431 43 504 99T613 238T650 413ZM327 -15Q190 -15 112 68T34 289Q34 405 79 504T214 666T422 729Q558
729 638 648T718 430Q718 311 674 212T539 49T327 -15Z" />
<glyph unicode="P" glyph-name="P" horiz-adv-x="630" d="M5 0L159 714H447Q529 714 583 667T637 538Q637 429 569 368T391 306H139L73 0H5ZM215 656L152 364H393Q469 364 519 408T569 528Q569 656 424 656H215Z" />
<glyph unicode="Q" glyph-name="Q" horiz-adv-x="741" d="M558 62L649 -23L609 -64L509 30Q430 -15 327 -15Q190 -15 112 68T34 289Q34 405 79 504T214 666T422 729Q558 729 638 648T718 430Q718 318 677 221T558 62ZM382 149L421 190L511 106Q576 157 613 240T650
413Q650 529 592 600T421 671Q343 671 281 638T181 550T122 426T102 283Q102 173 165 108T338 43Q404 43 462 75L382 149Z" />
<glyph unicode="R" glyph-name="R" horiz-adv-x="648" d="M5 0L157 714H461Q551 714 599 669T648 536Q648 457 597 402T467 341V339Q558 320 558 211Q558 186 553 136T548 62Q548 17 560 0H490Q480 6 480 73Q480 94 485 137T490 201Q490 317 392 317H140L73 0H5ZM213
656L153 375H394Q476 375 528 415T580 531Q580 595 551 625T458 656H213Z" />
<glyph unicode="S" glyph-name="S" horiz-adv-x="630" d="M607 506H539Q538 596 492 633T350 671Q276 671 222 635T168 528Q168 477 199 452T288 410L364 387Q401 376 422 368T473 345T517 312T544 268T556 205Q556 181 550 155T526 98T478 42T398 2T280 -15Q153
-15 79 48T11 235H79Q74 135 128 89T285 43Q364 43 426 82T488 196Q488 212 485 226T474 252T460 272T440 289T418 302T392 313T366 322T338 331T311 338L241 359Q100 400 100 525Q100 625 174 677T353 729Q472 729 542 676T607 506Z" />
<glyph unicode="T" glyph-name="T" horiz-adv-x="556" d="M69 656L81 714H639L627 656H382L239 0H171L314 656H69Z" />
<glyph unicode="U" glyph-name="U" horiz-adv-x="704" d="M54 248L150 714H218L123 260Q116 231 116 198Q113 122 166 83T311 43Q406 43 464 91T542 231L643 714H711L609 226Q559 -15 302 -15Q235 -15 180 4T87 71T48 190Q48 214 54 248Z" />
<glyph unicode="V" glyph-name="V" horiz-adv-x="593" d="M176 0L64 714H134L225 58H227L593 714H667L255 0H176Z" />
<glyph unicode="W" glyph-name="W" horiz-adv-x="907" d="M124 0L71 714H139L176 79H178L482 714H564L613 85H615L907 714H978L634 0H560L513 649H511L199 0H124Z" />
<glyph unicode="X" glyph-name="X" horiz-adv-x="574" d="M-68 0L260 372L84 714H159L307 414L566 714H647L337 361L523 0H451L292 318L12 0H-68Z" />
<glyph unicode="Y" glyph-name="Y" horiz-adv-x="574" d="M299 352L598 714H681L323 288L260 0H191L256 295L66 714H138L299 352Z" />
<glyph unicode="Z" glyph-name="Z" horiz-adv-x="574" d="M98 656L111 714H626L614 657L43 58H519L506 0H-50L-37 60L532 656H98Z" />
<glyph unicode="[" glyph-name="bracketleft" horiz-adv-x="241" d="M133 -191H-28L167 729H330L319 676H221L46 -138H143L133 -191Z" />
<glyph unicode="\" glyph-name="backslash" horiz-adv-x="333" d="M353 -15L-58 729H1L412 -15H353Z" />
<glyph unicode="]" glyph-name="bracketright" horiz-adv-x="241" d="M123 729H284L89 -191H-74L-63 -138H35L210 676H113L123 729Z" />
<glyph unicode="^" glyph-name="asciicircum" horiz-adv-x="600" d="M102 238H44L274 691H326L556 238H499L299 628L102 238Z" />
<glyph unicode="_" glyph-name="underscore" horiz-adv-x="500" d="M500 -125H0V-75H500V-125Z" />
<glyph unicode="`" glyph-name="grave" horiz-adv-x="185" d="M67 729H141L223 585H173L67 729Z" />
<glyph unicode="a" glyph-name="a" horiz-adv-x="519" d="M354 189L374 276L372 278Q354 255 258 249Q158 241 120 225Q54 198 54 131Q54 84 87 61T169 38Q243 38 291 78T354 189ZM125 362H62Q74 446 133 488T280 531Q309 531 338 526T395 508T441 472T459 416Q459
399 455 374T447 329T436 281T427 242Q418 198 409 156T396 98T393 68Q393 47 426 47Q433 47 451 49L442 -1Q419 -6 390 -6Q337 -6 335 50Q335 60 337 78L335 80Q308 36 260 11T156 -15Q81 -15 36 20T-9 128Q-9 167 5 196T46 243T102 271T170 288Q202 293 257 295T334
303Q366 311 381 333T396 404Q396 478 287 478Q143 478 125 362Z" />
<glyph unicode="b" glyph-name="b" horiz-adv-x="574" d="M170 38T238 38T357 82T432 189T456 318Q456 393 419 435T308 478Q243 478 193 431T120 320T97 195Q97 126 133 82ZM-11 0L141 714H204L143 425H145Q173 473 219 502T323 531Q418 531 468 472T519 316Q519
235 489 161T394 36T246 -15Q180 -15 133 20T73 118H71L46 0H-11Z" />
<glyph unicode="c" glyph-name="c" horiz-adv-x="519" d="M487 355H424Q428 411 393 444T300 478Q228 478 176 435T101 330T77 198Q77 126 113 82T221 38Q281 38 325 73T391 167H454Q395 -15 213 -15Q119 -15 67 43T14 198Q14 281 46 355T143 480T294 531Q382
531 436 486T487 355Z" />
<glyph unicode="d" glyph-name="d" horiz-adv-x="574" d="M147 38T216 38T338 85T416 197T441 329Q441 397 403 437T297 478T177 432T101 322T77 192Q77 123 112 81ZM591 714L438 0H377L400 93H398Q363 39 319 12T210 -15Q114 -15 64 41T14 196Q14 277 47 352T147
479T296 531Q432 531 464 419H466L528 714H591Z" />
<glyph unicode="e" glyph-name="e" horiz-adv-x="519" d="M484 241H80Q77 223 77 201Q77 128 115 83T227 38Q287 38 332 73T396 166H459Q405 -15 224 -15Q123 -15 69 43T14 204Q14 334 90 432T293 531Q385 531 437 476T489 330Q489 280 484 241ZM88 294H425Q425
301 425 314T426 334Q426 399 388 438T285 478Q211 478 159 425T88 294Z" />
<glyph unicode="f" glyph-name="f" horiz-adv-x="259" d="M296 516L284 463H183L81 0H18L120 463H30L42 516H131L147 591Q160 652 192 683T285 714Q326 714 350 707L339 655L300 661Q257 661 238 645T209 588L194 516H296Z" />
<glyph unicode="g" glyph-name="g" horiz-adv-x="556" d="M84 226Q84 156 119 110T223 64Q313 64 371 144T429 320Q429 478 288 478Q197 478 141 399T84 226ZM536 516L438 54Q408 -86 352 -146T179 -206Q123 -206 81 -191T10 -137T-20 -39H43Q44 -100 84 -126T188
-153Q217 -153 242 -145T284 -126T316 -95T341 -58T359 -15T371 26T381 68T390 104L388 106Q362 62 314 37T212 11Q121 11 71 69T21 221Q21 299 52 368T144 484T285 531Q347 531 395 500T454 410H456L478 516H536Z" />
<glyph unicode="h" glyph-name="h" horiz-adv-x="537" d="M-11 0L143 714H206L143 422H145Q173 470 221 500T326 531Q398 531 440 497T482 392Q482 369 474 331L403 0H340L412 333Q419 361 419 385Q419 433 389 455T311 478Q242 478 186 420T109 265L52 0H-11Z" />
<glyph unicode="i" glyph-name="i" horiz-adv-x="185" d="M-11 0L100 516H163L52 0H-11ZM121 613L143 714H206L184 613H121Z" />
<glyph unicode="j" glyph-name="j" horiz-adv-x="185" d="M-28 -86L100 516H163L34 -88Q21 -141 -7 -166T-93 -191Q-101 -191 -116 -189T-137 -186L-125 -134Q-121 -134 -109 -136T-89 -138Q-43 -138 -28 -86ZM121 613L142 714H206L184 613H121Z" />
<glyph unicode="k" glyph-name="k" horiz-adv-x="463" d="M-11 0L141 714H204L108 266L110 264L412 516H496L252 317L408 0H339L202 279L92 187L52 0H-11Z" />
<glyph unicode="l" glyph-name="l" horiz-adv-x="185" d="M-11 0L143 714H206L52 0H-11Z" />
<glyph unicode="m" glyph-name="m" horiz-adv-x="833" d="M-11 0L100 516H158L138 426L140 424Q169 471 217 501T322 531Q436 531 447 421H449Q481 471 528 501T630 531Q702 531 737 495T773 395Q773 373 766 336L694 0H631L704 338Q710 365 710 390Q710 430 685
454T612 478Q536 478 493 415T424 238L373 0H310L382 336Q388 362 388 386Q388 426 366 452T301 478Q234 478 181 417T108 262L52 0H-11Z" />
<glyph unicode="n" glyph-name="n" horiz-adv-x="537" d="M-11 0L100 516H158L140 422H142Q173 470 222 500T326 531Q398 531 440 497T482 392Q482 369 474 331L403 0H340L412 333Q419 361 419 385Q419 433 389 455T311 478Q242 478 186 420T109 265L52 0H-11Z" />
<glyph unicode="o" glyph-name="o" horiz-adv-x="556" d="M302 531Q394 531 450 477T506 329Q506 188 431 87T220 -15Q122 -15 68 43T14 200Q14 286 47 360T147 483T302 531ZM232 38Q297 38 347 83T420 191T443 316Q443 390 404 434T291 478Q226 478 176 435T101
330T77 206Q77 128 116 83T232 38Z" />
<glyph unicode="p" glyph-name="p" horiz-adv-x="574" d="M396 478T327 478T205 431T127 319T102 187Q102 119 140 79T246 38T366 84T442 194T466 324Q466 393 431 435ZM-46 -191L106 516H163L143 423H145Q180 477 224 504T333 531Q429 531 479 475T529 320Q529
239 496 164T396 37T247 -15Q182 -15 137 14T82 103H80L17 -191H-46Z" />
<glyph unicode="q" glyph-name="q" horiz-adv-x="574" d="M371 478T303 478T184 434T109 327T85 198Q85 123 122 81T233 38Q298 38 348 85T421 196T444 321Q444 390 408 434ZM554 516L402 -191H339L400 91H398Q368 43 322 14T218 -15Q123 -15 73 44T22 200Q22
281 52 355T147 480T295 531Q359 531 407 499T472 413H474L496 516H554Z" />
<glyph unicode="r" glyph-name="r" horiz-adv-x="315" d="M-11 0L100 516H157L131 397H133Q202 524 320 523Q343 523 354 522L340 459Q334 459 322 459T304 460Q225 459 177 405T110 270L52 0H-11Z" />
<glyph unicode="s" glyph-name="s" horiz-adv-x="481" d="M-1 168H62Q61 99 103 69T208 38Q257 38 297 62T338 133Q338 143 336 152T331 168T321 182T309 194T294 205T278 215T259 224T240 231T219 239T199 247Q167 260 148 269T106 296T72 336T61 390Q61 459
120 495T252 531Q338 531 387 491T436 365H373Q377 421 343 449T252 478Q201 478 163 458T124 390Q124 357 151 337T233 295Q236 294 257 286T283 276T307 265T333 251T354 237T374 218T387 198T398 172T401 143Q401 63 339 24T193 -15Q110 -15 53 31T-1 168Z"
/>
<glyph unicode="t" glyph-name="t" horiz-adv-x="296" d="M31 463L43 516H136L169 672H232L199 516H302L292 463H187L116 132Q109 98 109 83Q109 47 142 47Q178 47 216 53L205 -2Q163 -6 141 -6Q46 -6 46 68Q46 89 53 121L124 463H31Z" />
<glyph unicode="u" glyph-name="u" horiz-adv-x="537" d="M513 516L402 0H344L362 94H360Q329 46 280 16T176 -15Q104 -15 62 19T20 124Q20 147 28 185L99 516H162L90 183Q83 155 83 131Q83 83 113 61T191 38Q260 38 316 96T393 251L450 516H513Z" />
<glyph unicode="v" glyph-name="v" horiz-adv-x="463" d="M116 0L35 516H101L162 71H164L406 516H475L184 0H116Z" />
<glyph unicode="w" glyph-name="w" horiz-adv-x="741" d="M90 0L30 516H96L137 76H139L352 516H426L461 80H463L682 516H749L478 0H410L373 433H371L159 0H90Z" />
<glyph unicode="x" glyph-name="x" horiz-adv-x="463" d="M-58 0L188 272L67 516H139L233 313L411 516H487L260 266L397 0H325L215 225L17 0H-58Z" />
<glyph unicode="y" glyph-name="y" horiz-adv-x="463" d="M-55 -186L-43 -135Q-16 -138 11 -138Q59 -138 92 -82L139 0L44 516H110L184 78H186L424 516H492L125 -122Q86 -191 0 -191Q-10 -191 -29 -189T-55 -186Z" />
<glyph unicode="z" glyph-name="z" horiz-adv-x="426" d="M44 463L55 516H443L432 466L31 53H362L351 0H-58L-47 51L352 463H44Z" />
<glyph unicode="{" glyph-name="braceleft" horiz-adv-x="333" d="M178 -191H138Q108 -191 85 -168T61 -106Q61 -89 66 -66L97 82Q108 137 108 166Q108 242 58 242L69 295Q141 295 175 455L206 604Q217 661 247 695T320 729H370L359 676H336Q310 676 294 657T264
573L235 432Q225 383 201 344T159 291T129 270V268Q136 263 144 254T161 219T171 163Q171 143 164 106L137 -23Q124 -86 124 -94Q124 -138 163 -138H189L178 -191Z" />
<glyph unicode="|" glyph-name="bar" horiz-adv-x="222" d="M85 -214V786H138V-214H85Z" />
<glyph unicode="}" glyph-name="braceright" horiz-adv-x="333" d="M131 729H171Q202 729 225 706T248 644Q248 627 243 604L212 456Q201 401 201 372Q201 296 251 296L240 243Q168 243 134 83L103 -66Q92 -123 62 -157T-11 -191H-61L-50 -138H-27Q-1 -138 15
-119T45 -35L74 106Q84 155 108 194T150 247T180 268V270Q173 275 165 284T148 319T138 375Q138 395 145 432L172 561Q185 624 185 632Q185 676 146 676H120L131 729Z" />
<glyph unicode="~" glyph-name="asciitilde" horiz-adv-x="600" d="M495 315L531 279Q511 252 498 237T460 208T406 193Q364 193 296 226Q226 258 189 258Q137 258 105 189L69 225Q114 311 194 311Q235 311 309 279Q383 246 407 246Q434 246 453 264T495 315Z" />
</font>
</defs>
</svg>
