<?xml version="1.0" standalone="no"?> <!DOCTYPE svg PUBLIC "-//W3C//DTD SVG 1.0//EN" "http://www.w3.org/TR/2001/REC-SVG-20010904/DTD/svg10.dtd" > <svg xmlns="http://www.w3.org/2000/svg" width="100%" height="100%">
<defs >
<font id="HelveticaNeueLTStd-Hv" horiz-adv-x="507" ><font-face
    font-family="HelveticaNeueLT Std Med"
    units-per-em="1000"
    panose-1="2 11 8 4 2 2 2 2 2 4"
    ascent="714"
    descent="-286"
    alphabetic="0" />
<missing-glyph horiz-adv-x="500" d="M0 0V700H500V0H0ZM250 395L420 650H80L250 395ZM280 350L450 95V605L280 350ZM80 50H420L250 305L80 50ZM50 605V95L220 350L50 605Z" />
<glyph unicode=" " glyph-name="space" horiz-adv-x="315" />
<glyph unicode="!" glyph-name="exclam" horiz-adv-x="296" d="M236 714V537L190 236H107L61 537V714H236ZM55 0V186H241V0H55Z" />
<glyph unicode="&quot;" glyph-name="quotedbl" horiz-adv-x="500" d="M294 354V714H438V354H294ZM62 354V714H206V354H62Z" />
<glyph unicode="#" glyph-name="numbersign" horiz-adv-x="630" d="M531 295V190H454L428 0H313L339 190H258L232 0H117L143 190H69V295H158L173 405H99V510H188L214 697H329L303 510H384L410 697H525L499 510H561V405H484L469 295H531ZM369 405H288L273 295H354L369
405Z" />
<glyph unicode="$" glyph-name="dollar" horiz-adv-x="630" d="M345 272V129Q384 132 412 148T440 198Q440 225 416 242T345 272ZM298 457V585Q263 584 238 569T212 520Q212 498 234 484T298 457ZM345 819V728Q454 721 528 663T603 495H417Q420 563 345 581V445Q351
443 377 437T419 426Q463 414 495 400T560 362T609 302T626 220Q626 140 585 87T484 11T345 -15V-105H298V-15Q169 -11 88 50T5 236H191Q196 139 298 128V285Q265 294 235 302Q190 315 158 329T94 366T44 425T26 508Q26 581 68 632T169 704T298 729V819H345Z" />
<glyph unicode="%" glyph-name="percent" horiz-adv-x="1019" d="M192 536T192 514T193 479T198 445T215 413T247 402T278 413T294 444T300 478T301 514T300 549T295 583T278 615T247 626T216 615T199 584T193 550ZM75 514Q76 600 119 653T247 706Q333 706 375
655T418 514Q418 425 376 373T247 322Q160 321 118 373T75 514ZM602 183Q603 269 646 322T774 375Q860 375 902 324T945 183Q945 94 903 42T774 -9Q687 -10 645 42T602 183ZM719 205T719 183T720 148T725 114T742 82T774 71T805 82T821 113T827 147T828 183T827
218T822 252T805 284T774 295T743 284T726 253T720 219ZM359 -27H260L664 724H763L359 -27Z" />
<glyph unicode="&amp;" glyph-name="ampersand" horiz-adv-x="722" d="M387 174L281 299Q249 284 224 259T198 205Q198 169 226 146T292 123Q332 123 387 174ZM527 0L477 60Q386 -15 272 -15Q173 -15 104 45T34 203Q34 336 196 411Q133 481 133 548Q133 628 194
678T337 729Q420 729 479 678T539 544Q539 429 417 367L491 278Q512 310 517 348H663Q654 248 584 174L734 0H527ZM334 466Q366 485 383 505T400 554Q400 579 384 594T340 609Q317 609 301 594T284 556Q284 542 289 529T300 508T317 486T334 466Z" />
<glyph unicode="&apos;" glyph-name="quotesingle" horiz-adv-x="296" d="M76 354V714H220V354H76Z" />
<glyph unicode="(" glyph-name="parenleft" horiz-adv-x="296" d="M161 729H305Q191 494 195 274Q191 61 305 -174H161Q96 -46 67 52T36 274Q38 402 67 501T161 729Z" />
<glyph unicode=")" glyph-name="parenright" horiz-adv-x="296" d="M-9 729H135Q200 601 229 502T260 274Q258 151 229 53T135 -174H-9Q105 61 101 274Q105 494 -9 729Z" />
<glyph unicode="*" glyph-name="asterisk" horiz-adv-x="444" d="M297 499L374 396L295 337L220 444L146 337L68 395L147 499L25 537L56 630L172 586V714H271V586L387 630L418 537L297 499Z" />
<glyph unicode="+" glyph-name="plus" horiz-adv-x="600" d="M228 325V506H372V325H552V181H372V0H228V181H48V325H228Z" />
<glyph unicode="," glyph-name="comma" horiz-adv-x="316" d="M65 0V186H251V21Q251 -30 233 -68T186 -128T127 -160T65 -174V-94Q105 -84 123 -62T147 0H65Z" />
<glyph unicode="-" glyph-name="hyphen" horiz-adv-x="407" d="M359 200H48V344H359V200Z" />
<glyph unicode="." glyph-name="period" horiz-adv-x="316" d="M65 0V186H251V0H65Z" />
<glyph unicode="/" glyph-name="slash" horiz-adv-x="407" d="M-9 -15L260 729H416L147 -15H-9Z" />
<glyph unicode="0" glyph-name="zero" horiz-adv-x="630" d="M315 129Q347 129 370 144T404 179T421 233T429 290T430 349Q430 378 429 397T425 445T415 493T395 530T363 558T315 568Q277 568 252 548T217 491T204 424T201 349Q201 321 202 301T206 252T217 205T237
167T269 139T315 129ZM310 -9Q238 -9 184 20T99 101T53 214T37 349Q37 406 46 457T76 555T128 634T205 686T310 706Q384 706 440 677T529 597T578 484T594 349T578 215T529 101T440 21T310 -9Z" />
<glyph unicode="1" glyph-name="one" horiz-adv-x="630" d="M272 428H105V553Q188 551 247 586T311 697H452V0H272V428Z" />
<glyph unicode="2" glyph-name="two" horiz-adv-x="630" d="M591 0H32Q34 140 141 232Q168 255 196 275T271 322T323 354Q368 384 391 410T414 470Q414 510 390 533T324 557Q210 557 208 416H49Q41 546 117 626T323 706Q434 706 509 649T584 485Q584 440 570 404T529
341T473 294T405 249Q401 247 399 246T393 242T386 238Q304 187 260 144H591V0Z" />
<glyph unicode="3" glyph-name="three" horiz-adv-x="630" d="M257 308V426Q264 426 279 425T302 425Q415 425 415 498Q415 531 387 549T315 568Q263 568 235 542T207 469H48Q51 582 124 644T314 706Q380 706 436 689T533 626T574 513Q574 464 549 425T477 377V375Q596
344 596 215Q596 105 513 48T314 -9Q184 -9 103 58T29 253H188Q186 191 217 160T313 129Q361 129 393 150T426 215Q426 310 302 310Q287 310 257 308Z" />
<glyph unicode="4" glyph-name="four" horiz-adv-x="630" d="M506 299H597V155H506V0H336V155H31V314L343 697H506V299ZM163 299H341V524H339L163 299Z" />
<glyph unicode="5" glyph-name="five" horiz-adv-x="630" d="M22 216H192Q193 177 227 153T304 129Q354 129 387 160T420 241Q420 293 391 324T310 356Q233 356 199 303H45L113 697H553V553H244L218 426H220Q271 476 356 476Q464 476 527 417T590 249Q590 125
511 58T304 -9Q181 -9 105 44T22 216Z" />
<glyph unicode="6" glyph-name="six" horiz-adv-x="630" d="M207 237Q207 191 237 160T317 129Q369 129 402 160T435 236Q435 287 404 320T316 353Q269 353 238 320T207 237ZM585 516H426Q418 553 391 570Q371 581 342 581Q275 581 241 528T203 404H205Q250 478
368 478Q463 478 528 411T594 248Q594 128 514 60T315 -9Q241 -9 186 20T99 101T52 213T37 344Q37 501 114 603T342 706Q438 706 503 658T585 516Z" />
<glyph unicode="7" glyph-name="seven" horiz-adv-x="630" d="M60 543V697H567V560Q541 538 496 473T418 335Q347 182 345 0H162Q165 71 188 161T254 335Q286 407 330 467T394 541V543H60Z" />
<glyph unicode="8" glyph-name="eight" horiz-adv-x="630" d="M317 314Q268 314 234 288T199 214Q199 165 233 141T316 116T398 140T432 214Q432 261 400 287T317 314ZM29 205Q29 266 66 313T163 370V372Q114 384 87 423T59 514Q59 579 100 624T198 688T318 706Q365
706 408 695T490 662T551 602T574 513Q574 464 546 423T471 372V370Q532 358 567 314T602 205Q602 132 559 82T453 12T317 -9Q262 -9 214 2T122 36T54 103T29 205ZM316 581Q270 581 240 562T210 501Q210 458 240 439T316 419Q359 419 391 439T423 501Q423 541 392
561T316 581Z" />
<glyph unicode="9" glyph-name="nine" horiz-adv-x="630" d="M308 343Q361 343 392 375T424 457Q424 505 392 536T307 568Q260 568 228 536T196 459Q196 409 226 376T308 343ZM46 181H205Q211 149 239 132Q264 116 299 116Q363 116 394 165T428 293H426Q404 255
362 237T270 218Q167 218 102 285T37 455Q37 565 115 635T304 706Q402 706 468 659T564 537T594 365Q594 287 577 222T525 103T430 21T289 -9Q191 -9 128 39T46 181Z" />
<glyph unicode=":" glyph-name="colon" horiz-adv-x="316" d="M251 519V333H65V519H251ZM65 0V186H251V0H65Z" />
<glyph unicode=";" glyph-name="semicolon" horiz-adv-x="316" d="M65 0V186H251V21Q251 -30 233 -68T186 -128T127 -160T65 -174V-94Q105 -84 123 -62T147 0H65ZM251 519V333H65V519H251Z" />
<glyph unicode="&lt;" glyph-name="less" horiz-adv-x="600" d="M554 -8L46 182V324L554 514V360L247 254V252L554 146V-8Z" />
<glyph unicode="=" glyph-name="equal" horiz-adv-x="600" d="M552 449V305H48V449H552ZM552 201V57H48V201H552Z" />
<glyph unicode="&gt;" glyph-name="greater" horiz-adv-x="600" d="M46 -8V146L353 252V254L46 360V514L554 324V182L46 -8Z" />
<glyph unicode="?" glyph-name="question" horiz-adv-x="574" d="M206 480H31Q32 597 103 663T293 729Q395 729 469 676T543 525Q543 458 515 423T420 345Q380 319 368 300T354 236H196V286Q196 322 210 351T238 393T277 425Q279 427 291 435T307 445T320 455T333
466T342 477T351 491T355 506T357 524Q357 552 339 568T292 585Q211 585 206 499V480ZM182 0V186H368V0H182Z" />
<glyph unicode="@" glyph-name="at" horiz-adv-x="800" d="M386 252Q431 252 459 282T488 357Q488 393 467 415T409 438Q367 438 339 407T310 334Q310 298 330 275T386 252ZM517 488L526 536H620L576 298Q563 243 583 243Q619 243 647 282T676 395Q676 512 604
574T414 637Q291 637 217 559T142 356Q142 227 222 152T431 77Q542 77 620 136H718Q609 -15 423 -15Q261 -15 148 90T35 356Q35 515 146 622T417 729Q556 729 660 645T765 427Q765 362 745 310T696 226T631 174T567 146T518 138Q458 138 456 187H454Q417 137 358
137Q293 137 243 191T193 318Q193 410 249 478T394 546Q475 546 517 488Z" />
<glyph unicode="A" glyph-name="A" horiz-adv-x="704" d="M351 516L270 266H432L353 516H351ZM-9 0L258 714H447L714 0H520L476 128H227L182 0H-9Z" />
<glyph unicode="B" glyph-name="B" horiz-adv-x="722" d="M250 313V149H399Q499 149 499 229Q499 313 399 313H250ZM64 0V714H398Q449 715 491 708T572 682T633 626T656 535Q656 488 631 451T562 391Q619 375 652 329T685 222Q685 0 407 0H64ZM250 570V433H394Q423
433 446 449T470 501Q470 537 449 553T394 570H250Z" />
<glyph unicode="C" glyph-name="C" horiz-adv-x="759" d="M724 459H538Q531 512 493 540T394 569Q310 569 269 508T228 357T269 207T394 145Q458 145 495 180T538 277H724Q717 141 627 63T398 -15Q239 -15 141 91T42 357T140 622T398 729Q522 729 621 655T724 459Z" />
<glyph unicode="D" glyph-name="D" horiz-adv-x="759" d="M64 0V714H371Q535 714 628 620T721 360Q721 186 629 93T371 0H64ZM250 554V160H338Q444 162 489 208T535 361Q535 554 338 554H250Z" />
<glyph unicode="E" glyph-name="E" horiz-adv-x="685" d="M64 0V714H633V565H250V440H600V296H250V160H643V0H64Z" />
<glyph unicode="F" glyph-name="F" horiz-adv-x="611" d="M64 0V714H590V565H250V419H544V275H250V0H64Z" />
<glyph unicode="G" glyph-name="G" horiz-adv-x="778" d="M723 391V0H603L592 78Q558 30 504 8T393 -15Q234 -15 136 91T37 357T135 622T393 729Q471 729 539 703T657 617T716 471H530Q526 516 486 542T389 569Q305 569 264 508T223 357T264 207T389 145Q457 145
501 174T553 253H423V391H723Z" />
<glyph unicode="H" glyph-name="H" horiz-adv-x="741" d="M62 0V714H248V454H493V714H679V0H493V294H248V0H62Z" />
<glyph unicode="I" glyph-name="I" horiz-adv-x="315" d="M64 0V714H250V0H64Z" />
<glyph unicode="J" glyph-name="J" horiz-adv-x="593" d="M528 714V226Q528 -15 278 -15Q143 -15 86 55T28 253V284H203V218Q203 183 221 164T275 145Q309 145 325 166T342 238V714H528Z" />
<glyph unicode="K" glyph-name="K" horiz-adv-x="741" d="M64 0V714H250V440L485 714H716L452 433L749 0H518L326 300L250 220V0H64Z" />
<glyph unicode="L" glyph-name="L" horiz-adv-x="611" d="M64 0V714H250V160H583V0H64Z" />
<glyph unicode="M" glyph-name="M" horiz-adv-x="926" d="M65 0V714H339L462 238H464L587 714H861V0H686V542H684L534 0H392L242 542H240V0H65Z" />
<glyph unicode="N" glyph-name="N" horiz-adv-x="741" d="M62 0V714H253L501 274H503V714H678V0H487L239 445H237V0H62Z" />
<glyph unicode="O" glyph-name="O" horiz-adv-x="778" d="M37 196T37 357T131 623T389 729T647 624T741 357T647 91T389 -15T131 90ZM223 446T223 357T264 207T389 145T514 206T555 357T514 507T389 569T264 508Z" />
<glyph unicode="P" glyph-name="P" horiz-adv-x="685" d="M64 0V714H403Q514 714 587 658T661 484Q661 238 403 238H250V0H64ZM250 565V382H375Q475 382 475 471Q475 519 448 542T375 565H250Z" />
<glyph unicode="Q" glyph-name="Q" horiz-adv-x="778" d="M738 14L653 -74L555 22Q483 -15 389 -15Q225 -15 131 90T37 357T131 623T389 729T647 624T741 357Q741 200 652 97L738 14ZM370 204L453 291L523 223Q555 276 555 357Q555 446 514 507T389 569T264 508T223
357T264 207T389 145Q411 145 426 149L370 204Z" />
<glyph unicode="R" glyph-name="R" horiz-adv-x="722" d="M64 0V714H428Q495 714 549 695T641 629T678 513Q678 453 649 404T566 334V332Q657 310 670 161Q679 22 700 0H516Q511 7 508 18T502 45T499 71T496 97T495 114Q493 146 489 168T474 213T443 248T391 260H250V0H64ZM250
565V404H406Q492 404 492 488Q492 526 466 545T398 565H250Z" />
<glyph unicode="S" glyph-name="S" horiz-adv-x="667" d="M23 240H209Q214 129 344 129Q391 129 424 147T458 202Q458 220 448 233T414 258T372 274T313 290T253 306Q208 319 176 333T112 370T62 429T44 512Q44 586 90 637T199 708T335 729Q453 729 536 671T621
499H435Q437 544 403 564T320 585Q284 585 257 571T230 524Q230 508 240 496T274 475T318 460T376 445T437 430Q481 418 513 404T578 366T627 306T644 224Q644 159 618 111T547 37T448 -2T333 -15Q199 -15 112 48T23 240Z" />
<glyph unicode="T" glyph-name="T" horiz-adv-x="648" d="M630 714V554H417V0H231V554H18V714H630Z" />
<glyph unicode="U" glyph-name="U" horiz-adv-x="741" d="M681 714V295Q681 138 606 62T370 -15T135 61T59 295V714H245V284Q245 213 274 179T370 145T466 179T495 284V714H681Z" />
<glyph unicode="V" glyph-name="V" horiz-adv-x="648" d="M659 714L428 0H214L-11 714H183L323 183H325L465 714H659Z" />
<glyph unicode="W" glyph-name="W" horiz-adv-x="963" d="M963 714L766 0H580L482 492H480L382 0H193L0 714H186L287 192H289L394 714H569L674 192H676L777 714H963Z" />
<glyph unicode="X" glyph-name="X" horiz-adv-x="704" d="M-8 0L246 375L13 714H232L352 492L479 714H691L460 375L712 0H486L352 238L206 0H-8Z" />
<glyph unicode="Y" glyph-name="Y" horiz-adv-x="667" d="M687 714L427 266V0H241V266L-19 714H192L334 424L476 714H687Z" />
<glyph unicode="Z" glyph-name="Z" horiz-adv-x="667" d="M24 0V152L390 554H46V714H630V570L255 160H643V0H24Z" />
<glyph unicode="[" glyph-name="bracketleft" horiz-adv-x="370" d="M69 -174V729H363V585H228V-30H363V-174H69Z" />
<glyph unicode="\" glyph-name="backslash" horiz-adv-x="407" d="M147 729L416 -15H260L-9 729H147Z" />
<glyph unicode="]" glyph-name="bracketright" horiz-adv-x="370" d="M301 729V-174H7V-30H142V585H7V729H301Z" />
<glyph unicode="^" glyph-name="asciicircum" horiz-adv-x="600" d="M206 332H47L209 697H391L553 332H393L300 570L206 332Z" />
<glyph unicode="_" glyph-name="underscore" horiz-adv-x="500" d="M500 -125H0V-75H500V-125Z" />
<glyph unicode="`" glyph-name="grave" horiz-adv-x="296" d="M145 724L242 575H122L-35 724H145Z" />
<glyph unicode="a" glyph-name="a" horiz-adv-x="593" d="M199 149Q199 119 219 105T270 90Q330 90 353 126T374 243Q363 236 346 232T306 223T269 215Q199 198 199 149ZM209 359H50Q54 453 131 498Q195 534 296 534Q336 534 368 530T434 515T489 485T524 435T538
360V133Q538 41 558 0H387Q381 16 377 49Q316 -15 206 -15Q128 -15 79 25T29 142Q29 183 44 212T80 258T136 286T199 302T268 312T331 322Q355 327 365 337T376 370Q376 397 351 410T294 424Q221 424 209 359Z" />
<glyph unicode="b" glyph-name="b" horiz-adv-x="630" d="M57 0V714H227V462H229Q282 534 377 534Q481 534 538 457T596 271Q596 194 573 132T496 27T364 -15Q272 -15 221 60H219V0H57ZM325 404Q284 404 253 371T221 265Q221 115 324 115Q376 115 401 159T426
265Q426 322 402 363T325 404Z" />
<glyph unicode="c" glyph-name="c" horiz-adv-x="593" d="M560 329H395Q394 361 370 382T312 404Q202 404 202 251Q202 195 227 155T303 115Q387 115 400 204H565Q554 102 482 44T304 -15Q186 -15 109 59T32 251Q32 376 106 455T304 534Q406 534 478 481T560 329Z" />
<glyph unicode="d" glyph-name="d" horiz-adv-x="630" d="M306 404Q252 404 227 363T202 265Q202 203 227 159T306 115Q407 115 407 260Q407 322 383 363T306 404ZM571 714V0H409V60H407Q356 -15 264 -15Q186 -15 132 27T55 131T32 271Q32 380 89 457T251 534Q346
534 399 463H401V714H571Z" />
<glyph unicode="e" glyph-name="e" horiz-adv-x="611" d="M202 313H413Q411 357 383 388T312 419Q268 419 239 390T202 313ZM583 218H202Q204 164 234 132T318 100Q350 100 376 115T415 157H574Q552 72 481 29T316 -15Q187 -15 110 58T32 261Q32 379 113 456T312
534Q447 534 518 445T583 218Z" />
<glyph unicode="f" glyph-name="f" horiz-adv-x="370" d="M94 0V409H12V519H94Q94 630 137 672T291 714Q292 714 373 711V591Q349 594 327 594Q294 594 279 585T264 542V519H366V409H264V0H94Z" />
<glyph unicode="g" glyph-name="g" horiz-adv-x="611" d="M398 273Q398 329 374 366T296 404Q244 404 221 367T197 274Q197 223 221 188T295 152Q346 152 372 186T398 273ZM559 519V63Q559 31 556 5T537 -59T497 -121T420 -164T300 -182Q194 -182 127 -147T45
-16H215Q221 -49 244 -61Q265 -72 306 -72Q361 -72 378 -41T395 49V98H393Q370 62 333 42T255 22Q142 22 85 93T27 280Q27 388 88 461T255 534Q349 534 394 454H396V519H559Z" />
<glyph unicode="h" glyph-name="h" horiz-adv-x="630" d="M57 0V714H227V448H229Q248 487 293 510T387 534Q574 534 574 333V0H404V251Q404 326 397 346Q382 394 319 394Q274 394 251 362T227 283V0H57Z" />
<glyph unicode="i" glyph-name="i" horiz-adv-x="296" d="M63 0V519H233V0H63ZM233 714V584H63V714H233Z" />
<glyph unicode="j" glyph-name="j" horiz-adv-x="296" d="M233 519V0Q233 -96 193 -135T61 -174H-25V-36H9Q37 -35 50 -25T63 12V519H233ZM233 714V584H63V714H233Z" />
<glyph unicode="k" glyph-name="k" horiz-adv-x="593" d="M57 0V714H227V346L382 519H579L389 323L603 0H398L271 209L227 166V0H57Z" />
<glyph unicode="l" glyph-name="l" horiz-adv-x="296" d="M63 0V714H233V0H63Z" />
<glyph unicode="m" glyph-name="m" horiz-adv-x="926" d="M57 0V519H222V448H224Q248 488 287 511T373 534Q487 534 524 450Q587 534 686 534Q733 534 768 520T822 484T852 431T866 372T869 310V0H699V305Q699 347 680 370T628 394Q578 394 563 361T548 254V0H378V295Q378
394 314 394Q267 394 247 363T227 253V0H57Z" />
<glyph unicode="n" glyph-name="n" horiz-adv-x="630" d="M57 0V519H222V448H224Q247 487 293 510T387 534Q574 534 574 333V0H404V251Q404 326 397 346Q382 394 319 394Q274 394 251 362T227 283V0H57Z" />
<glyph unicode="o" glyph-name="o" horiz-adv-x="611" d="M202 318T202 259T226 158T305 115T384 158T409 259T384 360T305 404T227 361ZM32 141T32 259T108 455T305 534T502 456T579 259T502 63T305 -15T109 63Z" />
<glyph unicode="p" glyph-name="p" horiz-adv-x="630" d="M325 404Q284 404 253 371T221 265Q221 115 324 115Q376 115 401 159T426 265Q426 322 402 363T325 404ZM57 -174V519H219V459H221Q272 534 364 534Q442 534 496 492T573 388T596 248Q596 139 539 62T377
-15Q282 -15 229 56H227V-174H57Z" />
<glyph unicode="q" glyph-name="q" horiz-adv-x="630" d="M202 254Q202 197 226 156T303 115Q344 115 375 148T407 255Q407 318 384 361T306 404Q252 404 227 360T202 254ZM571 519V-174H401V57H399Q347 -15 251 -15Q147 -15 90 62T32 248Q32 325 55 387T132 492T264
534Q356 534 407 459H409V519H571Z" />
<glyph unicode="r" glyph-name="r" horiz-adv-x="426" d="M63 0V519H228V428H230Q249 477 290 503T386 529Q409 529 426 525V370Q389 380 361 380Q301 380 267 345T233 257V0H63Z" />
<glyph unicode="s" glyph-name="s" horiz-adv-x="556" d="M27 171H189Q189 134 217 113Q241 95 280 95Q310 95 335 108T360 150Q360 156 359 162T353 172T346 180T335 187T324 192T312 196T300 200T288 203T277 205Q261 209 223 217T166 230T118 247T74 275T48
315T36 375Q36 420 58 452T117 502T192 526T273 534Q319 534 358 527T432 501T489 449T512 366H355Q355 397 333 411Q313 424 279 424Q206 424 206 385Q206 371 217 361T252 342T295 330T349 319T398 310Q468 296 499 254T530 170Q530 104 491 61T399 2T281 -15Q232
-15 190 -6T111 23T51 81T27 171Z" />
<glyph unicode="t" glyph-name="t" horiz-adv-x="389" d="M370 519V409H265V173Q265 144 280 134T326 123Q333 123 347 124T370 125V0Q358 0 326 -2T277 -5Q169 -5 132 33T95 178V409H9V519H95V676H265V519H370Z" />
<glyph unicode="u" glyph-name="u" horiz-adv-x="630" d="M573 519V0H408V71H406Q382 32 338 9T248 -15Q142 -15 99 41T56 207V519H226V218Q226 168 247 147T310 125Q345 125 374 152T403 241V519H573Z" />
<glyph unicode="v" glyph-name="v" horiz-adv-x="537" d="M540 519L366 0H170L-3 519H174L269 176H271L367 519H540Z" />
<glyph unicode="w" glyph-name="w" horiz-adv-x="833" d="M833 519L671 0H499L417 345H415L334 0H162L0 519H172L259 183H261L335 519H497L573 184H575L660 519H833Z" />
<glyph unicode="x" glyph-name="x" horiz-adv-x="537" d="M-7 0L173 272L8 519H196L269 395L342 519H522L360 275L544 0H356L266 150L181 0H-7Z" />
<glyph unicode="y" glyph-name="y" horiz-adv-x="537" d="M545 519L340 -46Q311 -126 265 -150T123 -174H43V-36H102Q132 -36 151 -21T170 22Q170 32 165 52T153 89T138 129T127 158L-7 519H173L271 181H273L371 519H545Z" />
<glyph unicode="z" glyph-name="z" horiz-adv-x="537" d="M22 0V132L281 389H43V519H497V390L238 130H516V0H22Z" />
<glyph unicode="{" glyph-name="braceleft" horiz-adv-x="370" d="M356 729V609H315Q262 609 262 544V380Q261 329 226 308T147 284V281Q169 279 183 276T218 264T250 232T262 176V11Q262 -54 315 -54H356V-174H238Q178 -174 141 -138T103 -26V147Q103 176 85
193T49 213T14 217V337Q32 337 49 340T84 358T103 398V586Q103 729 238 729H356Z" />
<glyph unicode="|" glyph-name="bar" horiz-adv-x="222" d="M39 -214V786H183V-214H39Z" />
<glyph unicode="}" glyph-name="braceright" horiz-adv-x="370" d="M14 -174V-54H55Q108 -54 108 11V176Q108 209 119 231T151 263T186 276T223 281V284Q180 286 145 307T108 380V544Q108 609 55 609H14V729H132Q267 729 267 586V398Q267 373 285 358T321 340T356
337V217Q338 217 321 214T286 193T267 147V-26Q267 -101 230 -137T132 -174H14Z" />
<glyph unicode="~" glyph-name="asciitilde" horiz-adv-x="600" d="M495 363L531 233Q511 206 498 191T460 162T406 147Q364 147 304 180Q242 215 189 215Q138 215 105 143L69 273Q114 359 194 359Q233 359 305 327Q312 324 326 318T349 308T369 300T390 293T407
291Q426 291 443 303T470 327T495 363Z" />
</font>
</defs>
</svg>
