<?xml version="1.0" standalone="no"?> <!DOCTYPE svg PUBLIC "-//W3C//DTD SVG 1.0//EN" "http://www.w3.org/TR/2001/REC-SVG-20010904/DTD/svg10.dtd" > <svg xmlns="http://www.w3.org/2000/svg" width="100%" height="100%">
<defs >
<font id="HelveticaNeueLTStd-BdEx" horiz-adv-x="611" ><font-face
    font-family="HelveticaNeueLT Std Extended"
    units-per-em="1000"
    panose-1="2 11 8 7 4 5 2 3 2 4"
    ascent="714"
    descent="-286"
    alphabetic="0" />
<missing-glyph horiz-adv-x="500" d="M0 0V700H500V0H0ZM250 395L420 650H80L250 395ZM280 350L450 95V605L280 350ZM80 50H420L250 305L80 50ZM50 605V95L220 350L50 605Z" />
<glyph unicode=" " glyph-name="space" horiz-adv-x="370" />
<glyph unicode="!" glyph-name="exclam" horiz-adv-x="370" d="M118 231L88 714H282L252 231H118ZM88 0V170H282V0H88Z" />
<glyph unicode="&quot;" glyph-name="quotedbl" horiz-adv-x="592" d="M338 361V714H462V361H338ZM130 361V714H254V361H130Z" />
<glyph unicode="#" glyph-name="numbersign" horiz-adv-x="816" d="M193 0L218 176H134V286H233L251 408H167V518H266L291 694H401L376 518H488L513 694H623L598 518H682V408H583L565 286H649V176H550L525 0H415L440 176H328L303 0H193ZM455 286L473 408H361L343
286H455Z" />
<glyph unicode="$" glyph-name="dollar" horiz-adv-x="816" d="M452 274V104Q559 116 559 195Q559 232 534 248T452 274ZM378 437V590Q328 590 291 572T253 513Q253 476 278 463T378 437ZM378 104V285L290 299Q260 304 243 307T194 320T144 342T105 376T75 426T65
494Q65 570 109 620T221 691T378 714V797H452V714Q508 710 554 697T643 660T712 593T741 493H541Q529 569 452 584V425L554 409Q765 375 765 219Q765 -11 452 -20V-127H378V-20Q209 -13 133 43T51 219H257Q260 121 378 104Z" />
<glyph unicode="%" glyph-name="percent" horiz-adv-x="1037" d="M156 628T156 520T242 412T328 520T242 628ZM242 -20L696 714H794L340 -20H242ZM709 282T709 174T795 66T881 174T795 282ZM38 326T38 520T242 714T446 520T242 326ZM591 -20T591 174T795 368T999
174T795 -20Z" />
<glyph unicode="&amp;" glyph-name="ampersand" horiz-adv-x="926" d="M543 154L342 337Q304 323 275 292T245 224Q245 165 289 135T388 104Q483 104 543 154ZM705 0L633 68Q512 -20 362 -20Q225 -20 141 37T57 205Q57 285 109 338T252 414Q214 447 197 474T180
544Q180 605 216 645T303 699T413 714Q521 714 590 673T660 555Q660 493 617 454T508 394L662 252Q686 275 712 311T749 375L859 322Q837 271 815 238T757 170L942 0H705ZM350 555Q350 509 414 462Q502 499 502 551Q502 578 478 594T427 610Q393 610 372 596T350
555Z" />
<glyph unicode="&apos;" glyph-name="quotesingle" horiz-adv-x="370" d="M123 361V714H247V361H123Z" />
<glyph unicode="(" glyph-name="parenleft" horiz-adv-x="444" d="M393 -190H270Q180 -101 128 18T76 262T128 506T270 714H393Q252 506 252 262T393 -190Z" />
<glyph unicode=")" glyph-name="parenright" horiz-adv-x="444" d="M174 -190H51Q192 18 192 262T51 714H174Q264 625 316 506T368 262T316 18T174 -190Z" />
<glyph unicode="*" glyph-name="asterisk" horiz-adv-x="464" d="M63 380L155 486L24 529L58 627L183 578L177 714H287L281 578L406 627L440 529L309 486L401 380L320 318L232 428L144 318L63 380Z" />
<glyph unicode="+" glyph-name="plus" horiz-adv-x="600" d="M238 0V191H47V315H238V506H362V315H553V191H362V0H238Z" />
<glyph unicode="," glyph-name="comma" horiz-adv-x="370" d="M88 0V170H282V42Q282 -55 233 -112T88 -183V-113Q136 -100 155 -76T178 0H88Z" />
<glyph unicode="-" glyph-name="hyphen" horiz-adv-x="481" d="M62 218V354H419V218H62Z" />
<glyph unicode="." glyph-name="period" horiz-adv-x="370" d="M88 0V170H282V0H88Z" />
<glyph unicode="/" glyph-name="slash" horiz-adv-x="426" d="M-2 -20L294 734H428L133 -20H-2Z" />
<glyph unicode="0" glyph-name="zero" horiz-adv-x="816" d="M230 451T230 347T272 178T408 112T543 177T586 347T544 516T408 582T273 517ZM42 172T42 347T137 617T408 712T678 617T774 347Q774 178 681 80T408 -18Q233 -18 138 77Z" />
<glyph unicode="1" glyph-name="one" horiz-adv-x="556" d="M247 0V443H37V567Q160 569 209 591T288 694H429V0H247Z" />
<glyph unicode="2" glyph-name="two" horiz-adv-x="816" d="M253 136H756V0H42Q46 85 76 148T153 248T253 311T362 353T460 386T532 426T560 484Q560 528 525 555T427 582Q361 582 315 551T260 451H60Q63 523 92 575T172 656T284 699T420 712Q511 712 579 692T685
638T741 565T760 481Q760 440 746 408T711 354T648 310T567 275T461 240L380 215Q289 183 253 136Z" />
<glyph unicode="3" glyph-name="three" horiz-adv-x="816" d="M306 299V423H453Q497 423 519 446T542 499Q542 543 503 565T400 588Q345 588 306 564T257 493H63Q88 712 421 712Q585 712 663 657T742 511Q742 458 712 423T629 377V375Q693 362 731 318T770 211Q770
175 760 144T724 82T657 30T549 -5T396 -18Q230 -18 139 39T42 227H236Q237 166 287 139T406 112Q482 112 523 137T564 210Q564 256 526 277T436 299H306Z" />
<glyph unicode="4" glyph-name="four" horiz-adv-x="816" d="M479 258V552L219 258H479ZM479 0V134H40V265L428 694H649V258H776V134H649V0H479Z" />
<glyph unicode="5" glyph-name="five" horiz-adv-x="816" d="M71 304L138 694H718V564H265L241 428Q275 449 332 459T439 470Q499 470 553 458T656 421T735 348T765 236Q765 151 714 92T583 8T404 -18Q342 -18 285 -8T172 25T80 95T42 207H242Q255 154 295 133T402
112Q571 112 571 231Q571 266 553 291T507 329T453 347T400 352Q304 352 255 304H71Z" />
<glyph unicode="6" glyph-name="six" horiz-adv-x="816" d="M757 509H566Q550 552 513 567T422 582Q327 582 285 533T241 390Q314 459 448 459Q509 459 561 449T664 416T744 345T774 231Q774 111 680 47T430 -18Q53 -18 53 345Q53 422 71 484T131 599T251 682T438
712Q493 712 543 703T641 672T720 608T757 509ZM410 335Q336 335 297 306T258 222Q258 175 298 144T430 112Q496 112 538 141T580 221Q580 268 542 301T410 335Z" />
<glyph unicode="7" glyph-name="seven" horiz-adv-x="759" d="M23 558V694H727V541Q671 485 636 447T552 351T473 243T415 129T375 0H139Q151 83 188 161T285 312T397 437T527 558H23Z" />
<glyph unicode="8" glyph-name="eight" horiz-adv-x="816" d="M407 313Q330 313 286 289T242 213Q242 112 407 112Q574 112 574 213Q574 313 407 313ZM483 -18T408 -18T271 -7T155 29T72 99T42 206Q42 269 80 313T183 375V377Q72 417 69 522Q70 568 92 603T148
658T229 691T318 708T408 712T497 708T587 691T667 658T722 603T743 522Q746 417 633 377V375Q698 358 736 314T774 206Q774 144 744 99T661 30T546 -6ZM407 423Q549 423 549 505Q549 545 508 563T407 582Q263 582 263 505Q263 423 407 423Z" />
<glyph unicode="9" glyph-name="nine" horiz-adv-x="816" d="M59 185H250Q266 142 303 127T394 112Q489 112 531 161T575 304Q502 235 368 235Q307 235 255 245T152 278T72 349T42 463Q42 583 136 647T386 712Q763 712 763 349Q763 272 745 210T685 95T565 12T378
-18Q323 -18 273 -9T175 22T96 86T59 185ZM406 359Q480 359 519 388T558 472Q558 519 518 550T386 582Q320 582 278 553T236 473Q236 426 274 393T406 359Z" />
<glyph unicode=":" glyph-name="colon" horiz-adv-x="370" d="M88 366V536H282V366H88ZM88 0V170H282V0H88Z" />
<glyph unicode=";" glyph-name="semicolon" horiz-adv-x="370" d="M88 0V170H282V42Q282 -55 233 -112T88 -183V-113Q136 -100 155 -76T178 0H88ZM88 366V536H282V366H88Z" />
<glyph unicode="&lt;" glyph-name="less" horiz-adv-x="600" d="M47 201V305L553 514V390L214 253L553 116V-8L47 201Z" />
<glyph unicode="=" glyph-name="equal" horiz-adv-x="600" d="M47 300V424H553V300H47ZM47 82V206H553V82H47Z" />
<glyph unicode="&gt;" glyph-name="greater" horiz-adv-x="600" d="M553 305V201L47 -8V116L386 253L47 390V514L553 305Z" />
<glyph unicode="?" glyph-name="question" horiz-adv-x="759" d="M459 230H283Q283 283 307 320T365 377T434 415T493 456T517 513Q517 553 479 577T386 602Q323 602 283 571T236 474H48Q50 541 78 591T152 669T253 712T369 726Q527 726 619 671T711 509Q711 460
687 423T627 365T555 325T492 283T459 230ZM274 0V170H468V0H274Z" />
<glyph unicode="@" glyph-name="at" horiz-adv-x="800" d="M297 324Q297 288 317 264T371 239Q421 239 456 282T491 374Q491 408 468 431T413 454Q366 454 332 412T297 324ZM528 490L541 543H630L571 289Q565 261 565 248Q565 227 584 227Q622 227 656 277T691
404Q691 512 613 577T417 642Q292 642 213 559T133 355Q133 232 216 152T424 72Q547 72 645 140H735Q682 63 601 22T421 -20Q254 -20 139 87T23 357Q23 517 138 625T418 734Q562 734 669 648T777 426Q777 365 757 314T706 230T641 176T575 144T524 135Q464 135
460 189H458Q408 135 336 135Q278 135 233 183T187 308Q187 406 248 482T405 558Q485 558 528 490Z" />
<glyph unicode="A" glyph-name="A" horiz-adv-x="834" d="M529 277L417 560L305 277H529ZM639 0L581 147H253L195 0H-14L300 714H534L848 0H639Z" />
<glyph unicode="B" glyph-name="B" horiz-adv-x="889" d="M262 306V136H548Q590 136 610 159T631 220Q631 306 528 306H262ZM68 0V714H604Q691 714 748 670T805 534Q805 488 781 447T710 391V389Q769 379 803 329T837 216Q837 176 826 142T789 73T708 20T577 0H68ZM262
584V430H532Q605 430 605 507Q605 544 583 564T505 584H262Z" />
<glyph unicode="C" glyph-name="C" horiz-adv-x="907" d="M880 444H671Q658 519 602 558T467 598Q402 598 356 575T286 513T254 436T244 357T253 278T286 201T355 139T467 116Q544 116 601 155T671 274H882Q865 124 752 52T460 -20Q258 -20 148 72T38 357T148
642T460 734Q846 734 880 444Z" />
<glyph unicode="D" glyph-name="D" horiz-adv-x="907" d="M262 578V136H478Q664 136 664 364Q664 578 460 578H262ZM68 0V714H513Q691 714 777 620T864 357Q864 191 779 96T530 0H68Z" />
<glyph unicode="E" glyph-name="E" horiz-adv-x="778" d="M68 0V714H735V578H262V430H711V300H262V136H739V0H68Z" />
<glyph unicode="F" glyph-name="F" horiz-adv-x="722" d="M68 0V714H706V578H262V422H678V286H262V0H68Z" />
<glyph unicode="G" glyph-name="G" horiz-adv-x="944" d="M520 274V398H884V0H786L760 83Q664 -20 460 -20Q258 -20 148 72T38 357Q38 526 150 630T460 734Q539 734 605 722T730 681T828 602T880 480H664Q644 543 594 570T482 598Q419 598 371 577T297 519T257
442T244 357T257 272T296 195T371 138T482 116Q662 116 693 274H520Z" />
<glyph unicode="H" glyph-name="H" horiz-adv-x="926" d="M68 0V714H262V446H664V714H858V0H664V310H262V0H68Z" />
<glyph unicode="I" glyph-name="I" horiz-adv-x="330" d="M68 0V714H262V0H68Z" />
<glyph unicode="J" glyph-name="J" horiz-adv-x="685" d="M423 254V714H617V278Q617 244 616 222T609 166T593 109T561 60T510 17T434 -9T329 -20Q275 -20 232 -14T145 8T74 51T27 122T9 226V271H203V221Q203 170 231 140T308 110Q378 110 400 146T423 254Z" />
<glyph unicode="K" glyph-name="K" horiz-adv-x="870" d="M262 407L594 714H855L527 427L880 0H618L375 309L262 212V0H68V714H262V407Z" />
<glyph unicode="L" glyph-name="L" horiz-adv-x="722" d="M68 0V714H262V142H697V0H68Z" />
<glyph unicode="M" glyph-name="M" horiz-adv-x="1130" d="M565 200L777 714H1062V0H874V572H872L646 0H484L258 572H256V0H68V714H353L565 200Z" />
<glyph unicode="N" glyph-name="N" horiz-adv-x="926" d="M670 216V714H858V0H647L258 498H256V0H68V714H293L668 216H670Z" />
<glyph unicode="O" glyph-name="O" horiz-adv-x="944" d="M28 306T28 357T37 454T74 553T149 645T279 708T472 734T665 709T794 645T869 554T907 454T916 357T907 260T870 161T795 69T665 6T472 -20T279 5T150 69T75 160T37 260ZM234 401T234 357T247 272T286
195T361 138T472 116T583 137T657 195T697 272T710 357T697 442T658 519T583 576T472 598T361 577T287 519T247 442Z" />
<glyph unicode="P" glyph-name="P" horiz-adv-x="833" d="M262 584V385H470Q493 385 507 386T541 392T572 407T591 436T600 483Q600 516 591 537T564 568T530 581T488 584H262ZM68 0V714H548Q620 714 672 694T750 641T788 572T800 497Q800 381 740 318T563 255H262V0H68Z" />
<glyph unicode="Q" glyph-name="Q" horiz-adv-x="944" d="M543 125L486 175L575 273L659 199Q710 262 710 357Q710 401 697 442T658 519T583 576T472 598T361 577T287 519T247 442T234 357T247 272T286 195T361 138T472 116Q510 116 543 125ZM811 -111L675 9Q591
-20 472 -20Q362 -20 279 5T150 69T75 160T37 260T28 357T37 454T74 553T149 645T279 708T472 734T665 709T794 645T869 554T907 454T916 357Q916 172 800 75L900 -13L811 -111Z" />
<glyph unicode="R" glyph-name="R" horiz-adv-x="852" d="M262 578V398H519Q556 398 584 420T612 489Q612 537 582 557T509 578H262ZM68 0V714H587Q644 714 687 701T754 667T793 620T813 569T818 520Q818 390 702 348V346Q800 331 800 155Q800 39 837 0H625Q612
23 609 49T606 137Q606 207 580 234T503 262H262V0H68Z" />
<glyph unicode="S" glyph-name="S" horiz-adv-x="815" d="M766 507H551Q547 540 530 562T486 593T433 606T372 610Q313 610 277 587T240 526Q240 472 322 459L565 420Q673 402 733 357T794 220Q794 110 708 45T423 -20Q373 -20 333 -17T243 -6T157 19T88 62T39
129T21 225H239Q241 110 423 110Q494 110 535 132T576 199Q576 238 548 254T455 281L278 308Q225 316 187 327T111 361T54 420T34 510Q34 734 388 734Q751 734 766 507Z" />
<glyph unicode="T" glyph-name="T" horiz-adv-x="722" d="M264 0V578H-1V714H723V578H458V0H264Z" />
<glyph unicode="U" glyph-name="U" horiz-adv-x="870" d="M60 256V714H254V304Q254 275 255 257T266 209T294 161T348 130T435 116T522 129T576 161T603 208T614 256T616 304V714H810V256Q810 233 809 215T799 167T778 113T736 64T670 20T571 -8T435 -20T300 -9T201
20T134 63T93 113T71 166T62 215T60 256Z" />
<glyph unicode="V" glyph-name="V" horiz-adv-x="796" d="M295 0L-22 714H191L398 170L605 714H818L501 0H295Z" />
<glyph unicode="W" glyph-name="W" horiz-adv-x="1148" d="M223 0L-3 714H191L329 194H331L477 714H671L817 194H819L957 714H1151L925 0H725L575 508H573L423 0H223Z" />
<glyph unicode="X" glyph-name="X" horiz-adv-x="796" d="M-17 0L286 368L8 714H241L398 492L555 714H788L510 368L813 0H572L398 241L224 0H-17Z" />
<glyph unicode="Y" glyph-name="Y" horiz-adv-x="778" d="M292 0V249L-24 714H204L389 403L574 714H802L486 249V0H292Z" />
<glyph unicode="Z" glyph-name="Z" horiz-adv-x="759" d="M16 0V124L488 578H48V714H743V590L271 136H743V0H16Z" />
<glyph unicode="[" glyph-name="bracketleft" horiz-adv-x="444" d="M81 -190V714H411V590H251V-66H411V-190H81Z" />
<glyph unicode="\" glyph-name="backslash" horiz-adv-x="426" d="M293 -20L-2 734H132L428 -20H293Z" />
<glyph unicode="]" glyph-name="bracketright" horiz-adv-x="444" d="M363 714V-190H33V-66H193V590H33V714H363Z" />
<glyph unicode="^" glyph-name="asciicircum" horiz-adv-x="600" d="M180 309H56L243 694H357L544 309H420L300 558L180 309Z" />
<glyph unicode="_" glyph-name="underscore" horiz-adv-x="500" d="M0 -125V-75H500V-125H0Z" />
<glyph unicode="`" glyph-name="grave" horiz-adv-x="260" d="M77 603L-67 745H148L237 603H77Z" />
<glyph unicode="a" glyph-name="a" horiz-adv-x="741" d="M515 217V261Q480 244 411 238L309 229Q261 225 239 210T216 159T246 104T327 84Q401 84 458 119T515 217ZM232 372H62Q68 420 90 454T140 508T212 538T292 553T379 556Q470 556 532 542T627 502T672 446T685
374V108Q685 45 705 0H529Q518 34 517 57Q476 16 407 -2T266 -20Q155 -20 92 22T28 154Q28 192 41 220T74 266T126 295T185 312T250 319L437 332Q479 335 494 346T509 388Q509 421 478 436T371 452Q308 452 279 438T232 372Z" />
<glyph unicode="b" glyph-name="b" horiz-adv-x="778" d="M230 338T230 265T277 151T395 110Q466 110 513 151T561 265T514 379T395 420Q325 420 278 379ZM60 0V726H236V470H238Q295 550 444 550Q573 550 658 471T743 262Q743 126 656 53T432 -20Q371 -20 325
-2T232 67H230V0H60Z" />
<glyph unicode="c" glyph-name="c" horiz-adv-x="741" d="M717 338H535Q507 432 389 432Q307 432 262 390T217 268T262 147T389 104Q448 104 488 133T535 213H717Q705 144 675 97T598 25T498 -10T374 -20Q216 -20 126 51T35 268T129 485T389 556Q445 556 494 547T591
514T672 446T717 338Z" />
<glyph unicode="d" glyph-name="d" horiz-adv-x="778" d="M217 338T217 265T264 151T383 110Q453 110 500 151T548 265T501 379T383 420Q312 420 265 379ZM548 0V67H546Q474 -20 334 -20Q203 -20 119 53T35 262Q35 391 120 470T334 550Q483 550 540 470H542V726H718V0H548Z"
/>
<glyph unicode="e" glyph-name="e" horiz-adv-x="758" d="M530 160H718Q646 -20 384 -20Q218 -20 124 51T30 268T124 485T384 556Q555 556 641 474T728 237V221H212V219Q212 173 257 132T384 90Q492 90 530 160ZM212 325H546V327Q546 340 538 358T512 397T460
432T380 446Q341 446 310 435T261 408T232 374T216 345T212 327V325Z" />
<glyph unicode="f" glyph-name="f" horiz-adv-x="426" d="M117 0V418H6V536H117V563Q117 669 158 701T325 734Q350 734 436 732V622Q376 624 347 624Q320 624 307 614T293 569V536H434V418H293V0H117Z" />
<glyph unicode="g" glyph-name="g" horiz-adv-x="778" d="M217 426T217 279T385 132Q554 132 554 279T385 426Q217 426 217 279ZM560 471V536H730V43Q730 -92 645 -152T386 -213Q326 -213 280 -208T181 -186T96 -131T57 -36H245Q254 -71 286 -87T392 -103Q468
-103 511 -71T554 50V93Q483 14 340 14Q191 14 113 92T35 282Q35 400 115 475T354 550Q494 550 558 471H560Z" />
<glyph unicode="h" glyph-name="h" horiz-adv-x="741" d="M60 0V726H236V458H238Q259 494 318 522T451 550Q481 550 510 546T571 528T626 494T665 438T681 357V0H505V304Q505 414 387 414Q320 414 278 377T236 259V0H60Z" />
<glyph unicode="i" glyph-name="i" horiz-adv-x="296" d="M60 0V536H236V0H60ZM60 602V726H236V602H60Z" />
<glyph unicode="j" glyph-name="j" horiz-adv-x="296" d="M60 18V536H236V4Q236 -39 233 -67T219 -122T186 -165T129 -189T41 -199Q21 -199 -10 -197T-49 -195V-65Q-13 -69 -4 -69Q36 -69 48 -52T60 18ZM60 602V726H236V602H60Z" />
<glyph unicode="k" glyph-name="k" horiz-adv-x="722" d="M60 0V726H236V336L469 536H714L459 332L730 0H497L322 223L236 154V0H60Z" />
<glyph unicode="l" glyph-name="l" horiz-adv-x="296" d="M60 0V726H236V0H60Z" />
<glyph unicode="m" glyph-name="m" horiz-adv-x="1130" d="M894 0V322Q894 371 863 392T786 414Q728 414 691 382T653 290V0H477V322Q477 371 446 392T371 414Q312 414 274 382T236 290V0H60V536H230V458H232Q258 495 318 522T451 550Q591 550 636 449Q713 550
857 550Q949 550 1009 506T1070 363V0H894Z" />
<glyph unicode="n" glyph-name="n" horiz-adv-x="741" d="M505 0V304Q505 414 387 414Q320 414 278 377T236 259V0H60V536H230V458H232Q258 495 318 522T451 550Q481 550 510 546T571 528T626 494T665 438T681 357V0H505Z" />
<glyph unicode="o" glyph-name="o" horiz-adv-x="778" d="M35 122T35 268T129 485T389 556T649 485T743 268T649 51T389 -20T129 51ZM217 347T217 268T262 147T389 104T516 146T561 268T516 389T389 432T262 390Z" />
<glyph unicode="p" glyph-name="p" horiz-adv-x="778" d="M230 338T230 265T277 151T395 110Q466 110 513 151T561 265T514 379T395 420Q325 420 278 379ZM60 -199V536H230V463H232Q279 514 325 532T432 550Q569 550 656 477T743 268Q743 139 658 60T444 -20Q295
-20 238 60H236V-199H60Z" />
<glyph unicode="q" glyph-name="q" horiz-adv-x="778" d="M217 338T217 265T264 151T383 110Q453 110 500 151T548 265T501 379T383 420Q312 420 265 379ZM548 463V536H718V-199H542V60H540Q483 -20 334 -20Q205 -20 120 59T35 268Q35 404 122 477T346 550Q407
550 453 532T546 463H548Z" />
<glyph unicode="r" glyph-name="r" horiz-adv-x="519" d="M60 0V536H230V431H232Q283 496 328 523T446 550Q485 550 510 545V380Q453 396 413 396Q325 396 281 353T236 231V0H60Z" />
<glyph unicode="s" glyph-name="s" horiz-adv-x="704" d="M29 166H223Q236 90 354 90Q481 90 481 148Q481 171 462 182T381 202L221 224Q131 236 88 269T45 376Q45 556 338 556Q427 556 489 543T585 503T634 446T655 375H461Q448 446 342 446Q227 446 227 389Q227
368 245 357T316 339L438 326Q568 312 621 273T675 161Q675 115 655 81T603 28T526 -2T438 -16T344 -20Q191 -20 114 25T29 166Z" />
<glyph unicode="t" glyph-name="t" horiz-adv-x="444" d="M117 536V702H293V536H435V418H293V168Q293 136 305 124T352 112Q382 112 438 116V-2Q356 -12 300 -12Q239 -12 201 -2T146 32T123 80T117 147V418H6V536H117Z" />
<glyph unicode="u" glyph-name="u" horiz-adv-x="741" d="M511 0V72H509Q483 35 423 8T290 -20Q260 -20 231 -16T170 2T115 36T76 92T60 173V536H236V226Q236 116 356 116Q428 116 466 155T505 268V536H681V0H511Z" />
<glyph unicode="v" glyph-name="v" horiz-adv-x="668" d="M234 0L-12 536H188L334 160L480 536H680L434 0H234Z" />
<glyph unicode="w" glyph-name="w" horiz-adv-x="1056" d="M200 0L0 536H194L317 170H319L443 536H613L737 170H739L862 536H1056L856 0H645L529 346H527L411 0H200Z" />
<glyph unicode="x" glyph-name="x" horiz-adv-x="722" d="M360 372L487 536H706L479 278L725 0H496L358 177L222 0H-3L241 278L16 536H237L360 372Z" />
<glyph unicode="y" glyph-name="y" horiz-adv-x="648" d="M476 536H664L371 -88Q340 -154 300 -176T183 -199Q141 -199 59 -195V-71Q109 -75 135 -75Q166 -75 184 -62T218 -20L236 19L-16 536H175L328 182L476 536Z" />
<glyph unicode="z" glyph-name="z" horiz-adv-x="648" d="M26 0V110L365 406H45V536H610V426L271 130H622V0H26Z" />
<glyph unicode="{" glyph-name="braceleft" horiz-adv-x="444" d="M301 531V374Q301 329 274 299T202 263V261Q301 248 301 143V-7Q301 -80 355 -80H395V-190H274Q207 -190 169 -156T131 -55V129Q131 167 104 193T38 219V305Q75 305 103 328T131 388V579Q131 644
168 679T274 714H395V604H355Q301 604 301 531Z" />
<glyph unicode="|" glyph-name="bar" horiz-adv-x="222" d="M49 -20V734H173V-20H49Z" />
<glyph unicode="}" glyph-name="braceright" horiz-adv-x="444" d="M143 -7V150Q143 195 170 225T242 261V263Q143 276 143 381V531Q143 604 89 604H49V714H170Q237 714 275 680T313 579V395Q313 357 340 331T406 305V219Q369 219 341 196T313 136V-55Q313 -120
276 -155T170 -190H49V-80H89Q143 -80 143 -7Z" />
<glyph unicode="~" glyph-name="asciitilde" horiz-adv-x="600" d="M495 349L531 243Q485 157 408 157Q356 157 290 191T195 225Q168 225 142 202T105 157L69 263Q115 349 192 349Q244 349 310 315T405 281Q432 281 458 304T495 349Z" />
</font>
</defs>
</svg>
