<?xml version="1.0" standalone="no"?> <!DOCTYPE svg PUBLIC "-//W3C//DTD SVG 1.0//EN" "http://www.w3.org/TR/2001/REC-SVG-20010904/DTD/svg10.dtd" > <svg xmlns="http://www.w3.org/2000/svg" width="100%" height="100%">
<defs >
<font id="HelveticaNeueLTStd-LtExO" horiz-adv-x="498" ><font-face
    font-family="HelveticaNeueLT Std Lt Ext"
    units-per-em="1000"
    panose-1="2 11 5 3 2 2 2 2 2 4"
    ascent="714"
    descent="-286"
    alphabetic="0" />
<missing-glyph horiz-adv-x="648" d="M148 0V700H648V0H148ZM398 395L568 650H228L398 395ZM428 350L598 95V605L428 350ZM228 50H568L398 305L228 50ZM198 605V95L368 350L198 605Z" />
<glyph unicode=" " glyph-name="space" horiz-adv-x="278" />
<glyph unicode="!" glyph-name="exclam" horiz-adv-x="296" d="M105 0L128 110H214L191 0H105ZM165 185L220 525L260 714H340L300 525L209 185H165Z" />
<glyph unicode="&quot;" glyph-name="quotedbl" horiz-adv-x="407" d="M200 464L253 714H309L256 464H200ZM349 464L402 714H458L405 464H349Z" />
<glyph unicode="#" glyph-name="numbersign" horiz-adv-x="668" d="M164 0L244 226H130L139 270H259L314 424H200L209 468H329L410 694H460L379 468H521L602 694H652L571 468H685L676 424H556L501 270H615L606 226H486L406 0H356L436 226H294L214 0H164ZM451 270L506
424H364L309 270H451Z" />
<glyph unicode="$" glyph-name="dollar" horiz-adv-x="668" d="M391 396L443 640Q357 637 302 606T234 517Q222 463 264 437T391 396ZM430 317L374 52Q415 52 450 59T519 81T574 122T605 186Q616 238 576 270T430 317ZM318 52L376 325Q317 335 281 344T207 373T155
427T152 510Q174 610 259 657T457 708L470 769H526L513 708Q624 702 686 651T729 495H655Q672 628 499 640L445 385Q592 365 648 322T687 199Q674 140 641 97T560 31T464 -4T360 -16L339 -113H283L304 -16Q23 -2 72 229H146Q110 65 318 52Z" />
<glyph unicode="%" glyph-name="percent" horiz-adv-x="963" d="M680 34T733 34T824 72T877 178T869 284T794 322T703 284T651 178T658 72ZM210 -16L839 708H898L269 -16H210ZM263 370T316 370T407 408T459 514T452 620T377 658T286 620T233 514T241 408ZM801
-16T723 -16T607 34T589 178T668 321T805 372T921 322T939 178T860 35ZM383 320T305 320T189 370T171 514T250 657T387 708T503 658T521 514T442 371Z" />
<glyph unicode="&amp;" glyph-name="ampersand" horiz-adv-x="778" d="M586 132L389 366Q297 334 248 293T186 193Q173 132 215 89T355 46Q421 46 475 65T586 132ZM698 0L624 89Q575 40 499 12T338 -16Q207 -16 150 43T113 197Q128 270 184 317T356 409Q319 452
304 486T299 566Q313 632 370 673T505 714Q594 714 627 671T648 569Q624 458 462 396L637 189Q674 227 701 309H769Q762 277 738 231T677 144L799 0H698ZM579 565Q587 603 565 627T486 652Q446 652 411 629T368 569Q363 544 373 517T426 435Q563 489 579 565Z"
/>
<glyph unicode="&apos;" glyph-name="quotesingle" horiz-adv-x="278" d="M210 464L263 714H319L266 464H210Z" />
<glyph unicode="(" glyph-name="parenleft" horiz-adv-x="352" d="M414 714H470Q425 666 399 634T331 542T259 412T212 262Q198 198 197 137T200 33T222 -57T248 -129T278 -190H222Q124 -43 125 140Q125 201 138 262Q153 335 188 408T255 530T329 626T385 688T414 714Z" />
<glyph unicode=")" glyph-name="parenright" horiz-adv-x="352" d="M50 -190H-6Q39 -142 65 -110T133 -18T205 112T252 262Q266 326 267 387T264 491T242 581T216 653T186 714H242Q340 567 339 384Q339 323 326 262Q311 189 276 116T209 -6T135 -102T79 -164T50 -190Z" />
<glyph unicode="*" glyph-name="asterisk" horiz-adv-x="426" d="M308 580L337 714H393L364 580L501 628L511 579L368 529L439 426L393 390L319 499L199 390L169 426L282 529L161 579L191 628L308 580Z" />
<glyph unicode="+" glyph-name="plus" horiz-adv-x="600" d="M275 0L323 228H95L106 278H334L383 506H433L384 278H612L601 228H373L325 0H275Z" />
<glyph unicode="," glyph-name="comma" horiz-adv-x="278" d="M96 0L119 110H205L182 -2Q158 -114 57 -140L65 -102Q95 -90 109 -67T132 0H96Z" />
<glyph unicode="-" glyph-name="hyphen" horiz-adv-x="444" d="M120 237L136 311H440L424 237H120Z" />
<glyph unicode="." glyph-name="period" horiz-adv-x="278" d="M96 0L119 110H205L182 0H96Z" />
<glyph unicode="/" glyph-name="slash" horiz-adv-x="407" d="M0 -18L503 732H559L56 -18H0Z" />
<glyph unicode="0" glyph-name="zero" horiz-adv-x="668" d="M471 646Q254 646 189 345Q126 46 344 46T625 345Q690 646 471 646ZM349 708T484 708T678 618T699 345Q661 164 564 74T331 -16T137 74T115 345Q154 528 251 618Z" />
<glyph unicode="1" glyph-name="one" horiz-adv-x="444" d="M236 0L347 520H131L142 576H191Q283 576 324 600T398 708H460L310 0H236Z" />
<glyph unicode="2" glyph-name="two" horiz-adv-x="668" d="M608 68L594 0H52Q64 37 78 63T124 126T214 201T357 279Q498 345 550 386T617 495Q633 570 595 608T472 646Q282 646 238 457H164Q218 708 486 708Q541 708 582 696T646 662T682 613T696 555T691 494Q673
412 621 365T470 269Q300 186 241 148T158 68H608Z" />
<glyph unicode="3" glyph-name="three" horiz-adv-x="668" d="M353 336L367 398H415Q502 398 552 424T616 516Q630 580 591 613T475 646Q280 646 243 475H169Q193 577 274 642T488 708Q589 708 649 661T690 516Q679 464 636 423T529 374V372Q596 367 630 320T649
196Q633 121 584 72T470 4T326 -16Q191 -16 133 46T98 225H172Q155 130 200 88T350 46Q452 46 506 89T574 194Q591 275 547 305T413 336H353Z" />
<glyph unicode="4" glyph-name="four" horiz-adv-x="668" d="M468 236L546 604H544L166 236H468ZM418 0L455 174H79L93 242L571 708H636L536 236H668L655 174H523L486 0H418Z" />
<glyph unicode="5" glyph-name="five" horiz-adv-x="668" d="M141 326L289 692H706L693 630H332L234 401L236 399Q321 467 431 467Q559 467 617 402T651 226Q644 193 630 162T590 97T528 40T439 0T323 -16Q196 -16 139 40T91 199H165Q162 122 203 84T336 46Q426
46 492 91T577 226Q595 311 551 358T407 405Q292 405 210 323L141 326Z" />
<glyph unicode="6" glyph-name="six" horiz-adv-x="668" d="M707 528H633Q640 583 601 614T479 646Q372 646 303 574T195 337L196 335Q293 464 441 464Q565 464 624 401T660 223T547 47T339 -16Q52 -16 123 322Q162 503 254 605T492 708Q613 708 664 656T707 528ZM189
226Q174 154 213 100T352 46Q437 46 503 94T587 224Q603 301 561 351T427 402Q369 402 324 385T252 339T210 283T189 226Z" />
<glyph unicode="7" glyph-name="seven" horiz-adv-x="593" d="M699 692L685 624Q643 592 588 538T467 404T337 217T235 0H155Q209 163 348 345T614 624H160L174 692H699Z" />
<glyph unicode="8" glyph-name="eight" horiz-adv-x="668" d="M163 193Q147 119 197 83T344 46T505 82T587 193Q603 269 552 307T408 346T247 308T163 193ZM89 193Q120 338 295 378L296 380Q170 416 194 527Q201 559 218 588T268 645T355 691T484 708Q543 708
586 697T652 666T688 624T702 575T698 527Q674 416 534 380L533 378Q692 339 661 193Q653 154 632 120T574 53T474 3T331 -16Q266 -16 218 -4T143 30T101 78T85 134T89 193ZM334 408T421 408T560 439T623 523Q637 590 592 618T471 646Q423 646 384 637T311 598T267
523Q256 471 295 440Z" />
<glyph unicode="9" glyph-name="nine" horiz-adv-x="668" d="M108 164H182Q175 109 214 78T336 46Q443 46 512 118T620 355L619 357Q522 228 374 228Q250 228 191 291T155 469T268 645T476 708Q763 708 692 370Q654 189 562 87T323 -16Q202 -16 151 35T108 164ZM626
466Q641 538 602 592T463 646Q378 646 312 598T228 468Q212 391 254 341T388 290Q446 290 491 307T563 353T605 409T626 466Z" />
<glyph unicode=":" glyph-name="colon" horiz-adv-x="278" d="M96 0L119 110H205L182 0H96ZM180 396L204 506H290L266 396H180Z" />
<glyph unicode=";" glyph-name="semicolon" horiz-adv-x="278" d="M96 0L119 110H205L182 -2Q158 -114 57 -140L65 -102Q95 -90 109 -67T132 0H96ZM180 396L204 506H290L266 396H180Z" />
<glyph unicode="&lt;" glyph-name="less" horiz-adv-x="600" d="M95 225L107 281L662 514L650 458L163 253L563 48L551 -8L95 225Z" />
<glyph unicode="=" glyph-name="equal" horiz-adv-x="600" d="M116 325L127 375H633L622 325H116ZM75 131L85 181H591L581 131H75Z" />
<glyph unicode="&gt;" glyph-name="greater" horiz-adv-x="600" d="M545 253L144 458L156 514L613 281L601 225L45 -8L57 48L545 253Z" />
<glyph unicode="?" glyph-name="question" horiz-adv-x="648" d="M232 491H158Q180 595 262 663T469 732Q578 732 641 680T684 526Q670 462 632 424T499 327Q426 282 408 260T378 185H310Q327 262 350 289T484 387Q516 408 528 416T561 443T594 481T610 526Q623
589 579 626T454 664Q361 664 306 618T232 491ZM262 0L285 110H371L348 0H262Z" />
<glyph unicode="@" glyph-name="at" horiz-adv-x="800" d="M309 287Q287 183 370 183Q418 183 470 226T556 325T600 430Q621 529 539 529Q466 529 397 449T309 287ZM646 494L684 561H740L578 263Q560 229 553 203Q548 177 574 177Q635 177 707 259T796 423Q821
540 751 614T565 688Q427 688 313 590T170 357Q141 220 215 123T425 26Q504 26 585 64T720 167H776Q710 82 612 32T415 -18Q256 -18 172 92T120 357Q153 513 286 622T575 732Q717 732 795 643T845 420Q821 307 729 220T554 133Q525 133 511 150T503 202H501Q425
133 351 133Q289 133 261 175T246 282Q270 394 359 486T554 579Q632 579 646 494Z" />
<glyph unicode="A" glyph-name="A" horiz-adv-x="722" d="M578 285L496 640L262 285H578ZM642 0L593 217H217L74 0H-6L470 714H556L728 0H642Z" />
<glyph unicode="B" glyph-name="B" horiz-adv-x="741" d="M66 0L218 714H624Q724 714 763 665T785 534Q773 479 733 437T629 381V379Q697 369 727 322T742 204T680 86T578 19T463 0H66ZM277 646L226 404H519Q683 404 710 531Q734 646 595 646H277ZM211 336L154
68H465Q542 68 595 101T662 204Q677 276 644 306T540 336H211Z" />
<glyph unicode="C" glyph-name="C" horiz-adv-x="815" d="M758 272H832Q793 148 680 65T417 -18Q243 -18 162 83T117 357Q131 422 165 485T254 605T393 697T577 732Q638 732 691 718T787 674T853 593T869 473H795Q799 569 733 616T562 664Q424 664 327 586T197
357Q188 309 188 264T202 180T245 112T321 67T432 50Q670 50 758 272Z" />
<glyph unicode="D" glyph-name="D" horiz-adv-x="778" d="M66 0L218 714H565Q719 714 780 621T805 357Q771 200 670 100T424 0H66ZM277 646L154 68H424Q531 68 611 136T725 357Q786 646 547 646H277Z" />
<glyph unicode="E" glyph-name="E" horiz-adv-x="685" d="M78 0L230 714H798L783 646H289L238 404H714L699 336H223L166 68H668L654 0H78Z" />
<glyph unicode="F" glyph-name="F" horiz-adv-x="611" d="M66 0L218 714H753L738 646H277L226 404H664L649 336H211L140 0H66Z" />
<glyph unicode="G" glyph-name="G" horiz-adv-x="852" d="M729 0L748 135H746Q673 55 596 19T416 -18Q238 -18 162 84T122 357Q157 522 283 627T584 732Q728 732 806 662T877 488H797Q794 575 732 619T569 664Q425 664 329 582T202 357Q171 211 227 131T425 50Q686
50 782 300H520L534 368H864L786 0H729Z" />
<glyph unicode="H" glyph-name="H" horiz-adv-x="796" d="M66 0L218 714H292L228 412H744L808 714H882L730 0H656L729 344H213L140 0H66Z" />
<glyph unicode="I" glyph-name="I" horiz-adv-x="222" d="M74 0L226 714H300L148 0H74Z" />
<glyph unicode="J" glyph-name="J" horiz-adv-x="556" d="M149 234L143 208Q106 44 266 44Q346 44 394 82T463 220L568 714H642L533 200Q511 100 439 41T249 -18Q203 -18 169 -8T114 16T82 54T66 96T63 145T67 191T75 234H149Z" />
<glyph unicode="K" glyph-name="K" horiz-adv-x="741" d="M78 0L230 714H304L222 328L765 714H872L455 419L744 0H639L386 369L203 241L152 0H78Z" />
<glyph unicode="L" glyph-name="L" horiz-adv-x="593" d="M66 0L218 714H292L154 68H607L593 0H66Z" />
<glyph unicode="M" glyph-name="M" horiz-adv-x="981" d="M512 93L962 714H1067L915 0H841L972 617H970L524 0H456L273 618H271L140 0H66L218 714H326L512 93Z" />
<glyph unicode="N" glyph-name="N" horiz-adv-x="796" d="M66 0L218 714H307L676 104H678L808 714H882L730 0H644L272 610H270L140 0H66Z" />
<glyph unicode="O" glyph-name="O" horiz-adv-x="852" d="M114 357Q152 536 285 634T582 732Q660 732 723 709T832 639T892 522T890 357Q864 236 790 149T622 22T422 -18Q259 -18 168 79T114 357ZM194 357Q162 206 235 128T437 50Q519 50 593 80T727 182T810 357Q842
508 769 586T567 664Q485 664 411 634T277 532T194 357Z" />
<glyph unicode="P" glyph-name="P" horiz-adv-x="704" d="M289 646L230 368H516Q604 368 647 404T706 508Q722 584 691 615T590 646H289ZM78 0L230 714H615Q707 714 757 664T786 508Q764 407 689 354T494 300H216L152 0H78Z" />
<glyph unicode="Q" glyph-name="Q" horiz-adv-x="852" d="M508 152L558 201L651 115Q775 194 810 357Q842 508 769 586T567 664Q485 664 411 634T277 532T194 357Q162 206 235 128T437 50Q517 50 586 80L508 152ZM791 -14L742 -63L639 32Q539 -18 422 -18Q259
-18 168 79T114 357Q152 536 285 634T582 732Q660 732 723 709T832 639T892 522T890 357Q850 169 702 69L791 -14Z" />
<glyph unicode="R" glyph-name="R" horiz-adv-x="741" d="M78 0L230 714H619Q722 714 777 670T810 521Q797 461 750 412T633 348V346Q702 335 719 285T717 148Q697 17 711 0H631Q617 21 643 146Q662 240 631 277T506 314H219L152 0H78ZM289 646L233 382H546Q701
382 730 521Q756 646 609 646H289Z" />
<glyph unicode="S" glyph-name="S" horiz-adv-x="668" d="M732 510H658Q669 595 617 629T467 664Q378 664 315 631T238 538Q225 473 276 446T469 394Q491 390 506 387T542 379T577 370T609 358T637 343T660 325T678 302T689 275T694 243T689 205Q675 142 639 97T553
27T451 -7T343 -18Q197 -18 125 41T73 236H147Q134 131 189 91T358 50Q576 50 606 192Q616 240 584 269T515 308T400 331Q384 334 376 335Q247 356 193 399T156 525Q168 581 201 622T280 687T377 721T482 732Q540 732 587 721T673 686T727 616T732 510Z" />
<glyph unicode="T" glyph-name="T" horiz-adv-x="630" d="M278 0L415 646H135L150 714H784L769 646H489L352 0H278Z" />
<glyph unicode="U" glyph-name="U" horiz-adv-x="778" d="M860 714L767 276Q759 239 749 209T719 143T672 80T604 30T509 -5T385 -18Q326 -18 281 -9T206 17T157 57T129 105T118 161T119 218T129 276L222 714H296L203 276Q189 220 196 181T219 116T265 76T328
56T400 50Q645 50 693 276L786 714H860Z" />
<glyph unicode="V" glyph-name="V" horiz-adv-x="685" d="M365 84L772 714H852L384 0H304L137 714H223L365 84Z" />
<glyph unicode="W" glyph-name="W" horiz-adv-x="1056" d="M808 98L1139 714H1219L827 0H741L656 610H654L312 0H226L141 714H224L291 98H293L635 714H726L806 98H808Z" />
<glyph unicode="X" glyph-name="X" horiz-adv-x="667" d="M-8 0L359 362L156 714H255L424 420L726 714H818L464 366L675 0H577L398 307L87 0H-8Z" />
<glyph unicode="Y" glyph-name="Y" horiz-adv-x="686" d="M306 0L370 300L137 714H233L422 374L757 714H853L444 300L380 0H306Z" />
<glyph unicode="Z" glyph-name="Z" horiz-adv-x="648" d="M5 0L19 68L672 646H176L191 714H787L772 646L116 68H657L643 0H5Z" />
<glyph unicode="[" glyph-name="bracketleft" horiz-adv-x="352" d="M68 -190L260 714H456L444 658H316L148 -134H276L264 -190H68Z" />
<glyph unicode="\" glyph-name="backslash" horiz-adv-x="407" d="M344 -18L159 732H215L400 -18H344Z" />
<glyph unicode="]" glyph-name="bracketright" horiz-adv-x="352" d="M396 714L204 -190H8L20 -134H148L316 658H188L200 714H396Z" />
<glyph unicode="^" glyph-name="asciicircum" horiz-adv-x="600" d="M551 239L434 630L151 239H95L422 692H472L607 239H551Z" />
<glyph unicode="_" glyph-name="underscore" horiz-adv-x="500" d="M-27 -125L-16 -75H484L473 -125H-27Z" />
<glyph unicode="`" glyph-name="grave" horiz-adv-x="184" d="M198 740L283 598H222L107 740H198Z" />
<glyph unicode="a" glyph-name="a" horiz-adv-x="611" d="M514 201L531 280Q505 265 463 259T291 241Q152 228 135 145Q123 89 159 65T263 40Q346 40 422 83T514 201ZM198 360H130Q157 447 222 491T415 536T589 498T620 382L562 110Q555 78 562 65T591 52Q604
52 630 54L620 4Q577 -4 556 -4Q521 -4 505 10T491 45T496 88H494Q476 69 462 57T416 25T337 -5T229 -16Q180 -16 140 -3T74 48T60 140Q69 181 92 210T142 256T209 283T280 297T353 303Q475 310 508 321T550 372Q562 428 527 451T400 474Q311 474 263 448T198 360Z"
/>
<glyph unicode="b" glyph-name="b" horiz-adv-x="667" d="M57 0L210 720H284L219 416H221Q259 468 323 502T459 536Q597 536 652 457T683 260Q672 209 648 163T583 75T481 9T342 -16Q258 -16 212 22T155 104H153L131 0H57ZM182 260Q161 161 210 104T355 46Q460
46 525 109T609 260Q630 357 583 415T446 474Q340 474 271 411T182 260Z" />
<glyph unicode="c" glyph-name="c" horiz-adv-x="611" d="M552 186H626Q613 155 592 125T534 61T443 5T320 -16Q182 -16 121 59T85 260Q111 382 203 459T437 536Q500 536 546 518T615 471T648 411T656 350H582Q576 474 424 474Q317 474 249 415T159 260Q138 162
183 104T333 46Q411 46 467 84T552 186Z" />
<glyph unicode="d" glyph-name="d" horiz-adv-x="667" d="M595 260Q614 348 572 411T423 474Q333 474 261 416T168 260Q157 221 163 183T185 114T239 65T332 46Q427 46 500 103T595 260ZM536 0L558 104H556Q527 60 465 22T319 -16Q257 -16 211 0T140 44T100 108T86
182T94 260Q119 377 208 456T436 536Q507 536 556 502T622 416H624L689 720H763L610 0H536Z" />
<glyph unicode="e" glyph-name="e" horiz-adv-x="648" d="M176 298H604Q609 388 559 431T428 474Q348 474 278 431T176 298ZM563 166H637Q595 87 517 36T319 -16Q257 -16 211 0T140 44T100 108T86 182T94 260Q119 377 208 456T436 536Q472 536 503 531T566 512T620
478T658 423T676 346T666 242H164Q146 158 191 102T332 46Q422 46 476 75T563 166Z" />
<glyph unicode="f" glyph-name="f" horiz-adv-x="315" d="M107 0L206 464H93L105 520H218L232 589Q247 660 289 690T406 720Q444 720 488 716L475 654Q429 658 407 658Q357 658 336 642T304 581L292 520H439L427 464H280L181 0H107Z" />
<glyph unicode="g" glyph-name="g" horiz-adv-x="667" d="M598 271Q616 358 570 416T419 474Q321 474 252 420T162 271Q139 163 187 113T337 62Q431 62 504 118T598 271ZM627 419L649 520H723L616 20Q601 -49 565 -98T480 -172T380 -209T273 -220Q216 -220 173
-212T107 -189T67 -157T48 -120T42 -83T43 -51H111Q111 -78 114 -93T133 -127T187 -155T288 -164Q391 -164 457 -116T543 25L563 118H561Q525 70 461 35T306 0Q254 0 211 14T131 59T85 143T88 271Q112 383 200 459T428 536Q506 536 559 507T625 419H627Z" />
<glyph unicode="h" glyph-name="h" horiz-adv-x="630" d="M57 0L210 720H284L220 418H222Q251 464 316 500T462 536Q584 536 623 480T641 322L573 0H499L570 335Q600 474 443 474Q337 474 274 424T191 282L131 0H57Z" />
<glyph unicode="i" glyph-name="i" horiz-adv-x="184" d="M55 0L166 520H240L129 0H55ZM185 610L208 720H282L259 610H185Z" />
<glyph unicode="j" glyph-name="j" horiz-adv-x="184" d="M-122 -217L-109 -155Q-85 -158 -60 -158Q-12 -158 8 -140T38 -79L166 520H240L112 -79Q82 -220 -53 -220Q-63 -220 -74 -220T-100 -218T-122 -217ZM185 610L208 720H282L259 610H185Z" />
<glyph unicode="k" glyph-name="k" horiz-adv-x="574" d="M57 0L210 720H284L188 267L559 520H669L372 323L577 0H479L306 275L171 186L131 0H57Z" />
<glyph unicode="l" glyph-name="l" horiz-adv-x="184" d="M55 0L208 720H282L129 0H55Z" />
<glyph unicode="m" glyph-name="m" horiz-adv-x="1000" d="M869 0L939 330Q954 402 924 438T815 474Q731 474 675 429T602 307L537 0H463L538 352Q549 405 519 439T416 474Q334 474 273 427T193 293L131 0H57L168 520H242L221 424H223Q311 536 453 536Q533 536
572 502T615 422Q646 466 708 501T843 536Q949 536 992 487T1018 355L943 0H869Z" />
<glyph unicode="n" glyph-name="n" horiz-adv-x="630" d="M499 0L570 335Q600 474 443 474Q337 474 274 424T191 282L131 0H57L168 520H242L220 418H222Q251 464 316 500T462 536Q584 536 623 480T641 322L573 0H499Z" />
<glyph unicode="o" glyph-name="o" horiz-adv-x="668" d="M168 260Q148 164 194 105T344 46T518 105T610 260Q631 356 585 415T435 474T261 415T168 260ZM69 143T94 260T212 456T448 536T649 457T684 260T566 64T331 -16T129 63Z" />
<glyph unicode="p" glyph-name="p" horiz-adv-x="667" d="M14 -202L168 520H242L219 416H221Q303 536 459 536Q521 536 567 520T637 476T677 412T691 338T683 260Q658 143 569 64T342 -16Q271 -16 221 18T155 104H153L88 -202H14ZM182 260Q164 172 206 109T355
46Q445 46 516 104T609 260Q620 299 615 337T593 406T538 455T446 474Q351 474 277 417T182 260Z" />
<glyph unicode="q" glyph-name="q" horiz-adv-x="667" d="M624 416L647 520H721L567 -202H493L558 104H556Q518 52 454 18T319 -16Q181 -16 125 63T94 260Q105 310 131 357T199 445T300 511T430 536Q517 536 566 498T622 416H624ZM595 260Q616 359 567 416T423
474Q318 474 253 411T168 260Q147 163 194 105T332 46Q438 46 507 109T595 260Z" />
<glyph unicode="r" glyph-name="r" horiz-adv-x="370" d="M57 0L168 520H242L216 401H218Q305 536 446 536Q469 536 489 532L473 456Q440 462 406 462Q362 462 321 445T241 381T187 265L131 0H57Z" />
<glyph unicode="s" glyph-name="s" horiz-adv-x="556" d="M590 366H522Q521 427 486 450T366 474Q216 474 197 385Q188 345 220 330T372 299Q494 282 537 252T565 149Q548 71 476 28T283 -16Q156 -16 97 28T58 163H126Q121 98 158 72T296 46Q380 46 429 68T490
145Q499 185 463 204T310 236Q191 248 150 280T122 382Q137 452 203 494T379 536Q502 536 551 494T590 366Z" />
<glyph unicode="t" glyph-name="t" horiz-adv-x="352" d="M218 520L252 684H326L292 520H439L427 464H280L207 120Q199 84 211 69T266 54Q311 54 341 60L328 -2Q284 -8 245 -8Q163 -8 141 22T133 121L206 464H93L105 520H218Z" />
<glyph unicode="u" glyph-name="u" horiz-adv-x="630" d="M499 0L521 102H519Q490 56 425 20T279 -16Q157 -16 118 40T99 198L168 520H242L170 185Q140 46 298 46Q404 46 467 96T550 238L610 520H684L573 0H499Z" />
<glyph unicode="v" glyph-name="v" horiz-adv-x="556" d="M296 85L593 520H673L318 0H238L105 520H185L296 85Z" />
<glyph unicode="w" glyph-name="w" horiz-adv-x="889" d="M663 97L920 520H1000L678 0H598L529 416L286 0H206L111 520H191L265 94L513 520H593L663 97Z" />
<glyph unicode="x" glyph-name="x" horiz-adv-x="574" d="M-3 0L293 270L125 520H221L354 322L572 520H669L390 270L577 0H479L332 216L94 0H-3Z" />
<glyph unicode="y" glyph-name="y" horiz-adv-x="556" d="M304 87L593 520H673L259 -97Q218 -159 182 -180T85 -202Q36 -202 14 -200L28 -138Q58 -140 80 -140Q121 -140 146 -127T197 -76L246 -4L105 520H185L304 87Z" />
<glyph unicode="z" glyph-name="z" horiz-adv-x="556" d="M20 0L33 62L512 458H140L154 520H632L618 458L131 62H549L536 0H20Z" />
<glyph unicode="{" glyph-name="braceleft" horiz-adv-x="352" d="M100 243L108 281Q143 281 161 309T197 418L234 593Q260 714 367 714H425L417 676H368Q344 676 328 658T302 593L265 418Q251 347 220 309T154 263L153 261Q184 253 199 216T199 106L161 -69Q152
-119 160 -135T192 -152H241L233 -190H175Q68 -190 93 -69L131 106Q148 188 142 215T100 243Z" />
<glyph unicode="|" glyph-name="bar" horiz-adv-x="442" d="M268 830H323V-277H268V830Z" />
<glyph unicode="}" glyph-name="braceright" horiz-adv-x="352" d="M39 -190L47 -152H96Q120 -152 135 -135T161 -69L199 106Q213 177 244 215T309 261L310 263Q280 271 265 309T265 418L302 593Q311 643 304 659T272 676H223L231 714H289Q396 714 370 593L333
418Q316 336 322 309T364 281L356 243Q321 243 303 215T267 106L229 -69Q204 -190 97 -190H39Z" />
<glyph unicode="~" glyph-name="asciitilde" horiz-adv-x="600" d="M562 316L591 280Q566 253 549 238T504 209T447 194Q405 194 352 227Q298 262 245 262Q194 262 145 190L117 226Q180 312 260 312Q299 312 365 280Q371 277 384 270T405 260T423 253T442 246T459
244Q478 244 498 256T530 280T562 316Z" />
</font>
</defs>
</svg>
