<?xml version="1.0" standalone="no"?> <!DOCTYPE svg PUBLIC "-//W3C//DTD SVG 1.0//EN" "http://www.w3.org/TR/2001/REC-SVG-20010904/DTD/svg10.dtd" > <svg xmlns="http://www.w3.org/2000/svg" width="100%" height="100%">
<defs >
<font id="HelveticaNeueLTStd-CnO" horiz-adv-x="371" ><font-face
    font-family="HelveticaNeueLT Std Cn"
    units-per-em="1000"
    panose-1="2 11 5 6 3 5 2 3 2 4"
    ascent="714"
    descent="-286"
    alphabetic="0" />
<missing-glyph horiz-adv-x="648" d="M148 0V700H648V0H148ZM398 395L568 650H228L398 395ZM428 350L598 95V605L428 350ZM228 50H568L398 305L228 50ZM198 605V95L368 350L198 605Z" />
<glyph unicode=" " glyph-name="space" horiz-adv-x="240" />
<glyph unicode="!" glyph-name="exclam" horiz-adv-x="258" d="M139 186L235 714H327L199 186H139ZM83 0L103 96H195L175 0H83Z" />
<glyph unicode="&quot;" glyph-name="quotedbl" horiz-adv-x="407" d="M185 460L239 714H305L251 460H185ZM352 460L406 714H472L418 460H352Z" />
<glyph unicode="#" glyph-name="numbersign" horiz-adv-x="480" d="M79 0L149 205H67L81 271H171L222 425H135L149 491H245L314 694H380L311 491H417L486 694H552L483 491H561L547 425H460L409 271H492L478 205H387L317 0H251L321 205H215L145 0H79ZM288 425L237
271H343L394 425H288Z" />
<glyph unicode="$" glyph-name="dollar" horiz-adv-x="480" d="M324 306L271 58Q319 62 356 95T405 179T394 258T324 306ZM303 405L352 636Q254 624 234 525Q224 478 242 451T303 405ZM367 708L380 766H422L409 708Q584 699 548 514H460Q484 627 394 636L342 391Q347
389 368 382T395 373T419 362T444 349T464 335T483 316T495 294T504 266T505 233T500 193Q478 90 410 41T256 -14L236 -108H194L214 -14Q106 -10 75 47T67 218H155Q148 183 146 163T148 116T172 76T229 58L285 320Q263 328 253 331T224 343T195 359T171 377T151
402T139 431T134 469T140 516Q146 544 159 572T196 631T265 683T367 708Z" />
<glyph unicode="%" glyph-name="percent" horiz-adv-x="759" d="M257 378Q295 378 312 410T346 516Q363 578 359 616T316 654T261 622T228 516Q220 480 217 459T215 417T226 387T257 378ZM183 -14L646 708H716L253 -14H183ZM591 40Q629 40 646 72T679 178Q696
240 692 278T649 316T594 284T561 178Q553 142 550 121T548 79T560 49T591 40ZM246 324Q190 324 165 351T143 421T156 516Q165 560 175 589T204 648T253 693T327 708Q383 708 408 681T430 611T418 516Q408 472 398 443T369 384T320 339T246 324ZM579 -14Q523 -14
498 13T476 83T489 178Q498 222 508 251T538 310T587 355T661 370Q717 370 742 343T764 273T751 178Q742 134 732 105T702 46T653 1T579 -14Z" />
<glyph unicode="&amp;" glyph-name="ampersand" horiz-adv-x="556" d="M334 453L357 471Q385 494 396 503T423 534T444 578Q451 609 435 628T387 648T332 629T301 578Q293 541 322 477L334 453ZM399 127L290 354Q176 293 154 191Q140 128 170 93T256 58Q325 58
399 127ZM360 400L458 198Q490 250 516 337H594Q585 296 551 225T491 129L556 0H461L427 67Q373 24 331 5T234 -14Q184 -14 148 0T95 37T68 86T59 138T64 184Q88 294 200 369L261 408L246 444Q238 462 236 469T228 492T221 518T219 544T222 574Q235 636 286 675T400
714Q550 714 522 578Q512 531 480 497T391 422L360 400Z" />
<glyph unicode="&apos;" glyph-name="quotesingle" horiz-adv-x="240" d="M185 460L239 714H305L251 460H185Z" />
<glyph unicode="(" glyph-name="parenleft" horiz-adv-x="241" d="M341 714H389Q240 534 183 265Q133 27 198 -184H150Q47 15 99 265Q125 385 187 501T341 714Z" />
<glyph unicode=")" glyph-name="parenright" horiz-adv-x="241" d="M13 -184H-35Q113 -4 170 265Q221 499 156 714H204Q253 617 266 500T254 265Q202 16 13 -184Z" />
<glyph unicode="*" glyph-name="asterisk" horiz-adv-x="352" d="M272 595L298 714H358L332 595L448 636L458 578L338 544L394 450L336 413L285 515L192 413L150 450L246 544L140 578L174 636L272 595Z" />
<glyph unicode="+" glyph-name="plus" horiz-adv-x="600" d="M267 0L314 220H94L108 286H328L375 506H441L394 286H614L600 220H380L333 0H267Z" />
<glyph unicode="," glyph-name="comma" horiz-adv-x="240" d="M74 0L97 106H189L170 19Q163 -15 156 -37T135 -83T98 -124T43 -148L53 -101Q81 -89 93 -72T113 -24L118 0H74Z" />
<glyph unicode="-" glyph-name="hyphen" horiz-adv-x="352" d="M106 245L123 323H367L350 245H106Z" />
<glyph unicode="." glyph-name="period" horiz-adv-x="240" d="M74 0L97 106H189L166 0H74Z" />
<glyph unicode="/" glyph-name="slash" horiz-adv-x="278" d="M-13 -14L377 728H443L53 -14H-13Z" />
<glyph unicode="0" glyph-name="zero" horiz-adv-x="480" d="M237 -14Q197 -14 168 -3T122 27T96 74T85 132T87 200T96 271T111 344Q121 391 130 426T155 507T191 585T239 647T305 692T390 708T468 694T515 652T538 592T542 515T532 432T515 344Q505 298 496 265T472
186T436 108T388 47T322 2T237 -14ZM199 344Q190 300 185 270T175 203T172 142T182 95T207 63T251 52T299 62T338 95T367 141T391 203T410 270T427 344Q437 390 442 421T452 490T455 552T445 598T420 631T376 642T328 632T289 599T260 552T236 490T217 421T199
344Z" />
<glyph unicode="1" glyph-name="one" horiz-adv-x="480" d="M180 532L193 592Q234 594 260 598T315 614T364 648T392 708H452L302 0H218L331 532H180Z" />
<glyph unicode="2" glyph-name="two" horiz-adv-x="480" d="M455 78L438 0H42Q76 159 257 290L325 339Q382 381 413 418T455 509Q466 561 449 598T379 636Q266 636 235 483H147Q194 708 395 708Q442 708 474 694T522 660T544 612T551 563T545 519Q529 443 489
393T372 286L253 199Q180 147 151 78H455Z" />
<glyph unicode="3" glyph-name="three" horiz-adv-x="480" d="M251 333L265 399H309Q363 399 397 433T443 524Q468 642 376 642Q274 642 245 504H157Q177 599 235 653T388 708Q431 708 461 697T507 667T530 623T538 574T531 524Q519 468 482 427T389 372V370Q513
344 485 205Q463 105 400 46T237 -14Q183 -14 147 4T97 46T77 101T73 150T78 183L80 192H168Q156 136 175 94T251 52Q299 52 338 84T395 198Q409 262 385 297T296 333H251Z" />
<glyph unicode="4" glyph-name="four" horiz-adv-x="480" d="M405 570L158 243H338L407 570H405ZM83 250L436 708H520L422 243H502L486 171H406L370 0H286L322 171H66L83 250Z" />
<glyph unicode="5" glyph-name="five" horiz-adv-x="480" d="M128 331L245 694H561L544 616H295L223 411L225 409Q280 462 360 462Q441 462 476 401T489 229Q466 122 401 54T231 -14Q183 -14 150 1T101 38T80 88T74 139T79 182H167Q163 164 163 146T168 104T194
67T247 52Q282 52 310 70T357 118T385 176T402 236Q409 277 408 312T383 372T318 396Q277 396 242 370T204 327L128 331Z" />
<glyph unicode="6" glyph-name="six" horiz-adv-x="480" d="M543 538H455Q465 584 447 613T384 642Q351 642 322 623T276 579T244 520T224 466T214 429L202 373H204Q226 402 265 427T356 452Q446 452 480 392T493 228Q470 121 404 54T242 -14Q195 -14 162 0T112
41T88 98T81 170T89 245T103 322Q112 365 119 395T141 468T170 542T208 606T257 660T320 694T400 708Q447 708 478 693T524 658T543 612T547 569T543 538ZM179 216Q173 177 173 141T193 78T256 52Q316 52 352 100T403 216Q438 380 326 380T179 216Z" />
<glyph unicode="7" glyph-name="seven" horiz-adv-x="480" d="M169 616L186 694H590L574 621Q469 514 383 378Q262 184 206 0H108Q164 166 262 322Q362 482 493 616H169Z" />
<glyph unicode="8" glyph-name="eight" horiz-adv-x="480" d="M78 195Q109 336 242 377Q193 399 176 435T171 528Q189 613 247 660T390 708T512 661T533 528Q510 419 398 377Q515 336 484 195Q476 157 459 123T414 56T340 5T237 -14T143 5T91 55T73 123T78 195ZM376
642Q329 642 300 611T259 526Q248 474 264 442T327 410Q373 410 403 442T445 526Q456 579 439 610T376 642ZM181 264T167 198T172 92T251 52T346 92T397 198T392 304T313 344T218 304Z" />
<glyph unicode="9" glyph-name="nine" horiz-adv-x="480" d="M84 156H172Q163 111 181 82T243 52Q284 52 317 79T370 146T399 215T413 265L425 321H423Q403 293 363 268T271 242Q181 242 147 302T134 466Q157 573 223 640T385 708Q426 708 456 697T504 667T531
621T544 566T544 502T537 437T524 372Q515 330 508 299T486 225T457 152T419 88T370 34T307 0T227 -14Q180 -14 149 1T103 36T84 82T80 125T84 156ZM449 478Q455 517 455 553T434 616T371 642Q311 642 275 594T225 478Q190 314 302 314T449 478Z" />
<glyph unicode=":" glyph-name="colon" horiz-adv-x="240" d="M159 400L182 506H274L251 400H159ZM74 0L97 106H189L166 0H74Z" />
<glyph unicode=";" glyph-name="semicolon" horiz-adv-x="240" d="M74 0L97 106H189L170 19Q163 -15 156 -37T135 -83T98 -124T43 -148L53 -101Q81 -89 93 -72T113 -24L118 0H74ZM159 400L182 506H274L251 400H159Z" />
<glyph unicode="&lt;" glyph-name="less" horiz-adv-x="600" d="M94 223L107 283L662 514L648 448L179 253L565 58L551 -8L94 223Z" />
<glyph unicode="=" glyph-name="equal" horiz-adv-x="600" d="M115 322L129 388H635L621 322H115ZM72 118L86 184H592L578 118H72Z" />
<glyph unicode="&gt;" glyph-name="greater" horiz-adv-x="600" d="M45 -8L59 58L529 253L142 448L156 514L613 283L600 223L45 -8Z" />
<glyph unicode="?" glyph-name="question" horiz-adv-x="444" d="M226 504H142Q162 599 222 660T374 722Q462 722 501 670T523 534Q506 454 443 393Q441 391 397 352T346 305Q305 264 293 205L289 186H211Q228 272 256 309Q275 335 329 385T384 437Q422 476 436
539Q446 586 427 618T362 650Q259 650 226 504ZM165 0L185 96H277L257 0H165Z" />
<glyph unicode="@" glyph-name="at" horiz-adv-x="800" d="M302 293Q293 251 314 224T376 197Q440 197 501 270T576 409Q583 446 568 477T516 509Q447 509 383 439T302 293ZM628 487L663 550H719L575 268Q561 241 556 223Q554 212 560 205T580 197Q647 197 711
264T793 415Q817 527 745 597T542 668Q413 668 306 578T171 357Q143 224 212 135T410 46Q599 46 704 157H767Q632 -14 397 -14Q243 -14 158 94T105 357Q137 511 269 619T555 728Q717 728 803 641T860 419Q842 337 788 271T669 171T542 137Q479 137 485 196H483Q413
137 345 137Q288 137 255 179T235 287Q258 396 343 482T529 569Q614 569 626 487H628Z" />
<glyph unicode="A" glyph-name="A" horiz-adv-x="500" d="M-8 0L350 714H468L508 0H416L407 196H179L84 0H-8ZM384 613L212 268H404L386 613H384Z" />
<glyph unicode="B" glyph-name="B" horiz-adv-x="519" d="M218 340L161 72H281Q346 72 384 109T434 204Q449 273 417 306T323 340H218ZM58 0L210 714H429Q508 714 550 671T573 531Q562 481 525 439T437 382V380Q497 365 519 319T526 204Q484 0 252 0H58ZM282 642L232
406H333Q454 406 480 525Q504 642 381 642H282Z" />
<glyph unicode="C" glyph-name="C" horiz-adv-x="519" d="M455 245H547Q516 130 450 58T275 -14Q233 -14 201 -3T150 28T119 76T104 135T102 205T109 279T124 357Q137 417 152 465T192 565T250 650T329 706T433 728Q637 728 597 506H505Q533 656 417 656Q381 656
353 640T304 599T267 533T239 452T216 357T198 262T192 181T201 115T232 74T290 58Q328 58 357 74T405 120T435 178T455 245Z" />
<glyph unicode="D" glyph-name="D" horiz-adv-x="556" d="M291 642L170 72H262Q306 72 341 90T400 134T443 201T472 276T492 356Q501 397 505 425T512 490T509 551T489 598T449 631T383 642H291ZM67 0L219 714H410Q475 714 517 695T579 646T604 567T604 471T584
357Q509 0 267 0H67Z" />
<glyph unicode="E" glyph-name="E" horiz-adv-x="463" d="M58 0L210 714H579L562 636H281L234 412H499L482 334H217L163 78H456L439 0H58Z" />
<glyph unicode="F" glyph-name="F" horiz-adv-x="444" d="M58 0L210 714H579L562 636H281L234 412H499L482 334H217L146 0H58Z" />
<glyph unicode="G" glyph-name="G" horiz-adv-x="537" d="M599 516H507Q529 656 417 656Q381 656 353 640T304 599T267 533T239 452T216 357T198 262T192 181T201 115T232 74T290 58Q333 58 366 80T420 144T452 219T473 299H332L347 371H568L489 0H423L444 97H442Q417
49 369 18T264 -14Q210 -14 175 6T123 60T103 144T105 244T124 357Q137 417 152 465T192 565T250 650T329 706T433 728Q482 728 517 716T569 681T595 637T605 587T603 546T599 516Z" />
<glyph unicode="H" glyph-name="H" horiz-adv-x="537" d="M631 714L479 0H391L464 344H219L146 0H58L210 714H298L236 422H481L543 714H631Z" />
<glyph unicode="I" glyph-name="I" horiz-adv-x="204" d="M58 0L210 714H298L146 0H58Z" />
<glyph unicode="J" glyph-name="J" horiz-adv-x="426" d="M520 714L412 205Q389 99 339 43T186 -14Q102 -14 70 32T54 149L66 208H150L139 156Q119 58 200 58Q256 58 281 92T324 208L432 714H520Z" />
<glyph unicode="K" glyph-name="K" horiz-adv-x="500" d="M58 0L210 714H298L224 368H226L547 714H645L365 416L511 0H413L293 344L198 243L146 0H58Z" />
<glyph unicode="L" glyph-name="L" horiz-adv-x="444" d="M58 0L210 714H298L163 78H453L436 0H58Z" />
<glyph unicode="M" glyph-name="M" horiz-adv-x="704" d="M60 0L212 714H360L382 148H384L648 714H796L644 0H556L689 624H687L396 0H308L283 624H281L148 0H60Z" />
<glyph unicode="N" glyph-name="N" horiz-adv-x="556" d="M58 0L210 714H324L433 118H435L562 714H650L498 0H377L271 578H269L146 0H58Z" />
<glyph unicode="O" glyph-name="O" horiz-adv-x="556" d="M433 728Q481 728 515 714T568 672T596 611T606 533T600 448T584 357Q571 297 556 249T516 149T458 64T379 8T275 -14Q227 -14 193 0T140 42T112 103T102 181T108 266T124 357Q137 417 152 465T192 565T250
650T329 706T433 728ZM417 656Q381 656 353 640T304 599T267 533T239 452T216 357T198 262T192 181T201 115T232 74T290 58T355 74T404 115T441 181T469 262T492 357Q507 427 512 474T514 567T485 634T417 656Z" />
<glyph unicode="P" glyph-name="P" horiz-adv-x="481" d="M58 0L210 714H392Q407 714 416 714T444 712T475 707T505 696T534 679T556 653T571 618T576 570T569 509Q548 411 480 357T319 302H210L146 0H58ZM282 642L225 374H330Q381 374 422 409T478 513Q491 574
468 608T381 642H282Z" />
<glyph unicode="Q" glyph-name="Q" horiz-adv-x="556" d="M464 -43L406 22Q350 -14 275 -14Q227 -14 193 0T140 42T112 103T102 181T108 266T124 357Q137 417 152 465T192 565T250 650T329 706T433 728Q481 728 515 714T568 672T596 611T606 533T600 448T584 357Q543
164 466 75L524 9L464 -43ZM359 75L303 137L364 191L417 131Q459 200 492 357Q507 427 512 474T514 567T485 634T417 656Q381 656 353 640T304 599T267 533T239 452T216 357T198 262T192 181T201 115T232 74T290 58Q330 58 359 75Z" />
<glyph unicode="R" glyph-name="R" horiz-adv-x="519" d="M58 0L210 714H441Q526 714 565 667T586 535Q572 469 535 419T437 355V353Q481 348 500 315T513 234L493 112Q485 52 488 32T507 0H401Q385 20 399 103L416 214Q421 249 416 271T396 303T368 315T333 318H214L146
0H58ZM282 642L229 390H316Q339 390 352 391T391 399T433 419T467 461T492 528Q503 581 476 611T387 642H282Z" />
<glyph unicode="S" glyph-name="S" horiz-adv-x="500" d="M561 529H473Q500 656 389 656Q333 656 296 626T247 540Q238 499 251 472T290 430T350 403T417 379T475 345T511 289T511 198Q498 139 469 96T402 30T324 -3T244 -14Q124 -14 89 45T79 224H167Q161 194
158 176T157 132T169 93T204 69T265 58Q318 58 361 93T416 184Q425 225 412 253T373 295T313 323T247 348T189 383T153 439T153 531Q158 554 167 577T195 628T241 678T309 713T404 728Q505 728 543 679T561 529Z" />
<glyph unicode="T" glyph-name="T" horiz-adv-x="463" d="M410 636L275 0H187L322 636H143L160 714H607L590 636H410Z" />
<glyph unicode="U" glyph-name="U" horiz-adv-x="519" d="M95 212L202 714H290L183 212Q166 132 186 95T271 58Q339 58 374 95T426 212L533 714H621L514 212Q492 107 426 47T256 -14Q47 -14 95 212Z" />
<glyph unicode="V" glyph-name="V" horiz-adv-x="462" d="M172 0L150 714H242L251 101H253L524 714H616L284 0H172Z" />
<glyph unicode="W" glyph-name="W" horiz-adv-x="722" d="M150 0L160 714H248L233 130H235L460 714H566L543 130H545L778 714H866L567 0H460L485 578H483L257 0H150Z" />
<glyph unicode="X" glyph-name="X" horiz-adv-x="481" d="M269 363L168 714H266L339 447L527 714H619L366 363L479 0H381L300 286L94 0H2L269 363Z" />
<glyph unicode="Y" glyph-name="Y" horiz-adv-x="462" d="M247 280L150 714H247L312 380L524 714H616L335 280L275 0H187L247 280Z" />
<glyph unicode="Z" glyph-name="Z" horiz-adv-x="463" d="M23 0L39 74L479 636H176L193 714H588L571 633L132 78H457L440 0H23Z" />
<glyph unicode="[" glyph-name="bracketleft" horiz-adv-x="259" d="M39 -184L230 714H409L395 648H294L131 -118H232L218 -184H39Z" />
<glyph unicode="\" glyph-name="backslash" horiz-adv-x="278" d="M219 -14L145 728H211L285 -14H219Z" />
<glyph unicode="]" glyph-name="bracketright" horiz-adv-x="259" d="M333 714L142 -184H-37L-23 -118H78L241 648H140L154 714H333Z" />
<glyph unicode="^" glyph-name="asciicircum" horiz-adv-x="600" d="M102 261L424 694H472L608 261H542L432 622L168 261H102Z" />
<glyph unicode="_" glyph-name="underscore" horiz-adv-x="500" d="M-27 -125L-16 -75H484L473 -125H-27Z" />
<glyph unicode="`" glyph-name="grave" horiz-adv-x="204" d="M144 752H242L282 610H222L144 752Z" />
<glyph unicode="a" glyph-name="a" horiz-adv-x="444" d="M205 374H121Q141 466 192 508T339 550Q386 550 416 539T459 513T475 474T476 435T469 396L406 97Q400 80 402 67T422 54Q436 54 444 59L431 -1Q401 -6 381 -6Q364 -6 356 -5T335 2T319 23T319 63H317Q290
28 250 7T172 -14Q99 -14 72 27T59 142Q84 259 192 290L312 324Q357 337 369 352T390 405T381 463T321 484Q229 484 207 379L205 374ZM334 154L363 292Q341 273 282 255T207 229Q161 204 148 144Q128 52 204 52Q246 52 285 82T334 154Z" />
<glyph unicode="b" glyph-name="b" horiz-adv-x="463" d="M191 268Q181 222 179 188T180 123T203 75T254 58Q309 58 342 112T397 268Q421 364 410 421T344 478Q235 478 191 268ZM55 0L207 714H291L240 475H242Q263 509 302 529T382 550Q545 550 485 268Q459 145
399 66T250 -14Q208 -14 181 10T151 66H149L135 0H55Z" />
<glyph unicode="c" glyph-name="c" horiz-adv-x="426" d="M473 373H389Q399 418 386 451T328 484Q306 484 288 477T249 447T210 379T176 262Q170 232 167 213T161 159T164 105T187 68T233 52Q267 52 292 74T330 124T350 186H434Q423 138 399 96T327 20T215 -14Q118
-14 88 53T87 261Q97 306 108 343T141 420T188 487T253 532T340 550Q382 550 411 538T454 506T473 462T479 416T473 373Z" />
<glyph unicode="d" glyph-name="d" horiz-adv-x="463" d="M180 268Q156 172 167 115T233 58Q297 58 330 111T386 268Q430 478 323 478Q268 478 235 425T180 268ZM560 714L408 0H328L342 66H340Q325 34 287 10T207 -14Q32 -14 92 268T321 550Q358 550 387 530T423
475H425L476 714H560Z" />
<glyph unicode="e" glyph-name="e" horiz-adv-x="444" d="M197 324H388L394 353Q399 385 399 414T382 463T329 484Q298 484 274 468T235 425T213 380T201 344L197 324ZM462 258H180Q174 230 171 214T165 169T164 124T174 88T197 61T239 52Q267 52 289 65T325 99T345
139T356 176H440Q435 151 421 122T381 61T314 7T220 -14Q123 -14 93 53T92 261Q102 306 113 343T146 420T193 487T258 532T345 550Q392 550 423 534T467 493T483 432T482 364T469 292L462 258Z" />
<glyph unicode="f" glyph-name="f" horiz-adv-x="259" d="M80 0L180 470H102L116 536H194L207 599Q234 722 349 722H410L395 650H356Q302 650 291 599L278 536H370L356 470H264L164 0H80Z" />
<glyph unicode="g" glyph-name="g" horiz-adv-x="463" d="M323 478Q268 478 235 425T180 268Q137 72 235 72Q298 72 332 123T386 268Q430 478 323 478ZM522 536L415 34Q369 -184 187 -184Q170 -184 157 -183T118 -175T75 -155T47 -115T39 -50H123Q119 -85 139
-101T195 -118Q226 -118 249 -109T285 -88T306 -56T318 -26T324 2L339 72H337Q317 39 280 20T201 0Q164 0 138 14T100 54T83 107T79 167T84 223T92 268Q119 392 176 471T327 550Q369 550 396 526T425 468H427L442 536H522Z" />
<glyph unicode="h" glyph-name="h" horiz-adv-x="463" d="M55 0L207 714H291L240 475H242Q265 507 307 528T387 550Q420 550 443 543T478 519T495 489T499 452T496 416T489 380L408 0H324L403 370Q406 387 407 397T409 425T402 452T383 470T347 478Q307 478 268
451T218 370L139 0H55Z" />
<glyph unicode="i" glyph-name="i" horiz-adv-x="204" d="M60 0L174 536H258L144 0H60ZM191 618L212 714H296L275 618H191Z" />
<glyph unicode="j" glyph-name="j" horiz-adv-x="204" d="M258 536L133 -52Q118 -119 81 -151T-23 -184Q-25 -184 -61 -181L-46 -109Q-43 -109 -37 -110T-25 -111T-16 -112Q9 -112 23 -99T43 -70T55 -22L174 536H258ZM296 714L275 618H191L212 714H296Z" />
<glyph unicode="k" glyph-name="k" horiz-adv-x="444" d="M335 334L455 0H357L264 265L177 181L139 0H55L207 714H291L200 289H202L443 536H541L335 334Z" />
<glyph unicode="l" glyph-name="l" horiz-adv-x="204" d="M60 0L212 714H296L144 0H60Z" />
<glyph unicode="m" glyph-name="m" horiz-adv-x="722" d="M63 0L177 536H257L244 473H246Q269 509 310 529T392 550Q439 550 463 530T490 465Q517 502 556 526T635 550Q664 550 685 544T720 528T739 503T748 474T750 441T746 410T740 380L659 0H575L654 370Q658
391 659 405T659 438T643 468T605 478Q568 478 531 452T482 370L403 0H319L398 370Q402 391 403 405T403 438T387 468T349 478Q312 478 275 452T226 370L147 0H63Z" />
<glyph unicode="n" glyph-name="n" horiz-adv-x="463" d="M55 0L169 536H249L236 473H238Q261 509 302 529T384 550Q413 550 434 544T469 528T488 503T497 474T499 441T495 410T489 380L408 0H324L403 370Q406 387 407 397T409 425T402 452T383 470T347 478Q307
478 268 451T218 370L139 0H55Z" />
<glyph unicode="o" glyph-name="o" horiz-adv-x="444" d="M26 -14T86 268T339 550T472 268T219 -14ZM231 52Q292 52 327 109T384 268Q394 316 397 351T397 419T374 467T323 484Q292 484 268 467T226 419T196 352T174 268T161 185T161 118T182 69T231 52Z" />
<glyph unicode="p" glyph-name="p" horiz-adv-x="463" d="M191 268Q147 58 254 58Q310 58 343 112T399 278Q421 366 410 422T344 478Q280 478 247 425T191 268ZM18 -176L169 536H249L235 470H237Q252 502 290 526T370 550Q545 550 487 278Q476 227 458 180T412
87T341 14T250 -14Q214 -14 188 6T154 61H152L102 -176H18Z" />
<glyph unicode="q" glyph-name="q" horiz-adv-x="463" d="M386 268Q397 319 400 353T400 418T376 463T323 478Q268 478 236 427T182 278Q157 174 167 116T233 58Q342 58 386 268ZM287 -176L337 61H335Q313 27 278 7T207 -14Q157 -14 127 10T87 78T79 170T94 278Q152
550 327 550Q369 550 396 526T426 470H428L442 536H522L371 -176H287Z" />
<glyph unicode="r" glyph-name="r" horiz-adv-x="296" d="M55 0L169 536H253L236 456H238Q303 550 374 550Q398 550 410 544L392 462Q360 466 348 466Q310 466 267 433T211 339L139 0H55Z" />
<glyph unicode="s" glyph-name="s" horiz-adv-x="407" d="M450 379H366Q377 433 365 458T309 484Q221 484 204 402Q200 393 202 385T205 370T211 358T220 347T232 338T246 331T262 324T279 318T297 312T316 305Q333 299 342 296T365 285T387 270T404 252T416 227T419
195T415 154Q398 72 341 29T206 -14Q163 -14 132 -5T85 23T62 59T54 103T56 142T62 176H146Q121 52 220 52Q238 52 257 57T298 84T328 141Q330 152 330 161T329 177T323 192T314 204T302 214T289 223T273 230T256 237T238 243T220 250Q199 258 194 260T171 270T148
284T132 302T119 327T116 359T120 402Q136 474 192 512T323 550Q368 550 397 538T439 509T455 466T457 422T450 379Z" />
<glyph unicode="t" glyph-name="t" horiz-adv-x="259" d="M194 536L227 692H311L278 536H371L357 470H264L191 126Q184 93 192 80T233 66Q241 66 271 69L256 0Q223 -6 187 -6Q125 -6 107 19T101 100L180 470H102L116 536H194Z" />
<glyph unicode="u" glyph-name="u" horiz-adv-x="463" d="M522 536L408 0H328L341 63H339Q316 27 275 7T193 -14Q164 -14 143 -8T108 8T89 33T80 62T78 95T82 126T88 156L169 536H253L174 166Q171 149 170 139T168 111T175 84T194 66T230 58Q270 58 309 85T359
166L438 536H522Z" />
<glyph unicode="v" glyph-name="v" horiz-adv-x="406" d="M155 0L124 536H216L225 106H227L418 536H510L251 0H155Z" />
<glyph unicode="w" glyph-name="w" horiz-adv-x="648" d="M135 0L124 536H212L205 98H207L391 536H490L486 98H488L664 536H752L511 0H419L418 438H416L233 0H135Z" />
<glyph unicode="x" glyph-name="x" horiz-adv-x="406" d="M212 279L130 536H222L278 345L417 536H509L314 279L400 0H308L246 212L98 0H6L212 279Z" />
<glyph unicode="y" glyph-name="y" horiz-adv-x="406" d="M166 -11L124 536H216L231 106H233L418 536H510L233 -36Q217 -70 205 -90T173 -132T125 -165T61 -176Q42 -176 0 -173L14 -107Q32 -110 63 -110Q111 -110 140 -58L166 -11Z" />
<glyph unicode="z" glyph-name="z" horiz-adv-x="389" d="M138 464L153 536H476L461 466L137 72H375L360 0H27L41 66L369 464H138Z" />
<glyph unicode="{" glyph-name="braceleft" horiz-adv-x="259" d="M52 235L65 295Q99 295 126 324T164 406L202 584Q230 714 338 714H409L395 648H344Q321 648 306 634T286 605T276 566L240 394Q226 331 190 301T125 266L124 264Q134 263 145 257T170 235T187
197T185 136L148 -36Q138 -64 143 -91T181 -118H232L218 -184H147Q99 -184 76 -154T67 -54L104 124Q115 176 101 205T52 235Z" />
<glyph unicode="|" glyph-name="bar" horiz-adv-x="394" d="M238 817H306V-272H238V817Z" />
<glyph unicode="}" glyph-name="braceright" horiz-adv-x="259" d="M320 295L307 235Q273 235 246 205T207 124L170 -54Q141 -184 34 -184H-37L-23 -118H28Q51 -118 65 -104T85 -75T95 -36L132 136Q146 199 182 229T247 264L248 266Q221 270 197 300T187 394L223
566Q227 584 228 595T229 620T218 641T191 648H140L154 714H225Q273 714 296 684T305 584L267 406Q256 355 271 325T320 295Z" />
<glyph unicode="~" glyph-name="asciitilde" horiz-adv-x="600" d="M137 185L105 231Q191 324 261 324Q291 324 309 319T359 295Q365 291 380 281T405 265T428 254T456 248Q505 248 570 321L603 276Q518 182 447 182Q417 182 398 187T349 211Q343 215 328 225T303
241T280 252T252 258Q202 258 137 185Z" />
</font>
</defs>
</svg>
