<?xml version="1.0" standalone="no"?>
<!DOCTYPE svg PUBLIC "-//W3C//DTD SVG 1.1//EN" "http://www.w3.org/Graphics/SVG/1.1/DTD/svg11.dtd" >
<svg>
<metadata>
Created by FontForge 20110222 at Mon Jun 10 18:19:01 2013
 By Orthosie Webhosting
Copyright 2006, 2007 Monotype Imaging Inc. All rights reserved.
</metadata>
<defs>
<font id="SlateStdBlackCondensed" horiz-adv-x="350" >
  <font-face 
    font-family="SlateStdBlackCondensed"
    font-weight="900"
    font-stretch="condensed"
    units-per-em="1000"
    panose-1="2 11 10 6 4 2 2 2 3 4"
    ascent="654"
    descent="-346"
    x-height="475"
    cap-height="635"
    bbox="-76 -198 1053 856"
    underline-thickness="50"
    underline-position="-50"
    unicode-range="U+0020-FE6A"
  />
<missing-glyph horiz-adv-x="500" 
d="M12 0v665h475v-665h-475zM88 618l162 -243l161 243h-323zM60 575v-484l161 242zM440 575l-162 -242l162 -243v485zM411 48l-161 242l-162 -242h323z" />
    <glyph glyph-name="f_f" unicode="ff" horiz-adv-x="549" 
d="M311 647l-15 -109q-30 10 -44 10q-38 0 -38 -53v-20h103v35q0 66 44.5 109.5t116.5 43.5q50 0 101 -16l-15 -109q-30 10 -44 10q-38 0 -38 -53v-20h75v-123h-75v-352h-165v352h-103v-352h-165v352h-40v123h40v35q0 66 44.5 109.5t116.5 43.5q50 0 101 -16z" />
    <glyph glyph-name="fi" unicode="fi" horiz-adv-x="529" 
d="M311 647l-15 -109q-30 10 -44 10q-38 0 -38 -53v-20h75v-123h-75v-352h-165v352h-40v123h40v35q0 66 44.5 109.5t116.5 43.5q50 0 101 -16zM483 0h-164v475h164v-475zM494 605q0 -41 -24.5 -65t-64.5 -24q-39 0 -63.5 24t-24.5 65q0 40 25 64.5t64 24.5q38 0 63 -25
t25 -64z" />
    <glyph glyph-name="fl" unicode="fl" horiz-adv-x="523" 
d="M311 647l-15 -109q-30 10 -44 10q-38 0 -38 -53v-20h75v-123h-75v-352h-165v352h-40v123h40v35q0 66 44.5 109.5t116.5 43.5q50 0 101 -16zM482 0h-164v654h164v-654z" />
    <glyph glyph-name="f_f_i" unicode="ffi" horiz-adv-x="797" 
d="M311 647l-15 -109q-30 10 -44 10q-38 0 -38 -53v-20h103v35q0 66 44.5 109.5t116.5 43.5q50 0 101 -16l-15 -109q-30 10 -44 10q-38 0 -38 -53v-20h75v-123h-75v-352h-165v352h-103v-352h-165v352h-40v123h40v35q0 66 44.5 109.5t116.5 43.5q50 0 101 -16zM751 0h-164
v475h164v-475zM762 605q0 -41 -24.5 -65t-64.5 -24q-39 0 -63.5 24t-24.5 65q0 40 25 64.5t64 24.5q38 0 63 -25t25 -64z" />
    <glyph glyph-name="f_f_l" unicode="ffl" horiz-adv-x="791" 
d="M311 647l-15 -109q-30 10 -44 10q-38 0 -38 -53v-20h103v35q0 66 44.5 109.5t116.5 43.5q50 0 101 -16l-15 -109q-30 10 -44 10q-38 0 -38 -53v-20h75v-123h-75v-352h-165v352h-103v-352h-165v352h-40v123h40v35q0 66 44.5 109.5t116.5 43.5q50 0 101 -16zM750 0h-164
v654h164v-654z" />
    <glyph glyph-name=".notdef" horiz-adv-x="500" 
d="M12 0v665h475v-665h-475zM88 618l162 -243l161 243h-323zM60 575v-484l161 242zM440 575l-162 -242l162 -243v485zM411 48l-161 242l-162 -242h323z" />
    <glyph glyph-name=".null" horiz-adv-x="0" 
 />
    <glyph glyph-name="nonmarkingreturn" horiz-adv-x="333" 
 />
    <glyph glyph-name="space" unicode=" " horiz-adv-x="138" 
 />
    <glyph glyph-name="exclam" unicode="!" horiz-adv-x="272" 
d="M219 635l-21 -426h-124l-21 426h166zM218 72q0 -36 -22.5 -59t-59.5 -23q-36 0 -59 23t-23 59t23 59.5t59 23.5q37 0 59.5 -23.5t22.5 -59.5z" />
    <glyph glyph-name="quotedbl" unicode="&#x22;" horiz-adv-x="437" 
d="M382 650l-19 -258h-105l-19 258h143zM198 650l-19 -258h-104l-20 258h143z" />
    <glyph glyph-name="numbersign" unicode="#" horiz-adv-x="501" 
d="M485 390h-81l-22 -135h70v-87h-87l-30 -168h-97l30 168h-93l-30 -168h-97l30 168h-63v87h81l22 135h-71v86h88l28 161h96l-27 -161h94l27 161h96l-27 -161h63v-86zM307 390h-92l-23 -135h94z" />
    <glyph glyph-name="dollar" unicode="$" horiz-adv-x="483" 
d="M190 -75l2 79q-115 10 -184 65l64 130q72 -42 126 -50l6 112q-38 12 -61 20.5t-49 23.5t-39.5 33t-23 45.5t-9.5 63.5q0 78 56 127.5t142 57.5l3 60l70 -3l-2 -57q97 -6 164 -44l-58 -129q-50 28 -111 37l-6 -105q102 -26 148.5 -62t46.5 -116q0 -93 -58.5 -146.5
t-152.5 -63.5l-4 -81zM319 191q0 31 -45 50l-5 -96q50 10 50 46zM172 454q0 -31 38 -45l4 90q-42 -11 -42 -45z" />
    <glyph glyph-name="percent" unicode="%" horiz-adv-x="757" 
d="M732 185q0 -95 -39.5 -145t-106.5 -50q-68 0 -107.5 49.5t-39.5 145.5q0 94 39.5 144t107.5 50q67 0 106.5 -50t39.5 -144zM624 185q0 100 -38 100q-39 0 -39 -100q0 -98 39 -98q38 0 38 98zM317 463q0 -95 -39.5 -145t-106.5 -50q-68 0 -107.5 50t-39.5 145
q0 94 39.5 144t107.5 50q67 0 106.5 -50t39.5 -144zM209 463q0 100 -38 100q-40 0 -40 -100q0 -98 40 -98q38 0 38 98zM588 629l-336 -640l-75 37l336 640z" />
    <glyph glyph-name="ampersand" unicode="&#x26;" horiz-adv-x="625" 
d="M618 0h-189l-30 42q-67 -50 -165 -50q-79 0 -134 46.5t-55 139.5q0 18 2.5 34.5t6.5 29t10.5 25t12 21.5t15 18t15 14.5t16 12.5t14.5 9.5t13.5 7.5t10.5 6q-53 66 -53 134q0 74 55 114.5t134 40.5q73 0 123.5 -39.5t50.5 -114.5q0 -26 -7.5 -49.5t-15.5 -37.5t-26.5 -32
t-24.5 -23t-26 -20l52 -72q32 41 52 112l129 -42q-39 -116 -96 -183zM331 492q0 48 -34 48t-34 -43q0 -38 34 -79q34 29 34 74zM310 146l-76 110q-28 -23 -28 -60q0 -31 16 -48t42 -17q15 0 29.5 6t16.5 9z" />
    <glyph glyph-name="quotesingle" unicode="'" horiz-adv-x="228" 
d="M186 650l-20 -258h-104l-20 258h144z" />
    <glyph glyph-name="parenleft" unicode="(" horiz-adv-x="307" 
d="M281 -102l-85 -60q-26 26 -51.5 60.5t-56 90t-49 131.5t-18.5 158t18.5 158t49 131t56 89.5t51.5 61.5l85 -60q-23 -34 -37.5 -60t-38 -77t-36 -113t-12.5 -130q0 -196 124 -380z" />
    <glyph glyph-name="parenright" unicode=")" horiz-adv-x="307" 
d="M281 278q0 -82 -18.5 -158t-48.5 -131.5t-54 -89.5t-49 -61l-86 63q121 180 121 377q0 68 -12 129.5t-35 112t-37.5 76.5t-36.5 59l86 63q170 -187 170 -440z" />
    <glyph glyph-name="asterisk" unicode="*" horiz-adv-x="344" 
d="M331 488l-97 -29l64 -90l-69 -45l-57 93l-56 -93l-69 45l64 90l-98 29l27 76l96 -40l-5 113h83l-6 -113l96 40z" />
    <glyph glyph-name="plus" unicode="+" horiz-adv-x="483" 
d="M432 252h-128v-128h-125v128h-128v125h128v128h125v-128h128v-125z" />
    <glyph glyph-name="comma" unicode="," horiz-adv-x="239" 
d="M83 157l125 -30q-1 -69 -35 -137.5t-81 -106.5l-94 46q39 41 62 101.5t23 126.5z" />
    <glyph glyph-name="hyphen" unicode="-" horiz-adv-x="285" 
d="M264 175h-243v144h243v-144z" />
    <glyph glyph-name="period" unicode="." horiz-adv-x="239" 
d="M201 74q0 -36 -23 -59.5t-59 -23.5q-37 0 -59.5 23.5t-22.5 59.5t22.5 59t59.5 23q36 0 59 -23t23 -59z" />
    <glyph glyph-name="slash" unicode="/" horiz-adv-x="482" 
d="M443 676l-313 -788l-86 33l313 788z" />
    <glyph glyph-name="zero" unicode="0" horiz-adv-x="483" 
d="M462 323q0 -332 -220 -332q-221 0 -221 331q0 171 57 247t164 76q106 0 163 -76t57 -246zM300 323q0 105 -12.5 151.5t-45.5 46.5q-34 0 -46 -46t-12 -152q0 -105 12 -151.5t46 -46.5q33 0 45.5 47t12.5 151z" />
    <glyph glyph-name="one" unicode="1" horiz-adv-x="483" 
d="M349 0h-165v449q-34 -27 -93 -41l-43 125q112 28 166 103h135v-636z" />
    <glyph glyph-name="two" unicode="2" horiz-adv-x="483" 
d="M432 0h-408q5 86 28.5 143t100.5 137q46 49 60.5 65t29 42t14.5 49q0 31 -19 50t-53 19q-48 0 -110 -46l-66 118q96 68 202 68q107 0 158.5 -53t51.5 -130q0 -58 -24.5 -107t-55 -78t-64.5 -64.5t-46 -64.5h201v-148z" />
    <glyph glyph-name="three" unicode="3" horiz-adv-x="483" 
d="M439 191q0 -82 -61 -141t-182 -59q-124 0 -195 67l77 113q45 -39 108 -39q39 0 60.5 17.5t21.5 46.5q0 64 -100 64h-49v135h49q88 0 88 57q0 28 -19.5 41.5t-48.5 13.5q-60 0 -109 -44l-58 119q30 24 82.5 43.5t116.5 19.5q94 0 147.5 -44.5t53.5 -117.5q0 -103 -99 -145
q49 -14 83 -50t34 -97z" />
    <glyph glyph-name="four" unicode="4" horiz-adv-x="483" 
d="M473 132h-60v-132h-160v132h-239v125l203 378h196v-382h60v-121zM253 253v232l-116 -232h116z" />
    <glyph glyph-name="five" unicode="5" horiz-adv-x="483" 
d="M444 209q0 -92 -66 -155t-180 -63q-95 0 -187 64l64 114q65 -45 121 -45q42 0 65.5 23.5t23.5 58.5q0 81 -90 81q-40 0 -76 -17l-68 36l37 329h332v-131h-208l-11 -106q25 9 70 9q77 0 125 -47.5t48 -150.5z" />
    <glyph glyph-name="six" unicode="6" horiz-adv-x="483" 
d="M467 215q0 -99 -59 -161.5t-162 -62.5q-106 0 -165.5 79t-59.5 234q0 48 8 94.5t28 91.5t49 79t75 55t103 21q94 0 169 -50l-60 -120q-45 33 -94 33q-53 0 -83.5 -31.5t-32.5 -110.5q46 38 112 38q79 0 125.5 -49.5t46.5 -139.5zM306 203q0 81 -65 81q-17 0 -31.5 -7
t-20.5 -15l-6 -7q0 -69 18 -102t46 -33q27 0 43 21t16 62z" />
    <glyph glyph-name="seven" unicode="7" horiz-adv-x="483" 
d="M439 519l-198 -519h-166l207 516h-234v119h391v-116z" />
    <glyph glyph-name="eight" unicode="8" horiz-adv-x="483" 
d="M457 174q0 -89 -64 -136t-154 -47q-98 0 -155.5 47t-57.5 136q0 102 105 160q-24 12 -41 24.5t-34 44t-17 72.5q0 75 56 122.5t146 47.5q88 0 145.5 -43t57.5 -124q0 -55 -29 -90t-64 -51q43 -18 74.5 -59t31.5 -104zM289 465q0 29 -13.5 44.5t-35.5 15.5
q-21 0 -34 -14.5t-13 -41.5t16.5 -47t37.5 -28q42 30 42 71zM297 183q0 21 -6.5 37t-20 27.5t-19.5 15t-20 10.5q-45 -35 -45 -86q0 -33 17 -51.5t41 -18.5q22 0 37.5 18t15.5 48z" />
    <glyph glyph-name="nine" unicode="9" horiz-adv-x="483" 
d="M462 330q0 -156 -73 -247.5t-194 -91.5q-99 0 -173 49l60 121q48 -32 98 -32q115 0 121 141q-39 -39 -111 -39q-79 0 -126.5 47.5t-47.5 141.5q0 100 58 162.5t161 62.5q107 0 167 -80t60 -235zM300 380q0 135 -66 135q-26 0 -41.5 -21t-15.5 -62t17.5 -61t45.5 -20
q36 0 60 29z" />
    <glyph glyph-name="colon" unicode=":" horiz-adv-x="239" 
d="M201 387q0 -36 -23 -59.5t-59 -23.5q-37 0 -59.5 23.5t-22.5 59.5t22.5 59.5t59.5 23.5q36 0 59 -23.5t23 -59.5zM201 74q0 -36 -23 -59.5t-59 -23.5q-37 0 -59.5 23.5t-22.5 59.5t22.5 59t59.5 23q36 0 59 -23t23 -59z" />
    <glyph glyph-name="semicolon" unicode=";" horiz-adv-x="239" 
d="M73 157l125 -30q-1 -69 -35 -137.5t-81 -106.5l-94 46q39 41 62 101.5t23 126.5zM201 387q0 -36 -23 -59.5t-59 -23.5q-37 0 -59.5 23.5t-22.5 59.5t22.5 59.5t59.5 23.5q36 0 59 -23.5t23 -59.5z" />
    <glyph glyph-name="less" unicode="&#x3c;" horiz-adv-x="483" 
d="M430 73l-377 180v117l377 180v-125l-240 -113l240 -114v-125z" />
    <glyph glyph-name="equal" unicode="=" horiz-adv-x="483" 
d="M432 333h-381v125h381v-125zM432 132h-381v125h381v-125z" />
    <glyph glyph-name="greater" unicode="&#x3e;" horiz-adv-x="483" 
d="M430 253l-377 -180v125l240 113l-240 114v125l377 -180v-117z" />
    <glyph glyph-name="question" unicode="?" horiz-adv-x="403" 
d="M387 484q0 -89 -93 -162q-39 -31 -47 -48t-8 -65h-136v48q-1 38 8.5 57.5t46.5 50.5q6 5 16.5 13.5t14.5 12t11.5 10t10.5 10t8 9t7 9.5l4.5 9t3 10.5t0.5 11.5q0 21 -17.5 33.5t-46.5 12.5q-53 0 -103 -35l-55 119q100 55 189 55q95 0 140.5 -47.5t45.5 -113.5zM253 72
q0 -36 -22.5 -59t-59.5 -23q-36 0 -59 23t-23 59t23 59.5t59 23.5q37 0 59.5 -23.5t22.5 -59.5z" />
    <glyph glyph-name="at" unicode="@" horiz-adv-x="649" 
d="M519 25l22 -62q-80 -46 -198 -46q-140 0 -226 84t-86 239q0 144 94 234.5t222 90.5q129 0 212.5 -76.5t83.5 -205.5q0 -112 -55.5 -167.5t-124.5 -55.5q-30 0 -53.5 17.5t-29.5 46.5q-9 -19 -32.5 -38t-57.5 -19q-44 0 -76.5 35.5t-32.5 108.5q0 78 43.5 135t104.5 57
q57 0 82 -41l20 32h78l-47 -193q-4 -13 -4 -28q0 -38 29 -38q28 0 54.5 36.5t26.5 111.5q0 93 -59.5 151.5t-161.5 58.5q-107 0 -173 -72t-66 -185q0 -114 64.5 -181.5t179.5 -67.5q99 0 167 38zM372 211l20 79q-18 38 -51 38q-26 0 -44.5 -35.5t-18.5 -77.5
q0 -37 10.5 -49.5t28.5 -12.5q17 0 33 16.5t22 41.5z" />
    <glyph glyph-name="A" unicode="A" horiz-adv-x="544" 
d="M550 0h-185l-25 116h-148l-25 -116h-173l162 635h234zM313 243l-47 241l-47 -241h94z" />
    <glyph glyph-name="B" unicode="B" horiz-adv-x="537" 
d="M519 186q0 -94 -67 -144q-58 -42 -203 -42h-198v635h192q76 0 116.5 -6.5t72.5 -25.5q61 -38 61 -130q0 -99 -96 -135q122 -26 122 -152zM322 448q0 20 -6.5 33t-19 18t-22 6.5t-24.5 1.5h-29v-121h24q16 0 25 1t23.5 6.5t21.5 19t7 35.5zM344 199q0 70 -84 70h-39v-141
h38q85 0 85 71z" />
    <glyph glyph-name="C" unicode="C" horiz-adv-x="514" 
d="M386 210l130 -68q-9 -24 -24 -46t-41 -48t-68.5 -42t-95.5 -16q-120 0 -193 79t-73 243q0 165 75.5 249t195.5 84q171 0 222 -140l-137 -75q-3 12 -9.5 25t-25.5 28t-45 15q-98 0 -98 -177q0 -181 98 -181q64 0 89 70z" />
    <glyph glyph-name="D" unicode="D" horiz-adv-x="573" 
d="M552 328q0 -86 -27.5 -153t-72.5 -106q-80 -69 -223 -69h-178v635h182q164 0 232 -62q87 -78 87 -245zM374 319q0 105 -40 143q-30 29 -93 29h-20v-343h19q65 0 93 28q41 41 41 143z" />
    <glyph glyph-name="E" unicode="E" horiz-adv-x="461" 
d="M434 0h-383v635h376v-144h-206v-90h191v-147h-191v-106h213v-148z" />
    <glyph glyph-name="F" unicode="F" horiz-adv-x="426" 
d="M414 491h-193v-118h177v-147h-177v-226h-170v635h363v-144z" />
    <glyph glyph-name="G" unicode="G" horiz-adv-x="535" 
d="M497 520l-130 -80q-25 58 -77 58q-91 0 -91 -178q0 -181 83 -181q29 0 48 17v81h-58v130h228v-367h-114l-13 46q-14 -15 -25 -24.5t-40 -20.5t-66 -11q-100 0 -160.5 80.5t-60.5 244.5q0 165 73.5 247.5t192.5 82.5q42 0 78 -11t56.5 -24t38.5 -34t23.5 -30.5t13.5 -25.5
z" />
    <glyph glyph-name="H" unicode="H" horiz-adv-x="584" 
d="M533 0h-175v254h-137v-254h-170v635h170v-234h137v234h175v-635z" />
    <glyph glyph-name="I" unicode="I" horiz-adv-x="272" 
d="M221 0h-170v635h170v-635z" />
    <glyph glyph-name="J" unicode="J" horiz-adv-x="276" 
d="M225 635v-614q0 -88 -47.5 -143t-137.5 -55q-25 0 -49 4.5t-35 9.5l-12 5l21 128q19 -10 43 -10q47 0 47 65v610h170z" />
    <glyph glyph-name="K" unicode="K" horiz-adv-x="551" 
d="M548 0h-208l-87 238l-32 -48v-190h-170v635h170v-245l121 245h198l-163 -260z" />
    <glyph glyph-name="L" unicode="L" horiz-adv-x="428" 
d="M421 0h-370v635h170v-487h200v-148z" />
    <glyph glyph-name="M" unicode="M" horiz-adv-x="714" 
d="M673 0h-163l1 426l-82 -426h-151l-82 426l2 -426h-157l14 635h236l67 -406l70 406h229z" />
    <glyph glyph-name="N" unicode="N" horiz-adv-x="583" 
d="M529 0h-160l-161 348v-348h-157v635h163l153 -337v337h162v-635z" />
    <glyph glyph-name="O" unicode="O" horiz-adv-x="564" 
d="M543 318q0 -158 -70 -243t-192 -85q-121 0 -190.5 85t-69.5 243q0 157 69.5 242t190.5 85q122 0 192 -85t70 -242zM363 319q0 181 -82 181t-82 -181q0 -180 82 -180t82 180z" />
    <glyph glyph-name="P" unicode="P" horiz-adv-x="506" 
d="M496 411q0 -112 -68 -172q-59 -51 -172 -51h-36v-188h-169v635h205q125 0 182 -56q58 -54 58 -168zM326 411q0 48 -23 71q-17 18 -52 18h-31v-177h25q40 0 58 18q23 18 23 70z" />
    <glyph glyph-name="Q" unicode="Q" horiz-adv-x="564" 
d="M543 318q0 -197 -107 -279q25 -55 56 -82l-139 -86q-23 18 -43.5 51.5t-29.5 67.5h-14q-107 0 -176 86.5t-69 241.5q0 157 69.5 242t190.5 85q122 0 192 -85t70 -242zM363 319q0 181 -82 181t-82 -181q0 -180 82 -180t82 180z" />
    <glyph glyph-name="R" unicode="R" horiz-adv-x="523" 
d="M517 0h-188l-87 230h-22v-230h-169v635h220q108 0 162 -40q65 -48 65 -155q0 -128 -96 -185zM327 429q0 36 -18 53.5t-57 17.5h-32v-144h33q74 0 74 73z" />
    <glyph glyph-name="S" unicode="S" horiz-adv-x="455" 
d="M439 199q0 -98 -66 -153.5t-171 -55.5q-69 0 -122 24.5t-77 48.5l79 130q20 -20 52.5 -35t64.5 -15q63 0 63 42q0 17 -16.5 30.5t-53.5 31.5q-89 43 -127 84t-38 114q0 92 62 146t158 54q56 0 105 -16.5t65.5 -28.5t24.5 -20l-80 -128q-16 19 -46 32.5t-59 13.5
q-56 0 -56 -42q0 -17 16 -30.5t54 -30.5q86 -39 127 -80t41 -116z" />
    <glyph glyph-name="T" unicode="T" horiz-adv-x="432" 
d="M430 494h-129v-494h-171v494h-128v141h428v-141z" />
    <glyph glyph-name="U" unicode="U" horiz-adv-x="577" 
d="M359 223v412h170v-400q0 -120 -58 -181q-60 -63 -183 -63q-125 0 -183 62q-57 61 -57 182v400h170v-412q0 -40 19 -62q20 -20 53 -20q32 0 51 20q18 21 18 62z" />
    <glyph glyph-name="V" unicode="V" horiz-adv-x="538" 
d="M544 635l-165 -635h-228l-157 635h191l89 -462l92 462h178z" />
    <glyph glyph-name="W" unicode="W" horiz-adv-x="823" 
d="M816 635l-130 -635h-203l-71 445l-72 -445h-203l-130 635h180l63 -450l70 450h195l68 -450l64 450h169z" />
    <glyph glyph-name="X" unicode="X" horiz-adv-x="561" 
d="M567 0h-203l-81 219l-86 -219h-201l171 326l-155 309h199l72 -200l74 200h195l-152 -309z" />
    <glyph glyph-name="Y" unicode="Y" horiz-adv-x="535" 
d="M533 635l-180 -379v-256h-171v256l-180 379h185l81 -244l80 244h185z" />
    <glyph glyph-name="Z" unicode="Z" horiz-adv-x="495" 
d="M476 0h-453v108l228 383h-218v144h430v-111l-219 -376h232v-148z" />
    <glyph glyph-name="bracketleft" unicode="[" horiz-adv-x="313" 
d="M283 -137h-230v823h230v-91h-94v-641h94v-91z" />
    <glyph glyph-name="backslash" unicode="\" horiz-adv-x="482" 
d="M440 -77l-85 -35l-311 789l84 34z" />
    <glyph glyph-name="bracketright" unicode="]" horiz-adv-x="313" 
d="M260 -137h-230v91h95v641h-95v91h230v-823z" />
    <glyph glyph-name="asciicircum" unicode="^" horiz-adv-x="483" 
d="M440 361h-136l-63 163l-65 -163h-134l134 274h130z" />
    <glyph glyph-name="underscore" unicode="_" horiz-adv-x="477" 
d="M477 -139h-477v63h477v-63z" />
    <glyph glyph-name="grave" unicode="`" horiz-adv-x="386" 
d="M269 530h-106l-87 131h137z" />
    <glyph glyph-name="a" unicode="a" horiz-adv-x="442" 
d="M424 0h-162q-8 25 -8 51q-38 -60 -113 -60q-50 0 -88.5 37t-38.5 113q0 86 60.5 123t175.5 39v9q0 48 -64 48q-32 0 -63 -12.5t-47 -26.5l-49 114q30 21 79.5 35.5t100.5 14.5q99 0 149 -46t50 -156v-171q0 -74 18 -112zM250 137v69q-42 -1 -62 -12.5t-20 -38.5
q0 -20 12.5 -31.5t28.5 -11.5q25 0 41 25z" />
    <glyph glyph-name="b" unicode="b" horiz-adv-x="496" 
d="M479 237q0 -116 -45.5 -181.5t-121.5 -65.5q-77 0 -107 61l-10 -51h-154v654h165v-239q13 31 44 50.5t72 19.5q72 0 114.5 -64t42.5 -184zM317 240q0 54 -14.5 86.5t-43.5 32.5q-57 0 -57 -119q0 -120 57 -120q58 0 58 120z" />
    <glyph glyph-name="c" unicode="c" horiz-adv-x="404" 
d="M310 165l102 -79q-58 -96 -186 -96q-94 0 -151.5 62.5t-57.5 185.5q0 117 62.5 182t160.5 65q119 0 168 -81l-98 -92q-21 42 -62 42q-33 0 -51 -30t-18 -85q0 -109 72 -109q36 0 59 35z" />
    <glyph glyph-name="d" unicode="d" horiz-adv-x="495" 
d="M454 0h-153l-10 50q-13 -18 -23 -28.5t-35 -21t-58 -10.5q-71 0 -114.5 62t-43.5 176q0 126 47.5 191.5t122.5 65.5q68 0 103 -49v218h164v-654zM294 240q0 58 -15.5 88.5t-40.5 30.5q-59 0 -59 -119q0 -120 59 -120q24 0 40 29t16 91z" />
    <glyph glyph-name="e" unicode="e" horiz-adv-x="450" 
d="M431 192h-249q3 -71 84 -71q51 0 102 34l58 -96q-82 -69 -185 -69t-163.5 62.5t-60.5 184.5q0 117 59.5 182.5t161.5 65.5q90 0 141.5 -58t51.5 -183v-52zM275 293q0 77 -45 77q-44 0 -49 -77h94z" />
    <glyph glyph-name="f" unicode="f" horiz-adv-x="281" 
d="M311 647l-15 -109q-30 10 -44 10q-38 0 -38 -53v-20h75v-123h-75v-352h-165v352h-40v123h40v35q0 66 44.5 109.5t116.5 43.5q50 0 101 -16z" />
    <glyph glyph-name="g" unicode="g" horiz-adv-x="495" 
d="M454 475v-366q0 -151 -61 -215q-65 -69 -191 -69q-95 0 -171 38l46 125q66 -34 127 -34q86 0 86 102v24q-41 -62 -113 -62q-78 0 -119 61.5t-41 174.5q0 109 45 170t122 61q74 0 108 -63l9 53h153zM298 254q0 104 -59 104q-61 0 -61 -106q0 -107 61 -107q59 0 59 109z
" />
    <glyph glyph-name="h" unicode="h" horiz-adv-x="504" 
d="M465 0h-164v276q0 69 -44 69q-42 0 -51 -61v-284h-165v654h165v-239q41 70 125 70q72 0 103 -43t31 -132v-310z" />
    <glyph glyph-name="i" unicode="i" horiz-adv-x="247" 
d="M206 0h-165v475h165v-475zM212 605q0 -41 -24.5 -65t-64.5 -24q-39 0 -64 24t-25 65q0 39 25 64t64 25t64 -24.5t25 -64.5z" />
    <glyph glyph-name="j" unicode="j" horiz-adv-x="247" 
d="M206 475v-470q0 -178 -151 -178q-49 0 -96 14l20 119q10 -5 26 -5q36 0 36 57v463h165zM212 605q0 -41 -24.5 -65t-64.5 -24q-39 0 -64 24t-25 65q0 39 25 64t64 25t64 -24.5t25 -64.5z" />
    <glyph glyph-name="k" unicode="k" horiz-adv-x="479" 
d="M486 0h-184l-69 175l-27 -35v-140h-165v654h165v-356l95 177h181l-129 -185z" />
    <glyph glyph-name="l" unicode="l" horiz-adv-x="247" 
d="M206 0h-165v654h165v-654z" />
    <glyph glyph-name="m" unicode="m" horiz-adv-x="741" 
d="M702 0h-165v286q0 59 -37 59q-41 0 -46 -57v-288h-165v291q0 54 -36 54q-20 0 -32.5 -15t-14.5 -40v-290h-165v475h157l8 -62q40 72 123 72q81 0 111 -80q51 80 134 80q66 0 97 -39.5t31 -120.5v-325z" />
    <glyph glyph-name="n" unicode="n" horiz-adv-x="504" 
d="M465 0h-164v276q0 69 -44 69q-42 0 -51 -61v-284h-165v475h157l8 -60q38 70 125 70q72 0 103 -43t31 -132v-310z" />
    <glyph glyph-name="o" unicode="o" horiz-adv-x="475" 
d="M458 237q0 -120 -59.5 -183.5t-161.5 -63.5q-101 0 -160.5 63.5t-59.5 183.5t59 184t161 64t161.5 -64t59.5 -184zM295 238q0 121 -58 121t-58 -121q0 -118 58 -118t58 118z" />
    <glyph glyph-name="p" unicode="p" horiz-adv-x="496" 
d="M479 237q0 -120 -47 -183.5t-119 -63.5q-70 0 -107 56v-210h-165v639h158l7 -57q35 67 116 67q72 0 114.5 -62.5t42.5 -185.5zM317 239q0 55 -15 87.5t-43 32.5q-57 0 -57 -119q0 -120 57 -120q58 0 58 119z" />
    <glyph glyph-name="q" unicode="q" horiz-adv-x="495" 
d="M454 -164h-162v212q-14 -17 -24.5 -27t-34.5 -20.5t-55 -10.5q-76 0 -118.5 63.5t-42.5 177.5q0 124 48 189t122 65q70 0 105 -62l8 52h154v-639zM294 240q0 119 -57 119q-58 0 -58 -119q0 -120 58 -120q29 0 43 33.5t14 86.5z" />
    <glyph glyph-name="r" unicode="r" horiz-adv-x="355" 
d="M355 480l-17 -167q-26 7 -44 7q-74 0 -88 -103v-217h-165v475h157l8 -79q30 88 113 88z" />
    <glyph glyph-name="s" unicode="s" horiz-adv-x="380" 
d="M364 156q0 -70 -49.5 -118t-138.5 -48q-105 0 -173 55l63 112q50 -42 107 -42q37 0 37 23q0 10 -11.5 16.5t-39.5 15.5q-66 21 -100 56t-34 96q0 71 49.5 117t135.5 46q100 0 158 -47l-60 -111q-43 35 -95 35q-36 0 -36 -22q0 -11 9.5 -17.5t33.5 -13.5q76 -24 110 -56
t34 -97z" />
    <glyph glyph-name="t" unicode="t" horiz-adv-x="320" 
d="M303 127l11 -120q-51 -17 -109 -17q-80 0 -113 40t-33 116v206h-50v123h50l7 119h157v-119h87v-123h-87v-161q0 -44 10 -57.5t35 -13.5q21 0 35 7z" />
    <glyph glyph-name="u" unicode="u" horiz-adv-x="504" 
d="M463 0h-156l-8 60q-38 -70 -125 -70q-72 0 -103.5 43t-31.5 132v310h165v-276q0 -69 44 -69q42 0 51 61v284h164v-475z" />
    <glyph glyph-name="v" unicode="v" horiz-adv-x="468" 
d="M471 475l-145 -475h-185l-144 475h178l62 -315l61 315h173z" />
    <glyph glyph-name="w" unicode="w" horiz-adv-x="715" 
d="M713 475l-114 -475h-193l-52 285l-58 -285h-187l-107 475h167l45 -317l64 317h164l58 -317l47 317h166z" />
    <glyph glyph-name="x" unicode="x" horiz-adv-x="464" 
d="M467 0h-178l-55 145l-54 -145h-183l128 241l-120 234h182l51 -140l52 140h173l-120 -234z" />
    <glyph glyph-name="y" unicode="y" horiz-adv-x="468" 
d="M471 475l-151 -497q-46 -151 -191 -151q-50 0 -106 12l22 133q17 -10 46 -10q39 0 51 37l2 7l-147 469h178l62 -308l61 308h173z" />
    <glyph glyph-name="z" unicode="z" horiz-adv-x="405" 
d="M398 0h-391v92l174 256h-166v127h375v-95l-165 -245h173v-135z" />
    <glyph glyph-name="braceleft" unicode="{" horiz-adv-x="308" 
d="M297 -48l-4 -91l-94 4q-68 3 -91 35.5t-27 95.5l-8 117q-4 62 -15.5 83t-35.5 21h-9v114h8q23 0 34.5 22t16.5 82l9 118q4 62 27 95t87 36l98 5l4 -92l-32 -1q-27 -1 -37.5 -17.5t-14.5 -63.5l-10 -122q-5 -59 -21 -84.5t-58 -32.5v-4q41 -6 58 -33t21 -83l10 -122
q3 -44 14.5 -61t37.5 -19z" />
    <glyph glyph-name="bar" unicode="|" horiz-adv-x="315" 
d="M215 -140h-115v825h115v-825z" />
    <glyph glyph-name="braceright" unicode="}" horiz-adv-x="308" 
d="M310 217h-8q-23 0 -34.5 -22t-15.5 -76l-9 -122q-5 -66 -28 -98.5t-87 -34.5l-96 -4l-4 92l34 2q25 1 35.5 20t14.5 59l11 123q5 57 20.5 83.5t55.5 32.5v4q-40 6 -55.5 32.5t-20.5 84.5l-12 129q-4 41 -14.5 57t-37.5 17l-31 1l4 91l98 -4q61 -2 84 -32.5t29 -98.5
l10 -122q6 -62 16.5 -81t33.5 -19h7v-114z" />
    <glyph glyph-name="asciitilde" unicode="~" horiz-adv-x="483" 
d="M384 395l91 -31q-27 -80 -65 -110.5t-86 -30.5q-30 0 -56 11.5t-41 26t-33.5 26t-35.5 11.5q-38 0 -54 -70l-95 33q45 138 155 138q31 0 58 -11.5t41.5 -24.5t32.5 -24.5t34 -11.5q32 0 54 68z" />
    <glyph glyph-name="uni00A0" unicode="&#xa0;" horiz-adv-x="138" 
 />
    <glyph glyph-name="exclamdown" unicode="&#xa1;" horiz-adv-x="272" 
d="M54 -161l20 426h124l21 -426h-165zM54 402q0 36 23 59t59 23q37 0 59.5 -23t22.5 -59q0 -37 -22.5 -60.5t-59.5 -23.5t-59.5 23.5t-22.5 60.5z" />
    <glyph glyph-name="cent" unicode="&#xa2;" horiz-adv-x="483" 
d="M457 143q-53 -53 -126 -72v-81h-78v76q-81 7 -136.5 69t-55.5 178q0 106 54 169.5t138 76.5v86h78v-89q44 -7 78.5 -26.5t48.5 -34.5l-83 -101q-13 15 -44 29v-215q31 10 49 28zM253 212v210q-46 -25 -46 -108q0 -76 46 -102z" />
    <glyph glyph-name="sterling" unicode="&#xa3;" horiz-adv-x="483" 
d="M450 0h-405v131l66 14q14 31 14 70q0 29 -7 64h-74v86h56q-13 59 -13 97q0 82 54 132.5t156 50.5q86 0 153 -40l-52 -120q-33 22 -80 22q-30 0 -48 -18.5t-18 -50.5q0 -25 12 -73h124v-86h-106q5 -35 5 -59q0 -32 -17 -72h180v-148z" />
    <glyph glyph-name="currency" unicode="&#xa4;" horiz-adv-x="483" 
d="M476 164l-83 -84l-75 74q-34 -18 -77 -18q-42 0 -78 18l-74 -74l-83 84l73 74q-17 36 -17 78t17 78l-73 74l83 84l74 -75q38 19 78 19q41 0 77 -19l75 75l83 -84l-74 -74q18 -38 18 -78t-18 -78zM302 316q0 26 -17.5 43.5t-43.5 17.5t-44 -17.5t-18 -43.5t18 -43.5
t44 -17.5t43.5 17.5t17.5 43.5z" />
    <glyph glyph-name="yen" unicode="&#xa5;" horiz-adv-x="483" 
d="M468 635l-114 -285h91v-86h-122l-3 -9v-42h125v-86h-125v-127h-156v127h-126v86h126v42l-3 9h-123v86h91l-114 285h170l58 -225l59 225h166z" />
    <glyph glyph-name="brokenbar" unicode="&#xa6;" horiz-adv-x="315" 
d="M215 -140h-115v335h115v-335zM215 355h-115v330h115v-330z" />
    <glyph glyph-name="section" unicode="&#xa7;" horiz-adv-x="407" 
d="M381 602l-51 -109q-45 31 -90 31q-46 0 -46 -35q0 -27 47 -47q78 -35 101 -56q42 -37 42 -101q0 -76 -65 -124q39 -41 39 -99q0 -82 -54 -128.5t-139 -46.5q-87 0 -152 58l59 104q56 -39 97 -39q22 0 35.5 10t13.5 27q0 25 -49 43q-68 25 -102 60.5t-34 97.5q0 75 68 123
q-44 41 -44 103q0 77 50.5 122.5t125.5 45.5q89 0 148 -40zM246 266q0 31 -38 47q-33 -16 -33 -44q0 -30 44 -48q27 20 27 45z" />
    <glyph glyph-name="dieresis" unicode="&#xa8;" horiz-adv-x="386" 
d="M174 594q0 -28 -16.5 -45t-44.5 -17q-26 0 -42.5 17t-16.5 45t16.5 45t42.5 17q28 0 44.5 -17t16.5 -45zM332 594q0 -28 -16.5 -45t-44.5 -17q-26 0 -42.5 17t-16.5 45t17 45t43 17q27 0 43.5 -17t16.5 -45z" />
    <glyph glyph-name="copyright" unicode="&#xa9;" horiz-adv-x="737" 
d="M699 318q0 -139 -95.5 -234.5t-235.5 -95.5t-235 95t-95 235t95 235t235 95t235.5 -95.5t95.5 -234.5zM641 318q0 114 -79.5 193t-193.5 79q-113 0 -192.5 -79.5t-79.5 -192.5q0 -114 79.5 -193t192.5 -79t193 79.5t80 192.5zM450 242l69 -47q-49 -78 -146 -78
q-79 0 -127.5 52t-48.5 148q0 94 51.5 147t130.5 53q97 0 137 -67l-66 -64q-21 42 -69 42q-36 0 -56 -29t-20 -82q0 -47 19.5 -78.5t59.5 -31.5t66 35z" />
    <glyph glyph-name="ordfeminine" unicode="&#xaa;" horiz-adv-x="375" 
d="M355 288h-128q-10 20 -10 40q-35 -47 -90 -47q-38 0 -66.5 24.5t-28.5 77.5q0 35 16.5 60t45 38t58.5 19t66 6v10q0 41 -49 41q-51 0 -96 -29l-29 83q65 34 145 34q71 0 111.5 -34t40.5 -106v-133q0 -47 14 -84zM218 393v49q-65 0 -65 -42q0 -16 9 -25t22 -9q21 0 34 27z
" />
    <glyph glyph-name="guillemotleft" unicode="&#xab;" horiz-adv-x="534" 
d="M515 103l-103 -63l-138 182v54l138 183l103 -62l-115 -147zM268 103l-102 -63l-138 182v54l138 183l102 -62l-115 -147z" />
    <glyph glyph-name="logicalnot" unicode="&#xac;" horiz-adv-x="483" 
d="M432 112h-124v221h-257v125h381v-346z" />
    <glyph glyph-name="uni00AD" unicode="&#xad;" horiz-adv-x="285" 
d="M264 175h-243v144h243v-144z" />
    <glyph glyph-name="registered" unicode="&#xae;" horiz-adv-x="591" 
d="M296 190q-112 0 -189.5 77t-77.5 189q0 113 77 190.5t190 77.5q112 0 189 -77.5t77 -190.5q0 -112 -77 -189t-189 -77zM296 247q88 0 149 60.5t61 148.5t-61 149t-149 61t-149 -61t-61 -149t61 -148.5t149 -60.5zM196 316v283h115q42 0 71 -24t29 -67q0 -22 -10.5 -40.5
t-18.5 -25.5t-15 -11l51 -115h-88l-36 105h-18v-105h-80zM275 477h22q13 0 23.5 7.5t10.5 23.5q0 31 -34 31h-22v-62z" />
    <glyph glyph-name="macron" unicode="&#xaf;" horiz-adv-x="386" 
d="M329 558h-271v75h271v-75z" />
    <glyph glyph-name="degree" unicode="&#xb0;" horiz-adv-x="308" 
d="M277 513q0 -50 -35.5 -84.5t-86.5 -34.5t-87 34.5t-36 84.5t36 85.5t87 35.5t86.5 -35t35.5 -86zM207 513q0 24 -14.5 39.5t-37.5 15.5t-38 -15.5t-15 -39.5q0 -23 15.5 -39t37.5 -16q23 0 37.5 15.5t14.5 39.5z" />
    <glyph glyph-name="plusminus" unicode="&#xb1;" horiz-adv-x="483" 
d="M432 273h-128v-117h-125v117h-128v125h128v118h125v-118h128v-125zM432 0h-381v125h381v-125z" />
    <glyph glyph-name="two.superior" unicode="&#xb2;" 
d="M305 382h-269q0 56 15 95.5t60 77.5t59.5 56t14.5 36q0 37 -43 37q-40 0 -73 -29l-37 83q58 39 138 39q70 0 102 -31.5t32 -81.5q0 -42 -22.5 -74t-67.5 -64q-39 -28 -42 -41h133v-103z" />
    <glyph glyph-name="three.superior" unicode="&#xb3;" 
d="M306 497q0 -54 -43.5 -87.5t-115.5 -33.5q-70 0 -124 27l37 85q36 -18 75 -18q24 0 37.5 9.5t13.5 23.5q0 34 -50 34h-45v84h47q20 0 31.5 9.5t11.5 23.5t-11 23t-31 9q-41 0 -70 -21l-31 82q58 31 127 31q63 0 98 -29.5t35 -75.5q0 -58 -56 -86q64 -26 64 -90z" />
    <glyph glyph-name="acute" unicode="&#xb4;" horiz-adv-x="386" 
d="M308 661l-87 -131h-105l57 131h135z" />
    <glyph glyph-name="mu" unicode="&#xb5;" horiz-adv-x="511" 
d="M467 475v-475h-147l-4 28q-24 -33 -66 -33q-27 0 -42 13v-174h-165v641h165v-293q0 -25 12.5 -38.5t31.5 -13.5q39 0 51 44v301h164z" />
    <glyph glyph-name="paragraph" unicode="&#xb6;" horiz-adv-x="551" 
d="M524 557h-56v-694h-78v694h-84v-351h-45q-105 0 -169.5 51.5t-64.5 159.5q0 109 66.5 163.5t170.5 54.5h260v-78z" />
    <glyph glyph-name="periodcentered" unicode="&#xb7;" horiz-adv-x="239" 
d="M201 254q0 -36 -23 -59.5t-59 -23.5q-37 0 -59.5 23.5t-22.5 59.5t22.5 59.5t59.5 23.5q36 0 59 -23.5t23 -59.5z" />
    <glyph glyph-name="cedilla" unicode="&#xb8;" horiz-adv-x="386" 
d="M261 0l-47 -131h-137l77 131h107z" />
    <glyph glyph-name="one.superior" unicode="&#xb9;" 
d="M253 382h-124v256q-28 -20 -62 -28l-31 90q29 9 65 30t56 43h96v-391z" />
    <glyph glyph-name="ordmasculine" unicode="&#xba;" horiz-adv-x="378" 
d="M353 460q0 -89 -44.5 -136.5t-119.5 -47.5q-76 0 -120.5 47.5t-44.5 136.5t44.5 137t120.5 48q75 0 119.5 -47.5t44.5 -137.5zM233 460q0 91 -44 91t-44 -91q0 -87 44 -87t44 87z" />
    <glyph glyph-name="guillemotright" unicode="&#xbb;" horiz-adv-x="534" 
d="M20 396l102 63l138 -181v-54l-138 -184l-102 62l115 147zM266 396l102 63l138 -181v-54l-138 -184l-102 62l115 147z" />
    <glyph glyph-name="onequarter" unicode="&#xbc;" horiz-adv-x="752" 
d="M241 262h-124v256q-28 -20 -62 -28l-31 90q29 9 65 30t56 43h96v-391zM556 621l-325 -633l-70 35l325 633zM720 70h-42v-70h-110v70h-161v89l137 232h134v-239h42v-82zM568 152v135l-72 -135h72z" />
    <glyph glyph-name="onehalf" unicode="&#xbd;" horiz-adv-x="772" 
d="M241 262h-124v256q-28 -20 -62 -28l-31 90q29 9 65 30t56 43h96v-391zM556 621l-325 -633l-70 35l325 633zM732 0h-269q0 56 15 95.5t60 77.5t59.5 56t14.5 36q0 37 -43 37q-40 0 -73 -29l-37 83q59 39 138 39q70 0 102 -31.5t32 -81.5q0 -42 -22.5 -74t-67.5 -64
q-39 -28 -42 -41h133v-103z" />
    <glyph glyph-name="threequarters" unicode="&#xbe;" horiz-adv-x="779" 
d="M747 70h-42v-70h-110v70h-161v89l137 232h134v-239h42v-82zM595 152v135l-72 -135h72zM583 621l-325 -633l-70 35l325 633zM306 377q0 -54 -43.5 -87.5t-115.5 -33.5q-70 0 -124 27l37 85q36 -18 75 -18q24 0 37.5 9.5t13.5 23.5q0 34 -50 34h-45v84h47q20 0 31.5 9.5
t11.5 23.5t-11 23t-31 9q-41 0 -70 -21l-31 82q58 31 127 31q63 0 98 -29.5t35 -75.5q0 -58 -56 -86q64 -26 64 -90z" />
    <glyph glyph-name="questiondown" unicode="&#xbf;" horiz-adv-x="403" 
d="M16 -10q0 88 93 161q39 30 47 48t8 66h135v-48q1 -39 -8 -58.5t-46 -50.5l-18 -15t-16 -13t-12.5 -10.5t-11 -11t-7.5 -10t-6.5 -11t-3 -10.5t-1.5 -13q0 -21 17.5 -34t45.5 -13q47 0 104 35l55 -118q-95 -55 -189 -55q-95 0 -140.5 47t-45.5 114zM150 402q0 36 22.5 59
t59.5 23q36 0 59 -23t23 -59q0 -37 -22.5 -60.5t-59.5 -23.5t-59.5 23.5t-22.5 60.5z" />
    <glyph glyph-name="Agrave" unicode="&#xc0;" horiz-adv-x="544" 
d="M550 0h-185l-25 116h-148l-25 -116h-173l162 635h234zM313 243l-47 241l-47 -241h94zM339 690h-106l-87 131h137z" />
    <glyph glyph-name="Aacute" unicode="&#xc1;" horiz-adv-x="544" 
d="M550 0h-185l-25 116h-148l-25 -116h-173l162 635h234zM313 243l-47 241l-47 -241h94zM402 821l-87 -131h-105l57 131h135z" />
    <glyph glyph-name="Acircumflex" unicode="&#xc2;" horiz-adv-x="544" 
d="M550 0h-185l-25 116h-148l-25 -116h-173l162 635h234zM313 243l-47 241l-47 -241h94zM411 690h-102l-42 77l-41 -77h-103l77 131h133z" />
    <glyph glyph-name="Atilde" unicode="&#xc3;" horiz-adv-x="544" 
d="M550 0h-185l-25 116h-148l-25 -116h-173l162 635h234zM313 243l-47 241l-47 -241h94zM356 817l71 -7q-3 -53 -29.5 -85t-71.5 -32q-27 0 -47.5 12.5t-34.5 25.5t-24 13q-27 0 -28 -51l-73 6q0 52 25 86t74 34q30 0 63 -26t45 -26q27 0 30 50z" />
    <glyph glyph-name="Adieresis" unicode="&#xc4;" horiz-adv-x="544" 
d="M550 0h-185l-25 116h-148l-25 -116h-173l162 635h234zM313 243l-47 241l-47 -241h94zM252 754q0 -28 -16.5 -45t-44.5 -17q-26 0 -42.5 17t-16.5 45t16.5 45t42.5 17q28 0 44.5 -17t16.5 -45zM410 754q0 -28 -16.5 -45t-44.5 -17q-26 0 -42.5 17t-16.5 45t17 45t43 17
q27 0 43.5 -17t16.5 -45z" />
    <glyph glyph-name="Aring" unicode="&#xc5;" horiz-adv-x="544" 
d="M550 0h-185l-25 116h-148l-25 -116h-173l162 635h234zM313 243l-47 241l-47 -241h94zM368 768q0 -39 -26 -63.5t-65 -24.5q-40 0 -64.5 24.5t-24.5 62.5q0 40 24.5 64.5t64.5 24.5q39 0 65 -24.5t26 -63.5zM316 768q0 17 -11 28.5t-28 11.5t-27.5 -11t-10.5 -29
q0 -17 11 -28.5t27 -11.5q17 0 28 11t11 29z" />
    <glyph glyph-name="AE" unicode="&#xc6;" horiz-adv-x="776" 
d="M365 268v223h-9l-83 -223h92zM365 0v133h-143l-50 -133h-184l262 635h492v-144h-206v-90h191v-147h-191v-106h213v-148h-384z" />
    <glyph glyph-name="Ccedilla" unicode="&#xc7;" horiz-adv-x="514" 
d="M514 505l-137 -75q-3 12 -9.5 25t-25.5 28t-45 15q-98 0 -98 -177q0 -181 98 -181q64 0 89 70l130 -68q-55 -133 -193 -150l-44 -123h-137l75 129q-91 20 -143.5 97.5t-52.5 216.5q0 165 75.5 249t195.5 84q171 0 222 -140z" />
    <glyph glyph-name="Egrave" unicode="&#xc8;" horiz-adv-x="461" 
d="M434 0h-383v635h376v-144h-206v-90h191v-147h-191v-106h213v-148zM311 690h-106l-87 131h137z" />
    <glyph glyph-name="Eacute" unicode="&#xc9;" horiz-adv-x="461" 
d="M434 0h-383v635h376v-144h-206v-90h191v-147h-191v-106h213v-148zM364 821l-87 -131h-105l57 131h135z" />
    <glyph glyph-name="Ecircumflex" unicode="&#xca;" horiz-adv-x="461" 
d="M434 0h-383v635h376v-144h-206v-90h191v-147h-191v-106h213v-148zM383 690h-102l-42 77l-41 -77h-103l77 131h133z" />
    <glyph glyph-name="Edieresis" unicode="&#xcb;" horiz-adv-x="461" 
d="M434 0h-383v635h376v-144h-206v-90h191v-147h-191v-106h213v-148zM223 754q0 -28 -16.5 -45t-44.5 -17q-26 0 -42.5 17t-16.5 45t16.5 45t42.5 17q28 0 44.5 -17t16.5 -45zM381 754q0 -28 -16.5 -45t-44.5 -17q-26 0 -42.5 17t-16.5 45t17 45t43 17q27 0 43.5 -17
t16.5 -45z" />
    <glyph glyph-name="Igrave" unicode="&#xcc;" horiz-adv-x="272" 
d="M221 0h-170v635h170v-635zM193 690h-106l-87 131h137z" />
    <glyph glyph-name="Iacute" unicode="&#xcd;" horiz-adv-x="272" 
d="M221 0h-170v635h170v-635zM272 821l-87 -131h-105l57 131h135z" />
    <glyph glyph-name="Icircumflex" unicode="&#xce;" horiz-adv-x="272" 
d="M221 0h-170v635h170v-635zM281 690h-102l-42 77l-41 -77h-103l77 131h133z" />
    <glyph glyph-name="Idieresis" unicode="&#xcf;" horiz-adv-x="272" 
d="M221 0h-170v635h170v-635zM117 754q0 -28 -16.5 -45t-44.5 -17q-26 0 -42.5 17t-16.5 45t16.5 45t42.5 17q28 0 44.5 -17t16.5 -45zM275 754q0 -28 -16.5 -45t-44.5 -17q-26 0 -42.5 17t-16.5 45t17 45t43 17q27 0 43.5 -17t16.5 -45z" />
    <glyph glyph-name="Eth" unicode="&#xd0;" horiz-adv-x="573" 
d="M12 270v105h39v260h182q165 0 233 -59q40 -35 63 -102.5t23 -155.5q0 -80 -28 -145t-72 -104q-80 -69 -223 -69h-178v270h-39zM372 319q0 103 -37 145q-17 18 -36.5 22.5t-57.5 4.5h-20v-116h73v-105h-73v-122h19q38 0 58.5 6t36.5 24q37 43 37 141z" />
    <glyph glyph-name="Ntilde" unicode="&#xd1;" horiz-adv-x="583" 
d="M529 0h-160l-161 348v-348h-157v635h163l153 -337v337h162v-635zM368 817l71 -7q-3 -53 -29.5 -85t-71.5 -32q-27 0 -47.5 12.5t-34.5 25.5t-24 13q-27 0 -28 -51l-73 6q0 52 25 86t74 34q30 0 63 -26t45 -26q27 0 30 50z" />
    <glyph glyph-name="Ograve" unicode="&#xd2;" horiz-adv-x="564" 
d="M543 318q0 -158 -70 -243t-192 -85q-121 0 -190.5 85t-69.5 243q0 157 69.5 242t190.5 85q122 0 192 -85t70 -242zM363 319q0 181 -82 181t-82 -181q0 -180 82 -180t82 180zM351 690h-106l-87 131h137z" />
    <glyph glyph-name="Oacute" unicode="&#xd3;" horiz-adv-x="564" 
d="M543 318q0 -158 -70 -243t-192 -85q-121 0 -190.5 85t-69.5 243q0 157 69.5 242t190.5 85q122 0 192 -85t70 -242zM363 319q0 181 -82 181t-82 -181q0 -180 82 -180t82 180zM403 821l-87 -131h-105l57 131h135z" />
    <glyph glyph-name="Ocircumflex" unicode="&#xd4;" horiz-adv-x="564" 
d="M543 318q0 -158 -70 -243t-192 -85q-121 0 -190.5 85t-69.5 243q0 157 69.5 242t190.5 85q122 0 192 -85t70 -242zM363 319q0 181 -82 181t-82 -181q0 -180 82 -180t82 180zM423 690h-102l-42 77l-41 -77h-103l77 131h133z" />
    <glyph glyph-name="Otilde" unicode="&#xd5;" horiz-adv-x="564" 
d="M543 318q0 -158 -70 -243t-192 -85q-121 0 -190.5 85t-69.5 243q0 157 69.5 242t190.5 85q122 0 192 -85t70 -242zM363 319q0 181 -82 181t-82 -181q0 -180 82 -180t82 180zM365 817l71 -7q-3 -53 -29.5 -85t-71.5 -32q-21 0 -39 8t-27.5 17.5t-20 17.5t-19.5 8
q-27 0 -28 -51l-73 6q0 52 25 86t74 34q31 0 63 -26t45 -26q27 0 30 50z" />
    <glyph glyph-name="Odieresis" unicode="&#xd6;" horiz-adv-x="564" 
d="M543 318q0 -158 -70 -243t-192 -85q-121 0 -190.5 85t-69.5 243q0 157 69.5 242t190.5 85q122 0 192 -85t70 -242zM363 319q0 181 -82 181t-82 -181q0 -180 82 -180t82 180zM257 754q0 -28 -16.5 -45t-44.5 -17q-26 0 -42.5 17t-16.5 45t16.5 45t42.5 17q28 0 44.5 -17
t16.5 -45zM415 754q0 -28 -16.5 -45t-44.5 -17q-26 0 -42.5 17t-16.5 45t17 45t43 17q27 0 43.5 -17t16.5 -45z" />
    <glyph glyph-name="multiply" unicode="&#xd7;" horiz-adv-x="483" 
d="M442 423l-113 -112l113 -111l-89 -89l-111 112l-105 -105l-89 88l105 105l-112 112l88 88l113 -111l111 111z" />
    <glyph glyph-name="Oslash" unicode="&#xd8;" horiz-adv-x="564" 
d="M543 318q0 -158 -70 -243t-192 -85q-77 0 -133 34l-44 -69l-79 50l54 84q-58 84 -58 229q0 157 69.5 242t190.5 85q75 0 134 -34l39 61l77 -49l-48 -76q60 -87 60 -229zM331 480q-19 24 -50 24q-87 0 -87 -185q0 -9 0.5 -25.5t0.5 -23.5zM368 319q0 32 -1 47l-134 -211
q17 -20 48 -20q87 0 87 184z" />
    <glyph glyph-name="Ugrave" unicode="&#xd9;" horiz-adv-x="577" 
d="M359 223v412h170v-400q0 -120 -58 -181q-60 -63 -183 -63q-125 0 -183 62q-57 61 -57 182v400h170v-412q0 -40 19 -62q20 -20 53 -20q32 0 51 20q18 21 18 62zM343 690h-106l-87 131h137z" />
    <glyph glyph-name="Uacute" unicode="&#xda;" horiz-adv-x="577" 
d="M359 223v412h170v-400q0 -120 -58 -181q-60 -63 -183 -63q-125 0 -183 62q-57 61 -57 182v400h170v-412q0 -40 19 -62q20 -20 53 -20q32 0 51 20q18 21 18 62zM413 821l-87 -131h-105l57 131h135z" />
    <glyph glyph-name="Ucircumflex" unicode="&#xdb;" horiz-adv-x="577" 
d="M359 223v412h170v-400q0 -120 -58 -181q-60 -63 -183 -63q-125 0 -183 62q-57 61 -57 182v400h170v-412q0 -40 19 -62q20 -20 53 -20q32 0 51 20q18 21 18 62zM430 690h-102l-42 77l-41 -77h-103l77 131h133z" />
    <glyph glyph-name="Udieresis" unicode="&#xdc;" horiz-adv-x="577" 
d="M359 223v412h170v-400q0 -120 -58 -181q-60 -63 -183 -63q-125 0 -183 62q-57 61 -57 182v400h170v-412q0 -40 19 -62q20 -20 53 -20q32 0 51 20q18 21 18 62zM268 754q0 -28 -16.5 -45t-44.5 -17q-26 0 -42.5 17t-16.5 45t16.5 45t42.5 17q28 0 44.5 -17t16.5 -45z
M426 754q0 -28 -16.5 -45t-44.5 -17q-26 0 -42.5 17t-16.5 45t17 45t43 17q27 0 43.5 -17t16.5 -45z" />
    <glyph glyph-name="Yacute" unicode="&#xdd;" horiz-adv-x="535" 
d="M533 635l-180 -379v-256h-171v256l-180 379h185l81 -244l80 244h185zM400 821l-87 -131h-105l57 131h135z" />
    <glyph glyph-name="Thorn" unicode="&#xde;" horiz-adv-x="506" 
d="M496 318q0 -113 -68 -172q-58 -51 -172 -51h-36v-95h-169v635h169v-93h36q124 0 182 -55t58 -169zM326 318q0 48 -23 71q-17 18 -52 18h-31v-177h25q40 0 58 18q23 18 23 70z" />
    <glyph glyph-name="germandbls" unicode="&#xdf;" horiz-adv-x="519" 
d="M494 195q0 -82 -51 -141t-147 -59q-38 0 -65 8l15 116q6 -3 24 -3q61 0 61 87q0 84 -79 84h-9v118h8q59 0 59 76q0 67 -49 67q-53 0 -53 -80v-468h-165v454q0 98 56.5 153.5t168.5 55.5q99 0 148.5 -46.5t49.5 -117.5q0 -59 -26.5 -94.5t-63.5 -47.5q118 -26 118 -162z
" />
    <glyph glyph-name="agrave" unicode="&#xe0;" horiz-adv-x="442" 
d="M424 0h-162q-8 25 -8 51q-38 -60 -113 -60q-50 0 -88.5 37t-38.5 113q0 86 60.5 123t175.5 39v9q0 48 -64 48q-32 0 -63 -12.5t-47 -26.5l-49 114q30 21 79.5 35.5t100.5 14.5q99 0 149 -46t50 -156v-171q0 -74 18 -112zM250 137v69q-42 -1 -62 -12.5t-20 -38.5
q0 -20 12.5 -31.5t28.5 -11.5q25 0 41 25zM292 530h-106l-87 131h137z" />
    <glyph glyph-name="aacute" unicode="&#xe1;" horiz-adv-x="442" 
d="M424 0h-162q-8 25 -8 51q-38 -60 -113 -60q-50 0 -88.5 37t-38.5 113q0 86 60.5 123t175.5 39v9q0 48 -64 48q-32 0 -63 -12.5t-47 -26.5l-49 114q30 21 79.5 35.5t100.5 14.5q99 0 149 -46t50 -156v-171q0 -74 18 -112zM250 137v69q-42 -1 -62 -12.5t-20 -38.5
q0 -20 12.5 -31.5t28.5 -11.5q25 0 41 25zM348 661l-87 -131h-105l57 131h135z" />
    <glyph glyph-name="acircumflex" unicode="&#xe2;" horiz-adv-x="442" 
d="M424 0h-162q-8 25 -8 51q-38 -60 -113 -60q-50 0 -88.5 37t-38.5 113q0 86 60.5 123t175.5 39v9q0 48 -64 48q-32 0 -63 -12.5t-47 -26.5l-49 114q30 21 79.5 35.5t100.5 14.5q99 0 149 -46t50 -156v-171q0 -74 18 -112zM250 137v69q-42 -1 -62 -12.5t-20 -38.5
q0 -20 12.5 -31.5t28.5 -11.5q25 0 41 25zM360 530h-102l-42 77l-41 -77h-103l77 131h133z" />
    <glyph glyph-name="atilde" unicode="&#xe3;" horiz-adv-x="442" 
d="M424 0h-162q-8 25 -8 51q-38 -60 -113 -60q-50 0 -88.5 37t-38.5 113q0 86 60.5 123t175.5 39v9q0 48 -64 48q-32 0 -63 -12.5t-47 -26.5l-49 114q30 21 79.5 35.5t100.5 14.5q99 0 149 -46t50 -156v-171q0 -74 18 -112zM250 137v69q-42 -1 -62 -12.5t-20 -38.5
q0 -20 12.5 -31.5t28.5 -11.5q25 0 41 25zM309 657l71 -7q-3 -53 -29.5 -85t-71.5 -32q-21 0 -39 8t-27.5 17.5t-20 17.5t-19.5 8q-27 0 -28 -51l-73 6q0 52 25 86t74 34q31 0 63 -26t45 -26q27 0 30 50z" />
    <glyph glyph-name="adieresis" unicode="&#xe4;" horiz-adv-x="442" 
d="M424 0h-162q-8 25 -8 51q-38 -60 -113 -60q-50 0 -88.5 37t-38.5 113q0 86 60.5 123t175.5 39v9q0 48 -64 48q-32 0 -63 -12.5t-47 -26.5l-49 114q30 21 79.5 35.5t100.5 14.5q99 0 149 -46t50 -156v-171q0 -74 18 -112zM250 137v69q-42 -1 -62 -12.5t-20 -38.5
q0 -20 12.5 -31.5t28.5 -11.5q25 0 41 25zM199 594q0 -28 -16.5 -45t-44.5 -17q-26 0 -42.5 17t-16.5 45t16.5 45t42.5 17q28 0 44.5 -17t16.5 -45zM357 594q0 -28 -16.5 -45t-44.5 -17q-26 0 -42.5 17t-16.5 45t17 45t43 17q27 0 43.5 -17t16.5 -45z" />
    <glyph glyph-name="aring" unicode="&#xe5;" horiz-adv-x="442" 
d="M424 0h-162q-8 25 -8 51q-38 -60 -113 -60q-50 0 -88.5 37t-38.5 113q0 86 60.5 123t175.5 39v9q0 48 -64 48q-32 0 -63 -12.5t-47 -26.5l-49 114q30 21 79.5 35.5t100.5 14.5q99 0 149 -46t50 -156v-171q0 -74 18 -112zM250 137v69q-42 -1 -62 -12.5t-20 -38.5
q0 -20 12.5 -31.5t28.5 -11.5q25 0 41 25zM318 608q0 -39 -26 -63.5t-65 -24.5q-40 0 -64.5 24.5t-24.5 62.5q0 40 24.5 64.5t64.5 24.5q39 0 65 -24.5t26 -63.5zM266 608q0 17 -11 28.5t-28 11.5t-27.5 -11t-10.5 -29q0 -17 11 -28.5t27 -11.5q17 0 28 11t11 29z" />
    <glyph glyph-name="ae" unicode="&#xe6;" horiz-adv-x="673" 
d="M654 191h-249q3 -70 84 -70q49 0 102 34q9 -14 18.5 -30t21 -35.5t17.5 -30.5q-76 -69 -185 -69q-107 0 -162 64q-57 -63 -145 -63q-66 0 -104 38t-38 112q0 86 59 123t174 40v7q0 49 -64 49q-30 0 -61 -11.5t-49 -27.5l-49 114q80 50 180 50q87 0 134 -30q52 30 123 30
q90 0 141.5 -58t51.5 -183v-53zM258 139q-8 27 -11 69q-79 -3 -79 -53q0 -20 12 -31.5t28 -11.5q27 0 50 27zM498 292q0 78 -45 78q-44 0 -49 -78h94z" />
    <glyph glyph-name="ccedilla" unicode="&#xe7;" horiz-adv-x="404" 
d="M408 404l-98 -92q-21 42 -62 42q-33 0 -51 -30t-18 -85q0 -109 72 -109q36 0 59 35l102 -79q-43 -73 -133 -91l-45 -126h-137l74 127q-71 17 -112.5 77.5t-41.5 164.5q0 117 62.5 182t160.5 65q119 0 168 -81z" />
    <glyph glyph-name="egrave" unicode="&#xe8;" horiz-adv-x="450" 
d="M431 192h-249q3 -71 84 -71q51 0 102 34l58 -96q-82 -69 -185 -69t-163.5 62.5t-60.5 184.5q0 117 59.5 182.5t161.5 65.5q90 0 141.5 -58t51.5 -183v-52zM275 293q0 77 -45 77q-44 0 -49 -77h94zM305 530h-106l-87 131h137z" />
    <glyph glyph-name="eacute" unicode="&#xe9;" horiz-adv-x="450" 
d="M431 192h-249q3 -71 84 -71q51 0 102 34l58 -96q-82 -69 -185 -69t-163.5 62.5t-60.5 184.5q0 117 59.5 182.5t161.5 65.5q90 0 141.5 -58t51.5 -183v-52zM275 293q0 77 -45 77q-44 0 -49 -77h94zM354 661l-87 -131h-105l57 131h135z" />
    <glyph glyph-name="ecircumflex" unicode="&#xea;" horiz-adv-x="450" 
d="M431 192h-249q3 -71 84 -71q51 0 102 34l58 -96q-82 -69 -185 -69t-163.5 62.5t-60.5 184.5q0 117 59.5 182.5t161.5 65.5q90 0 141.5 -58t51.5 -183v-52zM275 293q0 77 -45 77q-44 0 -49 -77h94zM372 530h-102l-42 77l-41 -77h-103l77 131h133z" />
    <glyph glyph-name="edieresis" unicode="&#xeb;" horiz-adv-x="450" 
d="M431 192h-249q3 -71 84 -71q51 0 102 34l58 -96q-82 -69 -185 -69t-163.5 62.5t-60.5 184.5q0 117 59.5 182.5t161.5 65.5q90 0 141.5 -58t51.5 -183v-52zM275 293q0 77 -45 77q-44 0 -49 -77h94zM213 594q0 -28 -16.5 -45t-44.5 -17q-26 0 -42.5 17t-16.5 45t16.5 45
t42.5 17q28 0 44.5 -17t16.5 -45zM371 594q0 -28 -16.5 -45t-44.5 -17q-26 0 -42.5 17t-16.5 45t17 45t43 17q27 0 43.5 -17t16.5 -45z" />
    <glyph glyph-name="igrave" unicode="&#xec;" horiz-adv-x="247" 
d="M206 0h-165v475h165v-475zM190 530h-106l-87 131h137z" />
    <glyph glyph-name="iacute" unicode="&#xed;" horiz-adv-x="247" 
d="M206 0h-165v475h165v-475zM261 661l-87 -131h-105l57 131h135z" />
    <glyph glyph-name="icircumflex" unicode="&#xee;" horiz-adv-x="247" 
d="M206 0h-165v475h165v-475zM270 530h-102l-42 77l-41 -77h-103l77 131h133z" />
    <glyph glyph-name="idieresis" unicode="&#xef;" horiz-adv-x="247" 
d="M206 0h-165v475h165v-475zM105 594q0 -28 -16.5 -45t-44.5 -17q-26 0 -42.5 17t-16.5 45t16.5 45t42.5 17q28 0 44.5 -17t16.5 -45zM263 594q0 -28 -16.5 -45t-44.5 -17q-26 0 -42.5 17t-16.5 45t17 45t43 17q27 0 43.5 -17t16.5 -45z" />
    <glyph glyph-name="eth" unicode="&#xf0;" horiz-adv-x="475" 
d="M458 262q0 -139 -58.5 -205.5t-162.5 -66.5q-100 0 -160 59.5t-60 166.5q0 120 48.5 176.5t122.5 56.5q53 0 86 -31q-34 72 -80 110l-73 -40l-42 59l57 30q-25 18 -59 33l97 84q63 -23 96 -48l74 38l42 -58l-58 -32q130 -116 130 -332zM295 227q0 113 -58 113t-58 -113
q0 -111 58 -111t58 111z" />
    <glyph glyph-name="ntilde" unicode="&#xf1;" horiz-adv-x="504" 
d="M465 0h-164v276q0 69 -44 69q-42 0 -51 -61v-284h-165v475h157l8 -60q38 70 125 70q72 0 103 -43t31 -132v-310zM333 657l71 -7q-3 -53 -29.5 -85t-71.5 -32q-21 0 -39 8t-27.5 17.5t-20 17.5t-19.5 8q-27 0 -28 -51l-73 6q0 52 25 86t74 34q31 0 63 -26t45 -26
q27 0 30 50z" />
    <glyph glyph-name="ograve" unicode="&#xf2;" horiz-adv-x="475" 
d="M458 237q0 -120 -59.5 -183.5t-161.5 -63.5q-101 0 -160.5 63.5t-59.5 183.5t59 184t161 64t161.5 -64t59.5 -184zM295 238q0 121 -58 121t-58 -121q0 -118 58 -118t58 118zM308 530h-106l-87 131h137z" />
    <glyph glyph-name="oacute" unicode="&#xf3;" horiz-adv-x="475" 
d="M458 237q0 -120 -59.5 -183.5t-161.5 -63.5q-101 0 -160.5 63.5t-59.5 183.5t59 184t161 64t161.5 -64t59.5 -184zM295 238q0 121 -58 121t-58 -121q0 -118 58 -118t58 118zM353 661l-87 -131h-105l57 131h135z" />
    <glyph glyph-name="ocircumflex" unicode="&#xf4;" horiz-adv-x="475" 
d="M458 237q0 -120 -59.5 -183.5t-161.5 -63.5q-101 0 -160.5 63.5t-59.5 183.5t59 184t161 64t161.5 -64t59.5 -184zM295 238q0 121 -58 121t-58 -121q0 -118 58 -118t58 118zM376 530h-102l-42 77l-41 -77h-103l77 131h133z" />
    <glyph glyph-name="otilde" unicode="&#xf5;" horiz-adv-x="475" 
d="M458 237q0 -120 -59.5 -183.5t-161.5 -63.5q-101 0 -160.5 63.5t-59.5 183.5t59 184t161 64t161.5 -64t59.5 -184zM295 238q0 121 -58 121t-58 -121q0 -118 58 -118t58 118zM316 657l71 -7q-3 -53 -29.5 -85t-71.5 -32q-27 0 -47.5 12.5t-34.5 25.5t-24 13q-27 0 -28 -51
l-73 6q0 52 25 86t74 34q30 0 63 -26t45 -26q27 0 30 50z" />
    <glyph glyph-name="odieresis" unicode="&#xf6;" horiz-adv-x="475" 
d="M458 237q0 -120 -59.5 -183.5t-161.5 -63.5q-101 0 -160.5 63.5t-59.5 183.5t59 184t161 64t161.5 -64t59.5 -184zM295 238q0 121 -58 121t-58 -121q0 -118 58 -118t58 118zM216 594q0 -28 -16.5 -45t-44.5 -17q-26 0 -42.5 17t-16.5 45t16.5 45t42.5 17q28 0 44.5 -17
t16.5 -45zM374 594q0 -28 -16.5 -45t-44.5 -17q-26 0 -42.5 17t-16.5 45t17 45t43 17q27 0 43.5 -17t16.5 -45z" />
    <glyph glyph-name="divide" unicode="&#xf7;" horiz-adv-x="483" 
d="M240 51q-35 0 -59 24t-24 60t23 61t60 25q39 0 63 -24.5t24 -61.5q0 -36 -25 -60t-62 -24zM432 252h-381v125h381v-125zM240 414q-36 0 -59.5 23.5t-23.5 59.5t24 61t59 25q37 0 62 -24t25 -61q0 -36 -25 -60t-62 -24z" />
    <glyph glyph-name="oslash" unicode="&#xf8;" horiz-adv-x="475" 
d="M458 237q0 -120 -59.5 -183.5t-161.5 -63.5q-56 0 -102 20l-30 -51l-56 30l34 56q-66 64 -66 192q0 120 59 184t161 64q52 0 98 -19l29 49l57 -30l-33 -55q70 -65 70 -193zM300 238q0 31 -2 44l-93 -155q15 -10 32 -10q63 0 63 121zM174 238q0 -7 0.5 -20.5t0.5 -19.5
l92 154q-15 10 -30 10q-63 0 -63 -124z" />
    <glyph glyph-name="ugrave" unicode="&#xf9;" horiz-adv-x="504" 
d="M463 0h-156l-8 60q-38 -70 -125 -70q-72 0 -103.5 43t-31.5 132v310h165v-276q0 -69 44 -69q42 0 51 61v284h164v-475zM318 530h-106l-87 131h137z" />
    <glyph glyph-name="uacute" unicode="&#xfa;" horiz-adv-x="504" 
d="M463 0h-156l-8 60q-38 -70 -125 -70q-72 0 -103.5 43t-31.5 132v310h165v-276q0 -69 44 -69q42 0 51 61v284h164v-475zM373 661l-87 -131h-105l57 131h135z" />
    <glyph glyph-name="ucircumflex" unicode="&#xfb;" horiz-adv-x="504" 
d="M463 0h-156l-8 60q-38 -70 -125 -70q-72 0 -103.5 43t-31.5 132v310h165v-276q0 -69 44 -69q42 0 51 61v284h164v-475zM394 530h-102l-42 77l-41 -77h-103l77 131h133z" />
    <glyph glyph-name="udieresis" unicode="&#xfc;" horiz-adv-x="504" 
d="M463 0h-156l-8 60q-38 -70 -125 -70q-72 0 -103.5 43t-31.5 132v310h165v-276q0 -69 44 -69q42 0 51 61v284h164v-475zM230 594q0 -28 -16.5 -45t-44.5 -17q-26 0 -42.5 17t-16.5 45t16.5 45t42.5 17q28 0 44.5 -17t16.5 -45zM388 594q0 -28 -16.5 -45t-44.5 -17
q-26 0 -42.5 17t-16.5 45t17 45t43 17q27 0 43.5 -17t16.5 -45z" />
    <glyph glyph-name="yacute" unicode="&#xfd;" horiz-adv-x="468" 
d="M471 475l-151 -497q-46 -151 -191 -151q-50 0 -106 12l22 133q17 -10 46 -10q39 0 51 37l2 7l-147 469h178l62 -308l61 308h173zM368 661l-87 -131h-105l57 131h135z" />
    <glyph glyph-name="thorn" unicode="&#xfe;" horiz-adv-x="496" 
d="M479 237q0 -120 -47 -183.5t-119 -63.5q-70 0 -107 56v-210h-165v818h165v-237q35 68 116 68q72 0 114.5 -62.5t42.5 -185.5zM317 239q0 55 -15 87.5t-43 32.5q-57 0 -57 -119q0 -120 57 -120q58 0 58 119z" />
    <glyph glyph-name="ydieresis" unicode="&#xff;" horiz-adv-x="468" 
d="M471 475l-151 -497q-46 -151 -191 -151q-50 0 -106 12l22 133q17 -10 46 -10q39 0 51 37l2 7l-147 469h178l62 -308l61 308h173zM218 594q0 -28 -16.5 -45t-44.5 -17q-26 0 -42.5 17t-16.5 45t16.5 45t42.5 17q28 0 44.5 -17t16.5 -45zM376 594q0 -28 -16.5 -45
t-44.5 -17q-26 0 -42.5 17t-16.5 45t17 45t43 17q27 0 43.5 -17t16.5 -45z" />
    <glyph glyph-name="dotlessi" unicode="&#x131;" horiz-adv-x="247" 
d="M206 0h-165v475h165v-475z" />
    <glyph glyph-name="Lslash" unicode="&#x141;" horiz-adv-x="428" 
d="M421 0h-370v202l-46 -23v122l46 23v311h170v-221l99 52v-122l-99 -52v-144h200v-148z" />
    <glyph glyph-name="lslash" unicode="&#x142;" horiz-adv-x="247" 
d="M206 0h-165v217l-50 -28v123l50 29v313h165v-217l55 32v-123l-55 -33v-313z" />
    <glyph glyph-name="OE" unicode="&#x152;" horiz-adv-x="751" 
d="M724 0h-376v10q-1 0 -13.5 -5t-30.5 -8.5t-41 -3.5q-109 0 -175.5 84.5t-66.5 240.5q0 155 66.5 239.5t178.5 84.5q40 0 82 -15v8h369v-144h-206v-90h191v-147h-191v-106h213v-148zM341 152v334q-31 11 -55 11q-48 0 -67.5 -44.5t-19.5 -133.5q0 -177 96 -177q22 0 46 10
z" />
    <glyph glyph-name="oe" unicode="&#x153;" horiz-adv-x="716" 
d="M697 192h-250q3 -71 85 -71q50 0 101 34l58 -96q-75 -69 -185 -69q-88 0 -139 45q-58 -45 -130 -45q-101 0 -160.5 63.5t-59.5 183.5t59 184t161 64q78 0 130 -46q57 46 136 46q90 0 142 -58t52 -183v-52zM295 238q0 121 -58 121t-58 -121q0 -118 58 -118t58 118z
M540 293q0 77 -45 77q-44 0 -49 -77h94z" />
    <glyph glyph-name="Scaron" unicode="&#x160;" horiz-adv-x="455" 
d="M439 199q0 -98 -66 -153.5t-171 -55.5q-69 0 -122 24.5t-77 48.5l79 130q20 -20 52.5 -35t64.5 -15q63 0 63 42q0 17 -16.5 30.5t-53.5 31.5q-89 43 -127 84t-38 114q0 92 62 146t158 54q56 0 105 -16.5t65.5 -28.5t24.5 -20l-80 -128q-16 19 -46 32.5t-59 13.5
q-56 0 -56 -42q0 -17 16 -30.5t54 -30.5q86 -39 127 -80t41 -116zM387 821l-77 -131h-133l-78 131h102l42 -77l41 77h103z" />
    <glyph glyph-name="scaron" unicode="&#x161;" horiz-adv-x="380" 
d="M364 156q0 -70 -49.5 -118t-138.5 -48q-105 0 -173 55l63 112q50 -42 107 -42q37 0 37 23q0 10 -11.5 16.5t-39.5 15.5q-66 21 -100 56t-34 96q0 71 49.5 117t135.5 46q100 0 158 -47l-60 -111q-43 35 -95 35q-36 0 -36 -22q0 -11 9.5 -17.5t33.5 -13.5q76 -24 110 -56
t34 -97zM341 661l-77 -131h-133l-78 131h102l42 -77l41 77h103z" />
    <glyph glyph-name="Ydieresis" unicode="&#x178;" horiz-adv-x="535" 
d="M533 635l-180 -379v-256h-171v256l-180 379h185l81 -244l80 244h185zM248 754q0 -28 -16.5 -45t-44.5 -17q-26 0 -42.5 17t-16.5 45t16.5 45t42.5 17q28 0 44.5 -17t16.5 -45zM406 754q0 -28 -16.5 -45t-44.5 -17q-26 0 -42.5 17t-16.5 45t17 45t43 17q27 0 43.5 -17
t16.5 -45z" />
    <glyph glyph-name="Zcaron" unicode="&#x17d;" horiz-adv-x="495" 
d="M476 0h-453v108l228 383h-218v144h430v-111l-219 -376h232v-148zM399 821l-77 -131h-133l-78 131h102l42 -77l41 77h103z" />
    <glyph glyph-name="zcaron" unicode="&#x17e;" horiz-adv-x="405" 
d="M398 0h-391v92l174 256h-166v127h375v-95l-165 -245h173v-135zM353 661l-77 -131h-133l-78 131h102l42 -77l41 77h103z" />
    <glyph glyph-name="florin" unicode="&#x192;" horiz-adv-x="483" 
d="M470 643l-32 -112q-20 8 -41 8q-43 0 -52 -56l-12 -84h80v-99h-96l-30 -229q-24 -185 -178 -185q-58 0 -95 21l30 109q26 -13 44 -13q24 0 37 18t18 59l28 220h-66v99h81l16 102q12 79 55 120t114 41q59 0 99 -19z" />
    <glyph glyph-name="circumflex" unicode="&#x2c6;" horiz-adv-x="386" 
d="M337 530h-102l-42 77l-41 -77h-103l77 131h133z" />
    <glyph glyph-name="caron" unicode="&#x2c7;" horiz-adv-x="386" 
d="M337 661l-77 -131h-133l-78 131h102l42 -77l41 77h103z" />
    <glyph glyph-name="uni02C9" unicode="&#x2c9;" horiz-adv-x="386" 
d="M329 558h-271v75h271v-75z" />
    <glyph glyph-name="breve" unicode="&#x2d8;" horiz-adv-x="386" 
d="M254 664l77 -7q-12 -64 -48.5 -97t-89.5 -33q-122 0 -143 130l83 7q4 -28 19 -48.5t42 -20.5t42 21t18 48z" />
    <glyph glyph-name="dotaccent" unicode="&#x2d9;" horiz-adv-x="386" 
d="M255 593q0 -30 -16.5 -47.5t-45.5 -17.5q-28 0 -45.5 18t-17.5 47q0 28 17.5 46t45.5 18q29 0 45.5 -17.5t16.5 -46.5z" />
    <glyph glyph-name="ring" unicode="&#x2da;" horiz-adv-x="386" 
d="M283 608q0 -39 -26 -63.5t-65 -24.5q-40 0 -64.5 24.5t-24.5 62.5q0 40 24.5 64.5t64.5 24.5q39 0 65 -24.5t26 -63.5zM231 608q0 17 -11 28.5t-28 11.5t-27.5 -11t-10.5 -29q0 -17 11 -28.5t27 -11.5q17 0 28 11t11 29z" />
    <glyph glyph-name="ogonek" unicode="&#x2db;" horiz-adv-x="386" 
d="M346 -102l22 -47q-50 -45 -103 -45q-39 0 -64.5 22t-25.5 63q0 54 64 109h78q-55 -48 -55 -85q0 -16 9.5 -25t24.5 -9q25 0 50 17z" />
    <glyph glyph-name="tilde" unicode="&#x2dc;" horiz-adv-x="386" 
d="M276 657l71 -7q-3 -53 -29.5 -85t-71.5 -32q-27 0 -47.5 12.5t-34.5 25.5t-24 13q-27 0 -28 -51l-73 6q0 52 25 86t74 34q30 0 63 -26t45 -26q27 0 30 50z" />
    <glyph glyph-name="hungarumlaut" unicode="&#x2dd;" horiz-adv-x="386" 
d="M396 661l-88 -131h-106l58 131h136zM224 661l-89 -131h-105l57 131h137z" />
    <glyph glyph-name="uni03A9" unicode="&#x3a9;" horiz-adv-x="601" 
d="M572 0h-251v136q61 53 61 194q0 170 -83 170q-82 0 -82 -171q0 -62 11.5 -104.5t21 -55.5t29.5 -33v-136h-250v143h91q-29 21 -55 75t-26 146q0 124 71.5 202.5t189.5 78.5q119 0 191 -77t72 -201q0 -149 -81 -224h90v-143z" />
    <glyph glyph-name="uni03BC" unicode="&#x3bc;" horiz-adv-x="511" 
d="M467 475v-475h-147l-4 28q-24 -33 -66 -33q-27 0 -42 13v-174h-165v641h165v-293q0 -25 12.5 -38.5t31.5 -13.5q39 0 51 44v301h164z" />
    <glyph glyph-name="pi" unicode="&#x3c0;" horiz-adv-x="477" 
d="M460 363h-60v-363h-119v363h-85v-363h-119v363h-60v112h443v-112z" />
    <glyph glyph-name="endash" unicode="&#x2013;" horiz-adv-x="391" 
d="M369 175h-348v144h348v-144z" />
    <glyph glyph-name="emdash" unicode="&#x2014;" horiz-adv-x="676" 
d="M655 175h-634v144h634v-144z" />
    <glyph glyph-name="quoteleft" unicode="&#x2018;" horiz-adv-x="248" 
d="M151 388l-129 29q2 75 36.5 141.5t89.5 113.5l98 -46q-87 -103 -95 -238z" />
    <glyph glyph-name="quoteright" unicode="&#x2019;" horiz-adv-x="248" 
d="M97 672l129 -29q-2 -74 -36.5 -141.5t-88.5 -113.5l-99 46q88 102 95 238z" />
    <glyph glyph-name="quotesinglbase" unicode="&#x201a;" horiz-adv-x="248" 
d="M87 158l129 -29q-2 -74 -36.5 -141.5t-88.5 -113.5l-99 46q88 102 95 238z" />
    <glyph glyph-name="quotedblleft" unicode="&#x201c;" horiz-adv-x="467" 
d="M160 388l-129 29q2 75 36.5 141.5t89.5 113.5l98 -46q-87 -103 -95 -238zM379 388l-129 29q2 75 36.5 142t89.5 113l98 -46q-88 -102 -95 -238z" />
    <glyph glyph-name="quotedblright" unicode="&#x201d;" horiz-adv-x="467" 
d="M316 672l129 -29q-2 -74 -37 -141t-89 -114l-98 46q88 104 95 238zM97 672l129 -29q-2 -74 -36.5 -141.5t-88.5 -113.5l-99 46q88 102 95 238z" />
    <glyph glyph-name="quotedblbase" unicode="&#x201e;" horiz-adv-x="467" 
d="M306 158l129 -29q-2 -74 -37 -141t-89 -114l-98 46q88 104 95 238zM87 158l129 -29q-2 -74 -36.5 -141.5t-88.5 -113.5l-99 46q88 102 95 238z" />
    <glyph glyph-name="dagger" unicode="&#x2020;" horiz-adv-x="466" 
d="M426 362l-137 10l8 -216l-16 -277h-96l-17 277l8 216l-136 -11v115l136 -11l-8 183h129l-8 -183l137 11v-114z" />
    <glyph glyph-name="daggerdbl" unicode="&#x2021;" horiz-adv-x="466" 
d="M426 27l-137 11l8 -169h-129l8 169l-136 -11v114l136 -10l-8 127l8 128l-136 -11v114l136 -10l-8 169h129l-8 -169l137 10v-113l-137 10l8 -128l-8 -127l137 11v-115z" />
    <glyph glyph-name="bullet" unicode="&#x2022;" horiz-adv-x="380" 
d="M332 317q0 -61 -41 -104t-100 -43t-101 42.5t-42 103.5q0 62 42 105.5t101 43.5t100 -43t41 -105z" />
    <glyph glyph-name="ellipsis" unicode="&#x2026;" horiz-adv-x="713" 
d="M201 74q0 -36 -22.5 -59.5t-59.5 -23.5q-36 0 -59 23.5t-23 59.5t23 59t59 23q37 0 59.5 -23t22.5 -59zM439 74q0 -36 -23 -59.5t-60 -23.5q-36 0 -59 23.5t-23 59.5t23 59t60 23q36 0 59 -23t23 -59zM676 74q0 -36 -23 -59.5t-59 -23.5q-37 0 -59.5 23.5t-22.5 59.5
t22.5 59t59.5 23q36 0 59 -23t23 -59z" />
    <glyph glyph-name="perthousand" unicode="&#x2030;" horiz-adv-x="1084" 
d="M1053 185q0 -95 -39.5 -145t-106.5 -50q-68 0 -107.5 49.5t-39.5 145.5q0 94 39.5 144t107.5 50q67 0 106.5 -50t39.5 -144zM945 185q0 100 -38 100q-39 0 -39 -100q0 -98 39 -98q38 0 38 98zM317 463q0 -95 -39.5 -145t-106.5 -50q-68 0 -107.5 50t-39.5 145
q0 94 39.5 144t107.5 50q67 0 106.5 -50t39.5 -144zM209 463q0 100 -38 100q-40 0 -40 -100q0 -98 40 -98q38 0 38 98zM588 629l-336 -640l-75 37l336 640zM732 185q0 -95 -39.5 -145t-106.5 -50q-68 0 -107.5 49.5t-39.5 145.5q0 94 39.5 144t107.5 50q67 0 106.5 -50
t39.5 -144zM624 185q0 100 -38 100q-39 0 -39 -100q0 -98 39 -98q38 0 38 98z" />
    <glyph glyph-name="guilsinglleft" unicode="&#x2039;" horiz-adv-x="288" 
d="M268 103l-102 -63l-138 182v54l138 183l102 -62l-115 -147z" />
    <glyph glyph-name="guilsinglright" unicode="&#x203a;" horiz-adv-x="288" 
d="M260 224l-138 -184l-102 62l115 147l-115 147l102 63l138 -181v-54z" />
    <glyph glyph-name="fraction" unicode="&#x2044;" horiz-adv-x="239" 
d="M319 621l-325 -633l-70 35l325 633z" />
    <glyph glyph-name="zero.superior" unicode="&#x2070;" 
d="M326 579q0 -102 -41 -152.5t-110 -50.5q-70 0 -111 50t-41 152t40.5 149.5t111.5 47.5q70 0 110.5 -47.5t40.5 -148.5zM212 579q0 110 -37 110q-20 0 -28.5 -26t-8.5 -84t8.5 -84t28.5 -26q37 0 37 110z" />
    <glyph glyph-name="four.superior" unicode="&#x2074;" 
d="M328 452h-42v-70h-110v70h-161v89l137 232h134v-239h42v-82zM176 534v135l-72 -135h72z" />
    <glyph glyph-name="five.superior" unicode="&#x2075;" 
d="M311 512q0 -59 -43 -97.5t-117 -38.5q-64 0 -125 39l38 75q42 -27 75 -27q26 0 41 12t15 32q0 45 -56 45q-23 0 -43 -10l-46 22l24 210h221v-84h-128l-7 -60q18 5 38 5q50 0 81.5 -30t31.5 -93z" />
    <glyph glyph-name="six.superior" unicode="&#x2076;" 
d="M325 514q0 -60 -39 -99t-108 -39t-108.5 47t-39.5 145q0 96 43.5 152.5t128.5 56.5q67 0 115 -32l-39 -75q-26 20 -67 20q-31 0 -50.5 -20t-20.5 -61q32 23 74 23q50 0 80.5 -31.5t30.5 -86.5zM215 509q0 46 -39 46q-9 0 -18 -4.5t-14 -8.5l-4 -5q0 -77 40 -77
q15 0 25 12t10 37z" />
    <glyph glyph-name="seven.superior" unicode="&#x2077;" 
d="M308 704l-137 -322h-115l139 307h-165v85h278v-70z" />
    <glyph glyph-name="eight.superior" unicode="&#x2078;" 
d="M320 488q0 -53 -40.5 -82.5t-105.5 -29.5q-67 0 -105 30.5t-38 81.5q0 62 70 97q-62 30 -62 90q0 44 36.5 74t99.5 30q62 0 99.5 -26t37.5 -76q0 -35 -20 -57.5t-42 -32.5q70 -28 70 -99zM206 670q0 16 -9.5 25.5t-21.5 9.5t-21.5 -9t-9.5 -25q0 -29 35 -45q27 18 27 44z
M211 492q0 38 -42 56q-29 -23 -29 -52q0 -19 11.5 -30.5t25.5 -11.5q15 0 24.5 10.5t9.5 27.5z" />
    <glyph glyph-name="nine.superior" unicode="&#x2079;" 
d="M25 637q0 60 39 100t108 40q148 0 148 -189q0 -96 -45.5 -154t-130.5 -58q-66 0 -114 32l39 75q27 -21 67 -21q31 0 52 20.5t22 61.5q-32 -23 -74 -23q-51 0 -81 30.5t-30 85.5zM135 644q0 -46 39 -46q9 0 18 4.5t14 9.5l4 4q0 77 -40 77q-15 0 -25 -12t-10 -37z" />
    <glyph glyph-name="zero.inferior" unicode="&#x2080;" 
d="M326 77q0 -102 -41 -152.5t-110 -50.5q-70 0 -111 50t-41 152t40.5 149.5t111.5 47.5q70 0 110.5 -47.5t40.5 -148.5zM212 77q0 110 -37 110q-20 0 -28.5 -26t-8.5 -84t8.5 -84t28.5 -26q37 0 37 110z" />
    <glyph glyph-name="one.inferior" unicode="&#x2081;" 
d="M253 -120h-124v256q-28 -20 -62 -28l-31 90q29 9 65 30t56 43h96v-391z" />
    <glyph glyph-name="two.inferior" unicode="&#x2082;" 
d="M305 -120h-269q0 56 15 95.5t60 77.5t59.5 56t14.5 36q0 37 -43 37q-40 0 -73 -29l-37 83q58 39 138 39q70 0 102 -31.5t32 -81.5q0 -42 -22.5 -74t-67.5 -64q-39 -28 -42 -41h133v-103z" />
    <glyph glyph-name="three.inferior" unicode="&#x2083;" 
d="M306 -5q0 -54 -43.5 -87.5t-115.5 -33.5q-70 0 -124 27l37 85q36 -18 75 -18q24 0 37.5 9.5t13.5 23.5q0 34 -50 34h-45v84h47q20 0 31.5 9.5t11.5 23.5t-11 23t-31 9q-41 0 -70 -21l-31 82q58 31 127 31q63 0 98 -29.5t35 -75.5q0 -58 -56 -86q64 -26 64 -90z" />
    <glyph glyph-name="four.inferior" unicode="&#x2084;" 
d="M328 -50h-42v-70h-110v70h-161v89l137 232h134v-239h42v-82zM176 32v135l-72 -135h72z" />
    <glyph glyph-name="five.inferior" unicode="&#x2085;" 
d="M311 10q0 -59 -43 -97.5t-117 -38.5q-64 0 -125 39l38 75q42 -27 75 -27q26 0 41 12t15 32q0 45 -56 45q-23 0 -43 -10l-46 22l24 210h221v-84h-128l-7 -60q18 5 38 5q50 0 81.5 -30t31.5 -93z" />
    <glyph glyph-name="six.inferior" unicode="&#x2086;" 
d="M325 12q0 -60 -39 -99t-108 -39t-108.5 47t-39.5 145q0 96 43.5 152.5t128.5 56.5q67 0 115 -32l-39 -75q-26 20 -67 20q-31 0 -50.5 -20t-20.5 -61q32 23 74 23q50 0 80.5 -31.5t30.5 -86.5zM215 7q0 46 -39 46q-9 0 -18 -4.5t-14 -8.5l-4 -5q0 -77 40 -77q15 0 25 12
t10 37z" />
    <glyph glyph-name="seven.inferior" unicode="&#x2087;" 
d="M308 202l-137 -322h-115l139 307h-165v85h278v-70z" />
    <glyph glyph-name="eight.inferior" unicode="&#x2088;" 
d="M320 -14q0 -53 -40.5 -82.5t-105.5 -29.5q-67 0 -105 30.5t-38 81.5q0 62 70 97q-62 30 -62 90q0 44 36.5 74t99.5 30q62 0 99.5 -26t37.5 -76q0 -35 -20 -57.5t-42 -32.5q70 -28 70 -99zM206 168q0 16 -9.5 25.5t-21.5 9.5t-21.5 -9t-9.5 -25q0 -29 35 -45q27 18 27 44z
M211 -10q0 38 -42 56q-29 -23 -29 -52q0 -19 11.5 -30.5t25.5 -11.5q15 0 24.5 10.5t9.5 27.5z" />
    <glyph glyph-name="nine.inferior" unicode="&#x2089;" 
d="M25 135q0 60 39 100t108 40q148 0 148 -189q0 -96 -45.5 -154t-130.5 -58q-66 0 -114 32l39 75q27 -21 67 -21q31 0 52 20.5t22 61.5q-32 -23 -74 -23q-51 0 -81 30.5t-30 85.5zM135 142q0 -46 39 -46q9 0 18 4.5t14 9.5l4 4q0 77 -40 77q-15 0 -25 -12t-10 -37z" />
    <glyph glyph-name="Euro" unicode="&#x20ac;" horiz-adv-x="483" 
d="M358 159l117 -49q-56 -120 -185 -120q-176 0 -210 216h-49v86h41q-1 16 -1 26l1 25h-41v86h49q15 104 73.5 160t149.5 56q134 0 177 -129l-120 -47q-13 55 -55 55q-55 0 -63 -95h117v-86h-124q-1 -15 -1 -25l1 -26h124v-86h-116q7 -86 59 -86q16 0 28 7t16 12.5t12 19.5z
" />
    <glyph glyph-name="litre" unicode="&#x2113;" horiz-adv-x="437" 
d="M425 124l41 -74q-72 -66 -163 -66q-69 0 -110 41q-44 44 -44 135v55l-57 -54q-4 7 -17 30t-21 35q93 87 95 89v192q0 102 43.5 161.5t123.5 59.5q62 0 93.5 -38.5t31.5 -89.5q0 -67 -32 -127t-94 -126l-36 -39v-128q0 -96 64 -96q44 0 82 40zM358 582q0 46 -34 46
q-45 0 -45 -90v-126q10 10 20 24q59 75 59 146z" />
    <glyph glyph-name="trademark" unicode="&#x2122;" horiz-adv-x="677" 
d="M637 288h-89l-6 241l-45 -241h-80l-45 241l-6 -241h-86l12 347h126l41 -223l41 223h125zM264 560h-74v-272h-92v272h-75v75h241v-75z" />
    <glyph glyph-name="Omega" unicode="&#x2126;" horiz-adv-x="601" 
d="M572 0h-251v136q61 53 61 194q0 170 -83 170q-82 0 -82 -171q0 -62 11.5 -104.5t21 -55.5t29.5 -33v-136h-250v143h91q-29 21 -55 75t-26 146q0 124 71.5 202.5t189.5 78.5q119 0 191 -77t72 -201q0 -149 -81 -224h90v-143z" />
    <glyph glyph-name="estimated" unicode="&#x212e;" horiz-adv-x="562" 
d="M627 299h-460v-206q67 -67 163 -67q138 0 221 136q3 -2 16 -10t21 -12q-50 -75 -109.5 -113.5t-148.5 -38.5q-130 0 -210.5 89.5t-80.5 221.5q0 133 79.5 222t212.5 89q134 0 213.5 -88.5t82.5 -222.5zM496 337v167q-71 69 -165 69q-99 0 -164 -67v-169h329z" />
    <glyph glyph-name="onethird" unicode="&#x2153;" horiz-adv-x="773" 
d="M241 262h-124v256q-28 -20 -62 -28l-31 90q29 9 65 30t56 43h96v-391zM556 621l-325 -633l-70 35l325 633zM733 115q0 -54 -43.5 -87.5t-115.5 -33.5q-70 0 -124 27l37 85q36 -18 75 -18q24 0 37.5 9.5t13.5 23.5q0 34 -50 34h-45v84h47q20 0 31.5 9.5t11.5 23.5t-11 23
t-31 9q-41 0 -70 -21l-31 82q58 31 127 31q63 0 98 -29.5t35 -75.5q0 -58 -56 -86q64 -26 64 -90z" />
    <glyph glyph-name="twothirds" unicode="&#x2154;" horiz-adv-x="838" 
d="M621 621l-325 -633l-70 35l325 633zM798 115q0 -54 -43.5 -87.5t-115.5 -33.5q-70 0 -124 27l37 85q36 -18 75 -18q24 0 37.5 9.5t13.5 23.5q0 34 -50 34h-45v84h47q20 0 31.5 9.5t11.5 23.5t-11 23t-31 9q-41 0 -70 -21l-31 82q58 31 127 31q63 0 98 -29.5t35 -75.5
q0 -58 -56 -86q64 -26 64 -90zM305 262h-269q0 56 15 95.5t60 77.5t59.5 56t14.5 36q0 37 -43 37q-40 0 -73 -29l-37 83q58 39 138 39q70 0 102 -31.5t32 -81.5q0 -42 -22.5 -74t-67.5 -64q-39 -28 -42 -41h133v-103z" />
    <glyph glyph-name="oneeighth" unicode="&#x215b;" horiz-adv-x="771" 
d="M241 262h-124v256q-28 -20 -62 -28l-31 90q29 9 65 30t56 43h96v-391zM556 621l-325 -633l-70 35l325 633zM731 106q0 -53 -40.5 -82.5t-105.5 -29.5q-67 0 -105 30.5t-38 81.5q0 62 70 97q-62 30 -62 90q0 44 36.5 74t99.5 30q62 0 99.5 -26t37.5 -76q0 -35 -20 -57.5
t-42 -32.5q70 -28 70 -99zM617 288q0 16 -9.5 25.5t-21.5 9.5t-21.5 -9t-9.5 -25q0 -29 35 -45q27 18 27 44zM622 110q0 38 -42 56q-29 -23 -29 -52q0 -19 11.5 -30.5t25.5 -11.5q15 0 24.5 10.5t9.5 27.5z" />
    <glyph glyph-name="threeeighths" unicode="&#x215c;" horiz-adv-x="800" 
d="M585 621l-325 -633l-70 35l325 633zM760 106q0 -53 -40.5 -82.5t-105.5 -29.5q-67 0 -105 30.5t-38 81.5q0 62 70 97q-62 30 -62 90q0 44 36.5 74t99.5 30q62 0 99.5 -26t37.5 -76q0 -35 -20 -57.5t-42 -32.5q70 -28 70 -99zM646 288q0 16 -9.5 25.5t-21.5 9.5t-21.5 -9
t-9.5 -25q0 -29 35 -45q27 18 27 44zM651 110q0 38 -42 56q-29 -23 -29 -52q0 -19 11.5 -30.5t25.5 -11.5q15 0 24.5 10.5t9.5 27.5zM306 377q0 -54 -43.5 -87.5t-115.5 -33.5q-70 0 -124 27l37 85q36 -18 75 -18q24 0 37.5 9.5t13.5 23.5q0 34 -50 34h-45v84h47
q20 0 31.5 9.5t11.5 23.5t-11 23t-31 9q-41 0 -70 -21l-31 82q58 31 127 31q63 0 98 -29.5t35 -75.5q0 -58 -56 -86q64 -26 64 -90z" />
    <glyph glyph-name="fiveeighths" unicode="&#x215d;" horiz-adv-x="799" 
d="M584 621l-325 -633l-70 35l325 633zM759 106q0 -53 -40.5 -82.5t-105.5 -29.5q-67 0 -105 30.5t-38 81.5q0 62 70 97q-62 30 -62 90q0 44 36.5 74t99.5 30q62 0 99.5 -26t37.5 -76q0 -35 -20 -57.5t-42 -32.5q70 -28 70 -99zM645 288q0 16 -9.5 25.5t-21.5 9.5t-21.5 -9
t-9.5 -25q0 -29 35 -45q27 18 27 44zM650 110q0 38 -42 56q-29 -23 -29 -52q0 -19 11.5 -30.5t25.5 -11.5q15 0 24.5 10.5t9.5 27.5zM311 392q0 -59 -43 -97.5t-117 -38.5q-64 0 -125 39l38 75q42 -27 75 -27q26 0 41 12t15 32q0 45 -56 45q-23 0 -43 -10l-46 22l24 210h221
v-84h-128l-7 -60q18 5 38 5q50 0 81.5 -30t31.5 -93z" />
    <glyph glyph-name="seveneighths" unicode="&#x215e;" horiz-adv-x="746" 
d="M531 621l-325 -633l-70 35l325 633zM706 106q0 -53 -40.5 -82.5t-105.5 -29.5q-67 0 -105 30.5t-38 81.5q0 62 70 97q-62 30 -62 90q0 44 36.5 74t99.5 30q62 0 99.5 -26t37.5 -76q0 -35 -20 -57.5t-42 -32.5q70 -28 70 -99zM592 288q0 16 -9.5 25.5t-21.5 9.5t-21.5 -9
t-9.5 -25q0 -29 35 -45q27 18 27 44zM597 110q0 38 -42 56q-29 -23 -29 -52q0 -19 11.5 -30.5t25.5 -11.5q15 0 24.5 10.5t9.5 27.5zM308 584l-137 -322h-115l139 307h-165v85h278v-70z" />
    <glyph glyph-name="partialdiff" unicode="&#x2202;" horiz-adv-x="481" 
d="M461 256q0 -129 -56 -197.5t-165 -68.5q-104 0 -162 64t-58 164q0 98 50.5 155.5t123.5 57.5q53 0 86 -35q-64 119 -199 163l58 120q157 -54 239.5 -164t82.5 -259zM299 224q0 53 -16 79t-42 26t-42 -26.5t-16 -78.5t16 -78t42 -26t42 26t16 78z" />
    <glyph glyph-name="Delta" unicode="&#x2206;" horiz-adv-x="560" 
d="M172 633h225l163 -633h-560zM351 145l-70 301l-71 -301h141z" />
    <glyph glyph-name="product" unicode="&#x220f;" horiz-adv-x="477" 
d="M460 -192h-206v112h26v622h-84v-622h26v-112h-206v112h60v622h-60v112h444v-112h-60v-622h60v-112z" />
    <glyph glyph-name="summation" unicode="&#x2211;" horiz-adv-x="477" 
d="M457 -192h-439v96l181 346l-177 312v92h427v-252h-115v137h-141l159 -289l-167 -327h157v169h115v-284z" />
    <glyph glyph-name="minus" unicode="&#x2212;" horiz-adv-x="483" 
d="M432 252h-381v125h381v-125z" />
    <glyph glyph-name="uni2215" unicode="&#x2215;" horiz-adv-x="239" 
d="M319 621l-325 -633l-70 35l325 633z" />
    <glyph glyph-name="uni2219" unicode="&#x2219;" horiz-adv-x="239" 
d="M201 254q0 -36 -23 -59.5t-59 -23.5q-37 0 -59.5 23.5t-22.5 59.5t22.5 59.5t59.5 23.5q36 0 59 -23.5t23 -59.5z" />
    <glyph glyph-name="radical" unicode="&#x221a;" horiz-adv-x="483" 
d="M473 520h-73l-122 -520h-147l-74 254h-46v116h151l43 -198l86 463h182v-115z" />
    <glyph glyph-name="infinity" unicode="&#x221e;" horiz-adv-x="483" 
d="M480 313q0 -56 -37.5 -92.5t-92.5 -36.5q-60 0 -110 56q-45 -56 -111 -56q-53 0 -90 36.5t-37 91.5q0 56 38 92.5t95 36.5q61 0 105 -56q52 56 113 56q53 0 90 -36.5t37 -91.5zM375 313q0 17 -11 27t-25 10q-26 0 -53 -37q24 -39 54 -39q13 0 24 10.5t11 28.5zM196 312
q-25 38 -52 38q-15 0 -26 -9t-11 -27t11 -29t24 -11q32 0 54 38z" />
    <glyph glyph-name="integral" unicode="&#x222b;" horiz-adv-x="477" 
d="M380 646l-16 -103q-18 9 -30 9q-17 0 -25 -9t-9.5 -22t-1.5 -44v-539q0 -63 -33.5 -99.5t-103.5 -36.5q-33 0 -64 14l16 103q27 -9 30 -9q25 0 30.5 16t5.5 59v538q0 60 31 98.5t99 38.5q43 0 71 -14z" />
    <glyph glyph-name="approxequal" unicode="&#x2248;" horiz-adv-x="483" 
d="M446 168q-67 -54 -122 -54q-38 0 -86 20.5t-70 20.5q-35 0 -83 -32l-49 88q61 49 129 49q43 0 91 -20.5t62 -20.5q33 0 79 33zM446 384q-66 -53 -122 -53q-38 0 -86 20t-70 20q-11 0 -22.5 -2.5t-21 -7t-16 -7.5t-14.5 -8.5t-9 -5.5l-49 87q59 49 130 49q43 0 90.5 -20
t61.5 -20q37 0 79 33z" />
    <glyph glyph-name="notequal" unicode="&#x2260;" horiz-adv-x="483" 
d="M110 59l19 73h-78v125h112l20 76h-132v125h165l24 88h121l-24 -88h95v-125h-128l-21 -76h149v-125h-182l-19 -73h-121z" />
    <glyph glyph-name="lessequal" unicode="&#x2264;" horiz-adv-x="483" 
d="M432 0h-381v125h381v-125zM431 147l-378 159v116l378 159v-124l-241 -93l241 -93v-124z" />
    <glyph glyph-name="greaterequal" unicode="&#x2265;" horiz-adv-x="483" 
d="M432 0h-381v125h381v-125zM430 306l-378 -159v124l240 92l-240 94v124l378 -159v-116z" />
    <glyph glyph-name="lozenge" unicode="&#x25ca;" horiz-adv-x="483" 
d="M255 -16h-25l-212 335l211 344h26l210 -344zM324 318l-82 148l-83 -147l83 -147z" />
    <glyph glyph-name="zero.fitted" unicode="&#xe097;" horiz-adv-x="513" 
d="M477 323q0 -332 -220 -332q-221 0 -221 331q0 171 57 247t164 76q106 0 163 -76t57 -246zM315 323q0 105 -12.5 151.5t-45.5 46.5q-34 0 -46 -46t-12 -152q0 -105 12 -151.5t46 -46.5q33 0 45.5 47t12.5 151z" />
    <glyph glyph-name="two.fitted" unicode="&#xe098;" horiz-adv-x="471" 
d="M433 0h-408q5 86 28.5 143t100.5 137q46 49 60.5 65t29 42t14.5 49q0 31 -19 50t-53 19q-48 0 -110 -46l-66 118q96 68 202 68q107 0 158.5 -53t51.5 -130q0 -58 -24.5 -107t-55 -78t-64.5 -64.5t-46 -64.5h201v-148z" />
    <glyph glyph-name="three.fitted" unicode="&#xe099;" horiz-adv-x="483" 
d="M442 191q0 -82 -61 -141t-182 -59q-124 0 -195 67l77 113q45 -39 108 -39q39 0 60.5 17.5t21.5 46.5q0 64 -100 64h-49v135h49q88 0 88 57q0 28 -19.5 41.5t-48.5 13.5q-60 0 -109 -44l-58 119q30 24 82.5 43.5t116.5 19.5q94 0 147.5 -44.5t53.5 -117.5q0 -103 -99 -145
q49 -14 83 -50t34 -97z" />
    <glyph glyph-name="four.fitted" unicode="&#xe09a;" horiz-adv-x="500" 
d="M479 132h-60v-132h-160v132h-239v125l203 378h196v-382h60v-121zM259 253v232l-116 -232h116z" />
    <glyph glyph-name="five.fitted" unicode="&#xe09b;" horiz-adv-x="478" 
d="M445 209q0 -92 -66 -155t-180 -63q-95 0 -187 64l64 114q65 -45 121 -45q42 0 65.5 23.5t23.5 58.5q0 81 -90 81q-40 0 -76 -17l-68 36l37 329h332v-131h-208l-11 -106q25 9 70 9q77 0 125 -47.5t48 -150.5z" />
    <glyph glyph-name="six.fitted" unicode="&#xe09c;" horiz-adv-x="507" 
d="M482 215q0 -99 -59 -161.5t-162 -62.5q-106 0 -165.5 79t-59.5 234q0 48 8 94.5t28 91.5t49 79t75 55t103 21q94 0 169 -50l-60 -120q-45 33 -94 33q-53 0 -83.5 -31.5t-32.5 -110.5q46 38 112 38q79 0 125.5 -49.5t46.5 -139.5zM321 203q0 81 -65 81q-17 0 -31.5 -7
t-20.5 -15l-6 -7q0 -69 18 -102t46 -33q27 0 43 21t16 62z" />
    <glyph glyph-name="seven.fitted" unicode="&#xe09d;" horiz-adv-x="427" 
d="M411 519l-198 -519h-166l207 516h-234v119h391v-116z" />
    <glyph glyph-name="eight.fitted" unicode="&#xe09e;" horiz-adv-x="511" 
d="M471 174q0 -89 -64 -136t-154 -47q-98 0 -155.5 47t-57.5 136q0 102 105 160q-24 12 -41 24.5t-34 44t-17 72.5q0 75 56 122.5t146 47.5q88 0 145.5 -43t57.5 -124q0 -55 -29 -90t-64 -51q43 -18 74.5 -59t31.5 -104zM303 465q0 29 -13.5 44.5t-35.5 15.5
q-21 0 -34 -14.5t-13 -41.5t16.5 -47t37.5 -28q42 30 42 71zM311 183q0 21 -6.5 37t-20 27.5t-19.5 15t-20 10.5q-45 -35 -45 -86q0 -33 17 -51.5t41 -18.5q22 0 37.5 18t15.5 48z" />
    <glyph glyph-name="nine.fitted" unicode="&#xe09f;" horiz-adv-x="507" 
d="M471 330q0 -156 -73 -247.5t-194 -91.5q-99 0 -173 49l60 121q48 -32 98 -32q115 0 121 141q-39 -39 -111 -39q-79 0 -126.5 47.5t-47.5 141.5q0 100 58 162.5t161 62.5q107 0 167 -80t60 -235zM309 380q0 135 -66 135q-26 0 -41.5 -21t-15.5 -62t17.5 -61t45.5 -20
q36 0 60 29z" />
    <glyph glyph-name="zero.taboldstyle" unicode="&#xe100;" horiz-adv-x="485" 
d="M466 242q0 -122 -60 -186.5t-163 -64.5t-163.5 64.5t-60.5 186.5q0 123 60 187.5t164 64.5q103 0 163 -65t60 -187zM301 243q0 123 -58 123q-59 0 -59 -123q0 -119 59 -119q58 0 58 119z" />
    <glyph glyph-name="one.taboldstyle" unicode="&#xe101;" horiz-adv-x="485" 
d="M355 0h-165v307q-34 -27 -93 -41l-43 125q112 28 166 103h135v-494z" />
    <glyph glyph-name="two.taboldstyle" unicode="&#xe102;" horiz-adv-x="485" 
d="M441 0h-420q5 88 40 144t120 104q65 37 77 51q8 10 8 21q0 39 -65 39q-62 0 -129 -39l-47 122q93 52 197 52q110 0 163 -43t53 -114q0 -33 -10 -58.5t-33 -45.5t-39.5 -30.5t-49.5 -28.5q-7 -4 -11 -6q-26 -15 -33 -24h179v-144z" />
    <glyph glyph-name="three.taboldstyle" unicode="&#xe103;" horiz-adv-x="485" 
d="M437 31q0 -91 -65.5 -143.5t-178.5 -52.5q-103 0 -188 60l74 117q47 -36 105 -36q39 0 60.5 17.5t21.5 46.5q0 66 -94 66h-47v134h50q84 0 84 57q0 29 -19 44t-48 15q-58 0 -108 -40l-56 119q91 59 195 59q94 0 147.5 -45t53.5 -119q0 -101 -101 -146q48 -14 81 -51
t33 -102z" />
    <glyph glyph-name="four.taboldstyle" unicode="&#xe104;" horiz-adv-x="485" 
d="M469 1h-60v-140h-160v140h-239v125l203 359h196v-362h60v-122zM249 123v214l-113 -214h113z" />
    <glyph glyph-name="five.taboldstyle" unicode="&#xe105;" horiz-adv-x="485" 
d="M446 53q0 -92 -65.5 -155t-179.5 -63q-94 0 -184 64l63 114q67 -45 118 -45q42 0 65 23.5t23 58.5q0 81 -88 81q-34 0 -75 -15l-67 34l38 335h322v-131h-199l-11 -112q25 9 66 9q76 0 125 -48t49 -150z" />
    <glyph glyph-name="six.taboldstyle" unicode="&#xe106;" horiz-adv-x="485" 
d="M468 214q0 -98 -61.5 -161t-163.5 -63q-104 0 -161.5 79t-57.5 235q0 163 74.5 249.5t185.5 86.5q96 0 169 -49l-61 -120q-45 33 -97 33q-105 0 -109 -141q46 38 109 38q79 0 126 -48.5t47 -138.5zM307 202q0 79 -64 79q-31 0 -56 -28q0 -133 61 -133q59 0 59 82z" />
    <glyph glyph-name="seven.taboldstyle" unicode="&#xe107;" horiz-adv-x="485" 
d="M436 369l-222 -539h-165l230 528h-234v127h391v-116z" />
    <glyph glyph-name="eight.taboldstyle" unicode="&#xe108;" horiz-adv-x="485" 
d="M457 173q0 -89 -63.5 -136t-154.5 -47q-97 0 -154.5 47t-57.5 136q0 101 106 158q-92 43 -92 140q0 75 55 122t146 47q88 0 145 -42.5t57 -123.5q0 -96 -93 -140q44 -20 75 -59t31 -102zM289 461q0 29 -13 44t-35 15q-21 0 -33.5 -14t-12.5 -41t16 -46.5t37 -28.5
q41 32 41 71zM297 182q0 21 -6.5 37t-20 26.5t-19.5 14t-20 10.5q-43 -34 -43 -84q0 -33 16.5 -51t40.5 -18q22 0 37 17.5t15 47.5z" />
    <glyph glyph-name="nine.taboldstyle" unicode="&#xe109;" horiz-adv-x="485" 
d="M463 179q0 -160 -71 -252t-195 -92q-93 0 -171 50l61 121q48 -32 102 -32q48 0 78 31.5t35 111.5q-45 -37 -110 -37q-79 0 -125.5 49t-46.5 140q0 98 58.5 161.5t161.5 63.5q106 0 164.5 -79.5t58.5 -235.5zM301 228q-3 136 -64 136q-25 0 -40 -21.5t-15 -61.5
q0 -82 60 -82q30 0 59 29z" />
    <glyph glyph-name="zero.denominator" unicode="&#xe10a;" 
d="M326 197q0 -102 -41 -152.5t-110 -50.5q-70 0 -111 50t-41 152t40.5 149.5t111.5 47.5q70 0 110.5 -47.5t40.5 -148.5zM212 197q0 110 -37 110q-20 0 -28.5 -26t-8.5 -84t8.5 -84t28.5 -26q37 0 37 110z" />
    <glyph glyph-name="one.denominator" unicode="&#xe10b;" 
d="M253 0h-124v256q-28 -20 -62 -28l-31 90q29 9 65 30t56 43h96v-391z" />
    <glyph glyph-name="two.denominator" unicode="&#xe10c;" 
d="M305 0h-269q0 56 15 95.5t60 77.5t59.5 56t14.5 36q0 37 -43 37q-40 0 -73 -29l-37 83q59 39 138 39q70 0 102 -31.5t32 -81.5q0 -42 -22.5 -74t-67.5 -64q-39 -28 -42 -41h133v-103z" />
    <glyph glyph-name="three.denominator" unicode="&#xe10d;" 
d="M306 115q0 -54 -43.5 -87.5t-115.5 -33.5q-70 0 -124 27l37 85q36 -18 75 -18q24 0 37.5 9.5t13.5 23.5q0 34 -50 34h-45v84h47q20 0 31.5 9.5t11.5 23.5t-11 23t-31 9q-41 0 -70 -21l-31 82q58 31 127 31q63 0 98 -29.5t35 -75.5q0 -58 -56 -86q64 -26 64 -90z" />
    <glyph glyph-name="four.denominator" unicode="&#xe10e;" 
d="M328 70h-42v-70h-110v70h-161v89l137 232h134v-239h42v-82zM176 152v135l-72 -135h72z" />
    <glyph glyph-name="five.denominator" unicode="&#xe10f;" 
d="M311 130q0 -59 -43 -97.5t-117 -38.5q-64 0 -125 39l38 75q42 -27 75 -27q26 0 41 12t15 32q0 45 -56 45q-23 0 -43 -10l-46 22l24 210h221v-84h-128l-7 -60q18 5 38 5q50 0 81.5 -30t31.5 -93z" />
    <glyph glyph-name="six.denominator" unicode="&#xe110;" 
d="M325 132q0 -60 -39 -99t-108 -39t-108.5 47t-39.5 145q0 96 43.5 152.5t128.5 56.5q67 0 115 -32l-39 -75q-26 20 -67 20q-31 0 -50.5 -20t-20.5 -61q32 23 74 23q50 0 80.5 -31.5t30.5 -86.5zM215 127q0 46 -39 46q-9 0 -18 -4.5t-14 -8.5l-4 -5q0 -77 40 -77
q15 0 25 12t10 37z" />
    <glyph glyph-name="seven.denominator" unicode="&#xe111;" 
d="M308 322l-137 -322h-115l139 307h-165v85h278v-70z" />
    <glyph glyph-name="eight.denominator" unicode="&#xe112;" 
d="M320 106q0 -53 -40.5 -82.5t-105.5 -29.5q-67 0 -105 30.5t-38 81.5q0 62 70 97q-62 30 -62 90q0 44 36.5 74t99.5 30q62 0 99.5 -26t37.5 -76q0 -35 -20 -57.5t-42 -32.5q70 -28 70 -99zM206 288q0 16 -9.5 25.5t-21.5 9.5t-21.5 -9t-9.5 -25q0 -29 35 -45q27 18 27 44z
M211 110q0 38 -42 56q-29 -23 -29 -52q0 -19 11.5 -30.5t25.5 -11.5q15 0 24.5 10.5t9.5 27.5z" />
    <glyph glyph-name="nine.denominator" unicode="&#xe113;" 
d="M25 255q0 60 39 100t108 40q148 0 148 -189q0 -96 -45.5 -154t-130.5 -58q-66 0 -114 32l39 75q27 -21 67 -21q31 0 52 20.5t22 61.5q-32 -23 -74 -23q-51 0 -81 30.5t-30 85.5zM135 262q0 -46 39 -46q9 0 18 4.5t14 9.5l4 4q0 77 -40 77q-15 0 -25 -12t-10 -37z" />
    <glyph glyph-name="zero.numerator" unicode="&#xe11e;" 
d="M326 459q0 -102 -41 -152.5t-110 -50.5q-70 0 -111 50t-41 152t40.5 149.5t111.5 47.5q70 0 110.5 -47.5t40.5 -148.5zM212 459q0 110 -37 110q-20 0 -28.5 -26t-8.5 -84t8.5 -84t28.5 -26q37 0 37 110z" />
    <glyph glyph-name="one.numerator" unicode="&#xe11f;" 
d="M253 262h-124v256q-28 -20 -62 -28l-31 90q29 9 65 30t56 43h96v-391z" />
    <glyph glyph-name="two.numerator" unicode="&#xe120;" 
d="M305 262h-269q0 56 15 95.5t60 77.5t59.5 56t14.5 36q0 37 -43 37q-40 0 -73 -29l-37 83q58 39 138 39q70 0 102 -31.5t32 -81.5q0 -42 -22.5 -74t-67.5 -64q-39 -28 -42 -41h133v-103z" />
    <glyph glyph-name="three.numerator" unicode="&#xe121;" 
d="M306 377q0 -54 -43.5 -87.5t-115.5 -33.5q-70 0 -124 27l37 85q36 -18 75 -18q24 0 37.5 9.5t13.5 23.5q0 34 -50 34h-45v84h47q20 0 31.5 9.5t11.5 23.5t-11 23t-31 9q-41 0 -70 -21l-31 82q58 31 127 31q63 0 98 -29.5t35 -75.5q0 -58 -56 -86q64 -26 64 -90z" />
    <glyph glyph-name="four.numerator" unicode="&#xe122;" 
d="M328 332h-42v-70h-110v70h-161v89l137 232h134v-239h42v-82zM176 414v135l-72 -135h72z" />
    <glyph glyph-name="five.numerator" unicode="&#xe123;" 
d="M311 392q0 -59 -43 -97.5t-117 -38.5q-64 0 -125 39l38 75q42 -27 75 -27q26 0 41 12t15 32q0 45 -56 45q-23 0 -43 -10l-46 22l24 210h221v-84h-128l-7 -60q18 5 38 5q50 0 81.5 -30t31.5 -93z" />
    <glyph glyph-name="six.numerator" unicode="&#xe124;" 
d="M325 394q0 -60 -39 -99t-108 -39t-108.5 47t-39.5 145q0 96 43.5 152.5t128.5 56.5q67 0 115 -32l-39 -75q-26 20 -67 20q-31 0 -50.5 -20t-20.5 -61q32 23 74 23q50 0 80.5 -31.5t30.5 -86.5zM215 389q0 46 -39 46q-9 0 -18 -4.5t-14 -8.5l-4 -5q0 -77 40 -77
q15 0 25 12t10 37z" />
    <glyph glyph-name="seven.numerator" unicode="&#xe125;" 
d="M308 584l-137 -322h-115l139 307h-165v85h278v-70z" />
    <glyph glyph-name="eight.numerator" unicode="&#xe126;" 
d="M320 368q0 -53 -40.5 -82.5t-105.5 -29.5q-67 0 -105 30.5t-38 81.5q0 62 70 97q-62 30 -62 90q0 44 36.5 74t99.5 30q62 0 99.5 -26t37.5 -76q0 -35 -20 -57.5t-42 -32.5q70 -28 70 -99zM206 550q0 16 -9.5 25.5t-21.5 9.5t-21.5 -9t-9.5 -25q0 -29 35 -45q27 18 27 44z
M211 372q0 38 -42 56q-29 -23 -29 -52q0 -19 11.5 -30.5t25.5 -11.5q15 0 24.5 10.5t9.5 27.5z" />
    <glyph glyph-name="nine.numerator" unicode="&#xe127;" 
d="M25 517q0 60 39 100t108 40q148 0 148 -189q0 -96 -45.5 -154t-130.5 -58q-66 0 -114 32l39 75q27 -21 67 -21q31 0 52 20.5t22 61.5q-32 -23 -74 -23q-51 0 -81 30.5t-30 85.5zM135 524q0 -46 39 -46q9 0 18 4.5t14 9.5l4 4q0 77 -40 77q-15 0 -25 -12t-10 -37z" />
    <glyph glyph-name="guillemotleft.cap" unicode="&#xe134;" horiz-adv-x="534" 
d="M515 178l-103 -63l-138 182v54l138 183l103 -62l-115 -147zM268 178l-102 -63l-138 182v54l138 183l102 -62l-115 -147z" />
    <glyph glyph-name="guillemotright.cap" unicode="&#xe135;" horiz-adv-x="534" 
d="M20 471l102 63l138 -181v-54l-138 -184l-102 62l115 147zM266 471l102 63l138 -181v-54l-138 -184l-102 62l115 147z" />
    <glyph glyph-name="guilsinglleft.cap" unicode="&#xe136;" horiz-adv-x="288" 
d="M268 178l-102 -63l-138 182v54l138 183l102 -62l-115 -147z" />
    <glyph glyph-name="guilsinglright.cap" unicode="&#xe137;" horiz-adv-x="288" 
d="M260 299l-138 -184l-102 62l115 147l-115 147l102 63l138 -181v-54z" />
    <glyph glyph-name="braceleft.cap" unicode="&#xe139;" horiz-adv-x="308" 
d="M297 -2l-4 -91l-94 4q-68 3 -91 35.5t-27 95.5l-8 117q-4 62 -15.5 83t-35.5 21h-9v114h8q23 0 34.5 22t16.5 82l9 118q4 62 27 95t87 36l98 5l4 -92l-32 -1q-27 -1 -37.5 -17.5t-14.5 -63.5l-10 -122q-5 -59 -21 -84.5t-58 -32.5v-4q41 -6 58 -33t21 -83l10 -122
q3 -44 14.5 -61t37.5 -19z" />
    <glyph glyph-name="braceright.cap" unicode="&#xe13a;" horiz-adv-x="308" 
d="M310 263h-8q-23 0 -34.5 -22t-15.5 -76l-9 -122q-5 -66 -28 -98.5t-87 -34.5l-96 -4l-4 92l34 2q25 1 35.5 20t14.5 59l11 123q5 57 20.5 83.5t55.5 32.5v4q-40 6 -55.5 32.5t-20.5 84.5l-12 129q-4 41 -14.5 57t-37.5 17l-31 1l4 91l98 -4q61 -2 84 -32.5t29 -98.5
l10 -122q6 -62 16.5 -81t33.5 -19h7v-114z" />
    <glyph glyph-name="bracketleft.cap" unicode="&#xe13b;" horiz-adv-x="313" 
d="M283 -91h-230v823h230v-91h-94v-641h94v-91z" />
    <glyph glyph-name="bracketright.cap" unicode="&#xe13c;" horiz-adv-x="313" 
d="M260 -91h-230v91h95v641h-95v91h230v-823z" />
    <glyph glyph-name="emdash.cap" unicode="&#xe13d;" horiz-adv-x="676" 
d="M655 265h-634v144h634v-144z" />
    <glyph glyph-name="endash.cap" unicode="&#xe13e;" horiz-adv-x="391" 
d="M369 265h-348v144h348v-144z" />
    <glyph glyph-name="hyphen.cap" unicode="&#xe13f;" horiz-adv-x="285" 
d="M264 265h-243v144h243v-144z" />
    <glyph glyph-name="parenleft.cap" unicode="&#xe140;" horiz-adv-x="307" 
d="M281 -56l-85 -60q-26 26 -51.5 60.5t-56 90t-49 131.5t-18.5 158t18.5 158t49 131t56 89.5t51.5 61.5l85 -60q-23 -34 -37.5 -60t-38 -77t-36 -113t-12.5 -130q0 -196 124 -380z" />
    <glyph glyph-name="parenright.cap" unicode="&#xe141;" horiz-adv-x="307" 
d="M281 324q0 -82 -18.5 -158t-48.5 -131.5t-54 -89.5t-49 -61l-86 63q121 180 121 377q0 68 -12 129.5t-35 112t-37.5 76.5t-36.5 59l86 63q170 -187 170 -440z" />
    <glyph glyph-name="exclamdown.cap" unicode="&#xe142;" horiz-adv-x="272" 
d="M54 -5l20 426h124l21 -426h-165zM54 558q0 36 23 59t59 23q37 0 59.5 -23t22.5 -59q0 -37 -22.5 -60.5t-59.5 -23.5t-59.5 23.5t-22.5 60.5z" />
    <glyph glyph-name="questiondown.cap" unicode="&#xe143;" horiz-adv-x="403" 
d="M16 146q0 88 93 161q39 30 47 48t8 66h135v-48q1 -39 -8 -58.5t-46 -50.5l-18 -15t-16 -13t-12.5 -10.5t-11 -11t-7.5 -10t-6.5 -11t-3 -10.5t-1.5 -13q0 -21 17.5 -34t45.5 -13q47 0 104 35l55 -118q-95 -55 -189 -55q-95 0 -140.5 47t-45.5 114zM150 558q0 36 22.5 59
t59.5 23q36 0 59 -23t23 -59q0 -37 -22.5 -60.5t-59.5 -23.5t-59.5 23.5t-22.5 60.5z" />
    <glyph glyph-name="periodcentered.cap" unicode="&#xe22b;" horiz-adv-x="239" 
d="M201 309q0 -36 -23 -59.5t-59 -23.5q-37 0 -59.5 23.5t-22.5 59.5t22.5 59.5t59.5 23.5q36 0 59 -23.5t23 -59.5z" />
    <glyph glyph-name="Euro.oldstyle" unicode="&#xe506;" horiz-adv-x="485" 
d="M14 254v77h60q21 75 76 114.5t135 39.5q100 0 160 -57l-84 -88q-28 31 -68 31q-48 0 -68 -40h95v-77h-109v-35h109v-77h-92q19 -34 64 -34q36 0 68 29l85 -76q-62 -71 -168 -71q-167 0 -205 152h-58v77h48v35h-48z" />
    <glyph glyph-name="sterling.oldstyle" unicode="&#xe508;" horiz-adv-x="448" 
d="M405 0h-355v99l57 10q10 20 10 49q0 3 -4 35h-62v79h46q-10 47 -10 65q0 62 45.5 105t139.5 43q80 0 139 -31l-45 -103q-34 20 -75 20q-30 0 -45.5 -15.5t-15.5 -41.5q0 -10 8 -42h109v-79h-94q3 -12 3 -25q0 -29 -13 -57h162v-111z" />
    <glyph glyph-name="yen.oldstyle" unicode="&#xe509;" horiz-adv-x="483" 
d="M466 475l-108 -213h85v-75h-120l-4 -7v-31h124v-74h-124v-75h-154v75h-125v74h125v31l-4 7h-121v75h84l-107 213h166l60 -166l61 166h162z" />
    <glyph glyph-name="florin.oldstyle" unicode="&#xe50a;" horiz-adv-x="436" 
d="M438 544l-32 -112q-20 8 -41 8q-43 0 -52 -56l-6 -37h80v-99h-96l-19 -144q-13 -97 -61 -140.5t-117 -43.5q-58 0 -95 21l30 109q26 -13 44 -13q24 0 37 18t18 59l17 134h-66v99h81l9 55q26 161 170 161q59 0 99 -19z" />
    <glyph glyph-name="perthousand.oldstyle" unicode="&#xe900;" horiz-adv-x="1012" 
d="M987 140q0 -71 -36.5 -110.5t-97.5 -39.5q-62 0 -98.5 39t-36.5 111q0 73 36.5 112t98.5 39q61 0 97.5 -38.5t36.5 -112.5zM888 140q0 71 -35 71t-35 -71q0 -67 35 -67t35 67zM294 326q0 -71 -36.5 -110.5t-97.5 -39.5q-62 0 -98.5 39t-36.5 111q0 73 36.5 112t98.5 39
q61 0 97.5 -38.5t36.5 -112.5zM195 326q0 71 -35 71t-35 -71q0 -67 35 -67t35 67zM196 14l241 468l74 -36l-241 -468zM689 140q0 -71 -36.5 -110.5t-97.5 -39.5q-62 0 -98.5 39t-36.5 111q0 73 36.5 112t98.5 39q61 0 97.5 -38.5t36.5 -112.5zM590 140q0 71 -35 71t-35 -71
q0 -67 35 -67t35 67z" />
    <glyph glyph-name="one.fitted" unicode="&#xf6dc;" horiz-adv-x="393" 
d="M304 0h-165v449q-34 -27 -93 -41l-43 125q112 28 166 103h135v-636z" />
    <glyph glyph-name="dollar.oldstyle" unicode="&#xf724;" horiz-adv-x="436" 
d="M178 -89l2 81q-98 10 -149 53l52 100q39 -33 101 -42l3 86q-72 18 -109 51.5t-37 93.5q0 62 41.5 102t113.5 47l3 71h63l-3 -71q92 -8 139 -45l-52 -101q-45 31 -90 38l-3 -85q78 -21 113 -54t35 -87q0 -62 -38.5 -106.5t-119.5 -50.5l-2 -81h-63zM281 141q0 21 -32 33
l-2 -70q34 8 34 37zM161 339q0 -20 30 -32l2 66q-32 -8 -32 -34z" />
    <glyph glyph-name="zero.oldstyle" unicode="&#xf730;" horiz-adv-x="509" 
d="M478 242q0 -122 -60 -186.5t-163 -64.5t-163.5 64.5t-60.5 186.5q0 123 60 187.5t164 64.5q103 0 163 -65t60 -187zM313 243q0 123 -58 123q-59 0 -59 -123q0 -119 59 -119q58 0 58 119z" />
    <glyph glyph-name="one.oldstyle" unicode="&#xf731;" horiz-adv-x="395" 
d="M309 0h-165v307q-34 -27 -93 -41l-43 125q112 28 166 103h135v-494z" />
    <glyph glyph-name="two.oldstyle" unicode="&#xf732;" horiz-adv-x="498" 
d="M448 0h-420q5 88 40 144t120 104q65 37 77 51q8 10 8 21q0 39 -65 39q-62 0 -129 -39l-47 122q93 52 197 52q110 0 163 -43t53 -114q0 -33 -10 -58.5t-33 -45.5t-39.5 -30.5t-49.5 -28.5q-7 -4 -11 -6q-26 -15 -33 -24h179v-144z" />
    <glyph glyph-name="three.oldstyle" unicode="&#xf733;" horiz-adv-x="471" 
d="M427 31q0 -91 -65.5 -143.5t-178.5 -52.5q-103 0 -188 60l74 117q47 -36 105 -36q39 0 60.5 17.5t21.5 46.5q0 66 -94 66h-47v134h50q84 0 84 57q0 29 -19 44t-48 15q-58 0 -108 -40l-56 119q91 59 195 59q94 0 147.5 -45t53.5 -119q0 -101 -101 -146q48 -14 81 -51
t33 -102z" />
    <glyph glyph-name="four.oldstyle" unicode="&#xf734;" horiz-adv-x="490" 
d="M472 1h-60v-140h-160v140h-239v125l203 359h196v-362h60v-122zM252 123v214l-113 -214h113z" />
    <glyph glyph-name="five.oldstyle" unicode="&#xf735;" horiz-adv-x="470" 
d="M440 53q0 -92 -65.5 -155t-179.5 -63q-94 0 -184 64l63 114q67 -45 118 -45q42 0 65 23.5t23 58.5q0 81 -88 81q-34 0 -75 -15l-67 34l38 335h322v-131h-199l-11 -112q25 9 66 9q76 0 125 -48t49 -150z" />
    <glyph glyph-name="six.oldstyle" unicode="&#xf736;" horiz-adv-x="500" 
d="M474 214q0 -98 -61.5 -161t-163.5 -63q-104 0 -161.5 79t-57.5 235q0 163 74.5 249.5t185.5 86.5q96 0 169 -49l-61 -120q-45 33 -97 33q-105 0 -109 -141q46 38 109 38q79 0 126 -48.5t47 -138.5zM313 202q0 79 -64 79q-31 0 -56 -28q0 -133 61 -133q59 0 59 82z" />
    <glyph glyph-name="seven.oldstyle" unicode="&#xf737;" horiz-adv-x="422" 
d="M408 369l-222 -539h-165l230 528h-234v127h391v-116z" />
    <glyph glyph-name="eight.oldstyle" unicode="&#xf738;" horiz-adv-x="498" 
d="M464 173q0 -89 -63.5 -136t-154.5 -47q-97 0 -154.5 47t-57.5 136q0 101 106 158q-92 43 -92 140q0 75 55 122t146 47q88 0 145 -42.5t57 -123.5q0 -96 -93 -140q44 -20 75 -59t31 -102zM296 461q0 29 -13 44t-35 15q-21 0 -33.5 -14t-12.5 -41t16 -46.5t37 -28.5
q41 32 41 71zM304 182q0 21 -6.5 37t-20 26.5t-19.5 14t-20 10.5q-43 -34 -43 -84q0 -33 16.5 -51t40.5 -18q22 0 37 17.5t15 47.5z" />
    <glyph glyph-name="nine.oldstyle" unicode="&#xf739;" horiz-adv-x="499" 
d="M468 179q0 -160 -71 -252t-195 -92q-93 0 -171 50l61 121q48 -32 102 -32q48 0 78 31.5t35 111.5q-45 -37 -110 -37q-79 0 -125.5 49t-46.5 140q0 98 58.5 161.5t161.5 63.5q106 0 164.5 -79.5t58.5 -235.5zM306 228q-3 136 -64 136q-25 0 -40 -21.5t-15 -61.5
q0 -82 60 -82q30 0 59 29z" />
    <glyph glyph-name="cent.oldstyle" unicode="&#xf7a2;" horiz-adv-x="460" 
d="M377 166l67 -88q-56 -56 -126 -70v-72h-78v69q-81 6 -139 64t-58 160q0 93 56 152.5t141 71.5v78h78v-79q40 -5 73.5 -22.5t50.5 -34.5l-70 -98q-29 25 -54 32v-198q29 7 59 35zM240 133v195q-56 -24 -56 -98q0 -75 56 -97z" />
    <glyph glyph-name="numbersign.oldstyle" unicode="&#xfe5f;" horiz-adv-x="449" 
d="M54 288v81h69l23 106h94l-23 -106h85l23 106h94l-23 -106h50v-81h-68l-21 -98h56v-80h-73l-23 -110h-94l23 110h-85l-23 -110h-94l23 110h-46v80h63l21 98h-51zM199 288l-21 -98h85l21 98h-85z" />
    <glyph glyph-name="percent.oldstyle" unicode="&#xfe6a;" horiz-adv-x="714" 
d="M689 140q0 -71 -36.5 -110.5t-97.5 -39.5q-62 0 -98.5 39t-36.5 111q0 73 36.5 112t98.5 39q61 0 97.5 -38.5t36.5 -112.5zM590 140q0 71 -35 71t-35 -71q0 -67 35 -67t35 67zM294 326q0 -71 -36.5 -110.5t-97.5 -39.5q-62 0 -98.5 39t-36.5 111q0 73 36.5 112t98.5 39
q61 0 97.5 -38.5t36.5 -112.5zM195 326q0 71 -35 71t-35 -71q0 -67 35 -67t35 67zM196 14l241 468l74 -36l-241 -468z" />
    </font>
</defs>
</svg>
