<?xml version="1.0" standalone="no"?>
<!DOCTYPE svg PUBLIC "-//W3C//DTD SVG 1.1//EN" "http://www.w3.org/Graphics/SVG/1.1/DTD/svg11.dtd" >
<svg>
<metadata>
Created by FontForge 20090914 at Fri Jun 14 16:00:22 2013
 By www-data
URW Software, Copyright 1994 by URW
</metadata>
<defs>
<font id="URWGroteskT-Ligh" horiz-adv-x="1024" >
  <font-face 
    font-family="URWGroteskTLig"
    font-weight="400"
    font-stretch="normal"
    units-per-em="2048"
    panose-1="2 11 5 2 3 5 3 2 2 4"
    ascent="1573"
    descent="-475"
    x-height="901"
    cap-height="1365"
    bbox="-350 -471.001 2066 1843"
    underline-thickness="89"
    underline-position="-134"
    unicode-range="U+0020-U+F002"
  />
<missing-glyph horiz-adv-x="512" 
d="M51 0v1365h410v-1365h-410zM410 51v1263h-308v-1263h308z" />
    <glyph glyph-name=".notdef" horiz-adv-x="512" 
d="M51 0v1365h410v-1365h-410zM410 51v1263h-308v-1263h308z" />
    <glyph glyph-name="space" unicode=" " horiz-adv-x="512" 
 />
    <glyph glyph-name="exclam" unicode="!" horiz-adv-x="492" 
d="M175 1365h143v-348l-24 -618h-95l-24 618v348zM247 191c29.333 0 54.667 -10.667 76 -32s32 -47 32 -77s-10.667 -55.667 -32 -77s-47 -32 -77 -32s-55.667 10.667 -77 32c-21.333 22 -32 47.667 -32 77c0 30 10.667 55.667 32 77s47.333 32 78 32z" />
    <glyph glyph-name="quotedbl" unicode="&#x22;" horiz-adv-x="675" 
d="M249 818h-116l-24 547h164zM541 818h-116l-24 547h164z" />
    <glyph glyph-name="numbersign" unicode="#" horiz-adv-x="886" 
d="M59 449h147l112 519h-155l26 121h154l58 276h87l-58 -276h197l58 276h86l-58 -276h149l-25 -121h-148l-103 -519h149l-25 -125h-150l-64 -324h-93l67 324h-198l-67 -324h-93l70 324h-150zM299 449h198l106 519h-198z" />
    <glyph glyph-name="dollar" unicode="$" horiz-adv-x="1111" 
d="M491 1516h95.001v-137c137.333 -4 241.333 -66.667 312 -188l-133 -110c-18.667 50.667 -41 89.667 -67 117c-16 16 -30.333 26.667 -43 32c-13.333 6.66699 -36.333 12.667 -69 18v-472c92 -48.667 165 -94.667 219 -138c92 -73.333 138 -162.333 138 -267
c0 -64 -17 -126.333 -51 -187c-43.333 -77.333 -104.666 -131.666 -183.999 -162.999c-30 -12 -70.667 -21.667 -122 -29v-208h-95v203c-175.333 2 -301.333 74.333 -378 217l148 115c20.667 -64 53 -114.333 97 -151c39.333 -30 83.666 -47 132.999 -51v515
c-90.667 46.667 -159.334 92 -206.001 136c-74 70 -111 154 -111 252c0 72 20.667 138.667 62 200c58.667 87.333 143.667 138.666 255 153.999v142zM491.001 1243c-40 -10 -73.332 -30.334 -99.999 -61.001c-34 -39.333 -51 -86.333 -51 -141
c0 -69.333 24 -123.666 72 -162.999c19.333 -16 45.666 -33 78.999 -51v416zM586.002 123.999c51.333 12 91.333 33 120 63c19.333 20 35 45.333 47 76s18 60.667 18 90c0 57.333 -25.667 110.333 -77 159c-30 28 -66 52.333 -108 73v-461z" />
    <glyph glyph-name="percent" unicode="%" horiz-adv-x="1540" 
d="M475 1373c93.333 0 164.333 -26.002 213 -78.002c54 -57.333 81 -140.666 81 -249.999c0 -108.667 -27 -191.667 -81 -249c-48.667 -52 -123 -78 -223 -78c-93.333 0 -164.333 26 -213 78c-54 58 -81 140.667 -81 248c0 110.667 27 194.334 81 251.001
c30.667 32 65.667 53.333 105 64c32.667 9.33301 72 14 118 14zM469 1294c-102 0 -152.999 -83.001 -152.999 -249.001c0 -69.333 8.33301 -124.333 25 -165c23.333 -55.333 67 -83 131 -83c63.333 0 106.666 27.667 129.999 83c16.667 40.667 25 95.334 25 164.001
c0 72 -8.33301 127.667 -25 167c-24 55.333 -68.333 83 -133 83zM1309 1437l-1070 -1649l-89 13l1074 1654zM1076 649.997c93.333 0 164.333 -26.002 213 -78.002c54 -57.333 81 -140.666 81 -249.999c0 -108.667 -27 -191.667 -81 -249c-48.667 -52 -123 -78 -223 -78
c-93.333 0 -164.333 26 -213 78c-54 57.333 -81 140 -81 248c0 110.667 27 194.334 81 251.001c30.667 32 65.667 53.667 105 65c32.667 8.66699 72 13 118 13zM1070 570.995c-102 0 -152.999 -83.001 -152.999 -249.001c0 -69.333 8.33301 -124.333 25 -165
c23.333 -55.333 67 -83 131 -83c63.333 0 106.666 27.667 129.999 83c16.667 40.667 25 95.334 25 164.001c0 71.333 -8.33301 127 -25 167c-24 55.333 -68.333 83 -133 83z" />
    <glyph glyph-name="ampersand" unicode="&#x26;" horiz-adv-x="1332" 
d="M1030 694h162.001c-6.66699 -82.667 -19.334 -153 -38.001 -211c-21.333 -63.333 -58 -134.666 -110 -213.999c52.667 -34.667 99.667 -59.667 141 -75c24 -9.33301 69.333 -23.666 136 -42.999l-112 -152c-58 26.667 -103.667 49 -137 67c-32.667 18 -75 46.333 -127 85
c-68 -55.333 -120.667 -93 -158 -113c-79.333 -43.333 -163.666 -65 -252.999 -65c-126.667 0 -231.334 42 -314.001 126c-78.667 80 -118 177 -118 291c0 98.667 33 181 99 247c41.333 42 100 79.333 176 112c-39.333 60.667 -66 110.334 -80 149.001
c-18.667 52.667 -28 102.334 -28 149.001c0 49.333 9.83301 97.166 29.5 143.499s46.167 84.166 79.5 113.499c66 58.667 150.667 88 254 88c89.333 0 162 -29.333 218 -88c48 -50.667 72 -114.334 72 -191.001c0 -106.667 -38 -194.667 -114 -264
c-48.667 -44.667 -120 -90.334 -214 -137.001c100 -143.333 214 -264.333 342 -363c34.667 55.333 58 104.333 70 147c16.667 56 25 110.333 25 163c0 8 -0.333008 19.667 -1 35zM510.001 815c74 32.667 128.332 61.667 162.999 87c73.333 52.667 110 119.667 110 201
c0 54 -18 98.333 -54 133c-25.333 24.667 -62.333 37 -111 37c-56.667 0 -102 -18.667 -136 -56c-40 -43.333 -60 -99 -60 -167c0 -42.667 9.33301 -87 28 -133c6.66699 -15.333 17.834 -36.5 33.501 -63.5s24.5 -39.833 26.5 -38.5zM456 643
c-54 -25.333 -93.667 -51.667 -119 -79c-50.667 -55.333 -76 -117.333 -76 -186c0 -59.333 21.667 -115.333 65 -168c58 -71.333 135.333 -107 232 -107c64 0 124.333 16 181 48c27.333 14.667 61.333 41.334 102 80.001c-73.333 61.333 -141.833 126.166 -205.5 194.499
s-123.5 140.833 -179.5 217.5z" />
    <glyph glyph-name="quotesingle" unicode="'" horiz-adv-x="383" 
d="M249 818h-116l-24 547h164z" />
    <glyph glyph-name="parenleft" unicode="(" horiz-adv-x="553" 
d="M404 1434l93.999 -0.00292969c-56.667 -65.333 -96.334 -122.666 -119.001 -171.999c-86.667 -188 -130 -444.667 -130 -770c0 -244 27 -457 81 -639c26 -86 57.667 -156.667 95 -212c14.667 -21.333 39 -51.666 73 -90.999h-94c-49.333 50 -87.666 95.667 -114.999 137
s-52.666 91 -75.999 149c-74 188.667 -111 407.334 -111 656.001s37 467.334 111 656.001c34 85.333 77.667 159.666 131 222.999c12.667 14.667 32.667 35.667 60 63z" />
    <glyph glyph-name="parenright" unicode=")" horiz-adv-x="552" 
d="M149 -450h-93.998c56 65.333 95.667 122.666 119 171.999c86.667 188.667 130 446 130 772c0 244 -27 456.333 -81 637c-26 86.667 -57.667 157.334 -95 212.001c-14.667 21.333 -39 51.666 -73 90.999h94c49.333 -50 87.666 -95.667 114.999 -137
s52.333 -91.333 75 -150c74 -186.667 111 -405 111 -655s-37 -468.667 -111 -656c-33.333 -85.333 -77 -159.666 -131 -222.999c-12.667 -14.667 -32.334 -35.667 -59.001 -63z" />
    <glyph glyph-name="asterisk" unicode="*" horiz-adv-x="833" 
d="M416 971l-205 -214l-33 25l164 250l-274 121l13 42l287 -73l28 312h40l29 -312l286 73l13 -42l-274 -121l159 -250l-27 -25z" />
    <glyph glyph-name="plus" unicode="+" horiz-adv-x="1065" 
d="M30 492h450v463h98v-463h457v-90h-457v-455h-98v455h-450v90z" />
    <glyph glyph-name="comma" unicode="," horiz-adv-x="464" 
d="M321 219l0.000976562 -219l-188 -283h-88l74 191c27.333 68.667 42.666 123.667 45.999 165v146h156z" />
    <glyph glyph-name="hyphen" unicode="-" horiz-adv-x="430" 
d="M0 548h430v-115h-430v115z" />
    <glyph glyph-name="period" unicode="." horiz-adv-x="464" 
d="M233 191c29.333 0 54.667 -10.667 76 -32s32 -47 32 -77s-10.667 -55.667 -32 -77s-47 -32 -77 -32s-55.667 10.667 -77 32s-32 47 -32 77s10.667 55.667 32 77s47.333 32 78 32z" />
    <glyph glyph-name="slash" unicode="/" horiz-adv-x="810" 
d="M763 1436l-758 -1907l-79 14l757 1911z" />
    <glyph glyph-name="zero" unicode="0" horiz-adv-x="1111" 
d="M562 1392c124 0 223.668 -45.335 299.001 -136.002c106.667 -129.333 160 -320.666 160 -573.999c0 -251.333 -53.333 -442.333 -160 -573c-74.667 -90.667 -176.667 -136 -306 -136c-128.667 0 -230.334 45.333 -305.001 136
c-106.667 130.667 -160 320.334 -160 569.001c0 258 53.333 450.667 160 578c76 90.667 180 136 312 136zM552.001 1262c-88.667 0 -155.001 -40.001 -199.001 -120.001c-61.333 -109.333 -92 -262.666 -92 -459.999c0 -196.667 30.667 -349.667 92 -459
c44 -80 111.667 -120 203 -120c90.667 0 158.334 40 203.001 120c60.667 109.333 91 261 91 455c0 203.333 -30.333 358 -91 464c-46 80 -115 120 -207 120z" />
    <glyph glyph-name="one" unicode="1" horiz-adv-x="1111" 
d="M765 1365l-0.000976562 -1365h-164v1080l-346 -13v79c112.667 12 190 26 232 42c56.667 22 102.334 54.333 137.001 97c13.333 16.667 30 43.334 50 80.001h91z" />
    <glyph glyph-name="two" unicode="2" horiz-adv-x="1111" 
d="M950 130l-0.000976562 -130.001h-787v113c190.667 203.333 319.667 353 387 449c122 172 183 331.333 183 478c0 76.667 -20.667 134 -62 172c-36 34 -83 51 -141 51c-70.667 0 -124.334 -26.333 -161.001 -79c-29.333 -42 -48.333 -104 -57 -186l-144 98
c28 76.667 53.667 131.334 77 164.001c64.667 88.667 159.334 133 284.001 133c108.667 0 196.667 -26 264 -78c74 -57.333 111 -146.333 111 -267c0 -126 -45 -258.667 -135 -398c-67.333 -103.333 -144.666 -207.333 -231.999 -312l-178 -208h591z" />
    <glyph glyph-name="three" unicode="3" horiz-adv-x="1111" 
d="M376 658l0.00195312 162.002c15.333 -0.666992 27 -1 35 -1c72 0 133.333 20.667 184 62c50.667 42 76 105.333 76 190c0 60.667 -15 108.334 -45 143.001c-30.667 34.667 -73.334 52 -128.001 52c-60 0 -106.333 -21.333 -139 -64c-18 -23.333 -35.333 -57.333 -52 -102
l-137 78c34.667 66.667 71.667 115 111 145c59.333 46 132.666 69 219.999 69c106 0 190.333 -30.333 253 -91c58.667 -56.667 88 -130.334 88 -221.001c0 -138 -67.667 -243.333 -203 -316c46.667 -10.667 83.334 -22.5 110.001 -35.5s52.667 -32.167 78 -57.5
c62 -62.667 93 -144.334 93 -245.001c0 -134.667 -42.333 -245.334 -127 -332.001c-80 -80.667 -184 -121 -312 -121c-97.333 0 -182 25 -254 75c-40 28 -86.333 75.667 -139 143l133 98c32 -53.333 61 -91.333 87 -114c49.333 -42.667 110.333 -64 183 -64
c92 0 161.667 34.667 209 104c34 49.333 51 113.333 51 192c0 82 -23 146.333 -69 193c-46.667 47.333 -106.334 71 -179.001 71c-32.667 0 -75 -4.33301 -127 -13z" />
    <glyph glyph-name="four" unicode="4" horiz-adv-x="1111" 
d="M832 1365v-929h188v-130h-188v-306h-150v306h-598v130l564 929h184zM682 1175l-426 -739h426v739z" />
    <glyph glyph-name="five" unicode="5" horiz-adv-x="1111" 
d="M931 1365l-0.000976562 -130.001h-483l-73 -437c27.333 22.667 50.333 38.667 69 48c42.667 21.333 92.334 32 149.001 32c116 0 210.333 -37.333 283 -112c72 -74.667 108 -173.667 108 -297c0 -133.333 -40 -248.666 -120 -345.999c-82 -100 -200.667 -150 -356 -150
c-98.667 0 -183 23.667 -253 71c-51.333 34.667 -99 89 -143 163l134 89c54.667 -129.333 139.334 -194 254.001 -194c91.333 0 167 32.667 227 98c58 63.333 87 146 87 248c0 100.667 -26 178 -78 232c-44 46 -103 69 -177 69c-54 0 -101 -14.333 -141 -43
c-18.667 -14 -41.334 -38.667 -68.001 -74l-127 59l100 674h608z" />
    <glyph glyph-name="six" unicode="6" horiz-adv-x="1112" 
d="M936 1296l-74.999 -133.999c-18.667 30 -37 51.333 -55 64c-34 24.667 -75.667 37 -125 37c-119.333 0 -214 -64.667 -284 -194c-32 -60 -55 -129.667 -69 -209c-6.66699 -37.333 -12.667 -93.333 -18 -168c42 48 81.667 82.333 119 103c56 30 118.667 45 188 45
c107.333 0 192.666 -33 255.999 -99c72.667 -74.667 109 -179.334 109 -314.001c0 -136.667 -40.667 -247.667 -122 -333c-76.667 -80.667 -171.667 -121 -285 -121c-102 0 -188.667 31.333 -260 94c-112.667 98.667 -169 268.667 -169 510c0 261.333 57 470 171 626
c56 75.333 127.667 129.333 215 162c48.667 18 100.667 27 156 27c56 0 105.667 -9.66699 149 -29c26.667 -10.667 59.667 -33 99 -67zM572.001 711.001c-81.333 0 -145 -28.333 -191 -85c-42.667 -52.667 -64 -122.667 -64 -210c0 -89.333 21.667 -164.333 65 -225
c42 -58.667 102.333 -88 181 -88c80 0 142 29.333 186 88c41.333 55.333 62 129 62 221c0 199.333 -79.667 299 -239 299z" />
    <glyph glyph-name="seven" unicode="7" horiz-adv-x="1111" 
d="M958 1365v-123l-554 -1242h-163l553 1235h-620v130h784z" />
    <glyph glyph-name="eight" unicode="8" horiz-adv-x="1111" 
d="M364 761c-116.667 70 -174.999 165.668 -174.999 287.001c0 109.333 35.333 195.333 106 258c64 57.333 151 86 261 86c110.667 0 198 -28.667 262 -86c70.667 -62.667 106 -148.334 106 -257.001c0 -122 -58.333 -218 -175 -288c62.667 -24.667 108.667 -54.667 138 -90
c57.333 -68.667 86 -160 86 -274c0 -130 -39 -235 -117 -315c-70.667 -72.667 -170.667 -109 -300 -109s-229.333 36.333 -300 109c-78 80 -117 185.333 -117 316c0 113.333 28.667 204.333 86 273c29.333 34.667 75.666 64.667 138.999 90zM554.001 1262
c-63.333 0 -113.999 -19 -151.999 -57c-40 -40 -60 -96.333 -60 -169c0 -72 20 -128.333 60 -169c37.333 -38 89 -57 155 -57c65.333 0 116.666 19 153.999 57c40 40.667 60 96.667 60 168c0 74 -20 130.667 -60 170c-38.667 38 -91 57 -157 57zM552.002 681.001
c-86 0 -148.999 -28.333 -188.999 -85c-38 -52.667 -57 -120.667 -57 -204c0 -82.667 19 -150.667 57 -204c40 -56.667 104.333 -85 193 -85s153 28.333 193 85c38 53.333 57 121 57 203c0 84.667 -19 153 -57 205c-40.667 56.667 -106.334 85 -197.001 85z" />
    <glyph glyph-name="nine" unicode="9" horiz-adv-x="1111" 
d="M156 16l38.999 142c48.667 -37.333 103.667 -56 165 -56c58 0 113.167 12.833 165.5 38.5s96.5 61.834 132.5 108.501c52 66.667 87 141 105 223c11.333 51.333 21.333 110.666 30 177.999c-47.333 -51.333 -93.666 -87.333 -138.999 -108
c-51.333 -23.333 -104.666 -35 -159.999 -35c-121.333 0 -214 43 -278 129c-58.667 78 -88 174 -88 288c0 136 35.333 246.667 106 332c74.667 90.667 180 136 316 136c150.667 0 257 -54.667 319 -164c57.333 -100.667 86 -248.667 86 -444
c0 -258.667 -55.667 -462 -167 -610c-61.333 -81.333 -141 -139 -239 -173c-54.667 -19.333 -114.334 -29 -179.001 -29c-84 0 -155.333 14.667 -214 44zM541.999 1262c-77.333 0 -136.666 -26.001 -177.999 -78.001c-43.333 -55.333 -65 -136.333 -65 -243
c0 -82 14 -149.333 42 -202c36.667 -68 97.667 -102 183 -102s152.333 32 201 96c39.333 52.667 59 121.334 59 206.001c0 103.333 -20 184 -60 242c-36.667 54 -97.334 81 -182.001 81z" />
    <glyph glyph-name="colon" unicode=":" horiz-adv-x="464" 
d="M233 191c29.333 0 54.667 -10.667 76 -32s32 -47 32 -77s-10.667 -55.667 -32 -77s-47 -32 -77 -32s-55.667 10.667 -77 32s-32 47 -32 77s10.667 55.667 32 77s47.333 32 78 32zM233.001 873c29.333 0 54.667 -10.667 76 -32c21.333 -20.667 32 -46.334 32 -77.001
c0 -30 -10.667 -55.667 -32 -77s-47 -32 -77 -32s-55.667 10.667 -77 32s-32 47 -32 77c0 30.667 10.667 56.334 32 77.001c21.333 21.333 47.333 32 78 32z" />
    <glyph glyph-name="semicolon" unicode=";" horiz-adv-x="464" 
d="M307 219l0.000976562 -219l-188 -283h-88l74 191c27.333 68.667 42.666 123.667 45.999 165v146h156zM226.001 914c30 0 55.333 -10.667 76 -32c21.333 -20.667 32 -46.334 32 -77.001c0 -30 -10.667 -55.667 -32 -77s-47 -32 -77 -32s-55.667 10.667 -77 32
s-32 47 -32 77c0 30.667 10.667 56.334 32 77.001c21.333 21.333 47.333 32 78 32z" />
    <glyph glyph-name="less" unicode="&#x3c;" horiz-adv-x="1051" 
d="M29 419v71l946 373l48 -76l-843 -335l843 -333l-71 -81z" />
    <glyph glyph-name="equal" unicode="=" horiz-adv-x="1106" 
d="M39 632h1028v-91h-1028v91zM39 360h1028v-91h-1028v91z" />
    <glyph glyph-name="greater" unicode="&#x3e;" horiz-adv-x="1051" 
d="M1023 483v-71l-923 -381l-71 81l843 333l-843 335l48 76z" />
    <glyph glyph-name="question" unicode="?" horiz-adv-x="691" 
d="M178 1100l-137.002 65.0029c24.667 70 58.334 122.667 101.001 158c56 46 126.333 69 211 69c81.333 0 146 -23 194 -69c58 -55.333 87 -125.333 87 -210c0 -72 -21.667 -140 -65 -204c-20 -30 -74.667 -93 -164 -189c-56 -60 -84 -115.333 -84 -166
c0 -66 25.667 -129.667 77 -191h-155c-44.667 51.333 -67 109.333 -67 174c0 57.333 15 110.666 45 159.999c20 33.333 59 78.333 117 135c65.333 63.333 107.333 114.666 126 153.999c18.667 37.333 28 74.666 28 111.999c0 46.667 -15 83.667 -45 111
c-30 28 -66.333 42 -109 42c-87.333 0 -140.666 -50.333 -159.999 -151zM310.998 191.003c29.333 0 54.667 -10.668 76 -32.001s32 -47 32 -77s-10.667 -55.667 -32 -77s-47 -32 -77 -32s-55.667 10.667 -77 32s-32 47 -32 77c0 30.667 10.667 56.334 32 77.001
c21.333 21.333 47.333 32 78 32z" />
    <glyph glyph-name="at" unicode="@" horiz-adv-x="1387" 
d="M889 972l98.999 0.000976562l-95 -444c-10.667 -49.333 -16 -88.666 -16 -117.999c0 -28 7.66699 -48.333 23 -61c15.333 -13.333 34.333 -20 57 -20c30.667 0 62.334 11.5 95.001 34.5s60.667 53.167 84 90.5c54 90 81 193.667 81 311c0 124 -40.333 221.333 -121 292
c-84.667 74.667 -194.334 112 -329.001 112c-184.667 0 -332.667 -68.333 -444 -205c-98.667 -121.333 -148 -266 -148 -434c0 -161.333 48.333 -283 145 -365c93.333 -78 213 -117 359 -117c116 0 223.667 27 323 81c37.333 20 80.666 53 129.999 99l-16 -78
c-57.333 -48.667 -111 -85.334 -161 -110.001c-91.333 -44.667 -190.666 -67 -297.999 -67c-85.333 0 -166.5 13.833 -243.5 41.5s-142.5 66.5 -196.5 116.5c-104 96 -156 228.667 -156 398c0 204.667 64.333 372.667 193 504c130.667 134 301.667 201 513 201
c170.667 0 307.334 -45 410.001 -135c92 -80.667 138 -190 138 -328c0 -140.667 -40.333 -259 -121 -355c-37.333 -45.333 -81.5 -81.166 -132.5 -107.499s-101.167 -39.5 -150.5 -39.5c-72 0 -121 38.333 -147 115c-28.667 -34.667 -54.334 -59.334 -77.001 -74.001
c-39.333 -25.333 -81.666 -38 -126.999 -38c-59.333 0 -108 20.333 -146 61c-42.667 45.333 -64 108.666 -64 189.999c0 119.333 33.667 227.333 101 324c63.333 91.333 144.333 137 243 137c78.667 0 136.667 -34.667 174 -104zM710.999 929.001
c-70 0 -127.999 -44.333 -173.999 -133c-41.333 -78.667 -62 -170 -62 -274c0 -122 38.667 -183 116 -183c60 0 110.333 35 151 105c21.333 36.667 41.666 91.5 60.999 164.5s29 131.5 29 175.5c0 42 -11.333 77.333 -34 106c-20 26 -49 39 -87 39z" />
    <glyph glyph-name="A" unicode="A" horiz-adv-x="1228" 
d="M689 1365l545 -1365h-176l-170 443h-555l-163 -443h-177l545 1365h151zM834 576l-227 588l-222 -588h449z" />
    <glyph glyph-name="B" unicode="B" horiz-adv-x="1115" 
d="M191 0v1365h322c71.333 0 122.666 -2.33301 153.999 -7c85.333 -12 152.333 -49.667 201 -113c42.667 -56 64 -121.333 64 -196c0 -62 -16 -118.667 -48 -170c-28.667 -46.667 -76 -89.667 -142 -129c78 -29.333 135.667 -64 173 -104c58.667 -64 88 -144 88 -240
c0 -89.333 -24.333 -169 -73 -239c-77.333 -111.333 -204.666 -167 -381.999 -167h-357zM355 795h105c104.667 0 179 18.333 223 55c48.667 40.667 73 101 73 181c0 72 -23 126 -69 162c-35.333 28 -93.333 42 -174 42h-158v-440zM355 130h155.001c104 0 181.333 24 232 72
c56 52 84 119.333 84 202c0 70.667 -18 128.667 -54 174c-36.667 46 -91.334 73.667 -164.001 83c-26 3.33301 -63.667 5 -113 5h-140v-536z" />
    <glyph glyph-name="C" unicode="C" horiz-adv-x="1304" 
d="M1284 1172l-119.001 -113c-32.667 57.333 -69.334 100.333 -110.001 129c-71.333 49.333 -159.333 74 -264 74c-168.667 0 -299 -61 -391 -183c-80 -106.667 -120 -242.667 -120 -408c0 -86 11.667 -166 35 -240s55.333 -133 96 -177
c38.667 -42.667 90.334 -77.667 155.001 -105c72.667 -30.667 147.667 -46 225 -46c105.333 0 193.333 24 264 72c38 26 74.667 69.667 110 131l119 -113c-43.333 -51.333 -81 -88.333 -113 -111c-100.667 -72.667 -228 -109 -382 -109
c-89.333 0 -175.166 12.667 -257.499 38s-150.833 60 -205.5 104c-66.667 53.333 -118.667 124 -156 212c-45.333 106.667 -68 220.667 -68 342c0 212 60 384.667 180 518c58 64 128.667 113.333 212 148c93.333 38 192 57 296 57c116 0 217.667 -21 305 -63
c64 -30.667 127 -83 189 -157z" />
    <glyph glyph-name="D" unicode="D" horiz-adv-x="1396" 
d="M191 1365h427c105.333 0 191 -7 257 -21c140.667 -30 247 -105.333 319 -226c66.667 -112 100 -249.667 100 -413c0 -184 -42 -337 -126 -459c-78.667 -113.333 -185 -186.333 -319 -219c-72.667 -18 -149.667 -27 -231 -27h-427v1365zM355 1235v-1105h270
c143.333 0 253 34.667 329 104c108 99.333 162 254.333 162 465c0 132 -22 241 -66 327c-52.667 103.333 -127.667 167.666 -225 192.999c-40 10.667 -106.667 16 -200 16h-270z" />
    <glyph glyph-name="E" unicode="E" horiz-adv-x="1001" 
d="M355 761h504v-130h-504v-501h577v-130h-741v1365h668v-130h-504v-474z" />
    <glyph glyph-name="F" unicode="F" horiz-adv-x="889" 
d="M355 754h444v-130h-444v-624h-164v1365h657v-130h-493v-481z" />
    <glyph glyph-name="G" unicode="G" horiz-adv-x="1388" 
d="M710 658h546.003v-582c-76 -35.333 -140.667 -59.333 -194 -72c-85.333 -20.667 -172.333 -31 -261 -31c-95.333 0 -184.5 12.333 -267.5 37s-152.167 59.667 -207.5 105c-67.333 54.667 -119.333 125.334 -156 212.001c-45.333 106.667 -68 220.334 -68 341.001
c0 213.333 60 386.333 180 519c58 64 128.667 113.333 212 148c92.667 38 190.667 57 294 57c117.333 0 222.666 -23.667 315.999 -71c45.333 -23.333 84 -50 116 -80c17.333 -16.667 41 -44 71 -82l-125 -109c-29.333 51.333 -56 87.666 -80 108.999
c-74.667 68.667 -173 103 -295 103c-168.667 0 -299 -61 -391 -183c-80 -106.667 -120 -242.667 -120 -408c0 -86 11.5 -165.667 34.5 -239s55.167 -133 96.5 -179c39.333 -44 91 -79 155 -105c77.333 -30.667 158.666 -46 243.999 -46c54 0 107.667 5 161 15
c31.333 5.33301 71.666 18.666 120.999 39.999v371h-382v130z" />
    <glyph glyph-name="H" unicode="H" horiz-adv-x="1419" 
d="M1227 1365v-1365h-164v628h-708v-628h-164v1365h164v-607h708v607h164z" />
    <glyph glyph-name="I" unicode="I" horiz-adv-x="546" 
d="M355 1365v-1365h-164v1365h164z" />
    <glyph glyph-name="J" unicode="J" horiz-adv-x="755" 
d="M578 1365l-0.000976562 -953.999c0 -72 -3.33301 -126.667 -10 -164c-17.333 -102 -68 -177.667 -152 -227c-55.333 -32 -117.666 -48 -186.999 -48c-88 0 -160.667 19.333 -218 58c-32.667 22.667 -67 61.667 -103 117l121 92c22 -44.667 45.667 -76.334 71 -95.001
c33.333 -23.333 74.333 -35 123 -35c84.667 0 141 34.333 169 103c14.667 37.333 22 103.333 22 198v955h164z" />
    <glyph glyph-name="K" unicode="K" horiz-adv-x="1141" 
d="M355 1365v-607l588 607h190l-617 -635l688 -730h-222l-627 669v-669h-164v1365h164z" />
    <glyph glyph-name="L" unicode="L" horiz-adv-x="905" 
d="M355 1365v-1235h549v-130h-713v1365h164z" />
    <glyph glyph-name="M" unicode="M" horiz-adv-x="1753" 
d="M1562 1365v-1365h-157v1018l-470 -1018h-117l-470 1018v-1018h-157v1365h163l523 -1135l522 1135h163z" />
    <glyph glyph-name="N" unicode="N" horiz-adv-x="1497" 
d="M1306 1365v-1365h-157l-801 1109v-1109h-157v1365h157l801 -1109v1109h157z" />
    <glyph glyph-name="O" unicode="O" horiz-adv-x="1504" 
d="M760 1392c182 0 330.333 -54.667 445 -164c130.667 -124 196 -306 196 -546c0 -238.667 -65.333 -420.334 -196 -545.001c-114.667 -109.333 -266 -164 -454 -164c-187.333 0 -338.333 54.667 -453 164c-130.667 124.667 -196 305.667 -196 543
c0 242.667 65.333 425.334 196 548.001c116 109.333 270 164 462 164zM745 1262c-61.333 0 -120.499 -11.332 -177.499 -33.999s-104.167 -54 -141.5 -94c-98 -104 -147 -254.333 -147 -451s49 -347.334 147 -452.001c38 -40 85.667 -71.333 143 -94s118 -34 182 -34
c64.667 0 125.667 11.333 183 34s105 54 143 94c98 104.667 147 254.334 147 449.001c0 199.333 -49 350.666 -147 453.999c-80.667 85.333 -191.334 128 -332.001 128z" />
    <glyph glyph-name="P" unicode="P" horiz-adv-x="982" 
d="M191 0v1365h335c78 0 137 -4.66699 177 -14c86.667 -20 152 -64.667 196 -134c37.333 -59.333 56 -127.333 56 -204c0 -82.667 -21 -157 -63 -223c-76 -118 -212.333 -177 -409 -177h-128v-613h-164zM355 743h128.999c195.333 0 293 86.667 293 260c0 94 -28 160 -84 198
c-33.333 22.667 -87.666 34 -162.999 34h-175v-492z" />
    <glyph glyph-name="Q" unicode="Q" horiz-adv-x="1504" 
d="M1696 -187l-125.001 -125l-893 286c-117.333 12 -218.666 46 -303.999 102c-181.333 120 -272 322.333 -272 607c0 239.333 65.333 421 196 545c114.667 109.333 265.667 164 453 164c188 0 339.333 -54.667 454 -164c66.667 -63.333 116 -140 148 -230
s48 -196.667 48 -320c0 -240 -65.333 -420.667 -196 -542c-53.333 -48.667 -130.333 -92.667 -231 -132zM745.999 1262c-62 0 -121.5 -11.5 -178.5 -34.5s-104.167 -54.167 -141.5 -93.5c-98 -104 -147 -254.667 -147 -452c0 -196.667 49 -347.334 147 -452.001
c38 -40 85.667 -71.333 143 -94s118 -34 182 -34c64.667 0 125.667 11.333 183 34s105 54 143 94c98 104.667 147 254.334 147 449.001c0 199.333 -49 351 -147 455c-80.667 85.333 -191 128 -331 128z" />
    <glyph glyph-name="R" unicode="R" horiz-adv-x="1145" 
d="M191 0v1365h319c129.333 0 221.333 -11.667 276 -35c51.333 -22.667 92 -58 122 -106c36.667 -58 55 -124.333 55 -199c0 -116.667 -39.667 -213 -119 -289c-38 -36.667 -91.333 -67 -160 -91l429 -645h-198l-405 624h-155v-624h-164zM355 754h122c54.667 0 96 3 124 9
s55.333 17.333 82 34c68.667 44.667 103 120 103 226c0 107.333 -41 174.333 -123 201c-23.333 7.33301 -86.333 11 -189 11h-119v-481z" />
    <glyph glyph-name="S" unicode="S" horiz-adv-x="964" 
d="M842 1211l-114.997 -114.001c-23.333 51.333 -50.333 89.666 -81 114.999c-40.667 33.333 -90.334 50 -149.001 50c-65.333 0 -117.333 -22.333 -156 -67c-34 -39.333 -51 -86.666 -51 -141.999c0 -63.333 23.667 -117.333 71 -162c30 -28.667 85.667 -66 167 -112
c119.333 -68 201 -123.667 245 -167c62.667 -61.333 94 -141.666 94 -240.999c0 -60.667 -12.333 -118.334 -37 -173.001s-59 -99.667 -103 -135c-74.667 -60 -170.334 -90 -287.001 -90c-169.333 0 -297 68 -383 204l114 132
c21.333 -55.333 50.666 -99.666 87.999 -132.999c55.333 -48.667 117.666 -73 186.999 -73c76.667 0 138 23.333 184 70c43.333 44.667 65 103.667 65 177c0 72.667 -25.667 131 -77 175c-28 24.667 -86 62 -174 112c-117.333 68 -197.666 127.333 -240.999 178
c-52.667 62 -79 135 -79 219c0 92.667 32.333 173.667 97 243c71.333 76.667 165.333 115 282 115c146 0 259 -60.333 339 -181z" />
    <glyph glyph-name="T" unicode="T" horiz-adv-x="920" 
d="M540 1235v-1235h-164v1235h-396v130h961v-130h-401z" />
    <glyph glyph-name="U" unicode="U" horiz-adv-x="1401" 
d="M177 1365h164.001v-814c0 -92 3 -155 9 -189c15.333 -87.333 55.333 -152.666 120 -195.999c63.333 -42 140 -63 230 -63c89.333 0 166 21 230 63c64.667 43.333 104.667 108.666 120 195.999c6 35.333 9 98.333 9 189v814h164v-808c0 -102 -4.33301 -176.333 -13 -223
c-20.667 -112 -71.334 -199 -152.001 -261c-86.667 -66.667 -206 -100 -358 -100c-235.333 0 -392.333 78 -471 234c-26 52.667 -42.333 118.667 -49 198c-2 28 -3 78.667 -3 152v808z" />
    <glyph glyph-name="V" unicode="V" horiz-adv-x="1184" 
d="M170 1365l420 -1091l467 1091h161l-589 -1365h-112l-524 1365h177z" />
    <glyph glyph-name="W" unicode="W" horiz-adv-x="1838" 
d="M165 1365l323 -1100l376 1100h110l326 -1100l381 1100h144l-472 -1365h-131l-316 1075l-364 -1075h-130l-405 1365h158z" />
    <glyph glyph-name="X" unicode="X" horiz-adv-x="1083" 
d="M845 1365h176l-394 -653l448 -712h-196l-345 570l-335 -570h-175l416 698l-426 667h196l330 -530z" />
    <glyph glyph-name="Y" unicode="Y" horiz-adv-x="981" 
d="M856 1365h173l-456 -759v-606h-164v606l-464 759h193l361 -595z" />
    <glyph glyph-name="Z" unicode="Z" horiz-adv-x="1006" 
d="M75 1365h879v-137l-773 -1096h852v-132h-1033v132l772 1103h-697v130z" />
    <glyph glyph-name="bracketleft" unicode="[" horiz-adv-x="550" 
d="M295 -345l196 -17v-88h-327v1884h327v-88l-196 -17v-1674z" />
    <glyph glyph-name="backslash" unicode="\" horiz-adv-x="810" 
d="M-14 1436l80 18l757 -1911l-79 -14z" />
    <glyph glyph-name="bracketright" unicode="]" horiz-adv-x="550" 
d="M255 -345v1674l-196 17v88h327v-1884h-327v88z" />
    <glyph glyph-name="asciicircum" unicode="^" horiz-adv-x="889" 
d="M187 899l-92 30l310 498h65l324 -498l-92 -30l-261 411z" />
    <glyph glyph-name="underscore" unicode="_" horiz-adv-x="1111" 
d="M0 -133h1111v-89h-1111v89z" />
    <glyph glyph-name="grave" unicode="`" 
d="M329 1433l281 -332l-71 -11l-372 311z" />
    <glyph glyph-name="a" unicode="a" horiz-adv-x="1081" 
d="M924 901l0.00195312 -900.999h-150v110c-42.667 -45.333 -86.334 -78.5 -131.001 -99.5s-94.334 -31.5 -149.001 -31.5c-55.333 0 -110 13.167 -164 39.5s-99.333 62.166 -136 107.499c-67.333 84 -101 192.333 -101 325s33.667 240.667 101 324c36.667 46 82 82 136 108
s110 39 168 39c70 0 134 -18.333 192 -55c22 -14.667 50 -40 84 -76v110h150zM516.002 792.001c-90.667 0 -159 -39.999 -205 -119.999c-36 -62.667 -54 -136.334 -54 -221.001s18 -158.667 54 -222c46 -80 115.667 -120 209 -120c94 0 163.667 40 209 120
c36 64 54 137.667 54 221c0 85.333 -18 159.333 -54 222c-46.667 80 -117.667 120 -213 120z" />
    <glyph glyph-name="b" unicode="b" horiz-adv-x="1081" 
d="M307 1434v-643.001c43.333 46 87 79.333 131 100s93.667 31 149 31c56 0 111 -13.167 165 -39.5s99 -62.166 135 -107.499c67.333 -83.333 101 -191.333 101 -324s-33.667 -241 -101 -325c-38 -46.667 -85.333 -83.334 -142 -110.001c-52 -24.667 -104.667 -37 -158 -37
c-69.333 0 -134.333 19 -195 57c-24 14.667 -52.333 39.334 -85 74.001l-82 -110h-68v1434h150zM557 791.999c-90.667 0 -159 -40 -205 -120c-36 -63.333 -54 -137 -54 -221c0 -84.667 18 -158.667 54 -222c46 -80 115.667 -120 209 -120s163 40 209 120
c36 63.333 54 137 54 221c0 86 -18 160 -54 222c-46.667 80 -117.667 120 -213 120z" />
    <glyph glyph-name="c" unicode="c" horiz-adv-x="892" 
d="M853 660l-140.001 -55c-4 61.333 -18.333 106 -43 134c-31.333 34.667 -79 52 -143 52c-83.333 0 -147.333 -27.667 -192 -83c-52.667 -65.333 -79 -150.333 -79 -255c0 -98 24.333 -182 73 -252c42 -60.667 104 -91 186 -91c60.667 0 108 17.667 142 53
c20.667 20.667 39.334 55 56.001 103l145 -43c-19.333 -56.667 -39 -97.667 -59 -123c-64 -80 -158.667 -120 -284 -120c-136 0 -243 49 -321 147c-67.333 83.333 -101 191 -101 323c0 132.667 33.667 240.667 101 324c78 98 186 147 324 147c114 0 201.333 -32 262 -96
c34.667 -36 59 -91 73 -165z" />
    <glyph glyph-name="d" unicode="d" horiz-adv-x="1081" 
d="M924 1434l0.00195312 -1434h-150v110c-42.667 -45.333 -86.334 -78.5 -131.001 -99.5s-94.334 -31.5 -149.001 -31.5c-55.333 0 -110 13.167 -164 39.5s-99.333 62.166 -136 107.499c-67.333 84 -101 192.333 -101 325s33.667 240.667 101 324
c38 47.333 85.333 84 142 110c52 24.667 105 37 159 37c69.333 0 134 -18.667 194 -56c24 -14.667 52.333 -39.667 85 -75v643h150zM516.002 792.001c-90.667 0 -159 -39.999 -205 -119.999c-36 -62.667 -54 -136.334 -54 -221.001s18 -158.667 54 -222
c46 -80 115.667 -120 209 -120c94 0 163.667 40 209 120c36 64 54 137.667 54 221c0 85.333 -18 159.333 -54 222c-46.667 80 -117.667 120 -213 120z" />
    <glyph glyph-name="e" unicode="e" horiz-adv-x="966" 
d="M873 412h-615.003c8 -70 21 -123.667 39 -161c48 -94.667 125 -142 231 -142c49.333 0 92.333 14.667 129 44c28.667 23.333 55.667 61.333 81 114l135 -69c-40.667 -67.333 -79 -115 -115 -143c-61.333 -50 -140.666 -75 -237.999 -75c-139.333 0 -248 49 -326 147
c-67.333 84 -101 192 -101 324s33.667 240 101 324c78 97.333 185 146 321 146c152.667 0 256.334 -61 311.001 -183c30.667 -68 46.334 -176.667 47.001 -326zM717.997 542c-2.66699 84.667 -16 145.332 -40 181.999c-35.333 54 -93 81 -173 81
c-83.333 0 -147 -33.333 -191 -100c-26.667 -39.333 -43 -93.666 -49 -162.999h453z" />
    <glyph glyph-name="f" unicode="f" horiz-adv-x="575" 
d="M583 901l0.000976562 -130h-267v-771h-150v771h-118v130h118v119c0 126.667 20.667 221.667 62 285c56 86 138.333 129 247 129c45.333 0 92.666 -11 141.999 -33l-41 -127c-34 20 -65 30 -93 30c-111.333 0 -167 -88.667 -167 -266v-137h267z" />
    <glyph glyph-name="g" unicode="g" horiz-adv-x="1081" 
d="M924 901l0.00292969 -901.001c0 -122.667 -24.333 -220.667 -73 -294c-37.333 -56 -87 -99.667 -149 -131c-60 -30.667 -123 -46 -189 -46c-90 0 -172.333 25.333 -247 76c-40 27.333 -72.333 59.333 -97 96c-13.333 20 -29 47.667 -47 83l127 96
c47.333 -148 133.666 -222 258.999 -222c98 0 172 44 222 132c29.333 52.667 44 131.667 44 237v83c-42.667 -45.333 -86.334 -78.5 -131.001 -99.5s-94.334 -31.5 -149.001 -31.5c-56 0 -111 13.333 -165 40s-99 62.334 -135 107.001c-67.333 84 -101 192.333 -101 325
s33.667 240.667 101 324c38 47.333 85.333 84 142 110c52 24.667 104.667 37 158 37c70 0 135 -18.667 195 -56c24 -14.667 52.333 -39.667 85 -75v110h150zM516.003 791.999c-90.667 0 -159 -40 -205 -120c-36 -63.333 -54 -137 -54 -221c0 -84.667 18 -158.667 54 -222
c46 -80 115.667 -120 209 -120s163 40 209 120c36 64 54 137.667 54 221c0 86 -18 160 -54 222c-46.667 80 -117.667 120 -213 120z" />
    <glyph glyph-name="h" unicode="h" horiz-adv-x="1053" 
d="M307 1434l-0.000976562 -641.001c42 44 78.333 74 109 90c50 26.667 105 40 165 40c116.667 0 203.667 -40 261 -120c36 -50.667 54 -129 54 -235v-568h-150v564c0 76 -16.667 133.167 -50 171.5s-82.666 57.5 -147.999 57.5c-39.333 0 -76.833 -7.83301 -112.5 -23.5
s-64.167 -37.167 -85.5 -64.5c-28.667 -35.333 -43 -83.666 -43 -144.999v-560h-150v1434h150z" />
    <glyph glyph-name="i" unicode="i" horiz-adv-x="464" 
d="M307 901v-901h-150v901h150zM228 1358c27.333 0 51 -10 71 -30s30 -44 30 -72c0 -28.667 -10 -53 -30 -73s-44.333 -30 -73 -30c-28 0 -52 10 -72 30s-30 44.333 -30 73c0 28 10 52 30 72s44.667 30 74 30z" />
    <glyph glyph-name="j" unicode="j" horiz-adv-x="464" 
d="M307 901l-0.000976562 -974.999c0 -66.667 -3.66699 -117 -11 -151c-18 -84.667 -61 -146.334 -129 -185.001c-47.333 -26.667 -100 -40 -158 -40c-23.333 0 -58.333 2.66699 -105 8l-16 109c29.333 -5.33301 53 -8 71 -8c62.667 0 111.334 18 146.001 54
s52 105.667 52 209v979h150zM229.999 1358c27.333 0 51 -10 71 -30s30 -44 30 -72c0 -28.667 -10 -53 -30 -73s-44 -30 -72 -30c-28.667 0 -53 10 -73 30s-30 44.333 -30 73c0 28 10 52 30 72s44.667 30 74 30z" />
    <glyph glyph-name="k" unicode="k" horiz-adv-x="883" 
d="M307 1434v-917l308 384h175l-327 -403l425 -498h-197l-384 457v-457h-150v1434h150z" />
    <glyph glyph-name="l" unicode="l" horiz-adv-x="464" 
d="M307 1434v-1434h-150v1434h150z" />
    <glyph glyph-name="m" unicode="m" horiz-adv-x="1606" 
d="M157 901h150.001v-101c41.333 41.333 79 70.333 113 87c46.667 23.333 99.667 35 159 35c56 0 105.333 -10.333 148 -31c38 -18.667 75 -54.334 111 -107.001c40 42.667 78.333 74 115 94c55.333 29.333 116.666 44 183.999 44c94.667 0 170 -27 226 -81
c57.333 -55.333 86 -132 86 -230v-611h-150v576c0 72 -14 125.333 -42 160c-30 37.333 -80.667 56 -152 56c-68.667 0 -124 -19.667 -166 -59c-38 -35.333 -57 -91 -57 -167v-566h-150v576c0 68.667 -14 121 -42 157c-29.333 39.333 -80.333 59 -153 59
c-65.333 0 -119 -19 -161 -57c-46 -41.333 -69 -97.666 -69 -168.999v-566h-150v901z" />
    <glyph glyph-name="n" unicode="n" horiz-adv-x="1053" 
d="M307 901l-0.000976562 -108.001c42 44 78.333 74 109 90c50 26.667 105 40 165 40c116.667 0 203.667 -40 261 -120c36 -50.667 54 -129 54 -235v-568h-150v564c0 76 -16.667 133.167 -50 171.5s-82.666 57.5 -147.999 57.5c-39.333 0 -76.833 -7.83301 -112.5 -23.5
s-64.167 -37.167 -85.5 -64.5c-28.667 -35.333 -43 -83.666 -43 -144.999v-560h-150v901h150z" />
    <glyph glyph-name="o" unicode="o" horiz-adv-x="1040" 
d="M527 921c134 0 240.333 -48.998 319 -146.998c67.333 -83.333 101 -191.333 101 -324c0 -132 -33.667 -239.667 -101 -323c-78 -98 -186.667 -147 -326 -147s-248 49 -326 147c-67.333 83.333 -101 190.666 -101 321.999c0 133.333 33.667 241.666 101 324.999
c78 98 189 147 333 147zM516 791.002c-90.667 0 -159 -39.999 -205 -119.999c-36 -62.667 -54 -136 -54 -220s18 -157.667 54 -221c46 -80 115.667 -120 209 -120s163 40 209 120c36 63.333 54 136.666 54 219.999c0 85.333 -18 159 -54 221
c-46.667 80 -117.667 120 -213 120z" />
    <glyph glyph-name="p" unicode="p" horiz-adv-x="1081" 
d="M307 901v-110.001c43.333 46 87 79.333 131 100s93.667 31 149 31c56 0 111 -13.167 165 -39.5s99 -62.166 135 -107.499c67.333 -83.333 101 -191.333 101 -324s-33.667 -241 -101 -325c-38 -46.667 -85.333 -83.334 -142 -110.001c-52 -24.667 -104.667 -37 -158 -37
c-69.333 0 -134.333 19 -195 57c-24 14.667 -52.333 39.334 -85 74.001v-560h-150v1351h150zM557 791.999c-90.667 0 -159 -40 -205 -120c-36 -63.333 -54 -137 -54 -221c0 -84.667 18 -158.667 54 -222c46 -80 115.667 -120 209 -120s163 40 209 120
c36 63.333 54 137 54 221c0 86 -18 160 -54 222c-46.667 80 -117.667 120 -213 120z" />
    <glyph glyph-name="q" unicode="q" horiz-adv-x="1081" 
d="M774 -450l0.00195312 560.001c-42.667 -45.333 -86.334 -78.5 -131.001 -99.5s-94.334 -31.5 -149.001 -31.5c-55.333 0 -110 13.167 -164 39.5s-99.333 62.166 -136 107.499c-67.333 84 -101 192.333 -101 325s33.667 240.667 101 324c38 47.333 85.333 84 142 110
c52 24.667 105 37 159 37c69.333 0 134 -18.667 194 -56c24 -14.667 52.333 -39.667 85 -75l82 110h68v-1351h-150zM516.002 792.001c-90.667 0 -159 -39.999 -205 -119.999c-36 -62.667 -54 -136.334 -54 -221.001s18 -158.667 54 -222c46 -80 115.667 -120 209 -120
c94 0 163.667 40 209 120c36 64 54 137.667 54 221c0 85.333 -18 159.333 -54 222c-46.667 80 -117.667 120 -213 120z" />
    <glyph glyph-name="r" unicode="r" horiz-adv-x="698" 
d="M157 901h149.999v-132c38 49.333 71.667 84 101 104c47.333 32 97.333 48 150 48c38 0 71 -8 99 -24c18.667 -10.667 41.334 -28 68.001 -52l-73 -124c-31.333 36 -60 58.333 -86 67c-16 5.33301 -32 8 -48 8c-42.667 0 -83 -17 -121 -51c-60 -54.667 -90 -127 -90 -217
v-528h-150v901z" />
    <glyph glyph-name="s" unicode="s" horiz-adv-x="830" 
d="M728 762l-131 -83c-9.33301 36 -22.666 62 -39.999 78c-29.333 27.333 -70 41 -122 41c-47.333 0 -85.333 -12.333 -114 -37c-25.333 -22.667 -38 -51.667 -38 -87c0 -40 17.667 -70.333 53 -91c26 -14.667 74.667 -31 146 -49c68 -17.333 116.333 -34.333 145 -51
c39.333 -23.333 68.666 -55.666 87.999 -96.999c16.667 -36 25 -73.667 25 -113c0 -82.667 -33.667 -153 -101 -211c-63.333 -54.667 -147.666 -82 -252.999 -82c-96.667 0 -175.667 28 -237 84c-36.667 34 -69.334 87 -98.001 159l143 61
c32.667 -120 101.667 -180 207 -180c54.667 0 99.667 15.333 135 46c32.667 28.667 49 67 49 115c0 40 -14 69.333 -42 88c-26 17.333 -79 37 -159 59c-74 20 -124 38.667 -150 56c-70 47.333 -105 111.666 -105 192.999c0 78.667 30 143 90 193
c53.333 44.667 124 67 212 67c87.333 0 157.333 -19 210 -57c31.333 -22 60.333 -56 87 -102z" />
    <glyph glyph-name="t" unicode="t" horiz-adv-x="632" 
d="M331 1192l-0.00292969 -291h253v-130h-253v-433c0 -67.333 4 -115 12 -143c17.333 -57.333 67.333 -86 150 -86c28 0 63 7.33301 105 22l-14 -126c-55.333 -16.667 -101.666 -25 -138.999 -25c-55.333 0 -103.166 10.5 -143.499 31.5s-69.166 50.5 -86.499 88.5
c-22.667 48 -34 128.667 -34 242v429h-146v130h146v230z" />
    <glyph glyph-name="u" unicode="u" horiz-adv-x="1053" 
d="M746 0v108.002c-42 -43.333 -78.333 -73.333 -109 -90c-50.667 -26.667 -105.667 -40 -165 -40c-55.333 0 -105.833 10.667 -151.5 32s-82.167 50.666 -109.5 87.999c-36 50.667 -54 129 -54 235v568h150v-564c0 -152.667 66.333 -229 199 -229
c38.667 0 75.667 7.83301 111 23.5s64 37.167 86 64.5c28.667 35.333 43 83.666 43 144.999v560h150v-901h-150z" />
    <glyph glyph-name="v" unicode="v" horiz-adv-x="885" 
d="M382 0l-362 901h162l275 -688l273 688h148l-363 -901h-133z" />
    <glyph glyph-name="w" unicode="w" horiz-adv-x="1383" 
d="M1356 901l-317 -901h-134l-205 650l-225 -650h-142l-285 901h158l210 -670l231 670h126l210 -658l227 658h146z" />
    <glyph glyph-name="x" unicode="x" horiz-adv-x="806" 
d="M766 901l-277 -404l303 -497h-174l-227 390l-236 -390h-165l331 486l-256 415h173l173 -300l190 300h165z" />
    <glyph glyph-name="y" unicode="y" horiz-adv-x="875" 
d="M882 901l-410.001 -942.001c-47.333 -110 -82 -183.333 -104 -220c-47.333 -80.667 -98 -136.667 -152 -168c-47.333 -28 -100 -42 -158 -42c-33.333 0 -71.666 8 -114.999 24l-17 139c48 -24 87.667 -36 119 -36c54 0 99 18 135 54c38.667 38.667 70 86.334 94 143.001
l87 203l-340 845h160l265 -654l284 654h152z" />
    <glyph glyph-name="z" unicode="z" horiz-adv-x="844" 
d="M97 901h695v-130l-571 -641h584v-130h-767v130l575 641h-516v130z" />
    <glyph glyph-name="braceleft" unicode="{" horiz-adv-x="514" 
d="M486 1425l0.00195312 -34.999c-69.333 -4.66699 -118 -37.667 -146 -99c-12 -26.667 -19 -55 -21 -85c-3.33301 -36.667 -5 -81.334 -5 -134.001v-113c0 -73.333 -3.33301 -126 -10 -158c-10 -48 -30.667 -85.333 -62 -112c-24.667 -20 -62.334 -40 -113.001 -60
c54.667 -16.667 95.667 -38 123 -64s45 -59.333 53 -100c6 -29.333 9 -62.666 9 -99.999v-257c0 -71.333 5 -119 15 -143c24.667 -64.667 77 -101.334 157 -110.001v-34c-16 -0.666992 -27.333 -1 -34 -1c-82 0 -148.667 24.333 -200 73c-46 43.333 -69 109 -69 197v312
c0 50 -3 88 -9 114s-16.667 45.667 -32 59c-20 17.333 -59.333 28.333 -118 33v32c49.333 0.666992 86 16 110 46c31.333 40 47.666 113.667 48.999 221v165c0.666992 104.667 7.66699 173.667 21 207c18.667 50.667 47.5 87.667 86.5 111s92.167 35 159.5 35h36z" />
    <glyph glyph-name="bar" unicode="|" horiz-adv-x="1111" 
d="M510 1365h91v-1706h-91v1706z" />
    <glyph glyph-name="braceright" unicode="}" horiz-adv-x="514" 
d="M27 1390l-0.000976562 34.998h36c94 -0.666992 162 -24.667 204 -72c30.667 -35.333 49.334 -78.666 56.001 -129.999c5.33301 -39.333 8 -89.666 8 -150.999v-165c0 -56.667 3.66699 -102 11 -136s19.666 -62.333 36.999 -85c24.667 -30 61.334 -45.333 110.001 -46v-32
c-58 -4.66699 -97 -15.667 -117 -33c-18.667 -15.333 -30.667 -41 -36 -77c-3.33301 -25.333 -5 -57.333 -5 -96v-312c0 -88 -23 -153.667 -69 -197c-52 -48.667 -119 -73 -201 -73c-6.66699 0 -18 0.333008 -34 1v34c56 6.66699 97.667 24.667 125 54
c22.667 25.333 36.667 58 42 98c4 28 6 61.667 6 101v257c0 50.667 4.66699 91.334 14 122.001s25.333 56.667 48 78c27.333 26 68.333 47.333 123 64c-65.333 25.333 -108.333 50.666 -129 75.999c-33.333 36 -52 91.667 -56 167c-0.666992 20 -1 49 -1 87v113
c0 62.667 -1.66699 109 -5 139s-10 56.667 -20 80c-28.667 61.333 -77.667 94.333 -147 99z" />
    <glyph glyph-name="asciitilde" unicode="~" horiz-adv-x="909" 
d="M45 1229l-17.001 82c80 71.333 157.333 107 232 107c41.333 0 104.333 -17.333 189 -52c79.333 -32.667 140.333 -49 183 -49c64.667 0 135.334 36.667 212.001 110l16 -78c-76.667 -85.333 -161 -128 -253 -128c-46 0 -115 17.667 -207 53
c-68.667 24.667 -110.167 39 -124.5 43s-29.833 6 -46.5 6c-54.667 0 -116 -31.333 -184 -94z" />
    <glyph glyph-name="nbspace" unicode="&#xa0;" horiz-adv-x="512" 
 />
    <glyph glyph-name="exclamdown" unicode="&#xa1;" horiz-adv-x="492" 
d="M317 -300h-143v348l24 618h95l24 -618v-348zM247 1092c29.333 0 54.667 -10.668 76 -32.001s32 -47 32 -77s-10.667 -55.667 -32 -77s-47 -32 -77 -32s-55.667 10.667 -77 32s-32 47 -32 77c0 30.667 10.667 56.334 32 77.001c22 21.333 48 32 78 32z" />
    <glyph glyph-name="cent" unicode="&#xa2;" horiz-adv-x="1111" 
d="M830 496l124 -73c-68 -124 -173.333 -190 -316 -198v-179h-96v179c-59.333 5.33301 -107.333 16.333 -144 33c-82.667 37.333 -143.334 103.666 -182.001 198.999c-26.667 66.667 -40 140.667 -40 222c0 100 20 188 60 264c44.667 83.333 106.334 141 185.001 173
c30 12 70.333 20.333 121 25v137h96v-137c78 -2 139.667 -14.667 185 -38c52 -29.333 95.667 -78.333 131 -147l-124 -69c-22 46 -44.667 79 -68 99c-30 24.667 -71.333 38.334 -124 41.001v-671c52 2.66699 92.667 17 122 43c22 20 45.333 52.333 70 97zM542 1023
c-62.667 -10 -109.333 -37 -140 -81c-43.333 -61.333 -65 -149.333 -65 -264c0 -92 17.333 -164.333 52 -217c32 -48.667 83 -82.667 153 -102v664z" />
    <glyph glyph-name="sterling" unicode="&#xa3;" horiz-adv-x="1111" 
d="M509 770l347.002 -0.000976562v-130h-354c-12 -135.333 -27.667 -245 -47 -329c-14 -54.667 -32.333 -97.334 -55 -128.001c-6 -9.33301 -21.667 -27 -47 -53h611v-130h-877v130c60.667 6.66699 104 18 130 34c56 36.667 93.333 117.667 112 243
c8 58.667 16 136.334 24 233.001h-168v130h176l14 149c13.333 144 46.666 252.667 99.999 326c72 98.667 169.667 148 293 148c76.667 0 158 -24.667 244 -74l-34 -147c-32.667 34.667 -63.334 58.334 -92.001 71.001c-33.333 14 -69.333 21 -108 21
c-88 0 -153.667 -38.667 -197 -116c-28 -49.333 -47.667 -129.333 -59 -240z" />
    <glyph glyph-name="currency" unicode="&#xa4;" horiz-adv-x="1011" 
d="M43 832l69 67l189 -193c66 42.667 131 64 195 64c61.333 0 125.333 -20 192 -60l189 189l65 -67l-188 -189c43.333 -58.667 65 -122.667 65 -192c0 -68 -21.333 -132 -64 -192l196 -199l-66 -64l-193 199c-58 -42 -121.333 -63 -190 -63s-136.667 22 -204 66l-193 -199
l-62 72l195 189c-41.333 62 -62 127 -62 195c0 69.333 21 132 63 188zM497 697c-59.333 0 -113 -20.335 -161 -61.002c-56.667 -48 -85 -109.333 -85 -184c0 -71.333 25 -130.666 75 -177.999c49.333 -46.667 108 -70 176 -70c70 0 128.333 24.333 175 73
c46 48 69 106.333 69 175c0 70.667 -25 129.334 -75 176.001c-48 46 -106 69 -174 69z" />
    <glyph glyph-name="yen" unicode="&#xa5;" horiz-adv-x="1111" 
d="M892 1365h172l-301 -484h255v-102h-319l-82 -133v-32h401v-102h-401v-512h-151v512h-377v102h377v39l-75 126h-302v102h241l-290 484h187l327 -552z" />
    <glyph glyph-name="brokenbar" unicode="&#xa6;" horiz-adv-x="1111" 
d="M481 1365h150v-682h-150v682zM481 314h150v-655h-150v655z" />
    <glyph glyph-name="section" unicode="&#xa7;" horiz-adv-x="1111" 
d="M951 1164l-140.998 -92c-16 57.333 -38.667 100.333 -68 129c-42 41.333 -97.667 62 -167 62c-72.667 0 -125.667 -19.667 -159 -59c-29.333 -34 -44 -77 -44 -129c0 -72.667 29.333 -127.334 88 -164.001c33.333 -20.667 97.666 -48.667 192.999 -84
c92.667 -34.667 155.667 -62.334 189 -83.001c92 -56 138 -128.667 138 -218c0 -49.333 -13 -97.666 -39 -144.999c-15.333 -28.667 -42.333 -62.667 -81 -102c30.667 -39.333 51 -71.666 61 -96.999c12 -31.333 18 -66 18 -104c0 -102 -33.667 -189.667 -101 -263
c-79.333 -86 -186.333 -129 -321 -129c-93.333 0 -176.333 19 -249 57c-66 34.667 -115.667 85.667 -149 153c-12.667 26.667 -25 65.334 -37 116.001l156 85c16.667 -84.667 39.667 -146.334 69 -185.001c49.333 -64 119.333 -96 210 -96c79.333 0 143 24.667 191 74
c41.333 44 62 100.333 62 169c0 56.667 -19 97 -57 121c-24 14 -103 47 -237 99c-96.667 38 -157.667 64 -183 78c-107.333 60 -161 150.667 -161 272c0 59.333 14.667 114 44 164c14.667 25.333 41.667 55.333 81 90c-32.667 66 -49 124.333 -49 175
c0 76.667 22.667 144.667 68 204c65.333 87.333 168.333 131 309 131c87.333 0 162.666 -18 225.999 -54c48.667 -28 85.667 -64.333 111 -109c8 -14.667 17.667 -36.667 29 -66zM338.002 794c-40 -44.667 -60.001 -88.6689 -60.001 -132.002
c0 -27.333 6.66699 -55.166 20 -83.499s30 -50.166 50 -65.499c26 -20.667 84.667 -48.667 176 -84c110.667 -43.333 187.334 -75.333 230.001 -96c54.667 58 82 110.333 82 157s-21.667 85.667 -65 117c-31.333 22 -98.333 52 -201 90c-92.667 34.667 -170 67 -232 97z" />
    <glyph glyph-name="dieresis" unicode="&#xa8;" 
d="M323 1358c27.333 0 51 -10 71 -30s30 -44 30 -72c0 -28.667 -10 -53 -30 -73s-44 -30 -72 -30c-28.667 0 -53 10 -73 30s-30 44.333 -30 73c0 28 10 52 30 72s44.667 30 74 30zM705 1358c27.333 0 51 -10 71 -30s30 -44 30 -72c0 -28.667 -10 -53 -30 -73
s-44.333 -30 -73 -30c-28 0 -52 10 -72 30s-30 44.333 -30 73c0 28 10 52 30 72s44.667 30 74 30z" />
    <glyph glyph-name="copyright" unicode="&#xa9;" horiz-adv-x="1549" 
d="M785 1392c126.667 0 246.67 -34.667 360.003 -104c114 -70 201 -164.333 261 -283c51.333 -101.333 77 -209 77 -323c0 -94 -17.833 -184.333 -53.5 -271s-86.834 -163.334 -153.501 -230.001s-143.334 -118 -230.001 -154s-176.667 -54 -270 -54s-183.333 18 -270 54
s-163.334 87 -230.001 153c-66.667 66.667 -118.167 143.5 -154.5 230.5s-54.5 177.167 -54.5 270.5c0 134.667 35 259.334 105 374.001c68 112 162.667 199 284 261c100 50.667 209.667 76 329 76zM770.003 1272c-74 0 -146.166 -15 -216.499 -45s-132.5 -72 -186.5 -126
c-54 -54.667 -96 -118.5 -126 -191.5s-45 -148.833 -45 -227.5c0 -162.667 57.333 -301.667 172 -417c113.333 -114.667 249.333 -172 408 -172c159.333 0 295.666 57.667 408.999 173c113.333 114.667 170 253 170 415c0 79.333 -15 155.833 -45 229.5
s-71.667 137.167 -125 190.5c-116 114 -254.333 171 -415 171zM1121 968l-96 -86.001c-22 39.333 -45.667 67.666 -71 84.999c-42 27.333 -93.667 41 -155 41c-100 0 -176.667 -34 -230 -102c-47.333 -60 -71 -136.667 -71 -230c0 -103.333 25.667 -181.666 77 -234.999
c24 -25.333 56.5 -45.666 97.5 -60.999s83.167 -23 126.5 -23c61.333 0 113 13.333 155 40c23.333 14.667 47 43.667 71 87l96 -86c-44 -51.333 -87.333 -86.666 -130 -105.999c-56 -25.333 -122.333 -38 -199 -38c-118 0 -213.667 28.667 -287 86
c-45.333 35.333 -80.5 82.333 -105.5 141s-37.5 123 -37.5 193c0 129.333 38 233.666 114 312.999c79.333 82.667 187 124 323 124c72 0 136 -12.667 192 -38c42.667 -19.333 86 -54.333 130 -105z" />
    <glyph glyph-name="ordfeminine" unicode="&#xaa;" horiz-adv-x="723" 
d="M607 1365l0.00195312 -546h-107l-14 56c-47.333 -45.333 -103 -68 -167 -68c-76.667 0 -140.334 29.667 -191.001 89c-42.667 50.667 -64 116 -64 196s21.333 145.333 64 196c50 59.333 114 89 192 89c63.333 0 118.666 -22.333 165.999 -67v55h121zM333.002 1286
c-54 0 -94.333 -22.333 -121 -67c-22 -36.667 -33 -79 -33 -127c0 -48.667 11 -91 33 -127c26.667 -45.333 67.667 -68 123 -68c56 0 97.333 22.667 124 68c22 36 33 78 33 126c0 49.333 -11 92 -33 128c-27.333 44.667 -69.333 67 -126 67z" />
    <glyph glyph-name="guillemotleft" unicode="&#xab;" horiz-adv-x="816" 
d="M713 0h-73l-237 456l237 445h63l-127 -445zM399 0h-73l-237 456l237 445h63l-127 -445z" />
    <glyph glyph-name="logicalnot" unicode="&#xac;" horiz-adv-x="1092" 
d="M25 487h1004v-547h-97v457h-907v90z" />
    <glyph glyph-name="sfthyphen" unicode="&#xad;" horiz-adv-x="430" 
d="M0 548h430v-115h-430v115z" />
    <glyph glyph-name="registered" unicode="&#xae;" horiz-adv-x="1549" 
d="M785 1392c126.667 0 246.67 -34.667 360.003 -104c114 -70 201 -164.333 261 -283c51.333 -101.333 77 -209 77 -323c0 -94 -17.833 -184.333 -53.5 -271s-86.834 -163.334 -153.501 -230.001s-143.334 -118 -230.001 -154s-176.667 -54 -270 -54s-183.333 18 -270 54
s-163.334 87 -230.001 153c-66.667 66.667 -118.167 143.5 -154.5 230.5s-54.5 177.167 -54.5 270.5c0 134.667 35 259.334 105 374.001c68 112 162.667 199 284 261c100 50.667 209.667 76 329 76zM770.003 1272c-74 0 -146.166 -15 -216.499 -45s-132.5 -72 -186.5 -126
c-54 -54.667 -96 -118.5 -126 -191.5s-45 -148.833 -45 -227.5c0 -162.667 57.333 -301.667 172 -417c113.333 -114.667 249.333 -172 408 -172c159.333 0 295.666 57.667 408.999 173c113.333 114.667 170 253 170 415c0 79.333 -15 155.833 -45 229.5
s-71.667 137.167 -125 190.5c-116 114 -254.333 171 -415 171zM533.004 270v825.001h210c81.333 0 139.333 -7.33301 174 -22c34 -14 61 -36 81 -66c24 -36 36 -77.333 36 -124c0 -72 -27 -131.667 -81 -179c-23.333 -20.667 -53 -37.334 -89 -50.001l234 -384h-141
l-221 365h-75v-365h-128zM661.004 738.001h61.001c53.333 0 93 7.66699 119 23c38 22.667 57 63 57 121c0 56 -22 90.667 -66 104c-12.667 4 -40.334 6 -83.001 6h-28h-60v-254z" />
    <glyph glyph-name="overscore" unicode="&#xaf;" horiz-adv-x="1111" 
d="M0 1767h1111v-135h-1111v135z" />
    <glyph glyph-name="degree" unicode="&#xb0;" horiz-adv-x="737" 
d="M372 1392c80 0 149.333 -28.668 208 -86.001c58.667 -56.667 88 -125.667 88 -207s-29 -150.666 -87 -207.999c-59.333 -58 -130.333 -87 -213 -87c-83.333 0 -154.333 29 -213 87c-58 57.333 -87 126.333 -87 207c0 82.667 29 152 87 208c60 57.333 132.333 86 217 86z
M366 1274c-48 0 -89.665 -17.333 -124.998 -52c-34.667 -34 -52 -75 -52 -123c0 -48.667 17.333 -90 52 -124c35.333 -34.667 77.666 -52 126.999 -52s91.666 17.333 126.999 52c34.667 34 52 75 52 123c0 50 -17.333 91.667 -52 125c-36 34 -79 51 -129 51z" />
    <glyph glyph-name="plusminus" unicode="&#xb1;" horiz-adv-x="1080" 
d="M35 702h464v455h82v-455h464v-82h-464v-466h-82v466h-464v82zM35 82h1010v-82h-1010v82z" />
    <glyph glyph-name="twosuperior" unicode="&#xb2;" horiz-adv-x="723" 
d="M613 637l0.000976562 -90.999h-502v77c122 124.667 202.667 213 242 265c74.667 100.667 112 193.334 112 278.001c0 43.333 -12 75.666 -36 96.999c-21.333 18.667 -49 28 -83 28c-41.333 0 -73 -14.667 -95 -44c-18 -24.667 -29.667 -63.667 -35 -117l-103 67
c24.667 66.667 53 112.667 85 138c37.333 30.667 86.333 46 147 46c68 0 124 -15.667 168 -47c48 -34.667 72 -89.334 72 -164.001s-28.333 -153.667 -85 -237c-50.667 -74 -132.334 -172.667 -245.001 -296h358z" />
    <glyph glyph-name="threesuperior" unicode="&#xb3;" horiz-adv-x="723" 
d="M243 933v111.003c12 -0.666992 20.667 -1 26 -1c44.667 0 82 11.667 112 35s45 59 45 107c0 72 -33.333 108 -100 108c-35.333 0 -62.666 -12 -81.999 -36c-10.667 -13.333 -21.667 -35 -33 -65l-98 53c23.333 43.333 48 74.666 74 93.999c37.333 28 84 42 140 42
c66.667 0 120.334 -18.333 161.001 -55c38 -34.667 57 -80 57 -136c0 -80 -37.333 -141.333 -112 -184c42 -10.667 75.667 -28 101 -52c40 -38.667 60 -88.667 60 -150c0 -81.333 -27 -148 -81 -200c-50.667 -49.333 -116.667 -74 -198 -74c-62 0 -115.667 15 -161 45
c-26.667 18 -57.334 48.667 -92.001 92l94 66c21.333 -34.667 40 -58.334 56 -71.001c29.333 -24.667 65.666 -37 108.999 -37c54.667 0 96 19.667 124 59c20 27.333 30 63.666 30 108.999c0 46 -13.333 82.333 -40 109c-28 26.667 -63.667 40 -107 40
c-22 0 -50.333 -3 -85 -9z" />
    <glyph glyph-name="acute" unicode="&#xb4;" 
d="M694 1433l162 -32l-372 -311l-71 11z" />
    <glyph glyph-name="mu" unicode="&#xb5;" horiz-adv-x="1018" 
d="M138 897l133 -0.000976562v-519c0 -84.667 5.33301 -138.667 16 -162c34 -74 100.333 -111 199 -111c80.667 0 143.667 24.333 189 73c28 30 44.667 63 50 99c4.66699 28 7 68 7 120v500h130v-897h-130v103c-44 -44.667 -83.833 -75.5 -119.5 -92.5
s-78.167 -25.5 -127.5 -25.5c-77.333 0 -140 20.667 -188 62c-7.33301 6.66699 -18 17.334 -32 32.001l4 -434h-144c18 136 27 288.667 27 458z" />
    <glyph glyph-name="paragraph" unicode="&#xb6;" horiz-adv-x="1023" 
d="M740 1277l-148.999 -17v-1436h-86v802c-74 8 -133.833 19.667 -179.5 35s-88.834 38.333 -129.501 69c-96 72.667 -144 171 -144 295c0 67.333 14.167 127 42.5 179s68.166 91.667 119.499 119c52.667 28 142.334 42 269.001 42h504v-64l-161 -13v-1464h-86v1453z" />
    <glyph glyph-name="middot" unicode="&#xb7;" horiz-adv-x="486" 
d="M244 606c32.667 0 60.665 -11.668 83.998 -35.001s35 -51.666 35 -84.999s-11.667 -61.666 -35 -84.999s-51.666 -35 -84.999 -35s-61.666 11.667 -84.999 35c-23.333 24 -35 52.333 -35 85c0 33.333 11.667 61.666 35 84.999c24 23.333 52.667 35 86 35z" />
    <glyph glyph-name="cedilla" unicode="&#xb8;" 
d="M536 -20c60 -43.333 90 -93.668 90 -151.001c0 -74 -50.667 -142.667 -152 -206l-76 34c70.667 34 106 74.667 106 122c0 40.667 -27.667 76.334 -83 107.001z" />
    <glyph glyph-name="onesuperior" unicode="&#xb9;" horiz-adv-x="723" 
d="M499 1365v-818.999h-115v637l-215 -8v60c72.667 7.33301 122 15.666 148 24.999c48.667 18.667 87 53.667 115 105h67z" />
    <glyph glyph-name="ordmasculine" unicode="&#xba;" horiz-adv-x="723" 
d="M366 1376c85.333 0 152.998 -29.667 202.998 -89c42.667 -50.667 64 -116 64 -196c0 -78.667 -21.333 -143.667 -64 -195c-49.333 -59.333 -118.333 -89 -207 -89c-89.333 0 -158.666 29.667 -207.999 89c-42.667 51.333 -64 116.333 -64 195c0 80.667 21.333 146 64 196
c50.667 59.333 121.334 89 212.001 89zM358.998 1286c-54 0 -94.667 -22.333 -122 -67c-21.333 -36 -32 -78.333 -32 -127s10.667 -91 32 -127c27.333 -45.333 69 -68 125 -68c55.333 0 96.333 22.667 123 68c22 36 33 78 33 126c0 50 -11 92.667 -33 128
c-27.333 44.667 -69.333 67 -126 67z" />
    <glyph glyph-name="guillemotright" unicode="&#xbb;" horiz-adv-x="816" 
d="M102 901h73l237 -455l-237 -446h-62l126 446zM416 901h73l237 -455l-237 -446h-62l126 446z" />
    <glyph glyph-name="onequarter" unicode="&#xbc;" horiz-adv-x="1748" 
d="M499 1365v-818.999h-115v637l-215 -8v60c72.667 7.33301 122 15.666 148 24.999c48.667 18.667 87 53.667 115 105h67zM1374 1368l-898 -1388l-102 18l902 1388zM1565 819.001v-549h116v-90h-116v-180h-107v180h-371v85l353 554h125zM1458 676.001l-245 -406h245v406z
" />
    <glyph glyph-name="onehalf" unicode="&#xbd;" horiz-adv-x="1748" 
d="M499 1365v-818.999h-115v637l-215 -8v60c72.667 7.33301 122 15.666 148 24.999c48.667 18.667 87 53.667 115 105h67zM1374 1368l-898 -1388l-102 18l902 1388zM1638 91.001l0.000976562 -91.001h-502v77c123.333 126 204 214.667 242 266
c74.667 100.667 112 193 112 277c0 44 -12 76.667 -36 98c-21.333 18.667 -49 28 -83 28c-41.333 0 -73 -14.667 -95 -44c-18 -24.667 -29.667 -63.667 -35 -117l-103 66c24.667 66.667 53 113 85 139c36.667 30.667 85.667 46 147 46c68.667 0 124.667 -16 168 -48
c48 -34 72 -88.333 72 -163c0 -75.333 -28.333 -154.666 -85 -237.999c-50.667 -73.333 -132.334 -172 -245.001 -296h358z" />
    <glyph glyph-name="threequarters" unicode="&#xbe;" horiz-adv-x="1748" 
d="M243 933v111.003c12 -0.666992 20.667 -1 26 -1c44.667 0 82 11.667 112 35s45 59 45 107c0 72 -33.333 108 -100 108c-35.333 0 -62.666 -12 -81.999 -36c-10.667 -13.333 -21.667 -35 -33 -65l-98 53c23.333 43.333 48 74.666 74 93.999c37.333 28 84 42 140 42
c66.667 0 120.334 -18.333 161.001 -55c38 -34.667 57 -80 57 -136c0 -80 -37.333 -141.333 -112 -184c42 -10.667 75.667 -28 101 -52c40 -38.667 60 -88.667 60 -150c0 -81.333 -27 -148 -81 -200c-50.667 -49.333 -116.667 -74 -198 -74c-62 0 -115.667 15 -161 45
c-26.667 18 -57.334 48.667 -92.001 92l94 66c21.333 -34.667 40 -58.334 56 -71.001c29.333 -24.667 65.666 -37 108.999 -37c54.667 0 96 19.667 124 59c20 27.333 30 63.666 30 108.999c0 46 -13.333 82.333 -40 109c-28 26.667 -63.667 40 -107 40
c-22 0 -50.333 -3 -85 -9zM1374 1368l-898 -1388l-102 18l902 1388zM1564 819.003v-549h117v-90h-117v-180h-107v180h-370v85l352 554h125zM1457 676.003l-245 -406h245v406z" />
    <glyph glyph-name="questiondown" unicode="&#xbf;" horiz-adv-x="691" 
d="M513 -35l137.001 -65.0029c-24.667 -70 -58.334 -122.667 -101.001 -158c-56 -46 -126.333 -69 -211 -69c-81.333 0 -146 23 -194 69c-58 55.333 -87 125.333 -87 210c0 72 21.667 140 65 204c20 29.333 74.667 92.333 164 189c56 60 84 115.333 84 166
c0 66 -25.667 129.667 -77 191h155c44.667 -51.333 67 -109.333 67 -174c0 -57.333 -15 -110.666 -45 -159.999c-19.333 -33.333 -58.333 -78.333 -117 -135c-65.333 -63.333 -107.666 -114.666 -126.999 -153.999c-18 -37.333 -27 -74.333 -27 -111
c0 -47.333 15 -84.666 45 -111.999c30 -28 66.333 -42 109 -42c87.333 0 140.666 50.333 159.999 151zM381.001 1092c29.333 0 54.668 -10.668 76.001 -32.001s32 -47 32 -77s-10.667 -55.667 -32 -77c-20.667 -21.333 -46.334 -32 -77.001 -32c-30 0 -55.667 10.667 -77 32
s-32 47 -32 77c0 30.667 10.667 56.334 32 77.001c22 21.333 48 32 78 32z" />
    <glyph glyph-name="Agrave" unicode="&#xc0;" horiz-adv-x="1228" 
d="M689 1365l545 -1365h-176l-170 443h-555l-163 -443h-177l545 1365h151zM834 576l-227 588l-222 -588h449zM424 1801l281 -331l-71 -12l-372 312z" />
    <glyph glyph-name="Aacute" unicode="&#xc1;" horiz-adv-x="1228" 
d="M689 1365l545 -1365h-176l-170 443h-555l-163 -443h-177l545 1365h151zM834 576l-227 588l-222 -588h449zM796 1801l162 -31l-372 -312l-71 12z" />
    <glyph glyph-name="Acircumflex" unicode="&#xc2;" horiz-adv-x="1228" 
d="M689 1365l545 -1365h-176l-170 443h-555l-163 -443h-177l545 1365h151zM834 576l-227 588l-222 -588h449zM671 1799l270 -325l-62 -13l-265 237l-262 -237l-66 13l270 325h115z" />
    <glyph glyph-name="Atilde" unicode="&#xc3;" horiz-adv-x="1228" 
d="M689 1365l545 -1365h-176l-170 443h-555l-163 -443h-177l545 1365h151zM834 576l-227 588l-222 -588h449zM902 1710l44.999 -25.999c-18 -36.667 -39.667 -67.667 -65 -93c-43.333 -44 -82 -66 -116 -66c-18.667 0 -61.334 14.333 -128.001 43
c-42.667 17.333 -68.667 27.666 -78 30.999c-28 10.667 -52.333 16 -73 16c-30 0 -60.667 -12 -92 -36c-17.333 -12.667 -38.333 -31 -63 -55l-38 35c54.667 58.667 98.334 100 131.001 124c26.667 20 55.667 30 87 30c20.667 0 43 -4 67 -12
c6.66699 -2 32.334 -12.333 77.001 -31c66 -28 112.667 -42 140 -42c26 0 49.333 10.667 70 32c8.66699 9.33301 20.667 26 36 50z" />
    <glyph glyph-name="Adieresis" unicode="&#xc4;" horiz-adv-x="1228" 
d="M689 1365l545 -1365h-176l-170 443h-555l-163 -443h-177l545 1365h151zM834 576l-227 588l-222 -588h449zM410 1736c30.667 0 57 -11 79 -33s33 -48.667 33 -80s-11 -58.333 -33 -81c-22 -22 -48.667 -33 -80 -33c-32 0 -59 11 -81 33c-22 22.667 -33 49.667 -33 81
s11 58 33 80c22.667 22 50 33 82 33zM820 1736c30.667 0 57 -11 79 -33s33 -48.667 33 -80s-11 -58.333 -33 -81c-22 -22 -48.667 -33 -80 -33c-32 0 -59 11 -81 33c-22 22.667 -33 49.667 -33 81s11 58 33 80c22.667 22 50 33 82 33z" />
    <glyph glyph-name="Aring" unicode="&#xc5;" horiz-adv-x="1228" 
d="M689 1365l545 -1365h-176l-170 443h-555l-163 -443h-177l545 1365h151zM834 576l-227 588l-222 -588h449zM616 1843c55.333 0 102.999 -19.999 142.999 -59.999s60 -88.333 60 -145s-20 -105 -60 -145s-88.333 -60 -145 -60c-57.333 0 -105.666 20 -144.999 60
c-40 40.667 -60 89 -60 145c0 57.333 20 105.666 60 144.999c40.667 40 89.667 60 147 60zM614.999 1754c-32.667 0 -60.332 -11.667 -82.999 -35c-22.667 -22.667 -34 -49.667 -34 -81s11.333 -58.333 34 -81c22.667 -23.333 51 -35 85 -35
c31.333 0 57.666 11.333 78.999 34c22.667 22.667 34 50 34 82c0 32.667 -11.333 60 -34 82c-22 22.667 -49 34 -81 34z" />
    <glyph glyph-name="AE" unicode="&#xc6;" horiz-adv-x="1553" 
d="M909 1235v-474h504v-130h-504v-501h576v-130h-733v399h-431l-216 -399h-173l762 1365h719v-130h-504zM752 1188l-357 -659h357v659z" />
    <glyph glyph-name="Ccedilla" unicode="&#xc7;" horiz-adv-x="1304" 
d="M1284 1172l-119.001 -113c-32.667 57.333 -69.334 100.333 -110.001 129c-71.333 49.333 -159.333 74 -264 74c-168.667 0 -299 -61 -391 -183c-80 -106.667 -120 -242.667 -120 -408c0 -86 11.667 -166 35 -240s55.333 -133 96 -177
c38.667 -42.667 90.334 -77.667 155.001 -105c72.667 -30.667 147.667 -46 225 -46c105.333 0 193.333 24 264 72c38 26 74.667 69.667 110 131l119 -113c-43.333 -51.333 -81 -88.333 -113 -111c-100.667 -72.667 -228 -109 -382 -109
c-89.333 0 -175.166 12.667 -257.499 38s-150.833 60 -205.5 104c-66.667 53.333 -118.667 124 -156 212c-45.333 106.667 -68 220.667 -68 342c0 212 60 384.667 180 518c58 64 128.667 113.333 212 148c93.333 38 192 57 296 57c116 0 217.667 -21 305 -63
c64 -30.667 127 -83 189 -157zM743.999 -27c60 -43.333 90 -93.668 90 -151.001c0 -74 -50.667 -142.667 -152 -206l-76 34c70.667 34 106 74.667 106 122c0 40.667 -27.667 76.334 -83 107.001z" />
    <glyph glyph-name="Egrave" unicode="&#xc8;" horiz-adv-x="1001" 
d="M355 761h504v-130h-504v-501h577v-130h-741v1365h668v-130h-504v-474zM379 1801l281 -331l-71 -12l-372 312z" />
    <glyph glyph-name="Eacute" unicode="&#xc9;" horiz-adv-x="1001" 
d="M355 761h504v-130h-504v-501h577v-130h-741v1365h668v-130h-504v-474zM669 1801l162 -31l-372 -312l-71 12z" />
    <glyph glyph-name="Ecircumflex" unicode="&#xca;" horiz-adv-x="1001" 
d="M355 761h504v-130h-504v-501h577v-130h-741v1365h668v-130h-504v-474zM578 1799l270 -325l-62 -13l-265 237l-262 -237l-66 13l270 325h115z" />
    <glyph glyph-name="Edieresis" unicode="&#xcb;" horiz-adv-x="1001" 
d="M355 761h504v-130h-504v-501h577v-130h-741v1365h668v-130h-504v-474zM324 1736c30.667 0 57 -11 79 -33s33 -48.667 33 -80s-11 -58.333 -33 -81c-22 -22 -48.667 -33 -80 -33c-32 0 -59 11 -81 33c-22 22.667 -33 49.667 -33 81s11 58 33 80c22.667 22 50 33 82 33z
M734 1736c30.667 0 57 -11 79 -33s33 -48.667 33 -80s-11 -58.333 -33 -81c-22 -22 -48.667 -33 -80 -33c-32 0 -59 11 -81 33c-22 22.667 -33 49.667 -33 81s11 58 33 80c22.667 22 50 33 82 33z" />
    <glyph glyph-name="Igrave" unicode="&#xcc;" horiz-adv-x="546" 
d="M355 1365v-1365h-164v1365h164zM125 1801l247 -339l-68 -13l-335 304z" />
    <glyph glyph-name="Iacute" unicode="&#xcd;" horiz-adv-x="546" 
d="M355 1365v-1365h-164v1365h164zM414 1801l162 -31l-331 -312l-71 12z" />
    <glyph glyph-name="Icircumflex" unicode="&#xce;" horiz-adv-x="546" 
d="M355 1365v-1365h-164v1365h164zM336 1799l229 -325l-62 -13l-224 237l-221 -237l-66 13l230 325h114z" />
    <glyph glyph-name="Idieresis" unicode="&#xcf;" horiz-adv-x="546" 
d="M355 1365v-1365h-164v1365h164zM117 1736c30.667 0 57 -11 79 -33s33 -48.667 33 -80s-11 -58.333 -33 -81c-22 -22 -48.667 -33 -80 -33c-32 0 -59 11 -81 33c-22 22.667 -33 49.667 -33 81s11 58 33 80c22.667 22 50 33 82 33zM431 1736c30.667 0 57 -11 79 -33
s33 -48.667 33 -80s-11 -58.333 -33 -81c-22 -22 -49 -33 -81 -33c-31.333 0 -58 11 -80 33c-22 22.667 -33 49.667 -33 81s11 58 33 80c22.667 22 50 33 82 33z" />
    <glyph glyph-name="Eth" unicode="&#xd0;" horiz-adv-x="1396" 
d="M191 758v606.999h427c105.333 0 191 -7 257 -21c140 -30 246.333 -105.333 319 -226c66.667 -111.333 100 -248.666 100 -411.999c0 -184.667 -42 -338 -126 -460c-78.667 -113.333 -185 -186.333 -319 -219c-72.667 -18 -149.667 -27 -231 -27h-427v642h-150v116h150z
M355 757.999l381 0.000976562v-116h-381v-512h270c144 0 253.667 34.667 329 104c108 99.333 162 254.333 162 465c0 132 -22 241 -66 327c-52.667 103.333 -127.667 167.666 -225 192.999c-40 10.667 -106.667 16 -200 16h-270v-477z" />
    <glyph glyph-name="Ntilde" unicode="&#xd1;" horiz-adv-x="1497" 
d="M1306 1365v-1365h-157l-801 1109v-1109h-157v1365h157l801 -1109v1109h157zM1036 1710l44.999 -25.999c-18 -36.667 -39.667 -67.667 -65 -93c-43.333 -44 -82 -66 -116 -66c-18.667 0 -61.334 14.333 -128.001 43c-42.667 17.333 -68.667 27.666 -78 30.999
c-28 10.667 -52.333 16 -73 16c-30 0 -60.667 -12 -92 -36c-17.333 -12.667 -38.333 -31 -63 -55l-38 35c54.667 58.667 98.334 100 131.001 124c26.667 20 55.667 30 87 30c20.667 0 43 -4 67 -12c6.66699 -2 32.334 -12.333 77.001 -31c66 -28 112.667 -42 140 -42
c26 0 49.333 10.667 70 32c8.66699 9.33301 20.667 26 36 50z" />
    <glyph glyph-name="Ograve" unicode="&#xd2;" horiz-adv-x="1504" 
d="M760 1392c182 0 330.333 -54.667 445 -164c130.667 -124 196 -306 196 -546c0 -238.667 -65.333 -420.334 -196 -545.001c-114.667 -109.333 -266 -164 -454 -164c-187.333 0 -338.333 54.667 -453 164c-130.667 124.667 -196 305.667 -196 543
c0 242.667 65.333 425.334 196 548.001c116 109.333 270 164 462 164zM745 1262c-61.333 0 -120.499 -11.332 -177.499 -33.999s-104.167 -54 -141.5 -94c-98 -104 -147 -254.333 -147 -451s49 -347.334 147 -452.001c38 -40 85.667 -71.333 143 -94s118 -34 182 -34
c64.667 0 125.667 11.333 183 34s105 54 143 94c98 104.667 147 254.334 147 449.001c0 199.333 -49 350.666 -147 453.999c-80.667 85.333 -191.334 128 -332.001 128zM596.001 1801l281 -331l-71 -12l-372 312z" />
    <glyph glyph-name="Oacute" unicode="&#xd3;" horiz-adv-x="1504" 
d="M760 1392c182 0 330.333 -54.667 445 -164c130.667 -124 196 -306 196 -546c0 -238.667 -65.333 -420.334 -196 -545.001c-114.667 -109.333 -266 -164 -454 -164c-187.333 0 -338.333 54.667 -453 164c-130.667 124.667 -196 305.667 -196 543
c0 242.667 65.333 425.334 196 548.001c116 109.333 270 164 462 164zM745 1262c-61.333 0 -120.499 -11.332 -177.499 -33.999s-104.167 -54 -141.5 -94c-98 -104 -147 -254.333 -147 -451s49 -347.334 147 -452.001c38 -40 85.667 -71.333 143 -94s118 -34 182 -34
c64.667 0 125.667 11.333 183 34s105 54 143 94c98 104.667 147 254.334 147 449.001c0 199.333 -49 350.666 -147 453.999c-80.667 85.333 -191.334 128 -332.001 128zM907.001 1801l162 -31l-372 -312l-71 12z" />
    <glyph glyph-name="Ocircumflex" unicode="&#xd4;" horiz-adv-x="1504" 
d="M760 1392c182 0 330.333 -54.667 445 -164c130.667 -124 196 -306 196 -546c0 -238.667 -65.333 -420.334 -196 -545.001c-114.667 -109.333 -266 -164 -454 -164c-187.333 0 -338.333 54.667 -453 164c-130.667 124.667 -196 305.667 -196 543
c0 242.667 65.333 425.334 196 548.001c116 109.333 270 164 462 164zM745 1262c-61.333 0 -120.499 -11.332 -177.499 -33.999s-104.167 -54 -141.5 -94c-98 -104 -147 -254.333 -147 -451s49 -347.334 147 -452.001c38 -40 85.667 -71.333 143 -94s118 -34 182 -34
c64.667 0 125.667 11.333 183 34s105 54 143 94c98 104.667 147 254.334 147 449.001c0 199.333 -49 350.666 -147 453.999c-80.667 85.333 -191.334 128 -332.001 128zM809.001 1799l270 -325l-62 -13l-265 237l-262 -237l-66 13l270 325h115z" />
    <glyph glyph-name="Otilde" unicode="&#xd5;" horiz-adv-x="1504" 
d="M760 1392c182 0 330.333 -54.667 445 -164c130.667 -124 196 -306 196 -546c0 -238.667 -65.333 -420.334 -196 -545.001c-114.667 -109.333 -266 -164 -454 -164c-187.333 0 -338.333 54.667 -453 164c-130.667 124.667 -196 305.667 -196 543
c0 242.667 65.333 425.334 196 548.001c116 109.333 270 164 462 164zM745 1262c-61.333 0 -120.499 -11.332 -177.499 -33.999s-104.167 -54 -141.5 -94c-98 -104 -147 -254.333 -147 -451s49 -347.334 147 -452.001c38 -40 85.667 -71.333 143 -94s118 -34 182 -34
c64.667 0 125.667 11.333 183 34s105 54 143 94c98 104.667 147 254.334 147 449.001c0 199.333 -49 350.666 -147 453.999c-80.667 85.333 -191.334 128 -332.001 128zM1047 1710l44.999 -25.999c-18 -36.667 -39.667 -67.667 -65 -93c-43.333 -44 -82 -66 -116 -66
c-18.667 0 -61.334 14.333 -128.001 43c-42.667 17.333 -68.667 27.666 -78 30.999c-28 10.667 -52.333 16 -73 16c-30 0 -60.667 -12 -92 -36c-17.333 -12.667 -38.333 -31 -63 -55l-38 35c54.667 58.667 98.334 100 131.001 124c26.667 20 55.667 30 87 30
c20.667 0 43 -4 67 -12c6.66699 -2 32.334 -12.333 77.001 -31c66 -28 112.667 -42 140 -42c26 0 49.333 10.667 70 32c8.66699 9.33301 20.667 26 36 50z" />
    <glyph glyph-name="Odieresis" unicode="&#xd6;" horiz-adv-x="1504" 
d="M760 1392c182 0 330.333 -54.667 445 -164c130.667 -124 196 -306 196 -546c0 -238.667 -65.333 -420.334 -196 -545.001c-114.667 -109.333 -266 -164 -454 -164c-187.333 0 -338.333 54.667 -453 164c-130.667 124.667 -196 305.667 -196 543
c0 242.667 65.333 425.334 196 548.001c116 109.333 270 164 462 164zM745 1262c-61.333 0 -120.499 -11.332 -177.499 -33.999s-104.167 -54 -141.5 -94c-98 -104 -147 -254.333 -147 -451s49 -347.334 147 -452.001c38 -40 85.667 -71.333 143 -94s118 -34 182 -34
c64.667 0 125.667 11.333 183 34s105 54 143 94c98 104.667 147 254.334 147 449.001c0 199.333 -49 350.666 -147 453.999c-80.667 85.333 -191.334 128 -332.001 128zM548.001 1736c30.667 0 57 -11 79 -33s33 -48.667 33 -80s-11 -58.333 -33 -81
c-22 -22 -48.667 -33 -80 -33c-32 0 -59 11 -81 33c-22 22.667 -33 49.667 -33 81s11 58 33 80c22.667 22 50 33 82 33zM958.001 1736c30.667 0 57 -11 79 -33s33 -48.667 33 -80s-11 -58.333 -33 -81c-22 -22 -48.667 -33 -80 -33c-32 0 -59 11 -81 33
c-22 22.667 -33 49.667 -33 81s11 58 33 80c22.667 22 50 33 82 33z" />
    <glyph glyph-name="multiply" unicode="&#xd7;" horiz-adv-x="1161" 
d="M131 961l448 -453l453 454l58 -65l-447 -452l446 -443l-68 -63l-442 444l-437 -444l-57 63l431 443l-446 454z" />
    <glyph glyph-name="Oslash" unicode="&#xd8;" horiz-adv-x="1504" 
d="M1246 1434l84 -64.0029l-115 -149c50 -56.667 87.333 -109.667 112 -159c49.333 -99.333 74 -227.666 74 -384.999c0 -235.333 -65.333 -415.333 -196 -540c-114.667 -109.333 -264 -164 -448 -164c-96.667 0 -180.667 12.667 -252 38
c-34.667 12.667 -85.334 38.334 -152.001 77.001l-111 -142l-80 69l111 145c-48 58.667 -82.667 111 -104 157c-44.667 96.667 -67 220.334 -67 371.001c0 235.333 65.333 415.333 196 540c114.667 109.333 265.334 164 452.001 164c147.333 0 274 -34 380 -102z
M446 211.997c90.667 -72.667 192.999 -109 306.999 -109c64 0 124.5 11.333 181.5 34s104.5 54 142.5 94c98 105.333 147 254.333 147 447c0 114.667 -17 216.667 -51 306c-11.333 30 -31.666 65.667 -60.999 107zM1040 1171c-46.667 30 -87.334 51 -122.001 63
c-54 18.667 -110 28 -168 28c-64 0 -124.667 -11.333 -182 -34s-104.666 -54 -141.999 -94c-98 -104.667 -147 -254.667 -147 -450c0 -147.333 31.333 -276.333 94 -387z" />
    <glyph glyph-name="Ugrave" unicode="&#xd9;" horiz-adv-x="1401" 
d="M177 1365h164.001v-814c0 -92 3 -155 9 -189c15.333 -87.333 55.333 -152.666 120 -195.999c63.333 -42 140 -63 230 -63c89.333 0 166 21 230 63c64.667 43.333 104.667 108.666 120 195.999c6 35.333 9 98.333 9 189v814h164v-808c0 -102 -4.33301 -176.333 -13 -223
c-20.667 -112 -71.334 -199 -152.001 -261c-86.667 -66.667 -206 -100 -358 -100c-235.333 0 -392.333 78 -471 234c-26 52.667 -42.333 118.667 -49 198c-2 28 -3 78.667 -3 152v808zM538.001 1801l281 -331l-71 -12l-372 312z" />
    <glyph glyph-name="Uacute" unicode="&#xda;" horiz-adv-x="1401" 
d="M177 1365h164.001v-814c0 -92 3 -155 9 -189c15.333 -87.333 55.333 -152.666 120 -195.999c63.333 -42 140 -63 230 -63c89.333 0 166 21 230 63c64.667 43.333 104.667 108.666 120 195.999c6 35.333 9 98.333 9 189v814h164v-808c0 -102 -4.33301 -176.333 -13 -223
c-20.667 -112 -71.334 -199 -152.001 -261c-86.667 -66.667 -206 -100 -358 -100c-235.333 0 -392.333 78 -471 234c-26 52.667 -42.333 118.667 -49 198c-2 28 -3 78.667 -3 152v808zM855.001 1801l162 -31l-372 -312l-71 12z" />
    <glyph glyph-name="Ucircumflex" unicode="&#xdb;" horiz-adv-x="1401" 
d="M177 1365h164.001v-814c0 -92 3 -155 9 -189c15.333 -87.333 55.333 -152.666 120 -195.999c63.333 -42 140 -63 230 -63c89.333 0 166 21 230 63c64.667 43.333 104.667 108.666 120 195.999c6 35.333 9 98.333 9 189v814h164v-808c0 -102 -4.33301 -176.333 -13 -223
c-20.667 -112 -71.334 -199 -152.001 -261c-86.667 -66.667 -206 -100 -358 -100c-235.333 0 -392.333 78 -471 234c-26 52.667 -42.333 118.667 -49 198c-2 28 -3 78.667 -3 152v808zM758.001 1799l270 -325l-62 -13l-265 237l-262 -237l-66 13l270 325h115z" />
    <glyph glyph-name="Udieresis" unicode="&#xdc;" horiz-adv-x="1401" 
d="M177 1365h164.001v-814c0 -92 3 -155 9 -189c15.333 -87.333 55.333 -152.666 120 -195.999c63.333 -42 140 -63 230 -63c89.333 0 166 21 230 63c64.667 43.333 104.667 108.666 120 195.999c6 35.333 9 98.333 9 189v814h164v-808c0 -102 -4.33301 -176.333 -13 -223
c-20.667 -112 -71.334 -199 -152.001 -261c-86.667 -66.667 -206 -100 -358 -100c-235.333 0 -392.333 78 -471 234c-26 52.667 -42.333 118.667 -49 198c-2 28 -3 78.667 -3 152v808zM497.001 1736c30.667 0 57 -11 79 -33s33 -48.667 33 -80s-11 -58.333 -33 -81
c-22 -22 -48.667 -33 -80 -33c-32 0 -59 11 -81 33c-22 22.667 -33 49.667 -33 81s11 58 33 80c22.667 22 50 33 82 33zM907.001 1736c30.667 0 57 -11 79 -33s33 -48.667 33 -80s-11 -58.333 -33 -81c-22 -22 -48.667 -33 -80 -33c-32 0 -59 11 -81 33
c-22 22.667 -33 49.667 -33 81s11 58 33 80c22.667 22 50 33 82 33z" />
    <glyph glyph-name="Yacute" unicode="&#xdd;" horiz-adv-x="981" 
d="M856 1365h173l-456 -759v-606h-164v606l-464 759h193l361 -595zM659 1801l162 -31l-372 -312l-71 12z" />
    <glyph glyph-name="Thorn" unicode="&#xde;" horiz-adv-x="1010" 
d="M191 0l0.000976562 1365h164v-191h198c77.333 0 136.666 -4.66699 177.999 -14c86 -19.333 151 -64 195 -134c37.333 -58.667 56 -126.667 56 -204c0 -82.667 -21 -156.667 -63 -222c-76 -118 -212.333 -177 -409 -177h-155v-423h-164zM355.001 553h155.999
c196 0 294 86.667 294 260c0 93.333 -28.333 159 -85 197c-33.333 22.667 -87.666 34 -162.999 34h-202v-491z" />
    <glyph glyph-name="germandbls" unicode="&#xdf;" horiz-adv-x="1027" 
d="M157 0v770.999h-131v130h131v141c0 71.333 7 128.333 21 171c48.667 147.333 156.667 221 324 221c109.333 0 188.333 -35.333 237 -106c28.667 -42 43 -90.667 43 -146c0 -39.333 -6.33301 -77.666 -19 -114.999c-8 -23.333 -27.667 -64 -59 -122
c-23.333 -43.333 -35 -74.666 -35 -93.999c0 -22.667 8 -44.667 24 -66c16 -22 37.333 -46.333 64 -73c63.333 -63.333 112 -119.333 146 -168c46 -66 69 -136.667 69 -212c0 -100 -36 -184.667 -108 -254c-67.333 -65.333 -151.333 -98 -252 -98
c-77.333 0 -152 20.333 -224 61l49 146c60.667 -51.333 122.667 -77 186 -77c51.333 0 93.333 16 126 48c42 41.333 63 96.333 63 165c0 55.333 -14.333 104.333 -43 147c-21.333 31.333 -73 87.666 -155 168.999c-26.667 26.667 -48.667 51.334 -66 74.001
c-21.333 29.333 -32 60.666 -32 93.999c0 32 23 90.333 69 175c24.667 46.667 40 78 46 94c12 32.667 18 63 18 91c0 41.333 -12.667 74.333 -38 99c-25.333 25.333 -63 38 -113 38c-127.333 0 -191 -81.333 -191 -244v-1060h-150z" />
    <glyph glyph-name="agrave" unicode="&#xe0;" horiz-adv-x="1081" 
d="M924 901l0.00195312 -900.999h-150v110c-42.667 -45.333 -86.334 -78.5 -131.001 -99.5s-94.334 -31.5 -149.001 -31.5c-55.333 0 -110 13.167 -164 39.5s-99.333 62.166 -136 107.499c-67.333 84 -101 192.333 -101 325s33.667 240.667 101 324c36.667 46 82 82 136 108
s110 39 168 39c70 0 134 -18.333 192 -55c22 -14.667 50 -40 84 -76v110h150zM516.002 792.001c-90.667 0 -159 -39.999 -205 -119.999c-36 -62.667 -54 -136.334 -54 -221.001s18 -158.667 54 -222c46 -80 115.667 -120 209 -120c94 0 163.667 40 209 120
c36 64 54 137.667 54 221c0 85.333 -18 159.333 -54 222c-46.667 80 -117.667 120 -213 120zM367.002 1433l281 -332l-71 -11l-372 311z" />
    <glyph glyph-name="aacute" unicode="&#xe1;" horiz-adv-x="1081" 
d="M924 901l0.00195312 -900.999h-150v110c-42.667 -45.333 -86.334 -78.5 -131.001 -99.5s-94.334 -31.5 -149.001 -31.5c-55.333 0 -110 13.167 -164 39.5s-99.333 62.166 -136 107.499c-67.333 84 -101 192.333 -101 325s33.667 240.667 101 324c36.667 46 82 82 136 108
s110 39 168 39c70 0 134 -18.333 192 -55c22 -14.667 50 -40 84 -76v110h150zM516.002 792.001c-90.667 0 -159 -39.999 -205 -119.999c-36 -62.667 -54 -136.334 -54 -221.001s18 -158.667 54 -222c46 -80 115.667 -120 209 -120c94 0 163.667 40 209 120
c36 64 54 137.667 54 221c0 85.333 -18 159.333 -54 222c-46.667 80 -117.667 120 -213 120zM703.002 1433l162 -32l-372 -311l-71 11z" />
    <glyph glyph-name="acircumflex" unicode="&#xe2;" horiz-adv-x="1081" 
d="M924 901l0.00195312 -900.999h-150v110c-42.667 -45.333 -86.334 -78.5 -131.001 -99.5s-94.334 -31.5 -149.001 -31.5c-55.333 0 -110 13.167 -164 39.5s-99.333 62.166 -136 107.499c-67.333 84 -101 192.333 -101 325s33.667 240.667 101 324c36.667 46 82 82 136 108
s110 39 168 39c70 0 134 -18.333 192 -55c22 -14.667 50 -40 84 -76v110h150zM516.002 792.001c-90.667 0 -159 -39.999 -205 -119.999c-36 -62.667 -54 -136.334 -54 -221.001s18 -158.667 54 -222c46 -80 115.667 -120 209 -120c94 0 163.667 40 209 120
c36 64 54 137.667 54 221c0 85.333 -18 159.333 -54 222c-46.667 80 -117.667 120 -213 120zM600.002 1434l250 -328l-62 -16l-245 240l-241 -240l-66 16l250 328h114z" />
    <glyph glyph-name="atilde" unicode="&#xe3;" horiz-adv-x="1081" 
d="M924 901l0.00195312 -900.999h-150v110c-42.667 -45.333 -86.334 -78.5 -131.001 -99.5s-94.334 -31.5 -149.001 -31.5c-55.333 0 -110 13.167 -164 39.5s-99.333 62.166 -136 107.499c-67.333 84 -101 192.333 -101 325s33.667 240.667 101 324c36.667 46 82 82 136 108
s110 39 168 39c70 0 134 -18.333 192 -55c22 -14.667 50 -40 84 -76v110h150zM516.002 792.001c-90.667 0 -159 -39.999 -205 -119.999c-36 -62.667 -54 -136.334 -54 -221.001s18 -158.667 54 -222c46 -80 115.667 -120 209 -120c94 0 163.667 40 209 120
c36 64 54 137.667 54 221c0 85.333 -18 159.333 -54 222c-46.667 80 -117.667 120 -213 120zM807.002 1348l45 -26.001c-62.667 -105.333 -119.334 -158 -170.001 -158c-19.333 0 -39.666 4.66699 -60.999 14l-65 28c-70 30.667 -116.333 46 -139 46
c-34.667 0 -83.334 -30.333 -146.001 -91l-38 36c16 17.333 46.667 48 92 92c25.333 24.667 45.333 41.334 60 50.001c13.333 8 30 12 50 12c18.667 0 39.667 -3.66699 63 -11c6.66699 -2 32.334 -12.667 77.001 -32c66 -28.667 109 -43 129 -43c36.667 0 71 27.667 103 83z
" />
    <glyph glyph-name="adieresis" unicode="&#xe4;" horiz-adv-x="1081" 
d="M924 901l0.00195312 -900.999h-150v110c-42.667 -45.333 -86.334 -78.5 -131.001 -99.5s-94.334 -31.5 -149.001 -31.5c-55.333 0 -110 13.167 -164 39.5s-99.333 62.166 -136 107.499c-67.333 84 -101 192.333 -101 325s33.667 240.667 101 324c36.667 46 82 82 136 108
s110 39 168 39c70 0 134 -18.333 192 -55c22 -14.667 50 -40 84 -76v110h150zM516.002 792.001c-90.667 0 -159 -39.999 -205 -119.999c-36 -62.667 -54 -136.334 -54 -221.001s18 -158.667 54 -222c46 -80 115.667 -120 209 -120c94 0 163.667 40 209 120
c36 64 54 137.667 54 221c0 85.333 -18 159.333 -54 222c-46.667 80 -117.667 120 -213 120zM353.002 1358c27.333 0 51 -10 71 -30s30 -44 30 -72c0 -28.667 -10 -53 -30 -73s-44 -30 -72 -30c-28.667 0 -53 10 -73 30s-30 44.333 -30 73c0 28 10 52 30 72s44.667 30 74 30
zM735.002 1358c27.333 0 51 -10 71 -30s30 -44 30 -72c0 -28.667 -10 -53 -30 -73s-44.333 -30 -73 -30c-28 0 -52 10 -72 30s-30 44.333 -30 73c0 28 10 52 30 72s44.667 30 74 30z" />
    <glyph glyph-name="aring" unicode="&#xe5;" horiz-adv-x="1081" 
d="M924 901l0.00195312 -900.999h-150v110c-42.667 -45.333 -86.334 -78.5 -131.001 -99.5s-94.334 -31.5 -149.001 -31.5c-55.333 0 -110 13.167 -164 39.5s-99.333 62.166 -136 107.499c-67.333 84 -101 192.333 -101 325s33.667 240.667 101 324c36.667 46 82 82 136 108
s110 39 168 39c70 0 134 -18.333 192 -55c22 -14.667 50 -40 84 -76v110h150zM516.002 792.001c-90.667 0 -159 -39.999 -205 -119.999c-36 -62.667 -54 -136.334 -54 -221.001s18 -158.667 54 -222c46 -80 115.667 -120 209 -120c94 0 163.667 40 209 120
c36 64 54 137.667 54 221c0 85.333 -18 159.333 -54 222c-46.667 80 -117.667 120 -213 120zM544.002 1461c54 0 99.666 -18.668 136.999 -56.001s56 -82.666 56 -135.999c0 -54 -19.333 -100.333 -58 -139s-85 -58 -139 -58c-53.333 0 -98.666 19.333 -135.999 58
c-37.333 38 -56 83.333 -56 136c0 56 18.667 102.333 56 139c37.333 37.333 84 56 140 56zM540.001 1376c-29.333 0 -54.668 -10.667 -76.001 -32c-20.667 -20.667 -31 -46 -31 -76s10.333 -55.667 31 -77c20.667 -22.667 46.334 -34 77.001 -34s57 11 79 33
c21.333 21.333 32 47.333 32 78s-11.333 56.667 -34 78c-21.333 20 -47.333 30 -78 30z" />
    <glyph glyph-name="ae" unicode="&#xe6;" horiz-adv-x="1415" 
d="M1314 412l-598.002 0.000976562c2.66699 -107.333 24 -184.333 64 -231c44.667 -52 105 -78 181 -78c56.667 0 104.334 14.667 143.001 44c26.667 20.667 55.667 59 87 115l136 -66c-40 -66.667 -80.667 -115 -122 -145c-65.333 -48 -144.666 -72 -237.999 -72
c-63.333 0 -119 9.66699 -167 29c-50 20.667 -99.667 63.667 -149 129c-55.333 -62 -102.666 -103 -141.999 -123c-46 -23.333 -100 -35 -162 -35c-69.333 0 -126.333 15 -171 45c-67.333 44.667 -101 112.667 -101 204c0 101.333 43.333 175.333 130 222
c31.333 16.667 111.666 43 240.999 79c60.667 17.333 100.667 39 120 65c12.667 17.333 19 37.666 19 60.999c0 43.333 -14 77 -42 101s-65.333 36 -112 36c-48.667 0 -86.334 -13 -113.001 -39c-20 -19.333 -36.667 -50.666 -50 -93.999l-147 50
c28.667 69.333 63 119.333 103 150c54 41.333 123.333 62 208 62c70 0 127 -14 171 -42c25.333 -16.667 52.333 -47 81 -91c34.667 40.667 66.667 70 96 88c50.667 31.333 110.334 47 179.001 47c148.667 0 251 -62.667 307 -188
c29.333 -66.667 45.333 -174.334 48 -323.001zM1178 542.001c-2.66699 50.667 -8.16797 90.001 -16.501 118.001s-22.166 54 -41.499 78c-38 46.667 -93.333 70 -166 70c-74 0 -131.667 -26 -173 -78c-25.333 -32.667 -41.666 -68.667 -48.999 -108
c-4.66699 -22.667 -8.33398 -49.334 -11.001 -80.001h457zM584.997 477.002c-50 -21.333 -107.333 -41.334 -172 -60.001c-80.667 -23.333 -133.667 -51.333 -159 -84c-19.333 -23.333 -29 -50.333 -29 -81c0 -59.333 22.667 -100.666 68 -123.999
c26.667 -13.333 55.667 -20 87 -20c34.667 0 67.5 8.16699 98.5 24.5s54.167 37.5 69.5 63.5c24.667 43.333 37 137 37 281z" />
    <glyph glyph-name="ccedilla" unicode="&#xe7;" horiz-adv-x="892" 
d="M853 660l-140.001 -55c-4 61.333 -18.333 106 -43 134c-31.333 34.667 -79 52 -143 52c-83.333 0 -147.333 -27.667 -192 -83c-52.667 -65.333 -79 -150.333 -79 -255c0 -98 24.333 -182 73 -252c42 -60.667 104 -91 186 -91c60.667 0 108 17.667 142 53
c20.667 20.667 39.334 55 56.001 103l145 -43c-19.333 -56.667 -39 -97.667 -59 -123c-64 -80 -158.667 -120 -284 -120c-136 0 -243 49 -321 147c-67.333 83.333 -101 191 -101 323c0 132.667 33.667 240.667 101 324c78 98 186 147 324 147c114 0 201.333 -32 262 -96
c34.667 -36 59 -91 73 -165zM499.999 -20c60 -43.333 90 -93.668 90 -151.001c0 -74 -51 -142.667 -153 -206l-75 34c70.667 34 106 74.667 106 122c0 40.667 -27.667 76.334 -83 107.001z" />
    <glyph glyph-name="egrave" unicode="&#xe8;" horiz-adv-x="966" 
d="M873 412h-615.003c8 -70 21 -123.667 39 -161c48 -94.667 125 -142 231 -142c49.333 0 92.333 14.667 129 44c28.667 23.333 55.667 61.333 81 114l135 -69c-40.667 -67.333 -79 -115 -115 -143c-61.333 -50 -140.666 -75 -237.999 -75c-139.333 0 -248 49 -326 147
c-67.333 84 -101 192 -101 324s33.667 240 101 324c78 97.333 185 146 321 146c152.667 0 256.334 -61 311.001 -183c30.667 -68 46.334 -176.667 47.001 -326zM717.997 542c-2.66699 84.667 -16 145.332 -40 181.999c-35.333 54 -93 81 -173 81
c-83.333 0 -147 -33.333 -191 -100c-26.667 -39.333 -43 -93.666 -49 -162.999h453zM347.997 1433l281 -332l-71 -11l-372 311z" />
    <glyph glyph-name="eacute" unicode="&#xe9;" horiz-adv-x="966" 
d="M873 412h-615.003c8 -70 21 -123.667 39 -161c48 -94.667 125 -142 231 -142c49.333 0 92.333 14.667 129 44c28.667 23.333 55.667 61.333 81 114l135 -69c-40.667 -67.333 -79 -115 -115 -143c-61.333 -50 -140.666 -75 -237.999 -75c-139.333 0 -248 49 -326 147
c-67.333 84 -101 192 -101 324s33.667 240 101 324c78 97.333 185 146 321 146c152.667 0 256.334 -61 311.001 -183c30.667 -68 46.334 -176.667 47.001 -326zM717.997 542c-2.66699 84.667 -16 145.332 -40 181.999c-35.333 54 -93 81 -173 81
c-83.333 0 -147 -33.333 -191 -100c-26.667 -39.333 -43 -93.666 -49 -162.999h453zM664.997 1433l162 -32l-372 -311l-71 11z" />
    <glyph glyph-name="ecircumflex" unicode="&#xea;" horiz-adv-x="966" 
d="M873 412h-615.003c8 -70 21 -123.667 39 -161c48 -94.667 125 -142 231 -142c49.333 0 92.333 14.667 129 44c28.667 23.333 55.667 61.333 81 114l135 -69c-40.667 -67.333 -79 -115 -115 -143c-61.333 -50 -140.666 -75 -237.999 -75c-139.333 0 -248 49 -326 147
c-67.333 84 -101 192 -101 324s33.667 240 101 324c78 97.333 185 146 321 146c152.667 0 256.334 -61 311.001 -183c30.667 -68 46.334 -176.667 47.001 -326zM717.997 542c-2.66699 84.667 -16 145.332 -40 181.999c-35.333 54 -93 81 -173 81
c-83.333 0 -147 -33.333 -191 -100c-26.667 -39.333 -43 -93.666 -49 -162.999h453zM559.997 1434l250 -328l-62 -16l-245 240l-241 -240l-66 16l250 328h114z" />
    <glyph glyph-name="edieresis" unicode="&#xeb;" horiz-adv-x="966" 
d="M873 412h-615.003c8 -70 21 -123.667 39 -161c48 -94.667 125 -142 231 -142c49.333 0 92.333 14.667 129 44c28.667 23.333 55.667 61.333 81 114l135 -69c-40.667 -67.333 -79 -115 -115 -143c-61.333 -50 -140.666 -75 -237.999 -75c-139.333 0 -248 49 -326 147
c-67.333 84 -101 192 -101 324s33.667 240 101 324c78 97.333 185 146 321 146c152.667 0 256.334 -61 311.001 -183c30.667 -68 46.334 -176.667 47.001 -326zM717.997 542c-2.66699 84.667 -16 145.332 -40 181.999c-35.333 54 -93 81 -173 81
c-83.333 0 -147 -33.333 -191 -100c-26.667 -39.333 -43 -93.666 -49 -162.999h453zM313.997 1358c27.333 0 51 -10 71 -30s30 -44 30 -72c0 -28.667 -10 -53 -30 -73s-44 -30 -72 -30c-28.667 0 -53 10 -73 30s-30 44.333 -30 73c0 28 10 52 30 72s44.667 30 74 30z
M695.997 1358c27.333 0 51 -10 71 -30s30 -44 30 -72c0 -28.667 -10 -53 -30 -73s-44.333 -30 -73 -30c-28 0 -52 10 -72 30s-30 44.333 -30 73c0 28 10 52 30 72s44.667 30 74 30z" />
    <glyph glyph-name="igrave" unicode="&#xec;" horiz-adv-x="464" 
d="M307 901v-901h-150v901h150zM84 1433l233 -340l-68 -12l-321 304z" />
    <glyph glyph-name="iacute" unicode="&#xed;" horiz-adv-x="464" 
d="M307 901v-901h-150v901h150zM374 1433l162 -32l-318 -311l-71 11z" />
    <glyph glyph-name="icircumflex" unicode="&#xee;" horiz-adv-x="464" 
d="M307 901v-901h-150v901h150zM290 1434l195 -328l-62 -16l-191 233l-186 -233l-66 16l195 328h115z" />
    <glyph glyph-name="idieresis" unicode="&#xef;" horiz-adv-x="464" 
d="M307 901v-901h-150v901h150zM90 1358c27.333 0 51 -10 71 -30s30 -44 30 -72c0 -28.667 -10 -53 -30 -73s-44 -30 -72 -30c-28.667 0 -53 10 -73 30s-30 44.333 -30 73c0 28 10 52 30 72s44.667 30 74 30zM377 1358c27.333 0 51 -10 71 -30s30 -44 30 -72
c0 -28.667 -10 -53 -30 -73s-44 -30 -72 -30c-28.667 0 -53 10 -73 30s-30 44.333 -30 73c0 28 10 52 30 72s44.667 30 74 30z" />
    <glyph glyph-name="eth" unicode="&#xf0;" horiz-adv-x="1040" 
d="M73 1316l140 49.999l203 -165l280 72l33 -76l-235 -59l123 -101c118.667 -97.333 201.667 -180.666 249 -249.999c67.333 -97.333 101 -208.666 101 -333.999c0 -134 -33.667 -242.667 -101 -326c-78 -98 -186.667 -147 -326 -147s-248 49 -326 147
c-67.333 84 -101 191.667 -101 323c0 135.333 33.667 243.666 101 324.999c71.333 86.667 168 130 290 130c14.667 0 33 -1 55 -3l-223 193l-249 -61l-33 75l202 51zM543 802.999c-82 0 -145.333 -30.332 -190 -90.999c-50.667 -68 -76 -154.667 -76 -260
c0 -102.667 25 -187 75 -253c46 -59.333 108.667 -89 188 -89s142 30 188 90c50 65.333 75 151.333 75 258c0 109.333 -23.333 195.666 -70 258.999c-42.667 57.333 -106 86 -190 86z" />
    <glyph glyph-name="ntilde" unicode="&#xf1;" horiz-adv-x="1053" 
d="M307 901l-0.000976562 -108.001c42 44 78.333 74 109 90c50 26.667 105 40 165 40c116.667 0 203.667 -40 261 -120c36 -50.667 54 -129 54 -235v-568h-150v564c0 76 -16.667 133.167 -50 171.5s-82.666 57.5 -147.999 57.5c-39.333 0 -76.833 -7.83301 -112.5 -23.5
s-64.167 -37.167 -85.5 -64.5c-28.667 -35.333 -43 -83.666 -43 -144.999v-560h-150v901h150zM784.999 1348l45 -26.001c-62.667 -105.333 -119.334 -158 -170.001 -158c-19.333 0 -39.666 4.66699 -60.999 14l-65 28c-70 30.667 -116.333 46 -139 46
c-34.667 0 -83.334 -30.333 -146.001 -91l-38 36c16 17.333 46.667 48 92 92c25.333 24.667 45.333 41.334 60 50.001c13.333 8 30 12 50 12c18.667 0 39.667 -3.66699 63 -11c6.66699 -2 32.334 -12.667 77.001 -32c66 -28.667 109 -43 129 -43c36.667 0 71 27.667 103 83z
" />
    <glyph glyph-name="ograve" unicode="&#xf2;" horiz-adv-x="1040" 
d="M527 921c134 0 240.333 -48.998 319 -146.998c67.333 -83.333 101 -191.333 101 -324c0 -132 -33.667 -239.667 -101 -323c-78 -98 -186.667 -147 -326 -147s-248 49 -326 147c-67.333 83.333 -101 190.666 -101 321.999c0 133.333 33.667 241.666 101 324.999
c78 98 189 147 333 147zM516 791.002c-90.667 0 -159 -39.999 -205 -119.999c-36 -62.667 -54 -136 -54 -220s18 -157.667 54 -221c46 -80 115.667 -120 209 -120s163 40 209 120c36 63.333 54 136.666 54 219.999c0 85.333 -18 159 -54 221
c-46.667 80 -117.667 120 -213 120zM351 1433l281 -332l-71 -11l-372 311z" />
    <glyph glyph-name="oacute" unicode="&#xf3;" horiz-adv-x="1040" 
d="M527 921c134 0 240.333 -48.998 319 -146.998c67.333 -83.333 101 -191.333 101 -324c0 -132 -33.667 -239.667 -101 -323c-78 -98 -186.667 -147 -326 -147s-248 49 -326 147c-67.333 83.333 -101 190.666 -101 321.999c0 133.333 33.667 241.666 101 324.999
c78 98 189 147 333 147zM516 791.002c-90.667 0 -159 -39.999 -205 -119.999c-36 -62.667 -54 -136 -54 -220s18 -157.667 54 -221c46 -80 115.667 -120 209 -120s163 40 209 120c36 63.333 54 136.666 54 219.999c0 85.333 -18 159 -54 221
c-46.667 80 -117.667 120 -213 120zM682 1433l162 -32l-372 -311l-71 11z" />
    <glyph glyph-name="ocircumflex" unicode="&#xf4;" horiz-adv-x="1040" 
d="M527 921c134 0 240.333 -48.998 319 -146.998c67.333 -83.333 101 -191.333 101 -324c0 -132 -33.667 -239.667 -101 -323c-78 -98 -186.667 -147 -326 -147s-248 49 -326 147c-67.333 83.333 -101 190.666 -101 321.999c0 133.333 33.667 241.666 101 324.999
c78 98 189 147 333 147zM516 791.002c-90.667 0 -159 -39.999 -205 -119.999c-36 -62.667 -54 -136 -54 -220s18 -157.667 54 -221c46 -80 115.667 -120 209 -120s163 40 209 120c36 63.333 54 136.666 54 219.999c0 85.333 -18 159 -54 221
c-46.667 80 -117.667 120 -213 120zM577 1434l250 -328l-62 -16l-245 240l-241 -240l-66 16l250 328h114z" />
    <glyph glyph-name="otilde" unicode="&#xf5;" horiz-adv-x="1040" 
d="M527 921c134 0 240.333 -48.998 319 -146.998c67.333 -83.333 101 -191.333 101 -324c0 -132 -33.667 -239.667 -101 -323c-78 -98 -186.667 -147 -326 -147s-248 49 -326 147c-67.333 83.333 -101 190.666 -101 321.999c0 133.333 33.667 241.666 101 324.999
c78 98 189 147 333 147zM516 791.002c-90.667 0 -159 -39.999 -205 -119.999c-36 -62.667 -54 -136 -54 -220s18 -157.667 54 -221c46 -80 115.667 -120 209 -120s163 40 209 120c36 63.333 54 136.666 54 219.999c0 85.333 -18 159 -54 221
c-46.667 80 -117.667 120 -213 120zM791 1348l45 -26.001c-62.667 -105.333 -119.334 -158 -170.001 -158c-19.333 0 -39.666 4.66699 -60.999 14l-65 28c-70 30.667 -116.333 46 -139 46c-34.667 0 -83.334 -30.333 -146.001 -91l-38 36c16 17.333 46.667 48 92 92
c25.333 24.667 45.333 41.334 60 50.001c13.333 8 30 12 50 12c18.667 0 39.667 -3.66699 63 -11c6.66699 -2 32.334 -12.667 77.001 -32c66 -28.667 109 -43 129 -43c36.667 0 71 27.667 103 83z" />
    <glyph glyph-name="odieresis" unicode="&#xf6;" horiz-adv-x="1040" 
d="M527 921c134 0 240.333 -48.998 319 -146.998c67.333 -83.333 101 -191.333 101 -324c0 -132 -33.667 -239.667 -101 -323c-78 -98 -186.667 -147 -326 -147s-248 49 -326 147c-67.333 83.333 -101 190.666 -101 321.999c0 133.333 33.667 241.666 101 324.999
c78 98 189 147 333 147zM516 791.002c-90.667 0 -159 -39.999 -205 -119.999c-36 -62.667 -54 -136 -54 -220s18 -157.667 54 -221c46 -80 115.667 -120 209 -120s163 40 209 120c36 63.333 54 136.666 54 219.999c0 85.333 -18 159 -54 221
c-46.667 80 -117.667 120 -213 120zM331 1358c27.333 0 51 -10 71 -30s30 -44 30 -72c0 -28.667 -10 -53 -30 -73s-44 -30 -72 -30c-28.667 0 -53 10 -73 30s-30 44.333 -30 73c0 28 10 52 30 72s44.667 30 74 30zM713 1358c27.333 0 51 -10 71 -30s30 -44 30 -72
c0 -28.667 -10 -53 -30 -73s-44.333 -30 -73 -30c-28 0 -52 10 -72 30s-30 44.333 -30 73c0 28 10 52 30 72s44.667 30 74 30z" />
    <glyph glyph-name="divide" unicode="&#xf7;" horiz-adv-x="1111" 
d="M557 925c26.667 0 50 -9.66699 70 -29s30 -43.666 30 -72.999c0 -28 -10 -51.667 -30 -71c-20 -20 -43.667 -30 -71 -30c-28 0 -52 10 -72 30s-30 43.667 -30 71c0 29.333 10 53.666 30 72.999s44.333 29 73 29zM557 179c26.667 0 50 -9.66699 70 -29
s30 -43.666 30 -72.999c0 -27.333 -10 -51 -30 -71s-43.667 -30 -71 -30c-28 0 -52 10 -72 30s-30 43.667 -30 71c0 29.333 10 53.666 30 72.999s44.333 29 73 29zM53 496h1005v-90h-1005v90z" />
    <glyph glyph-name="oslash" unicode="&#xf8;" horiz-adv-x="1040" 
d="M850 969l73.001 -61l-88 -114c31.333 -44 54 -82.333 68 -115c29.333 -66 44 -141.667 44 -227c0 -132 -33.333 -240.333 -100 -325c-77.333 -98 -188.333 -147 -333 -147c-66 0 -125 11.667 -177 35c-17.333 8 -41 20.667 -71 38l-83 -107l-73 61l89 112
c-38 51.333 -65.167 102.5 -81.5 153.5s-24.5 110.167 -24.5 177.5c0 131.333 33.667 239.333 101 324c77.333 98 186.666 147 327.999 147c84.667 0 164.667 -22 240 -66zM356.001 172c43.333 -41.333 98 -62.001 164 -62.001c93.333 0 163 40 209 120
c36 62.667 54 136.334 54 221.001c0 78.667 -16.667 149.667 -50 213zM673.001 739.999c-50.667 34 -101 51.001 -151 51.001c-94.667 0 -165 -40 -211 -120c-36 -62.667 -54 -137.334 -54 -224.001c0 -58 13.333 -122.333 40 -193z" />
    <glyph glyph-name="ugrave" unicode="&#xf9;" horiz-adv-x="1053" 
d="M746 0v108.002c-42 -43.333 -78.333 -73.333 -109 -90c-50.667 -26.667 -105.667 -40 -165 -40c-55.333 0 -105.833 10.667 -151.5 32s-82.167 50.666 -109.5 87.999c-36 50.667 -54 129 -54 235v568h150v-564c0 -152.667 66.333 -229 199 -229
c38.667 0 75.667 7.83301 111 23.5s64 37.167 86 64.5c28.667 35.333 43 83.666 43 144.999v560h150v-901h-150zM351 1433l281 -332l-71 -11l-372 311z" />
    <glyph glyph-name="uacute" unicode="&#xfa;" horiz-adv-x="1053" 
d="M746 0v108.002c-42 -43.333 -78.333 -73.333 -109 -90c-50.667 -26.667 -105.667 -40 -165 -40c-55.333 0 -105.833 10.667 -151.5 32s-82.167 50.666 -109.5 87.999c-36 50.667 -54 129 -54 235v568h150v-564c0 -152.667 66.333 -229 199 -229
c38.667 0 75.667 7.83301 111 23.5s64 37.167 86 64.5c28.667 35.333 43 83.666 43 144.999v560h150v-901h-150zM688 1433l162 -32l-372 -311l-71 11z" />
    <glyph glyph-name="ucircumflex" unicode="&#xfb;" horiz-adv-x="1053" 
d="M746 0v108.002c-42 -43.333 -78.333 -73.333 -109 -90c-50.667 -26.667 -105.667 -40 -165 -40c-55.333 0 -105.833 10.667 -151.5 32s-82.167 50.666 -109.5 87.999c-36 50.667 -54 129 -54 235v568h150v-564c0 -152.667 66.333 -229 199 -229
c38.667 0 75.667 7.83301 111 23.5s64 37.167 86 64.5c28.667 35.333 43 83.666 43 144.999v560h150v-901h-150zM583 1434l250 -328l-62 -16l-245 240l-241 -240l-66 16l250 328h114z" />
    <glyph glyph-name="udieresis" unicode="&#xfc;" horiz-adv-x="1053" 
d="M746 0v108.002c-42 -43.333 -78.333 -73.333 -109 -90c-50.667 -26.667 -105.667 -40 -165 -40c-55.333 0 -105.833 10.667 -151.5 32s-82.167 50.666 -109.5 87.999c-36 50.667 -54 129 -54 235v568h150v-564c0 -152.667 66.333 -229 199 -229
c38.667 0 75.667 7.83301 111 23.5s64 37.167 86 64.5c28.667 35.333 43 83.666 43 144.999v560h150v-901h-150zM337 1358c27.333 0 51 -10 71 -30s30 -44 30 -72c0 -28.667 -10 -53 -30 -73s-44 -30 -72 -30c-28.667 0 -53 10 -73 30s-30 44.333 -30 73c0 28 10 52 30 72
s44.667 30 74 30zM719 1358c27.333 0 51 -10 71 -30s30 -44 30 -72c0 -28.667 -10 -53 -30 -73s-44.333 -30 -73 -30c-28 0 -52 10 -72 30s-30 44.333 -30 73c0 28 10 52 30 72s44.667 30 74 30z" />
    <glyph glyph-name="yacute" unicode="&#xfd;" horiz-adv-x="875" 
d="M882 901l-410.001 -942.001c-47.333 -110 -82 -183.333 -104 -220c-47.333 -80.667 -98 -136.667 -152 -168c-47.333 -28 -100 -42 -158 -42c-33.333 0 -71.666 8 -114.999 24l-17 139c48 -24 87.667 -36 119 -36c54 0 99 18 135 54c38.667 38.667 70 86.334 94 143.001
l87 203l-340 845h160l265 -654l284 654h152zM612.999 1433l162 -32l-372 -311l-71 11z" />
    <glyph glyph-name="thorn" unicode="&#xfe;" horiz-adv-x="1081" 
d="M307 1434l0.00195312 -642.999c42.667 45.333 86.167 78.5 130.5 99.5s94.166 31.5 149.499 31.5s110.166 -13.333 164.499 -40s99.5 -62.334 135.5 -107.001c67.333 -84 101 -192.333 101 -325c0 -132 -33.667 -240 -101 -324
c-38 -46.667 -85.333 -83.334 -142 -110.001c-52 -24.667 -104.667 -37 -158 -37c-69.333 0 -134.333 19 -195 57c-24 14.667 -52.333 39.334 -85 74.001v-560h-150v1884h150zM557.002 792.001c-90.667 0 -159 -40 -205 -120c-36 -63.333 -54 -137.333 -54 -222
c0 -84 18 -157.667 54 -221c46 -80 115.667 -120 209 -120c94 0 163.667 40 209 120c36 64 54 137.333 54 220c0 86.667 -18 161 -54 223c-46.667 80 -117.667 120 -213 120z" />
    <glyph glyph-name="ydieresis" unicode="&#xff;" horiz-adv-x="875" 
d="M882 901l-410.001 -942.001c-47.333 -110 -82 -183.333 -104 -220c-47.333 -80.667 -98 -136.667 -152 -168c-47.333 -28 -100 -42 -158 -42c-33.333 0 -71.666 8 -114.999 24l-17 139c48 -24 87.667 -36 119 -36c54 0 99 18 135 54c38.667 38.667 70 86.334 94 143.001
l87 203l-340 845h160l265 -654l284 654h152zM254.999 1358c27.333 0 51 -10 71 -30s30 -44 30 -72c0 -28.667 -10 -53 -30 -73s-44 -30 -72 -30c-28.667 0 -53 10 -73 30s-30 44.333 -30 73c0 28 10 52 30 72s44.667 30 74 30zM636.999 1358c27.333 0 51 -10 71 -30
s30 -44 30 -72c0 -28.667 -10 -53 -30 -73s-44.333 -30 -73 -30c-28 0 -52 10 -72 30s-30 44.333 -30 73c0 28 10 52 30 72s44.667 30 74 30z" />
    <glyph glyph-name="Cacute" unicode="&#x106;" horiz-adv-x="1304" 
d="M930 1801l162 -31l-372 -312l-71 12zM1284 1172l-119.001 -113c-32.667 57.333 -69.334 100.333 -110.001 129c-71.333 49.333 -159.333 74 -264 74c-168.667 0 -299 -61 -391 -183c-80 -106.667 -120 -242.667 -120 -408c0 -86 11.667 -166 35 -240s55.333 -133 96 -177
c38.667 -42.667 90.334 -77.667 155.001 -105c72.667 -30.667 147.667 -46 225 -46c105.333 0 193.333 24 264 72c38 26 74.667 69.667 110 131l119 -113c-43.333 -51.333 -81 -88.333 -113 -111c-100.667 -72.667 -228 -109 -382 -109
c-89.333 0 -175.166 12.667 -257.499 38s-150.833 60 -205.5 104c-66.667 53.333 -118.667 124 -156 212c-45.333 106.667 -68 220.667 -68 342c0 212 60 384.667 180 518c58 64 128.667 113.333 212 148c93.333 38 192 57 296 57c116 0 217.667 -21 305 -63
c64 -30.667 127 -83 189 -157z" />
    <glyph glyph-name="cacute" unicode="&#x107;" horiz-adv-x="892" 
d="M683 1433l162 -32l-372 -311l-71 11zM853 660l-140.001 -55c-4 61.333 -18.333 106 -43 134c-31.333 34.667 -79 52 -143 52c-83.333 0 -147.333 -27.667 -192 -83c-52.667 -65.333 -79 -150.333 -79 -255c0 -98 24.333 -182 73 -252c42 -60.667 104 -91 186 -91
c60.667 0 108 17.667 142 53c20.667 20.667 39.334 55 56.001 103l145 -43c-19.333 -56.667 -39 -97.667 -59 -123c-64 -80 -158.667 -120 -284 -120c-136 0 -243 49 -321 147c-67.333 83.333 -101 191 -101 323c0 132.667 33.667 240.667 101 324c78 98 186 147 324 147
c114 0 201.333 -32 262 -96c34.667 -36 59 -91 73 -165z" />
    <glyph glyph-name="Ccaron" unicode="&#x10c;" horiz-adv-x="1304" 
d="M836 1461h-115l-270 325l66 13l262 -237l265 237l62 -13zM1284 1172l-119.001 -113c-32.667 57.333 -69.334 100.333 -110.001 129c-71.333 49.333 -159.333 74 -264 74c-168.667 0 -299 -61 -391 -183c-80 -106.667 -120 -242.667 -120 -408c0 -86 11.667 -166 35 -240
s55.333 -133 96 -177c38.667 -42.667 90.334 -77.667 155.001 -105c72.667 -30.667 147.667 -46 225 -46c105.333 0 193.333 24 264 72c38 26 74.667 69.667 110 131l119 -113c-43.333 -51.333 -81 -88.333 -113 -111c-100.667 -72.667 -228 -109 -382 -109
c-89.333 0 -175.166 12.667 -257.499 38s-150.833 60 -205.5 104c-66.667 53.333 -118.667 124 -156 212c-45.333 106.667 -68 220.667 -68 342c0 212 60 384.667 180 518c58 64 128.667 113.333 212 148c93.333 38 192 57 296 57c116 0 217.667 -21 305 -63
c64 -30.667 127 -83 189 -157z" />
    <glyph glyph-name="ccaron" unicode="&#x10d;" horiz-adv-x="892" 
d="M560 1090h-114l-250 328l66 16l241 -240l245 240l62 -16zM853 660l-140.001 -55c-4 61.333 -18.333 106 -43 134c-31.333 34.667 -79 52 -143 52c-83.333 0 -147.333 -27.667 -192 -83c-52.667 -65.333 -79 -150.333 -79 -255c0 -98 24.333 -182 73 -252
c42 -60.667 104 -91 186 -91c60.667 0 108 17.667 142 53c20.667 20.667 39.334 55 56.001 103l145 -43c-19.333 -56.667 -39 -97.667 -59 -123c-64 -80 -158.667 -120 -284 -120c-136 0 -243 49 -321 147c-67.333 83.333 -101 191 -101 323
c0 132.667 33.667 240.667 101 324c78 98 186 147 324 147c114 0 201.333 -32 262 -96c34.667 -36 59 -91 73 -165z" />
    <glyph glyph-name="dmacron" unicode="&#x111;" horiz-adv-x="1081" 
d="M774 1208l0.00195312 225.999h150v-226h150v-96h-150v-1112h-150v110c-42.667 -45.333 -86.334 -78.5 -131.001 -99.5s-94.334 -31.5 -149.001 -31.5c-56 0 -111 13.333 -165 40s-99 62.334 -135 107.001c-67.333 84 -101 192.333 -101 325s33.667 240.667 101 324
c38 47.333 85.333 84 142 110c52 24.667 104.667 37 158 37c70 0 135 -18.667 195 -56c24 -14.667 52.333 -39.667 85 -75v321h-314v96h314zM516.002 791.999c-90.667 0 -159 -40 -205 -120c-36 -63.333 -54 -137 -54 -221c0 -84.667 18 -158.667 54 -222
c46 -80 115.667 -120 209 -120s163 40 209 120c36 64 54 137.667 54 221c0 86 -18 160 -54 222c-46.667 80 -117.667 120 -213 120z" />
    <glyph glyph-name="Gbreve" unicode="&#x11e;" horiz-adv-x="1388" 
d="M1005 1768h56.999c-8 -73.333 -32 -137.333 -72 -192c-50 -68.667 -122 -103 -216 -103c-170 0 -263 98.333 -279 295h57c32 -124.667 104.667 -187 218 -187c84.667 0 147.334 27.667 188.001 83c25.333 34 41 68.667 47 104zM709.999 658h546.003v-582
c-76 -35.333 -140.667 -59.333 -194 -72c-85.333 -20.667 -172.333 -31 -261 -31c-95.333 0 -184.5 12.333 -267.5 37s-152.167 59.667 -207.5 105c-67.333 54.667 -119.333 125.334 -156 212.001c-45.333 106.667 -68 220.334 -68 341.001c0 213.333 60 386.333 180 519
c58 64 128.667 113.333 212 148c92.667 38 190.667 57 294 57c117.333 0 222.666 -23.667 315.999 -71c45.333 -23.333 84 -50 116 -80c17.333 -16.667 41 -44 71 -82l-125 -109c-29.333 51.333 -56 87.666 -80 108.999c-74.667 68.667 -173 103 -295 103
c-168.667 0 -299 -61 -391 -183c-80 -106.667 -120 -242.667 -120 -408c0 -86 11.5 -165.667 34.5 -239s55.167 -133 96.5 -179c39.333 -44 91 -79 155 -105c77.333 -30.667 158.666 -46 243.999 -46c54 0 107.667 5 161 15c31.333 5.33301 71.666 18.666 120.999 39.999
v371h-382v130z" />
    <glyph glyph-name="gbreve" unicode="&#x11f;" horiz-adv-x="1081" 
d="M756 1406h56.999c-17.333 -93.333 -42.333 -160 -75 -200c-47.333 -58.667 -114.333 -88 -201 -88c-96 0 -165.667 34.333 -209 103c-27.333 42 -45.666 103.667 -54.999 185h57c11.333 -56 30.333 -99 57 -129c30.667 -34.667 80.667 -52 150 -52
c122.667 0 195.667 60.333 219 181zM923.999 901l0.00292969 -901.001c0 -122.667 -24.333 -220.667 -73 -294c-37.333 -56 -87 -99.667 -149 -131c-60 -30.667 -123 -46 -189 -46c-90 0 -172.333 25.333 -247 76c-40 27.333 -72.333 59.333 -97 96
c-13.333 20 -29 47.667 -47 83l127 96c47.333 -148 133.666 -222 258.999 -222c98 0 172 44 222 132c29.333 52.667 44 131.667 44 237v83c-42.667 -45.333 -86.334 -78.5 -131.001 -99.5s-94.334 -31.5 -149.001 -31.5c-56 0 -111 13.333 -165 40s-99 62.334 -135 107.001
c-67.333 84 -101 192.333 -101 325s33.667 240.667 101 324c38 47.333 85.333 84 142 110c52 24.667 104.667 37 158 37c70 0 135 -18.667 195 -56c24 -14.667 52.333 -39.667 85 -75v110h150zM516.002 791.999c-90.667 0 -159 -40 -205 -120c-36 -63.333 -54 -137 -54 -221
c0 -84.667 18 -158.667 54 -222c46 -80 115.667 -120 209 -120s163 40 209 120c36 64 54 137.667 54 221c0 86 -18 160 -54 222c-46.667 80 -117.667 120 -213 120z" />
    <glyph glyph-name="Idot" unicode="&#x130;" horiz-adv-x="546" 
d="M274 1722c30.667 0 57 -11 79 -33s33 -48.667 33 -80s-11 -58.333 -33 -81c-22 -22 -48.667 -33 -80 -33c-32 0 -59 11 -81 33c-22 22.667 -33 49.667 -33 81s11 58 33 80c22.667 22 50 33 82 33zM355 1365v-1365h-164v1365h164z" />
    <glyph glyph-name="dotlessi" unicode="&#x131;" horiz-adv-x="464" 
d="M307 901v-901h-150v901h150z" />
    <glyph glyph-name="Lslash" unicode="&#x141;" horiz-adv-x="905" 
d="M191 705v660h164v-568l256 192l63 -94l-319 -241v-524h550v-130h-714v563l-118 -93l-56 97z" />
    <glyph glyph-name="lslash" unicode="&#x142;" horiz-adv-x="464" 
d="M157 747v687h150v-606l130 99l53 -77l-183 -141v-709h-150v628l-126 -96l-53 77z" />
    <glyph glyph-name="OE" unicode="&#x152;" horiz-adv-x="1971" 
d="M1824 629l-501.999 -0.00195312v-499h581v-130h-738v128c-64.667 -54 -130.334 -93.333 -197.001 -118s-140.334 -37 -221.001 -37c-121.333 0 -235.333 31 -342 93c-202 116.667 -303 322.334 -303 617.001c0 213.333 54 381 162 503
c64.667 72.667 148.334 127.667 251.001 165c76 27.333 153.667 41 233 41c109.333 0 210 -24.667 302 -74c32.667 -17.333 71 -44.666 115 -81.999v129h659v-130h-502v-476h502v-130zM1165 1050c-104.667 141.333 -240.667 212 -408 212c-74 0 -142 -15.333 -204 -46
s-113.667 -74.334 -155 -131.001c-79.333 -109.333 -119 -243.333 -119 -402c0 -159.333 39.667 -293.666 119 -402.999c86 -118 207.667 -177 365 -177c94 0 184.333 26 271 78c51.333 31.333 95 71 131 119v750z" />
    <glyph glyph-name="oe" unicode="&#x153;" horiz-adv-x="1637" 
d="M1544 412h-620.003c0 -202 80.667 -303 242 -303c54.667 0 103.667 15.333 147 46c32.667 24 62.334 61 89.001 111l131 -70c-37.333 -64 -75 -110.333 -113 -139c-69.333 -52 -151 -78 -245 -78c-71.333 0 -136 15 -194 45
c-32.667 16.667 -59.334 38.334 -80.001 65.001c-13.333 17.333 -28.333 40.666 -45 69.999c-36 -52.667 -69 -90 -99 -112c-63.333 -45.333 -141 -68 -233 -68c-131.333 0 -238.666 49 -321.999 147c-72.667 85.333 -109 194 -109 326c0 130 34 237.667 102 323
c78 97.333 188 146 330 146c74 0 141.667 -16.667 203 -50c44.667 -24.667 87.334 -64 128.001 -118c34.667 48 69.334 84 104.001 108c59.333 40.667 130 61 212 61c158.667 0 265.667 -58.333 321 -175c23.333 -48.667 38.333 -113.667 45 -195c2 -26 4 -72.667 6 -140z
M514.997 792c-90.667 0 -159 -39.999 -205 -119.999c-36 -62.667 -54 -136.334 -54 -221.001s18 -158.667 54 -222c46 -80 116 -120 210 -120c93.333 0 163 40 209 120c36 64 54 137.667 54 221c0 86 -18 160 -54 222c-46.667 80 -118 120 -214 120zM1389 542.001
c-2 88 -15.334 150.333 -40.001 187c-35.333 51.333 -93.666 77 -174.999 77c-92.667 0 -159.667 -33.667 -201 -101c-21.333 -34.667 -37 -89 -47 -163h463z" />
    <glyph glyph-name="Scedilla" unicode="&#x15e;" horiz-adv-x="964" 
d="M452 -27c60 -43.333 90 -93.6689 90 -151.002c0 -74 -50.667 -142.667 -152 -206l-76 34c70.667 34.667 106 75.334 106 122.001c0 40.667 -27.667 76.334 -83 107.001zM842 1211l-114.997 -114.001c-23.333 51.333 -50.333 89.666 -81 114.999
c-40.667 33.333 -90.334 50 -149.001 50c-65.333 0 -117.333 -22.333 -156 -67c-34 -39.333 -51 -86.666 -51 -141.999c0 -63.333 23.667 -117.333 71 -162c30 -28.667 85.667 -66 167 -112c119.333 -68 201 -123.667 245 -167c62.667 -61.333 94 -141.666 94 -240.999
c0 -60.667 -12.333 -118.334 -37 -173.001s-59 -99.667 -103 -135c-74.667 -60 -170.334 -90 -287.001 -90c-169.333 0 -297 68 -383 204l114 132c21.333 -55.333 50.666 -99.666 87.999 -132.999c55.333 -48.667 117.666 -73 186.999 -73c76.667 0 138 23.333 184 70
c43.333 44.667 65 103.667 65 177c0 72.667 -25.667 131 -77 175c-28 24.667 -86 62 -174 112c-117.333 68 -197.666 127.333 -240.999 178c-52.667 62 -79 135 -79 219c0 92.667 32.333 173.667 97 243c71.333 76.667 165.333 115 282 115c146 0 259 -60.333 339 -181z" />
    <glyph glyph-name="scedilla" unicode="&#x15f;" horiz-adv-x="830" 
d="M399 -20c60 -43.333 90 -93.668 90 -151.001c0 -74 -50.667 -142.667 -152 -206l-76 34c70.667 34 106 74.667 106 122c0 40.667 -27.667 76.334 -83 107.001zM728 761.998l-131 -83c-9.33301 36 -22.666 62 -39.999 78c-29.333 27.333 -70 41 -122 41
c-47.333 0 -85.333 -12.333 -114 -37c-25.333 -22.667 -38 -51.667 -38 -87c0 -40 17.667 -70.333 53 -91c26 -14.667 74.667 -31 146 -49c68 -17.333 116.333 -34.333 145 -51c39.333 -23.333 68.666 -55.666 87.999 -96.999c16.667 -36 25 -73.667 25 -113
c0 -82.667 -33.667 -153 -101 -211c-63.333 -54.667 -147.666 -82 -252.999 -82c-96.667 0 -175.667 28 -237 84c-36.667 34 -69.334 87 -98.001 159l143 61c32.667 -120 101.667 -180 207 -180c54.667 0 99.667 15.333 135 46c32.667 28.667 49 67 49 115
c0 40 -14 69.333 -42 88c-26 17.333 -79 37 -159 59c-74 20 -124 38.667 -150 56c-70 47.333 -105 111.666 -105 192.999c0 78.667 30 143 90 193c53.333 44.667 124 67 212 67c87.333 0 157.333 -19 210 -57c31.333 -22 60.333 -56 87 -102z" />
    <glyph glyph-name="Scaron" unicode="&#x160;" horiz-adv-x="964" 
d="M842 1211l-114.997 -114.001c-23.333 51.333 -50.333 89.666 -81 114.999c-40.667 33.333 -90.334 50 -149.001 50c-65.333 0 -117.333 -22.333 -156 -67c-34 -39.333 -51 -86.666 -51 -141.999c0 -63.333 23.667 -117.333 71 -162c30 -28.667 85.667 -66 167 -112
c119.333 -68 201 -123.667 245 -167c62.667 -61.333 94 -141.666 94 -240.999c0 -60.667 -12.333 -118.334 -37 -173.001s-59 -99.667 -103 -135c-74.667 -60 -170.334 -90 -287.001 -90c-169.333 0 -297 68 -383 204l114 132
c21.333 -55.333 50.666 -99.666 87.999 -132.999c55.333 -48.667 117.666 -73 186.999 -73c76.667 0 138 23.333 184 70c43.333 44.667 65 103.667 65 177c0 72.667 -25.667 131 -77 175c-28 24.667 -86 62 -174 112c-117.333 68 -197.666 127.333 -240.999 178
c-52.667 62 -79 135 -79 219c0 92.667 32.333 173.667 97 243c71.333 76.667 165.333 115 282 115c146 0 259 -60.333 339 -181zM540.003 1461h-115l-270 325l66 13l262 -237l265 237l62 -13z" />
    <glyph glyph-name="scaron" unicode="&#x161;" horiz-adv-x="830" 
d="M728 762l-131 -83c-9.33301 36 -22.666 62 -39.999 78c-29.333 27.333 -70 41 -122 41c-47.333 0 -85.333 -12.333 -114 -37c-25.333 -22.667 -38 -51.667 -38 -87c0 -40 17.667 -70.333 53 -91c26 -14.667 74.667 -31 146 -49c68 -17.333 116.333 -34.333 145 -51
c39.333 -23.333 68.666 -55.666 87.999 -96.999c16.667 -36 25 -73.667 25 -113c0 -82.667 -33.667 -153 -101 -211c-63.333 -54.667 -147.666 -82 -252.999 -82c-96.667 0 -175.667 28 -237 84c-36.667 34 -69.334 87 -98.001 159l143 61
c32.667 -120 101.667 -180 207 -180c54.667 0 99.667 15.333 135 46c32.667 28.667 49 67 49 115c0 40 -14 69.333 -42 88c-26 17.333 -79 37 -159 59c-74 20 -124 38.667 -150 56c-70 47.333 -105 111.666 -105 192.999c0 78.667 30 143 90 193
c53.333 44.667 124 67 212 67c87.333 0 157.333 -19 210 -57c31.333 -22 60.333 -56 87 -102zM480 1090h-114l-250 328l66 16l241 -240l245 240l62 -16z" />
    <glyph glyph-name="Ydieresis" unicode="&#x178;" horiz-adv-x="981" 
d="M856 1365h173l-456 -759v-606h-164v606l-464 759h193l361 -595zM290 1736c30.667 0 57 -11 79 -33s33 -48.667 33 -80s-11 -58.333 -33 -81c-22 -22 -48.667 -33 -80 -33c-32 0 -59 11 -81 33c-22 22.667 -33 49.667 -33 81s11 58 33 80c22.667 22 50 33 82 33zM700 1736
c30.667 0 57 -11 79 -33s33 -48.667 33 -80s-11 -58.333 -33 -81c-22 -22 -48.667 -33 -80 -33c-32 0 -59 11 -81 33c-22 22.667 -33 49.667 -33 81s11 58 33 80c22.667 22 50 33 82 33z" />
    <glyph glyph-name="Zcaron" unicode="&#x17d;" horiz-adv-x="1006" 
d="M75 1365h879v-137l-773 -1096h852v-132h-1033v132l772 1103h-697v130zM574 1461h-115l-270 325l66 13l262 -237l265 237l62 -13z" />
    <glyph glyph-name="zcaron" unicode="&#x17e;" horiz-adv-x="844" 
d="M97 901h695v-130l-571 -641h584v-130h-767v130l575 641h-516v130zM492 1090h-114l-250 328l66 16l241 -240l245 240l62 -16z" />
    <glyph glyph-name="florin" unicode="&#x192;" horiz-adv-x="1111" 
d="M100 -294l-22.9961 128c16 -0.666992 28.333 -1 37 -1c106 0 178.667 49.333 218 148c13.333 34 29 102.667 47 206l79 455h-285v102h299l19 108c15.333 87.333 28.666 151 39.999 191c36.667 133.333 98 229.666 184 288.999c58 40 126.667 60 206 60
c20 0 41.667 -2.33301 65 -7l-13 -121c-16.667 4 -32.667 6 -48 6c-132 0 -217 -108.667 -255 -326l-34 -200h285v-102h-301l-80 -473c-16.667 -95.333 -36 -172.666 -58 -231.999c-18.667 -49.333 -46.334 -92.5 -83.001 -129.5s-77.334 -62.833 -122.001 -77.5
c-48.667 -16.667 -98.334 -25 -149.001 -25c-6 0 -15.333 0.333008 -28 1z" />
    <glyph glyph-name="circumflex" unicode="&#x2c6;" 
d="M574 1434l250 -328l-62 -16l-245 240l-241 -240l-66 16l250 328h114z" />
    <glyph glyph-name="caron" unicode="&#x2c7;" 
d="M569 1090h-114l-250 328l66 16l241 -240l245 240l62 -16z" />
    <glyph glyph-name="macron" unicode="&#x2c9;" 
d="M254 1303h516v-96h-516v96z" />
    <glyph glyph-name="breve" unicode="&#x2d8;" 
d="M725 1406h56.999c-17.333 -93.333 -42.333 -160 -75 -200c-47.333 -58.667 -114.333 -88 -201 -88c-96 0 -165.667 34.333 -209 103c-27.333 42 -45.666 103.667 -54.999 185h57c11.333 -56 30.333 -99 57 -129c30.667 -34.667 80.667 -52 150 -52
c122.667 0 195.667 60.333 219 181z" />
    <glyph glyph-name="dotaccent" unicode="&#x2d9;" 
d="M514 1358c27.333 0 51 -10 71 -30s30 -44 30 -72c0 -28.667 -10 -53 -30 -73s-44 -30 -72 -30c-28.667 0 -53 10 -73 30s-30 44.333 -30 73c0 28 10 52 30 72s44.667 30 74 30z" />
    <glyph glyph-name="ring" unicode="&#x2da;" 
d="M517 1461c54 0 99.666 -18.668 136.999 -56.001s56 -82.666 56 -135.999c0 -54 -19.333 -100.333 -58 -139s-85 -58 -139 -58c-53.333 0 -98.666 19.333 -135.999 58c-37.333 38 -56 83.333 -56 136c0 56 18.667 102.333 56 139c37.333 37.333 84 56 140 56z
M512.999 1376c-29.333 0 -54.668 -10.667 -76.001 -32c-20.667 -20.667 -31 -46 -31 -76s10.333 -55.667 31 -77c20.667 -22.667 46.334 -34 77.001 -34s57 11 79 33c21.333 21.333 32 47.333 32 78s-11.333 56.667 -34 78c-21.333 20 -47.333 30 -78 30z" />
    <glyph glyph-name="ogonek" unicode="&#x2db;" 
d="M619 0c-30.667 -8.66699 -58.333 -24.3301 -83 -46.9971c-35.333 -32 -53 -68 -53 -108c0 -50.667 28 -90.334 84 -119.001c25.333 -12.667 59 -19.334 101 -20.001l-13 -48c-19.333 -0.666992 -36 -1 -50 -1c-70 0 -127.333 15.333 -172 46
c-50.667 34.667 -76 79 -76 133c0 43.333 16.667 81.666 50 114.999c14 14.667 40.667 31 80 49h132z" />
    <glyph glyph-name="tilde" unicode="&#x2dc;" 
d="M780 1348l45 -26.001c-62.667 -105.333 -119.334 -158 -170.001 -158c-19.333 0 -39.666 4.66699 -60.999 14l-65 28c-70 30.667 -116.333 46 -139 46c-34.667 0 -83.334 -30.333 -146.001 -91l-38 36c16 17.333 46.667 48 92 92c25.333 24.667 45.333 41.334 60 50.001
c13.333 8 30 12 50 12c18.667 0 39.667 -3.66699 63 -11c6.66699 -2 32.334 -12.667 77.001 -32c66 -28.667 109 -43 129 -43c36.667 0 71 27.667 103 83z" />
    <glyph glyph-name="hungarumlaut" unicode="&#x2dd;" 
d="M524 1433l149 -32l-291 -311l-57 11zM825 1433l148 -32l-290 -311l-58 11z" />
    <glyph glyph-name="pi" unicode="&#x3c0;" horiz-adv-x="1150" 
d="M818 781l-431 -0.000976562v-783h-128v775c-52.667 -2 -98.667 -12.333 -138 -31c-23.333 -11.333 -53.333 -30 -90 -56l-38 117c46 32.667 94.667 55.334 146 68.001c50 14 151 21 303 21h683v-111h-179v-783h-128v783z" />
    <glyph glyph-name="endash" unicode="&#x2013;" 
d="M143 532h737v-82h-737v82z" />
    <glyph glyph-name="emdash" unicode="&#x2014;" horiz-adv-x="1297" 
d="M0 532h1297v-82h-1297v82z" />
    <glyph glyph-name="quoteleft" unicode="&#x2018;" horiz-adv-x="519" 
d="M150 932l-0.000976562 219l188 283h88l-74 -191c-27.333 -68.667 -42.666 -123.667 -45.999 -165v-146h-156z" />
    <glyph glyph-name="quoteright" unicode="&#x2019;" horiz-adv-x="532" 
d="M376 1434v-219l-189 -283h-88l74 191c26.667 67.333 42 122.333 46 165v146h157z" />
    <glyph glyph-name="quotesinglbase" unicode="&#x201a;" horiz-adv-x="532" 
d="M376 208l0.000976562 -219l-189 -283h-88l74 191c27.333 67.333 42.666 122.333 45.999 165v146h157z" />
    <glyph glyph-name="quotedblleft" unicode="&#x201c;" horiz-adv-x="792" 
d="M423 932l-0.000976562 219l189 283h88l-74 -191c-27.333 -69.333 -42.666 -124.333 -45.999 -165v-146h-157zM149.999 932l-0.000976562 219l189 283h84l-70 -191c-27.333 -69.333 -42.666 -124.333 -45.999 -165v-146h-157z" />
    <glyph glyph-name="quotedblright" unicode="&#x201d;" horiz-adv-x="792" 
d="M368 1434l0.000976562 -219l-188 -283h-88l74 191c27.333 68 42.666 123 45.999 165v146h156zM642.001 1434l0.000976562 -219l-188 -283h-85l71 191c27.333 67.333 42.666 122.333 45.999 165v146h156z" />
    <glyph glyph-name="quotedblbase" unicode="&#x201e;" horiz-adv-x="792" 
d="M409 219l-0.000976562 -219l-215 -283h-102l108 191c30.667 58 48.334 113 53.001 165v146h156zM641.999 219l-0.000976562 -219l-215 -283h-102l108 191c30.667 58 48.334 113 53.001 165v146h156z" />
    <glyph glyph-name="dagger" unicode="&#x2020;" horiz-adv-x="1111" 
d="M635 1365l-28 -556l384 16v-144l-384 29l28 -978h-159l28 978l-384 -29v144l384 -16l-28 556h159z" />
    <glyph glyph-name="daggerdbl" unicode="&#x2021;" horiz-adv-x="1111" 
d="M636 1365l-28 -420l370 16v-144l-370 29v-595l370 29v-144l-370 16l28 -420h-159l28 420l-371 -16v144l371 -29v595l-371 -29v144l371 -16l-28 420h159z" />
    <glyph glyph-name="bullet" unicode="&#x2022;" horiz-adv-x="1365" 
d="M689 978c75.333 0 140.669 -27.667 196.002 -83c56 -55.333 84 -122.333 84 -201s-28 -145.667 -84 -201c-54.667 -55.333 -121.334 -83 -200.001 -83s-145.334 27.667 -200.001 83c-56 55.333 -84 122 -84 200c0 80.667 28 148 84 202c56.667 55.333 124.667 83 204 83z
" />
    <glyph glyph-name="ellipsis" unicode="&#x2026;" horiz-adv-x="1638" 
d="M274 191c29.333 0 54.667 -10.667 76 -32s32 -47 32 -77s-10.667 -55.667 -32 -77s-47 -32 -77 -32s-55.667 10.667 -77 32c-21.333 22 -32 47.667 -32 77c0 30 10.667 55.667 32 77s47.333 32 78 32zM820.001 191c29.333 0 54.667 -10.667 76 -32s32 -47 32 -77
s-10.667 -55.667 -32 -77s-47 -32 -77 -32s-55.667 10.667 -77 32c-21.333 22 -32 47.667 -32 77c0 30 10.667 55.667 32 77s47.333 32 78 32zM1366 191c29.333 0 54.667 -10.667 76 -32s32 -47 32 -77s-10.667 -55.667 -32 -77s-47 -32 -77 -32s-55.667 10.667 -77 32
c-21.333 22 -32 47.667 -32 77c0 30 10.667 55.667 32 77s47.333 32 78 32z" />
    <glyph glyph-name="perthousand" unicode="&#x2030;" horiz-adv-x="2237" 
d="M475 1373c93.333 0 164.333 -26.002 213 -78.002c54 -57.333 81 -140.666 81 -249.999c0 -108.667 -27 -191.667 -81 -249c-48.667 -52 -123 -78 -223 -78c-93.333 0 -164.333 26 -213 78c-54 57.333 -81 140 -81 248c0 110.667 27 194.334 81 251.001
c30.667 32 65.667 53.333 105 64c32.667 9.33301 72 14 118 14zM469 1294c-102 0 -152.999 -83.001 -152.999 -249.001c0 -69.333 8.33301 -124.333 25 -165c23.333 -55.333 67 -83 131 -83c63.333 0 106.666 27.667 129.999 83c16.667 40.667 25 95.334 25 164.001
c0 72 -8.33301 127.667 -25 167c-24 55.333 -68.333 83 -133 83zM1309 1437l-1070 -1649l-89 13l1074 1653zM1076 649.997c93.333 0 164.333 -26.002 213 -78.002c54 -57.333 81 -140.666 81 -249.999c0 -108.667 -27 -191.667 -81 -249c-48.667 -52 -123 -78 -223 -78
c-93.333 0 -164.333 26 -213 78c-54 57.333 -81 140 -81 248c0 110.667 27 194.334 81 251.001c30.667 32 65.667 53.667 105 65c32.667 8.66699 72 13 118 13zM1070 570.995c-102 0 -152.999 -83.001 -152.999 -249.001c0 -69.333 8.33301 -124.333 25 -165
c23.333 -55.333 67 -83 131 -83c63.333 0 106.666 27.667 129.999 83c16.667 40.667 25 95.334 25 164.001c0 71.333 -8.33301 127 -25 167c-24 55.333 -68.333 83 -133 83zM1772 649.994c93.333 0 164.333 -26.002 213 -78.002c54 -57.333 81 -140.666 81 -249.999
c0 -108.667 -27 -191.667 -81 -249c-48.667 -52 -123 -78 -223 -78c-93.333 0 -164.333 26 -213 78c-54 57.333 -81 140 -81 248c0 110.667 27 194.334 81 251.001c30.667 32 65.667 53.667 105 65c32.667 8.66699 72 13 118 13zM1766 570.992
c-102 0 -152.999 -83.001 -152.999 -249.001c0 -69.333 8.33301 -124.333 25 -165c23.333 -55.333 66.666 -83 129.999 -83c64 0 107.667 27.667 131 83c16.667 40.667 25 95.334 25 164.001c0 72 -8.33301 127.667 -25 167c-24 55.333 -68.333 83 -133 83z" />
    <glyph glyph-name="guilsinglleft" unicode="&#x2039;" horiz-adv-x="501" 
d="M399 0h-73l-237 456l237 445h63l-127 -445z" />
    <glyph glyph-name="guilsinglright" unicode="&#x203a;" horiz-adv-x="501" 
d="M102 901h73l237 -455l-237 -446h-62l126 446z" />
    <glyph glyph-name="franc" unicode="&#x20a3;" horiz-adv-x="1519" 
d="M355 754h444v-130h-444v-624h-164v1365h657v-130h-493v-481zM978 901h149.999v-132c38 49.333 71.667 84 101 104c47.333 32 97.333 48 150 48c38 0 71 -8 99 -24c18.667 -10.667 41.334 -28 68.001 -52l-73 -124c-31.333 36 -60 58.333 -86 67c-16 5.33301 -32 8 -48 8
c-42.667 0 -83 -17 -121 -51c-60 -54.667 -90 -127 -90 -217v-528h-150v901z" />
    <glyph glyph-name="trademark" unicode="&#x2122;" horiz-adv-x="1743" 
d="M367 1275v-729h-115v729h-245v90h610v-90h-250zM1572 1365v-819h-111v578l-280 -578h-81l-280 578v-578h-111v819h112l320 -661l319 661h112z" />
    <glyph glyph-name="Omega" unicode="&#x2126;" horiz-adv-x="1379" 
d="M75 120l316.002 -0.000976562c-54 34.667 -95 65.334 -123 92.001s-55.667 61.334 -83 104.001c-76 120.667 -114 257 -114 409c0 88.667 14 173.167 42 253.5s67.333 148.833 118 205.5c55.333 61.333 122.666 108.666 201.999 141.999s165 50 257 50
s177.667 -16.667 257 -50s146.666 -80.666 201.999 -141.999c50.667 -56.667 90 -125.167 118 -205.5s42 -164.833 42 -253.5c0 -178 -49.667 -331 -149 -459c-38 -48.667 -95 -97.334 -171 -146.001h316v-120h-539v112c102.667 29.333 181.334 74.666 236.001 135.999
c94.667 106 142 252.333 142 439c0 164.667 -34.333 298 -103 400c-38.667 56.667 -88.334 100.334 -149.001 131.001s-128 46 -202 46s-141.333 -15.333 -202 -46s-110.334 -74.334 -149.001 -131.001c-68.667 -102 -103 -235.333 -103 -400
c0 -186.667 47.333 -333 142 -439c54.667 -61.333 133.334 -106.666 236.001 -135.999v-112h-539v120z" />
    <glyph glyph-name="partialdiff" unicode="&#x2202;" horiz-adv-x="994" 
d="M47 1344l153.001 23.001c-12 -35.333 -18 -66.333 -18 -93c0 -70.667 28 -129 84 -175c33.333 -28 96 -64.667 188 -110c116.667 -58 193 -98 229 -120c92.667 -58.667 155.667 -122 189 -190c30 -61.333 45 -137 45 -227c0 -124.667 -29.333 -229.667 -88 -315
c-74.667 -108 -185.334 -162 -332.001 -162c-130 0 -232 44 -306 132c-70 84 -105 193.333 -105 328c0 156.667 47 275.667 141 357c53.333 46 122.333 72 207 78c-124 50.667 -212.333 93.667 -265 129c-86 58 -129 146.667 -129 266c0 23.333 2.33301 49.666 7 78.999z
M501.001 781.001c-87.333 0 -153.667 -30.001 -199 -90.001c-46 -60 -69 -142 -69 -246c0 -99.333 21.333 -181.333 64 -246c44 -66.667 111.333 -100 202 -100c100 0 172.333 38.333 217 115c36 62 54 139 54 231c0 100.667 -22 181.334 -66 242.001
c-46 62.667 -113.667 94 -203 94z" />
    <glyph glyph-name="Delta" unicode="&#x2206;" horiz-adv-x="1284" 
d="M29 0l595 1365h110l521 -1365h-1226zM168 118h900l-424 1113z" />
    <glyph glyph-name="product" unicode="&#x220f;" horiz-adv-x="1263" 
d="M134 1242h-97v123h1170v-123h-101v-1242h-150v1242h-672v-1242h-150v1242z" />
    <glyph glyph-name="summation" unicode="&#x2211;" horiz-adv-x="1021" 
d="M874 1242h-596l448 -519l-479 -591h727v-132h-928v143l487 580l-455 519v123h796v-123z" />
    <glyph glyph-name="minus" unicode="&#x2212;" horiz-adv-x="1065" 
d="M30 495h1005v-90h-1005v90z" />
    <glyph glyph-name="fraction" unicode="&#x2215;" horiz-adv-x="301" 
d="M650 1368l-898 -1388l-102 18l902 1388z" />
    <glyph glyph-name="periodcentered" unicode="&#x2219;" horiz-adv-x="486" 
d="M244 606c32.667 0 60.665 -11.668 83.998 -35.001s35 -51.666 35 -84.999s-11.667 -61.666 -35 -84.999s-51.666 -35 -84.999 -35s-61.666 11.667 -84.999 35c-23.333 24 -35 52.333 -35 85c0 33.333 11.667 61.666 35 84.999c24 23.333 52.667 35 86 35z" />
    <glyph glyph-name="radical" unicode="&#x221a;" horiz-adv-x="826" 
d="M18 680h226l184 -509l459 1263h342v-79h-273l-488 -1355h-106l-233 605h-111v75z" />
    <glyph glyph-name="infinity" unicode="&#x221e;" horiz-adv-x="1332" 
d="M671 511c45.333 64.667 84.3301 113.333 116.997 146c74 73.333 151.333 110 232 110c38.667 0 77.334 -9.33301 116.001 -28s70 -43 94 -73c40.667 -52 61 -118.667 61 -200c0 -100 -32.333 -183 -97 -249c-59.333 -61.333 -129.666 -92 -210.999 -92
c-64.667 0 -120 17.667 -166 53c-35.333 28 -94 91 -176 189c-43.333 -58.667 -78.333 -101 -105 -127c-70 -70 -144 -105 -222 -105c-77.333 0 -142.333 33.333 -195 100c-46 58 -69 127.333 -69 208c0 87.333 25.667 161.333 77 222c54.667 64 122.334 96 203.001 96
c46.667 0 88.5 -10.333 125.5 -31s78.833 -56.667 125.5 -108c22 -23.333 52 -60.333 90 -111zM597.997 422.999c-52.667 72.667 -95.002 124.331 -127.002 154.998c-62 59.333 -122.667 89 -182 89c-43.333 0 -80.666 -21.333 -111.999 -64
c-30.667 -41.333 -46 -93.666 -46 -156.999c0 -62 14 -113 42 -153c36 -50.667 84.333 -76 145 -76c67.333 0 133 34 197 102c10.667 10.667 27.334 30.334 50.001 59.001s33.667 43.667 33 45zM719.995 459.996c44 -62 81.667 -108 113 -138
c64.667 -62.667 128.334 -94 191.001 -94c56 0 102.667 27.667 140 83c29.333 44.667 44 96.667 44 156c0 56.667 -15.333 104.667 -46 144c-38.667 48 -85 72 -139 72c-68 0 -138 -37 -210 -111c-12 -12 -30.833 -33.333 -56.5 -64s-37.834 -46.667 -36.501 -48z" />
    <glyph glyph-name="integral" unicode="&#x222b;" horiz-adv-x="421" 
d="M521 1355l-18 -102.999c-14.667 4 -28 6 -40 6c-38.667 0 -74.667 -12.667 -108 -38c-37.333 -29.333 -60 -70.666 -68 -123.999c-6 -42 -9 -85 -9 -129v-977c0 -116.667 -20 -212.334 -60 -287.001c-44 -83.333 -115.667 -131 -215 -143c-20 -2.66699 -53 -4 -99 -4
l-3 96c18 -2.66699 33.333 -4 46 -4c82 0 139.333 34 172 102c23.333 49.333 35 124.666 35 225.999v968c0 75.333 3.33301 132 10 170c12.667 76 47.667 138.333 105 187c46 39.333 110.333 59 193 59c17.333 0 37 -1.66699 59 -5z" />
    <glyph glyph-name="approxequal" unicode="&#x2248;" horiz-adv-x="915" 
d="M45 486l-17.001 83c80 71.333 157.333 107 232 107c41.333 0 104.333 -17.667 189 -53c79.333 -32.667 140.333 -49 183 -49c64.667 0 135.334 36.667 212.001 110l16 -78c-76.667 -85.333 -161 -128 -253 -128c-46 0 -115 17.667 -207 53
c-68.667 24.667 -110.167 39.167 -124.5 43.5s-29.833 6.5 -46.5 6.5c-54.667 0 -116 -31.667 -184 -95zM63.999 211l-20.001 77.999c50.667 47.333 93.667 79.333 129 96c43.333 20 87.333 30 132 30c34.667 0 90.334 -13.667 167.001 -41c84 -30 141 -45 171 -45
c47.333 0 92 15.333 134 46c18 13.333 41.667 36 71 68l17 -84c-75.333 -88.667 -157.666 -133 -246.999 -133c-23.333 0 -55 6.33301 -95 19c-8.66699 2.66699 -35.334 11.334 -80.001 26.001c-84 28 -143.333 42 -178 42c-66 0 -133 -34 -201 -102z" />
    <glyph glyph-name="notequal" unicode="&#x2260;" horiz-adv-x="1106" 
d="M39 630h607l220 274l65 -61l-171 -213h307v-91h-381l-143 -182h524v-91h-596l-212 -269l-71 56l173 213h-322v91h396l143 182h-539v91z" />
    <glyph glyph-name="lessequal" unicode="&#x2264;" horiz-adv-x="1092" 
d="M991 949l55 -71l-852 -334l838 -343l-61 -72l-936 379v74zM35 89h1022v-89h-1022v89z" />
    <glyph glyph-name="greaterequal" unicode="&#x2265;" horiz-adv-x="1092" 
d="M1057 582v-74l-936 -379l-61 72l838 343l-852 334l55 71zM1057 89v-89h-1022v89h1022z" />
    <glyph glyph-name="lozenge" unicode="&#x25ca;" horiz-adv-x="1365" 
d="M683 1419l532 -736l-532 -736l-532 736zM683 1237l-404 -554l404 -555l403 555z" />
    <glyph glyph-name="apple" unicode="&#xf000;" horiz-adv-x="1365" 
d="M983 1416c0 -93.333 -25.668 -172.333 -77.001 -237c-61.333 -76 -137 -115.333 -227 -118c2 98 29.667 177.667 83 239c60.667 69.333 134.334 108 221.001 116zM1276 935c-42 -32 -73.333 -60.668 -94 -86.001c-47.333 -58.667 -71 -125 -71 -199
c0 -96.667 35.667 -177.667 107 -243c26 -24 58.333 -44.667 97 -62c-44 -107.333 -90.667 -193 -140 -257c-72.667 -95.333 -140.667 -143 -204 -143c-33.333 0 -77.333 12.667 -132 38c-32.667 15.333 -68 23 -106 23c-48.667 0 -88.667 -5.66699 -120 -17l-58 -24
c-34 -14.667 -65.333 -22 -94 -22c-34.667 0 -71.834 14.833 -111.501 44.5s-76.834 70.5 -111.501 122.5c-114.667 170 -172 345.333 -172 526c0 62.667 10.833 123.334 32.5 182.001s51.5 109 89.5 151c66 72 152.333 108 259 108c43.333 0 101 -13.667 173 -41
c37.333 -14 66 -21 86 -21s59.667 11 119 33c60.667 22 112.334 33 155.001 33c126.667 0 225.334 -48.667 296.001 -146z" />
    <glyph glyph-name="fi" unicode="&#xf001;" horiz-adv-x="1006" 
d="M305 901l253.001 0.000976562v-130h-253v-771h-150v771h-121v130h121v138c0 128 29 226 87 294c57.333 67.333 134.666 101 231.999 101c30 0 69.333 -4 118 -12v-156c-34.667 22.667 -67.667 34 -99 34c-69.333 0 -120.333 -31.667 -153 -95
c-23.333 -44.667 -35 -102.334 -35 -173.001v-131zM848.001 901.001v-901h-150v901h150zM769.001 1358c27.333 0 51 -10 71 -30s30 -44 30 -72c0 -28.667 -10 -53 -30 -73s-44.333 -30 -73 -30c-28 0 -52 10 -72 30s-30 44.333 -30 73c0 28 10 52 30 72s44.667 30 74 30z
" />
    <glyph glyph-name="fl" unicode="&#xf002;" horiz-adv-x="1006" 
d="M305 901l253.001 0.000976562v-130h-253v-771h-150v771h-121v130h121v138c0 128 29 226 87 294c57.333 67.333 134.666 101 231.999 101c30 0 69.333 -4 118 -12v-156c-34.667 22.667 -67.667 34 -99 34c-69.333 0 -120.333 -31.667 -153 -95
c-23.333 -44.667 -35 -102.334 -35 -173.001v-131zM848.001 1434v-1434h-150v1434h150z" />
    <glyph glyph-name="glyph1" horiz-adv-x="0" 
 />
    <glyph glyph-name="glyph2" horiz-adv-x="512" 
 />
    <glyph glyph-name="glyph172" horiz-adv-x="1111" 
 />
    <glyph glyph-name="glyph262" 
d="M309 1736c30.667 0 57 -11 79 -33s33 -48.667 33 -80s-11 -58.333 -33 -81c-22 -22 -48.667 -33 -80 -33c-32 0 -59 11 -81 33c-22 22.667 -33 49.667 -33 81s11 58 33 80c22.667 22 50 33 82 33zM719 1736c30.667 0 57 -11 79 -33s33 -48.667 33 -80
s-11 -58.333 -33 -81c-22 -22 -48.667 -33 -80 -33c-32 0 -59 11 -81 33c-22 22.667 -33 49.667 -33 81s11 58 33 80c22.667 22 50 33 82 33z" />
    <glyph glyph-name="glyph263" 
d="M513 1736c30.667 0 57 -11 79 -33s33 -48.667 33 -80s-11 -58.333 -33 -81c-22 -22 -48.667 -33 -80 -33c-32 0 -59 11 -81 33c-22 22.667 -33 49.667 -33 81s11 58 33 80c22.667 22 50 33 82 33z" />
    <glyph glyph-name="glyph264" 
d="M495 -27c60 -43.333 90 -93.6689 90 -151.002c0 -74 -50.667 -142.667 -152 -206l-76 34c70.667 34.667 106 75.334 106 122.001c0 40.667 -27.667 76.334 -83 107.001z" />
    <glyph glyph-name="glyph265" 
d="M575 1799l270 -325l-62 -13l-265 237l-262 -237l-66 13l270 325h115z" />
    <glyph glyph-name="glyph266" 
d="M738 1768h56.999c-8 -73.333 -32 -137.333 -72 -192c-50 -68.667 -122 -103 -216 -103c-170 0 -263 98.333 -279 295h57c32 -124.667 104.667 -187 218 -187c84.667 0 147.334 27.667 188.001 83c25.333 34 41 68.667 47 104z" />
    <glyph glyph-name="glyph267" 
d="M793 1710l44.999 -25.999c-18 -36.667 -39.667 -67.667 -65 -93c-43.333 -44 -82 -66 -116 -66c-18.667 0 -61.334 14.333 -128.001 43c-42.667 17.333 -68.667 27.666 -78 30.999c-28 10.667 -52.333 16 -73 16c-30 0 -60.667 -12 -92 -36
c-17.333 -12.667 -38.333 -31 -63 -55l-38 35c54.667 58.667 98.334 100 131.001 124c26.667 20 55.667 30 87 30c20.667 0 43 -4 67 -12c6.66699 -2 32.334 -12.333 77.001 -31c66 -28 112.667 -42 140 -42c26 0 49.333 10.667 70 32c8.66699 9.33301 20.667 26 36 50z" />
    <glyph glyph-name="glyph268" 
d="M356 1736c30.667 0 57 -11 79 -33s33 -48.667 33 -80s-11 -58.333 -33 -81c-22 -22 -48.667 -33 -80 -33c-32 0 -59 11 -81 33c-22 22.667 -33 49.667 -33 81s11 58 33 80c22.667 22 50 33 82 33zM670 1736c30.667 0 57 -11 79 -33s33 -48.667 33 -80
s-11 -58.333 -33 -81c-22 -22 -49 -33 -81 -33c-31.333 0 -58 11 -80 33c-22 22.667 -33 49.667 -33 81s11 58 33 80c22.667 22 50 33 82 33z" />
    <glyph glyph-name="glyph269" 
d="M370 1358c27.333 0 51 -10 71 -30s30 -44 30 -72c0 -28.667 -10 -53 -30 -73s-44 -30 -72 -30c-28.667 0 -53 10 -73 30s-30 44.333 -30 73c0 28 10 52 30 72s44.667 30 74 30zM657 1358c27.333 0 51 -10 71 -30s30 -44 30 -72c0 -28.667 -10 -53 -30 -73
s-44 -30 -72 -30c-28.667 0 -53 10 -73 30s-30 44.333 -30 73c0 28 10 52 30 72s44.667 30 74 30z" />
    <glyph glyph-name="glyph270" 
d="M681 1801l162 -31l-372 -312l-71 12z" />
    <glyph glyph-name="glyph271" 
d="M343 1801l281 -331l-71 -12l-372 312z" />
    <glyph glyph-name="glyph272" 
d="M575 1461h-115l-270 325l66 13l262 -237l265 237l62 -13z" />
    <glyph glyph-name="glyph273" horiz-adv-x="512" 
 />
    </font>
</defs>
</svg>
